G04 #@! TF.GenerationSoftware,KiCad,Pcbnew,8.0.4*
G04 #@! TF.CreationDate,2024-08-04T16:07:20+05:30*
G04 #@! TF.ProjectId,SofleKeyboard,536f666c-654b-4657-9962-6f6172642e6b,rev?*
G04 #@! TF.SameCoordinates,Original*
G04 #@! TF.FileFunction,Legend,Bot*
G04 #@! TF.FilePolarity,Positive*
%FSLAX46Y46*%
G04 Gerber Fmt 4.6, Leading zero omitted, Abs format (unit mm)*
G04 Created by KiCad (PCBNEW 8.0.4) date 2024-08-04 16:07:20*
%MOMM*%
%LPD*%
G01*
G04 APERTURE LIST*
G04 Aperture macros list*
%AMRoundRect*
0 Rectangle with rounded corners*
0 $1 Rounding radius*
0 $2 $3 $4 $5 $6 $7 $8 $9 X,Y pos of 4 corners*
0 Add a 4 corners polygon primitive as box body*
4,1,4,$2,$3,$4,$5,$6,$7,$8,$9,$2,$3,0*
0 Add four circle primitives for the rounded corners*
1,1,$1+$1,$2,$3*
1,1,$1+$1,$4,$5*
1,1,$1+$1,$6,$7*
1,1,$1+$1,$8,$9*
0 Add four rect primitives between the rounded corners*
20,1,$1+$1,$2,$3,$4,$5,0*
20,1,$1+$1,$4,$5,$6,$7,0*
20,1,$1+$1,$6,$7,$8,$9,0*
20,1,$1+$1,$8,$9,$2,$3,0*%
G04 Aperture macros list end*
%ADD10C,0.150000*%
%ADD11C,0.200000*%
%ADD12C,0.300000*%
%ADD13C,0.800000*%
%ADD14C,3.000000*%
%ADD15C,0.400000*%
%ADD16C,1.000000*%
%ADD17C,0.500000*%
%ADD18C,3.500000*%
%ADD19C,0.120000*%
%ADD20C,1.524000*%
%ADD21C,0.010000*%
%ADD22RoundRect,0.200000X-1.000000X-0.500000X1.000000X-0.500000X1.000000X0.500000X-1.000000X0.500000X0*%
%ADD23RoundRect,0.200000X1.000000X0.500000X-1.000000X0.500000X-1.000000X-0.500000X1.000000X-0.500000X0*%
%ADD24RoundRect,0.200000X-0.762000X0.762000X-0.762000X-0.762000X0.762000X-0.762000X0.762000X0.762000X0*%
%ADD25RoundRect,0.200000X0.762000X0.762000X-0.762000X0.762000X-0.762000X-0.762000X0.762000X-0.762000X0*%
%ADD26C,1.924000*%
%ADD27RoundRect,0.200000X0.762000X-0.762000X0.762000X0.762000X-0.762000X0.762000X-0.762000X-0.762000X0*%
%ADD28RoundRect,0.200000X0.800000X0.500000X-0.800000X0.500000X-0.800000X-0.500000X0.800000X-0.500000X0*%
%ADD29C,3.400000*%
%ADD30C,4.500000*%
%ADD31RoundRect,0.200000X-1.150000X-1.000000X1.150000X-1.000000X1.150000X1.000000X-1.150000X1.000000X0*%
%ADD32C,2.100000*%
%ADD33C,2.300000*%
%ADD34RoundRect,0.200000X-0.650000X-0.475000X0.650000X-0.475000X0.650000X0.475000X-0.650000X0.475000X0*%
%ADD35RoundRect,0.200000X-0.475000X0.650000X-0.475000X-0.650000X0.475000X-0.650000X0.475000X0.650000X0*%
%ADD36RoundRect,0.200000X-0.851996X-1.263568X1.369634X-0.668284X0.851996X1.263568X-1.369634X0.668284X0*%
%ADD37RoundRect,0.200000X0.643331X0.690018X-0.902150X0.275908X-0.643331X-0.690018X0.902150X-0.275908X0*%
%ADD38RoundRect,0.200000X-1.441025X0.495929X-0.291025X-1.495929X1.441025X-0.495929X0.291025X1.495929X0*%
%ADD39RoundRect,0.200000X0.833013X-0.442820X0.033013X0.942820X-0.833013X0.442820X-0.033013X-0.942820X0*%
%ADD40C,4.400000*%
%ADD41C,1.797000*%
%ADD42C,2.400000*%
%ADD43RoundRect,0.200000X0.571500X-0.317500X0.571500X0.317500X-0.571500X0.317500X-0.571500X-0.317500X0*%
%ADD44C,5.100000*%
%ADD45RoundRect,0.200000X-1.600000X-1.000000X1.600000X-1.000000X1.600000X1.000000X-1.600000X1.000000X0*%
%ADD46C,1.600000*%
%ADD47O,2.900000X2.100000*%
G04 APERTURE END LIST*
D10*
X188772295Y-96989048D02*
X188772295Y-96950953D01*
X188772295Y-96950953D02*
X188734200Y-96874762D01*
X188734200Y-96874762D02*
X188619914Y-96760476D01*
X188619914Y-96760476D02*
X188391342Y-96570000D01*
X188391342Y-96570000D02*
X188277057Y-96493810D01*
X188277057Y-96493810D02*
X188162771Y-96455714D01*
X188162771Y-96455714D02*
X188086580Y-96455714D01*
X188086580Y-96455714D02*
X188010390Y-96493810D01*
X188010390Y-96493810D02*
X187972295Y-96570000D01*
X187972295Y-96570000D02*
X187972295Y-96608095D01*
X187972295Y-96608095D02*
X188010390Y-96684286D01*
X188010390Y-96684286D02*
X188086580Y-96722381D01*
X188086580Y-96722381D02*
X188124676Y-96722381D01*
X188124676Y-96722381D02*
X188200866Y-96684286D01*
X188200866Y-96684286D02*
X188238961Y-96646191D01*
X188238961Y-96646191D02*
X188391342Y-96417619D01*
X188391342Y-96417619D02*
X188429438Y-96379524D01*
X188429438Y-96379524D02*
X188505628Y-96341429D01*
X188505628Y-96341429D02*
X188619914Y-96341429D01*
X188619914Y-96341429D02*
X188696104Y-96379524D01*
X188696104Y-96379524D02*
X188734200Y-96417619D01*
X188734200Y-96417619D02*
X188772295Y-96493810D01*
X188772295Y-96493810D02*
X188772295Y-96608095D01*
X188772295Y-96608095D02*
X188734200Y-96684286D01*
X188734200Y-96684286D02*
X188696104Y-96722381D01*
X188696104Y-96722381D02*
X188543723Y-96836667D01*
X188543723Y-96836667D02*
X188429438Y-96874762D01*
X188429438Y-96874762D02*
X188353247Y-96874762D01*
X188353247Y-97598571D02*
X188391342Y-97712857D01*
X188391342Y-97712857D02*
X188429438Y-97750952D01*
X188429438Y-97750952D02*
X188505628Y-97789048D01*
X188505628Y-97789048D02*
X188619914Y-97789048D01*
X188619914Y-97789048D02*
X188696104Y-97750952D01*
X188696104Y-97750952D02*
X188734200Y-97712857D01*
X188734200Y-97712857D02*
X188772295Y-97636667D01*
X188772295Y-97636667D02*
X188772295Y-97331905D01*
X188772295Y-97331905D02*
X187972295Y-97331905D01*
X187972295Y-97331905D02*
X187972295Y-97598571D01*
X187972295Y-97598571D02*
X188010390Y-97674762D01*
X188010390Y-97674762D02*
X188048485Y-97712857D01*
X188048485Y-97712857D02*
X188124676Y-97750952D01*
X188124676Y-97750952D02*
X188200866Y-97750952D01*
X188200866Y-97750952D02*
X188277057Y-97712857D01*
X188277057Y-97712857D02*
X188315152Y-97674762D01*
X188315152Y-97674762D02*
X188353247Y-97598571D01*
X188353247Y-97598571D02*
X188353247Y-97331905D01*
X188772295Y-98512857D02*
X188772295Y-98131905D01*
X188772295Y-98131905D02*
X187972295Y-98131905D01*
X174632486Y-132856919D02*
X174632486Y-131856919D01*
X174203915Y-132856919D02*
X174203915Y-132333109D01*
X174203915Y-132333109D02*
X174251534Y-132237871D01*
X174251534Y-132237871D02*
X174346772Y-132190252D01*
X174346772Y-132190252D02*
X174489629Y-132190252D01*
X174489629Y-132190252D02*
X174584867Y-132237871D01*
X174584867Y-132237871D02*
X174632486Y-132285490D01*
X173870581Y-132190252D02*
X173489629Y-132190252D01*
X173727724Y-131856919D02*
X173727724Y-132714061D01*
X173727724Y-132714061D02*
X173680105Y-132809300D01*
X173680105Y-132809300D02*
X173584867Y-132856919D01*
X173584867Y-132856919D02*
X173489629Y-132856919D01*
X173299152Y-132190252D02*
X172918200Y-132190252D01*
X173156295Y-131856919D02*
X173156295Y-132714061D01*
X173156295Y-132714061D02*
X173108676Y-132809300D01*
X173108676Y-132809300D02*
X173013438Y-132856919D01*
X173013438Y-132856919D02*
X172918200Y-132856919D01*
X172584866Y-132190252D02*
X172584866Y-133190252D01*
X172584866Y-132237871D02*
X172489628Y-132190252D01*
X172489628Y-132190252D02*
X172299152Y-132190252D01*
X172299152Y-132190252D02*
X172203914Y-132237871D01*
X172203914Y-132237871D02*
X172156295Y-132285490D01*
X172156295Y-132285490D02*
X172108676Y-132380728D01*
X172108676Y-132380728D02*
X172108676Y-132666442D01*
X172108676Y-132666442D02*
X172156295Y-132761680D01*
X172156295Y-132761680D02*
X172203914Y-132809300D01*
X172203914Y-132809300D02*
X172299152Y-132856919D01*
X172299152Y-132856919D02*
X172489628Y-132856919D01*
X172489628Y-132856919D02*
X172584866Y-132809300D01*
X171727723Y-132809300D02*
X171632485Y-132856919D01*
X171632485Y-132856919D02*
X171442009Y-132856919D01*
X171442009Y-132856919D02*
X171346771Y-132809300D01*
X171346771Y-132809300D02*
X171299152Y-132714061D01*
X171299152Y-132714061D02*
X171299152Y-132666442D01*
X171299152Y-132666442D02*
X171346771Y-132571204D01*
X171346771Y-132571204D02*
X171442009Y-132523585D01*
X171442009Y-132523585D02*
X171584866Y-132523585D01*
X171584866Y-132523585D02*
X171680104Y-132475966D01*
X171680104Y-132475966D02*
X171727723Y-132380728D01*
X171727723Y-132380728D02*
X171727723Y-132333109D01*
X171727723Y-132333109D02*
X171680104Y-132237871D01*
X171680104Y-132237871D02*
X171584866Y-132190252D01*
X171584866Y-132190252D02*
X171442009Y-132190252D01*
X171442009Y-132190252D02*
X171346771Y-132237871D01*
X170870580Y-132761680D02*
X170822961Y-132809300D01*
X170822961Y-132809300D02*
X170870580Y-132856919D01*
X170870580Y-132856919D02*
X170918199Y-132809300D01*
X170918199Y-132809300D02*
X170870580Y-132761680D01*
X170870580Y-132761680D02*
X170870580Y-132856919D01*
X170870580Y-132237871D02*
X170822961Y-132285490D01*
X170822961Y-132285490D02*
X170870580Y-132333109D01*
X170870580Y-132333109D02*
X170918199Y-132285490D01*
X170918199Y-132285490D02*
X170870580Y-132237871D01*
X170870580Y-132237871D02*
X170870580Y-132333109D01*
X169680105Y-131809300D02*
X170537247Y-133095014D01*
X168632486Y-131809300D02*
X169489628Y-133095014D01*
X168299152Y-132190252D02*
X168299152Y-133047395D01*
X168299152Y-133047395D02*
X168346771Y-133142633D01*
X168346771Y-133142633D02*
X168442009Y-133190252D01*
X168442009Y-133190252D02*
X168489628Y-133190252D01*
X168299152Y-131856919D02*
X168346771Y-131904538D01*
X168346771Y-131904538D02*
X168299152Y-131952157D01*
X168299152Y-131952157D02*
X168251533Y-131904538D01*
X168251533Y-131904538D02*
X168299152Y-131856919D01*
X168299152Y-131856919D02*
X168299152Y-131952157D01*
X167680105Y-132856919D02*
X167775343Y-132809300D01*
X167775343Y-132809300D02*
X167822962Y-132761680D01*
X167822962Y-132761680D02*
X167870581Y-132666442D01*
X167870581Y-132666442D02*
X167870581Y-132380728D01*
X167870581Y-132380728D02*
X167822962Y-132285490D01*
X167822962Y-132285490D02*
X167775343Y-132237871D01*
X167775343Y-132237871D02*
X167680105Y-132190252D01*
X167680105Y-132190252D02*
X167537248Y-132190252D01*
X167537248Y-132190252D02*
X167442010Y-132237871D01*
X167442010Y-132237871D02*
X167394391Y-132285490D01*
X167394391Y-132285490D02*
X167346772Y-132380728D01*
X167346772Y-132380728D02*
X167346772Y-132666442D01*
X167346772Y-132666442D02*
X167394391Y-132761680D01*
X167394391Y-132761680D02*
X167442010Y-132809300D01*
X167442010Y-132809300D02*
X167537248Y-132856919D01*
X167537248Y-132856919D02*
X167680105Y-132856919D01*
X166965819Y-132809300D02*
X166870581Y-132856919D01*
X166870581Y-132856919D02*
X166680105Y-132856919D01*
X166680105Y-132856919D02*
X166584867Y-132809300D01*
X166584867Y-132809300D02*
X166537248Y-132714061D01*
X166537248Y-132714061D02*
X166537248Y-132666442D01*
X166537248Y-132666442D02*
X166584867Y-132571204D01*
X166584867Y-132571204D02*
X166680105Y-132523585D01*
X166680105Y-132523585D02*
X166822962Y-132523585D01*
X166822962Y-132523585D02*
X166918200Y-132475966D01*
X166918200Y-132475966D02*
X166965819Y-132380728D01*
X166965819Y-132380728D02*
X166965819Y-132333109D01*
X166965819Y-132333109D02*
X166918200Y-132237871D01*
X166918200Y-132237871D02*
X166822962Y-132190252D01*
X166822962Y-132190252D02*
X166680105Y-132190252D01*
X166680105Y-132190252D02*
X166584867Y-132237871D01*
X165727724Y-132809300D02*
X165822962Y-132856919D01*
X165822962Y-132856919D02*
X166013438Y-132856919D01*
X166013438Y-132856919D02*
X166108676Y-132809300D01*
X166108676Y-132809300D02*
X166156295Y-132714061D01*
X166156295Y-132714061D02*
X166156295Y-132333109D01*
X166156295Y-132333109D02*
X166108676Y-132237871D01*
X166108676Y-132237871D02*
X166013438Y-132190252D01*
X166013438Y-132190252D02*
X165822962Y-132190252D01*
X165822962Y-132190252D02*
X165727724Y-132237871D01*
X165727724Y-132237871D02*
X165680105Y-132333109D01*
X165680105Y-132333109D02*
X165680105Y-132428347D01*
X165680105Y-132428347D02*
X166156295Y-132523585D01*
X165394390Y-132190252D02*
X165013438Y-132190252D01*
X165251533Y-132856919D02*
X165251533Y-131999776D01*
X165251533Y-131999776D02*
X165203914Y-131904538D01*
X165203914Y-131904538D02*
X165108676Y-131856919D01*
X165108676Y-131856919D02*
X165013438Y-131856919D01*
X164251533Y-132856919D02*
X164251533Y-132333109D01*
X164251533Y-132333109D02*
X164299152Y-132237871D01*
X164299152Y-132237871D02*
X164394390Y-132190252D01*
X164394390Y-132190252D02*
X164584866Y-132190252D01*
X164584866Y-132190252D02*
X164680104Y-132237871D01*
X164251533Y-132809300D02*
X164346771Y-132856919D01*
X164346771Y-132856919D02*
X164584866Y-132856919D01*
X164584866Y-132856919D02*
X164680104Y-132809300D01*
X164680104Y-132809300D02*
X164727723Y-132714061D01*
X164727723Y-132714061D02*
X164727723Y-132618823D01*
X164727723Y-132618823D02*
X164680104Y-132523585D01*
X164680104Y-132523585D02*
X164584866Y-132475966D01*
X164584866Y-132475966D02*
X164346771Y-132475966D01*
X164346771Y-132475966D02*
X164251533Y-132428347D01*
X163346771Y-132856919D02*
X163346771Y-131856919D01*
X163346771Y-132809300D02*
X163442009Y-132856919D01*
X163442009Y-132856919D02*
X163632485Y-132856919D01*
X163632485Y-132856919D02*
X163727723Y-132809300D01*
X163727723Y-132809300D02*
X163775342Y-132761680D01*
X163775342Y-132761680D02*
X163822961Y-132666442D01*
X163822961Y-132666442D02*
X163822961Y-132380728D01*
X163822961Y-132380728D02*
X163775342Y-132285490D01*
X163775342Y-132285490D02*
X163727723Y-132237871D01*
X163727723Y-132237871D02*
X163632485Y-132190252D01*
X163632485Y-132190252D02*
X163442009Y-132190252D01*
X163442009Y-132190252D02*
X163346771Y-132237871D01*
X162442009Y-132856919D02*
X162442009Y-132333109D01*
X162442009Y-132333109D02*
X162489628Y-132237871D01*
X162489628Y-132237871D02*
X162584866Y-132190252D01*
X162584866Y-132190252D02*
X162775342Y-132190252D01*
X162775342Y-132190252D02*
X162870580Y-132237871D01*
X162442009Y-132809300D02*
X162537247Y-132856919D01*
X162537247Y-132856919D02*
X162775342Y-132856919D01*
X162775342Y-132856919D02*
X162870580Y-132809300D01*
X162870580Y-132809300D02*
X162918199Y-132714061D01*
X162918199Y-132714061D02*
X162918199Y-132618823D01*
X162918199Y-132618823D02*
X162870580Y-132523585D01*
X162870580Y-132523585D02*
X162775342Y-132475966D01*
X162775342Y-132475966D02*
X162537247Y-132475966D01*
X162537247Y-132475966D02*
X162442009Y-132428347D01*
X161965818Y-132856919D02*
X161965818Y-132190252D01*
X161965818Y-132285490D02*
X161918199Y-132237871D01*
X161918199Y-132237871D02*
X161822961Y-132190252D01*
X161822961Y-132190252D02*
X161680104Y-132190252D01*
X161680104Y-132190252D02*
X161584866Y-132237871D01*
X161584866Y-132237871D02*
X161537247Y-132333109D01*
X161537247Y-132333109D02*
X161537247Y-132856919D01*
X161537247Y-132333109D02*
X161489628Y-132237871D01*
X161489628Y-132237871D02*
X161394390Y-132190252D01*
X161394390Y-132190252D02*
X161251533Y-132190252D01*
X161251533Y-132190252D02*
X161156294Y-132237871D01*
X161156294Y-132237871D02*
X161108675Y-132333109D01*
X161108675Y-132333109D02*
X161108675Y-132856919D01*
X160203914Y-132809300D02*
X160299152Y-132856919D01*
X160299152Y-132856919D02*
X160489628Y-132856919D01*
X160489628Y-132856919D02*
X160584866Y-132809300D01*
X160584866Y-132809300D02*
X160632485Y-132761680D01*
X160632485Y-132761680D02*
X160680104Y-132666442D01*
X160680104Y-132666442D02*
X160680104Y-132380728D01*
X160680104Y-132380728D02*
X160632485Y-132285490D01*
X160632485Y-132285490D02*
X160584866Y-132237871D01*
X160584866Y-132237871D02*
X160489628Y-132190252D01*
X160489628Y-132190252D02*
X160299152Y-132190252D01*
X160299152Y-132190252D02*
X160203914Y-132237871D01*
X159775342Y-132856919D02*
X159775342Y-132190252D01*
X159775342Y-131856919D02*
X159822961Y-131904538D01*
X159822961Y-131904538D02*
X159775342Y-131952157D01*
X159775342Y-131952157D02*
X159727723Y-131904538D01*
X159727723Y-131904538D02*
X159775342Y-131856919D01*
X159775342Y-131856919D02*
X159775342Y-131952157D01*
X159299152Y-132856919D02*
X159299152Y-131856919D01*
X159203914Y-132475966D02*
X158918200Y-132856919D01*
X158918200Y-132190252D02*
X159299152Y-132571204D01*
X158489628Y-132761680D02*
X158442009Y-132809300D01*
X158442009Y-132809300D02*
X158489628Y-132856919D01*
X158489628Y-132856919D02*
X158537247Y-132809300D01*
X158537247Y-132809300D02*
X158489628Y-132761680D01*
X158489628Y-132761680D02*
X158489628Y-132856919D01*
X157584867Y-132190252D02*
X157584867Y-132999776D01*
X157584867Y-132999776D02*
X157632486Y-133095014D01*
X157632486Y-133095014D02*
X157680105Y-133142633D01*
X157680105Y-133142633D02*
X157775343Y-133190252D01*
X157775343Y-133190252D02*
X157918200Y-133190252D01*
X157918200Y-133190252D02*
X158013438Y-133142633D01*
X157584867Y-132809300D02*
X157680105Y-132856919D01*
X157680105Y-132856919D02*
X157870581Y-132856919D01*
X157870581Y-132856919D02*
X157965819Y-132809300D01*
X157965819Y-132809300D02*
X158013438Y-132761680D01*
X158013438Y-132761680D02*
X158061057Y-132666442D01*
X158061057Y-132666442D02*
X158061057Y-132380728D01*
X158061057Y-132380728D02*
X158013438Y-132285490D01*
X158013438Y-132285490D02*
X157965819Y-132237871D01*
X157965819Y-132237871D02*
X157870581Y-132190252D01*
X157870581Y-132190252D02*
X157680105Y-132190252D01*
X157680105Y-132190252D02*
X157584867Y-132237871D01*
X157108676Y-132856919D02*
X157108676Y-132190252D01*
X157108676Y-131856919D02*
X157156295Y-131904538D01*
X157156295Y-131904538D02*
X157108676Y-131952157D01*
X157108676Y-131952157D02*
X157061057Y-131904538D01*
X157061057Y-131904538D02*
X157108676Y-131856919D01*
X157108676Y-131856919D02*
X157108676Y-131952157D01*
X156775343Y-132190252D02*
X156394391Y-132190252D01*
X156632486Y-131856919D02*
X156632486Y-132714061D01*
X156632486Y-132714061D02*
X156584867Y-132809300D01*
X156584867Y-132809300D02*
X156489629Y-132856919D01*
X156489629Y-132856919D02*
X156394391Y-132856919D01*
X156061057Y-132856919D02*
X156061057Y-131856919D01*
X155632486Y-132856919D02*
X155632486Y-132333109D01*
X155632486Y-132333109D02*
X155680105Y-132237871D01*
X155680105Y-132237871D02*
X155775343Y-132190252D01*
X155775343Y-132190252D02*
X155918200Y-132190252D01*
X155918200Y-132190252D02*
X156013438Y-132237871D01*
X156013438Y-132237871D02*
X156061057Y-132285490D01*
X154727724Y-132190252D02*
X154727724Y-132856919D01*
X155156295Y-132190252D02*
X155156295Y-132714061D01*
X155156295Y-132714061D02*
X155108676Y-132809300D01*
X155108676Y-132809300D02*
X155013438Y-132856919D01*
X155013438Y-132856919D02*
X154870581Y-132856919D01*
X154870581Y-132856919D02*
X154775343Y-132809300D01*
X154775343Y-132809300D02*
X154727724Y-132761680D01*
X154251533Y-132856919D02*
X154251533Y-131856919D01*
X154251533Y-132237871D02*
X154156295Y-132190252D01*
X154156295Y-132190252D02*
X153965819Y-132190252D01*
X153965819Y-132190252D02*
X153870581Y-132237871D01*
X153870581Y-132237871D02*
X153822962Y-132285490D01*
X153822962Y-132285490D02*
X153775343Y-132380728D01*
X153775343Y-132380728D02*
X153775343Y-132666442D01*
X153775343Y-132666442D02*
X153822962Y-132761680D01*
X153822962Y-132761680D02*
X153870581Y-132809300D01*
X153870581Y-132809300D02*
X153965819Y-132856919D01*
X153965819Y-132856919D02*
X154156295Y-132856919D01*
X154156295Y-132856919D02*
X154251533Y-132809300D01*
X153346771Y-132761680D02*
X153299152Y-132809300D01*
X153299152Y-132809300D02*
X153346771Y-132856919D01*
X153346771Y-132856919D02*
X153394390Y-132809300D01*
X153394390Y-132809300D02*
X153346771Y-132761680D01*
X153346771Y-132761680D02*
X153346771Y-132856919D01*
X152870581Y-132856919D02*
X152870581Y-132190252D01*
X152870581Y-131856919D02*
X152918200Y-131904538D01*
X152918200Y-131904538D02*
X152870581Y-131952157D01*
X152870581Y-131952157D02*
X152822962Y-131904538D01*
X152822962Y-131904538D02*
X152870581Y-131856919D01*
X152870581Y-131856919D02*
X152870581Y-131952157D01*
X152251534Y-132856919D02*
X152346772Y-132809300D01*
X152346772Y-132809300D02*
X152394391Y-132761680D01*
X152394391Y-132761680D02*
X152442010Y-132666442D01*
X152442010Y-132666442D02*
X152442010Y-132380728D01*
X152442010Y-132380728D02*
X152394391Y-132285490D01*
X152394391Y-132285490D02*
X152346772Y-132237871D01*
X152346772Y-132237871D02*
X152251534Y-132190252D01*
X152251534Y-132190252D02*
X152108677Y-132190252D01*
X152108677Y-132190252D02*
X152013439Y-132237871D01*
X152013439Y-132237871D02*
X151965820Y-132285490D01*
X151965820Y-132285490D02*
X151918201Y-132380728D01*
X151918201Y-132380728D02*
X151918201Y-132666442D01*
X151918201Y-132666442D02*
X151965820Y-132761680D01*
X151965820Y-132761680D02*
X152013439Y-132809300D01*
X152013439Y-132809300D02*
X152108677Y-132856919D01*
X152108677Y-132856919D02*
X152251534Y-132856919D01*
X150775344Y-131809300D02*
X151632486Y-133095014D01*
X150489629Y-132809300D02*
X150346772Y-132856919D01*
X150346772Y-132856919D02*
X150108677Y-132856919D01*
X150108677Y-132856919D02*
X150013439Y-132809300D01*
X150013439Y-132809300D02*
X149965820Y-132761680D01*
X149965820Y-132761680D02*
X149918201Y-132666442D01*
X149918201Y-132666442D02*
X149918201Y-132571204D01*
X149918201Y-132571204D02*
X149965820Y-132475966D01*
X149965820Y-132475966D02*
X150013439Y-132428347D01*
X150013439Y-132428347D02*
X150108677Y-132380728D01*
X150108677Y-132380728D02*
X150299153Y-132333109D01*
X150299153Y-132333109D02*
X150394391Y-132285490D01*
X150394391Y-132285490D02*
X150442010Y-132237871D01*
X150442010Y-132237871D02*
X150489629Y-132142633D01*
X150489629Y-132142633D02*
X150489629Y-132047395D01*
X150489629Y-132047395D02*
X150442010Y-131952157D01*
X150442010Y-131952157D02*
X150394391Y-131904538D01*
X150394391Y-131904538D02*
X150299153Y-131856919D01*
X150299153Y-131856919D02*
X150061058Y-131856919D01*
X150061058Y-131856919D02*
X149918201Y-131904538D01*
X149346772Y-132856919D02*
X149442010Y-132809300D01*
X149442010Y-132809300D02*
X149489629Y-132761680D01*
X149489629Y-132761680D02*
X149537248Y-132666442D01*
X149537248Y-132666442D02*
X149537248Y-132380728D01*
X149537248Y-132380728D02*
X149489629Y-132285490D01*
X149489629Y-132285490D02*
X149442010Y-132237871D01*
X149442010Y-132237871D02*
X149346772Y-132190252D01*
X149346772Y-132190252D02*
X149203915Y-132190252D01*
X149203915Y-132190252D02*
X149108677Y-132237871D01*
X149108677Y-132237871D02*
X149061058Y-132285490D01*
X149061058Y-132285490D02*
X149013439Y-132380728D01*
X149013439Y-132380728D02*
X149013439Y-132666442D01*
X149013439Y-132666442D02*
X149061058Y-132761680D01*
X149061058Y-132761680D02*
X149108677Y-132809300D01*
X149108677Y-132809300D02*
X149203915Y-132856919D01*
X149203915Y-132856919D02*
X149346772Y-132856919D01*
X148727724Y-132190252D02*
X148346772Y-132190252D01*
X148584867Y-132856919D02*
X148584867Y-131999776D01*
X148584867Y-131999776D02*
X148537248Y-131904538D01*
X148537248Y-131904538D02*
X148442010Y-131856919D01*
X148442010Y-131856919D02*
X148346772Y-131856919D01*
X147870581Y-132856919D02*
X147965819Y-132809300D01*
X147965819Y-132809300D02*
X148013438Y-132714061D01*
X148013438Y-132714061D02*
X148013438Y-131856919D01*
X147108676Y-132809300D02*
X147203914Y-132856919D01*
X147203914Y-132856919D02*
X147394390Y-132856919D01*
X147394390Y-132856919D02*
X147489628Y-132809300D01*
X147489628Y-132809300D02*
X147537247Y-132714061D01*
X147537247Y-132714061D02*
X147537247Y-132333109D01*
X147537247Y-132333109D02*
X147489628Y-132237871D01*
X147489628Y-132237871D02*
X147394390Y-132190252D01*
X147394390Y-132190252D02*
X147203914Y-132190252D01*
X147203914Y-132190252D02*
X147108676Y-132237871D01*
X147108676Y-132237871D02*
X147061057Y-132333109D01*
X147061057Y-132333109D02*
X147061057Y-132428347D01*
X147061057Y-132428347D02*
X147537247Y-132523585D01*
X146632485Y-132856919D02*
X146632485Y-131856919D01*
X146061057Y-132856919D02*
X146489628Y-132285490D01*
X146061057Y-131856919D02*
X146632485Y-132428347D01*
X145251533Y-132809300D02*
X145346771Y-132856919D01*
X145346771Y-132856919D02*
X145537247Y-132856919D01*
X145537247Y-132856919D02*
X145632485Y-132809300D01*
X145632485Y-132809300D02*
X145680104Y-132714061D01*
X145680104Y-132714061D02*
X145680104Y-132333109D01*
X145680104Y-132333109D02*
X145632485Y-132237871D01*
X145632485Y-132237871D02*
X145537247Y-132190252D01*
X145537247Y-132190252D02*
X145346771Y-132190252D01*
X145346771Y-132190252D02*
X145251533Y-132237871D01*
X145251533Y-132237871D02*
X145203914Y-132333109D01*
X145203914Y-132333109D02*
X145203914Y-132428347D01*
X145203914Y-132428347D02*
X145680104Y-132523585D01*
X144870580Y-132190252D02*
X144632485Y-132856919D01*
X144394390Y-132190252D02*
X144632485Y-132856919D01*
X144632485Y-132856919D02*
X144727723Y-133095014D01*
X144727723Y-133095014D02*
X144775342Y-133142633D01*
X144775342Y-133142633D02*
X144870580Y-133190252D01*
X144013437Y-132856919D02*
X144013437Y-131856919D01*
X144013437Y-132237871D02*
X143918199Y-132190252D01*
X143918199Y-132190252D02*
X143727723Y-132190252D01*
X143727723Y-132190252D02*
X143632485Y-132237871D01*
X143632485Y-132237871D02*
X143584866Y-132285490D01*
X143584866Y-132285490D02*
X143537247Y-132380728D01*
X143537247Y-132380728D02*
X143537247Y-132666442D01*
X143537247Y-132666442D02*
X143584866Y-132761680D01*
X143584866Y-132761680D02*
X143632485Y-132809300D01*
X143632485Y-132809300D02*
X143727723Y-132856919D01*
X143727723Y-132856919D02*
X143918199Y-132856919D01*
X143918199Y-132856919D02*
X144013437Y-132809300D01*
X142965818Y-132856919D02*
X143061056Y-132809300D01*
X143061056Y-132809300D02*
X143108675Y-132761680D01*
X143108675Y-132761680D02*
X143156294Y-132666442D01*
X143156294Y-132666442D02*
X143156294Y-132380728D01*
X143156294Y-132380728D02*
X143108675Y-132285490D01*
X143108675Y-132285490D02*
X143061056Y-132237871D01*
X143061056Y-132237871D02*
X142965818Y-132190252D01*
X142965818Y-132190252D02*
X142822961Y-132190252D01*
X142822961Y-132190252D02*
X142727723Y-132237871D01*
X142727723Y-132237871D02*
X142680104Y-132285490D01*
X142680104Y-132285490D02*
X142632485Y-132380728D01*
X142632485Y-132380728D02*
X142632485Y-132666442D01*
X142632485Y-132666442D02*
X142680104Y-132761680D01*
X142680104Y-132761680D02*
X142727723Y-132809300D01*
X142727723Y-132809300D02*
X142822961Y-132856919D01*
X142822961Y-132856919D02*
X142965818Y-132856919D01*
X141775342Y-132856919D02*
X141775342Y-132333109D01*
X141775342Y-132333109D02*
X141822961Y-132237871D01*
X141822961Y-132237871D02*
X141918199Y-132190252D01*
X141918199Y-132190252D02*
X142108675Y-132190252D01*
X142108675Y-132190252D02*
X142203913Y-132237871D01*
X141775342Y-132809300D02*
X141870580Y-132856919D01*
X141870580Y-132856919D02*
X142108675Y-132856919D01*
X142108675Y-132856919D02*
X142203913Y-132809300D01*
X142203913Y-132809300D02*
X142251532Y-132714061D01*
X142251532Y-132714061D02*
X142251532Y-132618823D01*
X142251532Y-132618823D02*
X142203913Y-132523585D01*
X142203913Y-132523585D02*
X142108675Y-132475966D01*
X142108675Y-132475966D02*
X141870580Y-132475966D01*
X141870580Y-132475966D02*
X141775342Y-132428347D01*
X141299151Y-132856919D02*
X141299151Y-132190252D01*
X141299151Y-132380728D02*
X141251532Y-132285490D01*
X141251532Y-132285490D02*
X141203913Y-132237871D01*
X141203913Y-132237871D02*
X141108675Y-132190252D01*
X141108675Y-132190252D02*
X141013437Y-132190252D01*
X140251532Y-132856919D02*
X140251532Y-131856919D01*
X140251532Y-132809300D02*
X140346770Y-132856919D01*
X140346770Y-132856919D02*
X140537246Y-132856919D01*
X140537246Y-132856919D02*
X140632484Y-132809300D01*
X140632484Y-132809300D02*
X140680103Y-132761680D01*
X140680103Y-132761680D02*
X140727722Y-132666442D01*
X140727722Y-132666442D02*
X140727722Y-132380728D01*
X140727722Y-132380728D02*
X140680103Y-132285490D01*
X140680103Y-132285490D02*
X140632484Y-132237871D01*
X140632484Y-132237871D02*
X140537246Y-132190252D01*
X140537246Y-132190252D02*
X140346770Y-132190252D01*
X140346770Y-132190252D02*
X140251532Y-132237871D01*
X139061056Y-131809300D02*
X139918198Y-133095014D01*
D11*
X134226192Y-39404600D02*
X134083335Y-39452219D01*
X134083335Y-39452219D02*
X133845240Y-39452219D01*
X133845240Y-39452219D02*
X133750002Y-39404600D01*
X133750002Y-39404600D02*
X133702383Y-39356980D01*
X133702383Y-39356980D02*
X133654764Y-39261742D01*
X133654764Y-39261742D02*
X133654764Y-39166504D01*
X133654764Y-39166504D02*
X133702383Y-39071266D01*
X133702383Y-39071266D02*
X133750002Y-39023647D01*
X133750002Y-39023647D02*
X133845240Y-38976028D01*
X133845240Y-38976028D02*
X134035716Y-38928409D01*
X134035716Y-38928409D02*
X134130954Y-38880790D01*
X134130954Y-38880790D02*
X134178573Y-38833171D01*
X134178573Y-38833171D02*
X134226192Y-38737933D01*
X134226192Y-38737933D02*
X134226192Y-38642695D01*
X134226192Y-38642695D02*
X134178573Y-38547457D01*
X134178573Y-38547457D02*
X134130954Y-38499838D01*
X134130954Y-38499838D02*
X134035716Y-38452219D01*
X134035716Y-38452219D02*
X133797621Y-38452219D01*
X133797621Y-38452219D02*
X133654764Y-38499838D01*
X133083335Y-39452219D02*
X133178573Y-39404600D01*
X133178573Y-39404600D02*
X133226192Y-39356980D01*
X133226192Y-39356980D02*
X133273811Y-39261742D01*
X133273811Y-39261742D02*
X133273811Y-38976028D01*
X133273811Y-38976028D02*
X133226192Y-38880790D01*
X133226192Y-38880790D02*
X133178573Y-38833171D01*
X133178573Y-38833171D02*
X133083335Y-38785552D01*
X133083335Y-38785552D02*
X132940478Y-38785552D01*
X132940478Y-38785552D02*
X132845240Y-38833171D01*
X132845240Y-38833171D02*
X132797621Y-38880790D01*
X132797621Y-38880790D02*
X132750002Y-38976028D01*
X132750002Y-38976028D02*
X132750002Y-39261742D01*
X132750002Y-39261742D02*
X132797621Y-39356980D01*
X132797621Y-39356980D02*
X132845240Y-39404600D01*
X132845240Y-39404600D02*
X132940478Y-39452219D01*
X132940478Y-39452219D02*
X133083335Y-39452219D01*
X132464287Y-38785552D02*
X132083335Y-38785552D01*
X132321430Y-39452219D02*
X132321430Y-38595076D01*
X132321430Y-38595076D02*
X132273811Y-38499838D01*
X132273811Y-38499838D02*
X132178573Y-38452219D01*
X132178573Y-38452219D02*
X132083335Y-38452219D01*
X131607144Y-39452219D02*
X131702382Y-39404600D01*
X131702382Y-39404600D02*
X131750001Y-39309361D01*
X131750001Y-39309361D02*
X131750001Y-38452219D01*
X130845239Y-39404600D02*
X130940477Y-39452219D01*
X130940477Y-39452219D02*
X131130953Y-39452219D01*
X131130953Y-39452219D02*
X131226191Y-39404600D01*
X131226191Y-39404600D02*
X131273810Y-39309361D01*
X131273810Y-39309361D02*
X131273810Y-38928409D01*
X131273810Y-38928409D02*
X131226191Y-38833171D01*
X131226191Y-38833171D02*
X131130953Y-38785552D01*
X131130953Y-38785552D02*
X130940477Y-38785552D01*
X130940477Y-38785552D02*
X130845239Y-38833171D01*
X130845239Y-38833171D02*
X130797620Y-38928409D01*
X130797620Y-38928409D02*
X130797620Y-39023647D01*
X130797620Y-39023647D02*
X131273810Y-39118885D01*
X129035715Y-39452219D02*
X129369048Y-38976028D01*
X129607143Y-39452219D02*
X129607143Y-38452219D01*
X129607143Y-38452219D02*
X129226191Y-38452219D01*
X129226191Y-38452219D02*
X129130953Y-38499838D01*
X129130953Y-38499838D02*
X129083334Y-38547457D01*
X129083334Y-38547457D02*
X129035715Y-38642695D01*
X129035715Y-38642695D02*
X129035715Y-38785552D01*
X129035715Y-38785552D02*
X129083334Y-38880790D01*
X129083334Y-38880790D02*
X129130953Y-38928409D01*
X129130953Y-38928409D02*
X129226191Y-38976028D01*
X129226191Y-38976028D02*
X129607143Y-38976028D01*
X128083334Y-38499838D02*
X128178572Y-38452219D01*
X128178572Y-38452219D02*
X128321429Y-38452219D01*
X128321429Y-38452219D02*
X128464286Y-38499838D01*
X128464286Y-38499838D02*
X128559524Y-38595076D01*
X128559524Y-38595076D02*
X128607143Y-38690314D01*
X128607143Y-38690314D02*
X128654762Y-38880790D01*
X128654762Y-38880790D02*
X128654762Y-39023647D01*
X128654762Y-39023647D02*
X128607143Y-39214123D01*
X128607143Y-39214123D02*
X128559524Y-39309361D01*
X128559524Y-39309361D02*
X128464286Y-39404600D01*
X128464286Y-39404600D02*
X128321429Y-39452219D01*
X128321429Y-39452219D02*
X128226191Y-39452219D01*
X128226191Y-39452219D02*
X128083334Y-39404600D01*
X128083334Y-39404600D02*
X128035715Y-39356980D01*
X128035715Y-39356980D02*
X128035715Y-39023647D01*
X128035715Y-39023647D02*
X128226191Y-39023647D01*
X127273810Y-38928409D02*
X127130953Y-38976028D01*
X127130953Y-38976028D02*
X127083334Y-39023647D01*
X127083334Y-39023647D02*
X127035715Y-39118885D01*
X127035715Y-39118885D02*
X127035715Y-39261742D01*
X127035715Y-39261742D02*
X127083334Y-39356980D01*
X127083334Y-39356980D02*
X127130953Y-39404600D01*
X127130953Y-39404600D02*
X127226191Y-39452219D01*
X127226191Y-39452219D02*
X127607143Y-39452219D01*
X127607143Y-39452219D02*
X127607143Y-38452219D01*
X127607143Y-38452219D02*
X127273810Y-38452219D01*
X127273810Y-38452219D02*
X127178572Y-38499838D01*
X127178572Y-38499838D02*
X127130953Y-38547457D01*
X127130953Y-38547457D02*
X127083334Y-38642695D01*
X127083334Y-38642695D02*
X127083334Y-38737933D01*
X127083334Y-38737933D02*
X127130953Y-38833171D01*
X127130953Y-38833171D02*
X127178572Y-38880790D01*
X127178572Y-38880790D02*
X127273810Y-38928409D01*
X127273810Y-38928409D02*
X127607143Y-38928409D01*
X125845238Y-39452219D02*
X125845238Y-38452219D01*
X125845238Y-38833171D02*
X125750000Y-38785552D01*
X125750000Y-38785552D02*
X125559524Y-38785552D01*
X125559524Y-38785552D02*
X125464286Y-38833171D01*
X125464286Y-38833171D02*
X125416667Y-38880790D01*
X125416667Y-38880790D02*
X125369048Y-38976028D01*
X125369048Y-38976028D02*
X125369048Y-39261742D01*
X125369048Y-39261742D02*
X125416667Y-39356980D01*
X125416667Y-39356980D02*
X125464286Y-39404600D01*
X125464286Y-39404600D02*
X125559524Y-39452219D01*
X125559524Y-39452219D02*
X125750000Y-39452219D01*
X125750000Y-39452219D02*
X125845238Y-39404600D01*
X125035714Y-38785552D02*
X124797619Y-39452219D01*
X124559524Y-38785552D02*
X124797619Y-39452219D01*
X124797619Y-39452219D02*
X124892857Y-39690314D01*
X124892857Y-39690314D02*
X124940476Y-39737933D01*
X124940476Y-39737933D02*
X125035714Y-39785552D01*
X123416666Y-39452219D02*
X123416666Y-38452219D01*
X123416666Y-38452219D02*
X123178571Y-38452219D01*
X123178571Y-38452219D02*
X123035714Y-38499838D01*
X123035714Y-38499838D02*
X122940476Y-38595076D01*
X122940476Y-38595076D02*
X122892857Y-38690314D01*
X122892857Y-38690314D02*
X122845238Y-38880790D01*
X122845238Y-38880790D02*
X122845238Y-39023647D01*
X122845238Y-39023647D02*
X122892857Y-39214123D01*
X122892857Y-39214123D02*
X122940476Y-39309361D01*
X122940476Y-39309361D02*
X123035714Y-39404600D01*
X123035714Y-39404600D02*
X123178571Y-39452219D01*
X123178571Y-39452219D02*
X123416666Y-39452219D01*
X121988095Y-39452219D02*
X121988095Y-38928409D01*
X121988095Y-38928409D02*
X122035714Y-38833171D01*
X122035714Y-38833171D02*
X122130952Y-38785552D01*
X122130952Y-38785552D02*
X122321428Y-38785552D01*
X122321428Y-38785552D02*
X122416666Y-38833171D01*
X121988095Y-39404600D02*
X122083333Y-39452219D01*
X122083333Y-39452219D02*
X122321428Y-39452219D01*
X122321428Y-39452219D02*
X122416666Y-39404600D01*
X122416666Y-39404600D02*
X122464285Y-39309361D01*
X122464285Y-39309361D02*
X122464285Y-39214123D01*
X122464285Y-39214123D02*
X122416666Y-39118885D01*
X122416666Y-39118885D02*
X122321428Y-39071266D01*
X122321428Y-39071266D02*
X122083333Y-39071266D01*
X122083333Y-39071266D02*
X121988095Y-39023647D01*
X121511904Y-38785552D02*
X121511904Y-39452219D01*
X121511904Y-38880790D02*
X121464285Y-38833171D01*
X121464285Y-38833171D02*
X121369047Y-38785552D01*
X121369047Y-38785552D02*
X121226190Y-38785552D01*
X121226190Y-38785552D02*
X121130952Y-38833171D01*
X121130952Y-38833171D02*
X121083333Y-38928409D01*
X121083333Y-38928409D02*
X121083333Y-39452219D01*
X120226190Y-39404600D02*
X120321428Y-39452219D01*
X120321428Y-39452219D02*
X120511904Y-39452219D01*
X120511904Y-39452219D02*
X120607142Y-39404600D01*
X120607142Y-39404600D02*
X120654761Y-39309361D01*
X120654761Y-39309361D02*
X120654761Y-38928409D01*
X120654761Y-38928409D02*
X120607142Y-38833171D01*
X120607142Y-38833171D02*
X120511904Y-38785552D01*
X120511904Y-38785552D02*
X120321428Y-38785552D01*
X120321428Y-38785552D02*
X120226190Y-38833171D01*
X120226190Y-38833171D02*
X120178571Y-38928409D01*
X120178571Y-38928409D02*
X120178571Y-39023647D01*
X120178571Y-39023647D02*
X120654761Y-39118885D01*
X118988094Y-38928409D02*
X118654761Y-38928409D01*
X118511904Y-39452219D02*
X118988094Y-39452219D01*
X118988094Y-39452219D02*
X118988094Y-38452219D01*
X118988094Y-38452219D02*
X118511904Y-38452219D01*
X118178570Y-38785552D02*
X117940475Y-39452219D01*
X117940475Y-39452219D02*
X117702380Y-38785552D01*
X116892856Y-39452219D02*
X116892856Y-38928409D01*
X116892856Y-38928409D02*
X116940475Y-38833171D01*
X116940475Y-38833171D02*
X117035713Y-38785552D01*
X117035713Y-38785552D02*
X117226189Y-38785552D01*
X117226189Y-38785552D02*
X117321427Y-38833171D01*
X116892856Y-39404600D02*
X116988094Y-39452219D01*
X116988094Y-39452219D02*
X117226189Y-39452219D01*
X117226189Y-39452219D02*
X117321427Y-39404600D01*
X117321427Y-39404600D02*
X117369046Y-39309361D01*
X117369046Y-39309361D02*
X117369046Y-39214123D01*
X117369046Y-39214123D02*
X117321427Y-39118885D01*
X117321427Y-39118885D02*
X117226189Y-39071266D01*
X117226189Y-39071266D02*
X116988094Y-39071266D01*
X116988094Y-39071266D02*
X116892856Y-39023647D01*
X116416665Y-38785552D02*
X116416665Y-39452219D01*
X116416665Y-38880790D02*
X116369046Y-38833171D01*
X116369046Y-38833171D02*
X116273808Y-38785552D01*
X116273808Y-38785552D02*
X116130951Y-38785552D01*
X116130951Y-38785552D02*
X116035713Y-38833171D01*
X116035713Y-38833171D02*
X115988094Y-38928409D01*
X115988094Y-38928409D02*
X115988094Y-39452219D01*
X115559522Y-39404600D02*
X115464284Y-39452219D01*
X115464284Y-39452219D02*
X115273808Y-39452219D01*
X115273808Y-39452219D02*
X115178570Y-39404600D01*
X115178570Y-39404600D02*
X115130951Y-39309361D01*
X115130951Y-39309361D02*
X115130951Y-39261742D01*
X115130951Y-39261742D02*
X115178570Y-39166504D01*
X115178570Y-39166504D02*
X115273808Y-39118885D01*
X115273808Y-39118885D02*
X115416665Y-39118885D01*
X115416665Y-39118885D02*
X115511903Y-39071266D01*
X115511903Y-39071266D02*
X115559522Y-38976028D01*
X115559522Y-38976028D02*
X115559522Y-38928409D01*
X115559522Y-38928409D02*
X115511903Y-38833171D01*
X115511903Y-38833171D02*
X115416665Y-38785552D01*
X115416665Y-38785552D02*
X115273808Y-38785552D01*
X115273808Y-38785552D02*
X115178570Y-38833171D01*
X114654760Y-39404600D02*
X114654760Y-39452219D01*
X114654760Y-39452219D02*
X114702379Y-39547457D01*
X114702379Y-39547457D02*
X114749998Y-39595076D01*
X113321427Y-39452219D02*
X113416665Y-39404600D01*
X113416665Y-39404600D02*
X113464284Y-39356980D01*
X113464284Y-39356980D02*
X113511903Y-39261742D01*
X113511903Y-39261742D02*
X113511903Y-38976028D01*
X113511903Y-38976028D02*
X113464284Y-38880790D01*
X113464284Y-38880790D02*
X113416665Y-38833171D01*
X113416665Y-38833171D02*
X113321427Y-38785552D01*
X113321427Y-38785552D02*
X113178570Y-38785552D01*
X113178570Y-38785552D02*
X113083332Y-38833171D01*
X113083332Y-38833171D02*
X113035713Y-38880790D01*
X113035713Y-38880790D02*
X112988094Y-38976028D01*
X112988094Y-38976028D02*
X112988094Y-39261742D01*
X112988094Y-39261742D02*
X113035713Y-39356980D01*
X113035713Y-39356980D02*
X113083332Y-39404600D01*
X113083332Y-39404600D02*
X113178570Y-39452219D01*
X113178570Y-39452219D02*
X113321427Y-39452219D01*
X112559522Y-39452219D02*
X112559522Y-38785552D01*
X112559522Y-38976028D02*
X112511903Y-38880790D01*
X112511903Y-38880790D02*
X112464284Y-38833171D01*
X112464284Y-38833171D02*
X112369046Y-38785552D01*
X112369046Y-38785552D02*
X112273808Y-38785552D01*
X111940474Y-39452219D02*
X111940474Y-38785552D01*
X111940474Y-38452219D02*
X111988093Y-38499838D01*
X111988093Y-38499838D02*
X111940474Y-38547457D01*
X111940474Y-38547457D02*
X111892855Y-38499838D01*
X111892855Y-38499838D02*
X111940474Y-38452219D01*
X111940474Y-38452219D02*
X111940474Y-38547457D01*
X111035713Y-38785552D02*
X111035713Y-39595076D01*
X111035713Y-39595076D02*
X111083332Y-39690314D01*
X111083332Y-39690314D02*
X111130951Y-39737933D01*
X111130951Y-39737933D02*
X111226189Y-39785552D01*
X111226189Y-39785552D02*
X111369046Y-39785552D01*
X111369046Y-39785552D02*
X111464284Y-39737933D01*
X111035713Y-39404600D02*
X111130951Y-39452219D01*
X111130951Y-39452219D02*
X111321427Y-39452219D01*
X111321427Y-39452219D02*
X111416665Y-39404600D01*
X111416665Y-39404600D02*
X111464284Y-39356980D01*
X111464284Y-39356980D02*
X111511903Y-39261742D01*
X111511903Y-39261742D02*
X111511903Y-38976028D01*
X111511903Y-38976028D02*
X111464284Y-38880790D01*
X111464284Y-38880790D02*
X111416665Y-38833171D01*
X111416665Y-38833171D02*
X111321427Y-38785552D01*
X111321427Y-38785552D02*
X111130951Y-38785552D01*
X111130951Y-38785552D02*
X111035713Y-38833171D01*
X110559522Y-39452219D02*
X110559522Y-38785552D01*
X110559522Y-38452219D02*
X110607141Y-38499838D01*
X110607141Y-38499838D02*
X110559522Y-38547457D01*
X110559522Y-38547457D02*
X110511903Y-38499838D01*
X110511903Y-38499838D02*
X110559522Y-38452219D01*
X110559522Y-38452219D02*
X110559522Y-38547457D01*
X110083332Y-38785552D02*
X110083332Y-39452219D01*
X110083332Y-38880790D02*
X110035713Y-38833171D01*
X110035713Y-38833171D02*
X109940475Y-38785552D01*
X109940475Y-38785552D02*
X109797618Y-38785552D01*
X109797618Y-38785552D02*
X109702380Y-38833171D01*
X109702380Y-38833171D02*
X109654761Y-38928409D01*
X109654761Y-38928409D02*
X109654761Y-39452219D01*
X108749999Y-39452219D02*
X108749999Y-38928409D01*
X108749999Y-38928409D02*
X108797618Y-38833171D01*
X108797618Y-38833171D02*
X108892856Y-38785552D01*
X108892856Y-38785552D02*
X109083332Y-38785552D01*
X109083332Y-38785552D02*
X109178570Y-38833171D01*
X108749999Y-39404600D02*
X108845237Y-39452219D01*
X108845237Y-39452219D02*
X109083332Y-39452219D01*
X109083332Y-39452219D02*
X109178570Y-39404600D01*
X109178570Y-39404600D02*
X109226189Y-39309361D01*
X109226189Y-39309361D02*
X109226189Y-39214123D01*
X109226189Y-39214123D02*
X109178570Y-39118885D01*
X109178570Y-39118885D02*
X109083332Y-39071266D01*
X109083332Y-39071266D02*
X108845237Y-39071266D01*
X108845237Y-39071266D02*
X108749999Y-39023647D01*
X108130951Y-39452219D02*
X108226189Y-39404600D01*
X108226189Y-39404600D02*
X108273808Y-39309361D01*
X108273808Y-39309361D02*
X108273808Y-38452219D01*
X106988093Y-39452219D02*
X106988093Y-38452219D01*
X106988093Y-38833171D02*
X106892855Y-38785552D01*
X106892855Y-38785552D02*
X106702379Y-38785552D01*
X106702379Y-38785552D02*
X106607141Y-38833171D01*
X106607141Y-38833171D02*
X106559522Y-38880790D01*
X106559522Y-38880790D02*
X106511903Y-38976028D01*
X106511903Y-38976028D02*
X106511903Y-39261742D01*
X106511903Y-39261742D02*
X106559522Y-39356980D01*
X106559522Y-39356980D02*
X106607141Y-39404600D01*
X106607141Y-39404600D02*
X106702379Y-39452219D01*
X106702379Y-39452219D02*
X106892855Y-39452219D01*
X106892855Y-39452219D02*
X106988093Y-39404600D01*
X106178569Y-38785552D02*
X105940474Y-39452219D01*
X105702379Y-38785552D02*
X105940474Y-39452219D01*
X105940474Y-39452219D02*
X106035712Y-39690314D01*
X106035712Y-39690314D02*
X106083331Y-39737933D01*
X106083331Y-39737933D02*
X106178569Y-39785552D01*
X104273807Y-38452219D02*
X104273807Y-39166504D01*
X104273807Y-39166504D02*
X104321426Y-39309361D01*
X104321426Y-39309361D02*
X104416664Y-39404600D01*
X104416664Y-39404600D02*
X104559521Y-39452219D01*
X104559521Y-39452219D02*
X104654759Y-39452219D01*
X103654759Y-39452219D02*
X103749997Y-39404600D01*
X103749997Y-39404600D02*
X103797616Y-39356980D01*
X103797616Y-39356980D02*
X103845235Y-39261742D01*
X103845235Y-39261742D02*
X103845235Y-38976028D01*
X103845235Y-38976028D02*
X103797616Y-38880790D01*
X103797616Y-38880790D02*
X103749997Y-38833171D01*
X103749997Y-38833171D02*
X103654759Y-38785552D01*
X103654759Y-38785552D02*
X103511902Y-38785552D01*
X103511902Y-38785552D02*
X103416664Y-38833171D01*
X103416664Y-38833171D02*
X103369045Y-38880790D01*
X103369045Y-38880790D02*
X103321426Y-38976028D01*
X103321426Y-38976028D02*
X103321426Y-39261742D01*
X103321426Y-39261742D02*
X103369045Y-39356980D01*
X103369045Y-39356980D02*
X103416664Y-39404600D01*
X103416664Y-39404600D02*
X103511902Y-39452219D01*
X103511902Y-39452219D02*
X103654759Y-39452219D01*
X102940473Y-39404600D02*
X102845235Y-39452219D01*
X102845235Y-39452219D02*
X102654759Y-39452219D01*
X102654759Y-39452219D02*
X102559521Y-39404600D01*
X102559521Y-39404600D02*
X102511902Y-39309361D01*
X102511902Y-39309361D02*
X102511902Y-39261742D01*
X102511902Y-39261742D02*
X102559521Y-39166504D01*
X102559521Y-39166504D02*
X102654759Y-39118885D01*
X102654759Y-39118885D02*
X102797616Y-39118885D01*
X102797616Y-39118885D02*
X102892854Y-39071266D01*
X102892854Y-39071266D02*
X102940473Y-38976028D01*
X102940473Y-38976028D02*
X102940473Y-38928409D01*
X102940473Y-38928409D02*
X102892854Y-38833171D01*
X102892854Y-38833171D02*
X102797616Y-38785552D01*
X102797616Y-38785552D02*
X102654759Y-38785552D01*
X102654759Y-38785552D02*
X102559521Y-38833171D01*
X101702378Y-39404600D02*
X101797616Y-39452219D01*
X101797616Y-39452219D02*
X101988092Y-39452219D01*
X101988092Y-39452219D02*
X102083330Y-39404600D01*
X102083330Y-39404600D02*
X102130949Y-39309361D01*
X102130949Y-39309361D02*
X102130949Y-38928409D01*
X102130949Y-38928409D02*
X102083330Y-38833171D01*
X102083330Y-38833171D02*
X101988092Y-38785552D01*
X101988092Y-38785552D02*
X101797616Y-38785552D01*
X101797616Y-38785552D02*
X101702378Y-38833171D01*
X101702378Y-38833171D02*
X101654759Y-38928409D01*
X101654759Y-38928409D02*
X101654759Y-39023647D01*
X101654759Y-39023647D02*
X102130949Y-39118885D01*
X101369044Y-38785552D02*
X100988092Y-38785552D01*
X101226187Y-39452219D02*
X101226187Y-38595076D01*
X101226187Y-38595076D02*
X101178568Y-38499838D01*
X101178568Y-38499838D02*
X101083330Y-38452219D01*
X101083330Y-38452219D02*
X100988092Y-38452219D01*
X99940472Y-39166504D02*
X99464282Y-39166504D01*
X100035710Y-39452219D02*
X99702377Y-38452219D01*
X99702377Y-38452219D02*
X99369044Y-39452219D01*
X98607139Y-39452219D02*
X98607139Y-38452219D01*
X98607139Y-39404600D02*
X98702377Y-39452219D01*
X98702377Y-39452219D02*
X98892853Y-39452219D01*
X98892853Y-39452219D02*
X98988091Y-39404600D01*
X98988091Y-39404600D02*
X99035710Y-39356980D01*
X99035710Y-39356980D02*
X99083329Y-39261742D01*
X99083329Y-39261742D02*
X99083329Y-38976028D01*
X99083329Y-38976028D02*
X99035710Y-38880790D01*
X99035710Y-38880790D02*
X98988091Y-38833171D01*
X98988091Y-38833171D02*
X98892853Y-38785552D01*
X98892853Y-38785552D02*
X98702377Y-38785552D01*
X98702377Y-38785552D02*
X98607139Y-38833171D01*
X97702377Y-39452219D02*
X97702377Y-38928409D01*
X97702377Y-38928409D02*
X97749996Y-38833171D01*
X97749996Y-38833171D02*
X97845234Y-38785552D01*
X97845234Y-38785552D02*
X98035710Y-38785552D01*
X98035710Y-38785552D02*
X98130948Y-38833171D01*
X97702377Y-39404600D02*
X97797615Y-39452219D01*
X97797615Y-39452219D02*
X98035710Y-39452219D01*
X98035710Y-39452219D02*
X98130948Y-39404600D01*
X98130948Y-39404600D02*
X98178567Y-39309361D01*
X98178567Y-39309361D02*
X98178567Y-39214123D01*
X98178567Y-39214123D02*
X98130948Y-39118885D01*
X98130948Y-39118885D02*
X98035710Y-39071266D01*
X98035710Y-39071266D02*
X97797615Y-39071266D01*
X97797615Y-39071266D02*
X97702377Y-39023647D01*
X97226186Y-39452219D02*
X97226186Y-38785552D01*
X97226186Y-38880790D02*
X97178567Y-38833171D01*
X97178567Y-38833171D02*
X97083329Y-38785552D01*
X97083329Y-38785552D02*
X96940472Y-38785552D01*
X96940472Y-38785552D02*
X96845234Y-38833171D01*
X96845234Y-38833171D02*
X96797615Y-38928409D01*
X96797615Y-38928409D02*
X96797615Y-39452219D01*
X96797615Y-38928409D02*
X96749996Y-38833171D01*
X96749996Y-38833171D02*
X96654758Y-38785552D01*
X96654758Y-38785552D02*
X96511901Y-38785552D01*
X96511901Y-38785552D02*
X96416662Y-38833171D01*
X96416662Y-38833171D02*
X96369043Y-38928409D01*
X96369043Y-38928409D02*
X96369043Y-39452219D01*
X95464282Y-39452219D02*
X95464282Y-38928409D01*
X95464282Y-38928409D02*
X95511901Y-38833171D01*
X95511901Y-38833171D02*
X95607139Y-38785552D01*
X95607139Y-38785552D02*
X95797615Y-38785552D01*
X95797615Y-38785552D02*
X95892853Y-38833171D01*
X95464282Y-39404600D02*
X95559520Y-39452219D01*
X95559520Y-39452219D02*
X95797615Y-39452219D01*
X95797615Y-39452219D02*
X95892853Y-39404600D01*
X95892853Y-39404600D02*
X95940472Y-39309361D01*
X95940472Y-39309361D02*
X95940472Y-39214123D01*
X95940472Y-39214123D02*
X95892853Y-39118885D01*
X95892853Y-39118885D02*
X95797615Y-39071266D01*
X95797615Y-39071266D02*
X95559520Y-39071266D01*
X95559520Y-39071266D02*
X95464282Y-39023647D01*
X94559520Y-39404600D02*
X94654758Y-39452219D01*
X94654758Y-39452219D02*
X94845234Y-39452219D01*
X94845234Y-39452219D02*
X94940472Y-39404600D01*
X94940472Y-39404600D02*
X94988091Y-39356980D01*
X94988091Y-39356980D02*
X95035710Y-39261742D01*
X95035710Y-39261742D02*
X95035710Y-38976028D01*
X95035710Y-38976028D02*
X94988091Y-38880790D01*
X94988091Y-38880790D02*
X94940472Y-38833171D01*
X94940472Y-38833171D02*
X94845234Y-38785552D01*
X94845234Y-38785552D02*
X94654758Y-38785552D01*
X94654758Y-38785552D02*
X94559520Y-38833171D01*
X94130948Y-39452219D02*
X94130948Y-38785552D01*
X94130948Y-38452219D02*
X94178567Y-38499838D01*
X94178567Y-38499838D02*
X94130948Y-38547457D01*
X94130948Y-38547457D02*
X94083329Y-38499838D01*
X94083329Y-38499838D02*
X94130948Y-38452219D01*
X94130948Y-38452219D02*
X94130948Y-38547457D01*
X93654758Y-39452219D02*
X93654758Y-38452219D01*
X93559520Y-39071266D02*
X93273806Y-39452219D01*
X93273806Y-38785552D02*
X93654758Y-39166504D01*
D10*
X184152295Y-96566666D02*
X184152295Y-96185714D01*
X184152295Y-96185714D02*
X183352295Y-96185714D01*
X184152295Y-96833333D02*
X183618961Y-96833333D01*
X183352295Y-96833333D02*
X183390390Y-96795237D01*
X183390390Y-96795237D02*
X183428485Y-96833333D01*
X183428485Y-96833333D02*
X183390390Y-96871428D01*
X183390390Y-96871428D02*
X183352295Y-96833333D01*
X183352295Y-96833333D02*
X183428485Y-96833333D01*
X183618961Y-97557142D02*
X184266580Y-97557142D01*
X184266580Y-97557142D02*
X184342771Y-97519047D01*
X184342771Y-97519047D02*
X184380866Y-97480951D01*
X184380866Y-97480951D02*
X184418961Y-97404761D01*
X184418961Y-97404761D02*
X184418961Y-97290475D01*
X184418961Y-97290475D02*
X184380866Y-97214285D01*
X184114200Y-97557142D02*
X184152295Y-97480951D01*
X184152295Y-97480951D02*
X184152295Y-97328570D01*
X184152295Y-97328570D02*
X184114200Y-97252380D01*
X184114200Y-97252380D02*
X184076104Y-97214285D01*
X184076104Y-97214285D02*
X183999914Y-97176189D01*
X183999914Y-97176189D02*
X183771342Y-97176189D01*
X183771342Y-97176189D02*
X183695152Y-97214285D01*
X183695152Y-97214285D02*
X183657057Y-97252380D01*
X183657057Y-97252380D02*
X183618961Y-97328570D01*
X183618961Y-97328570D02*
X183618961Y-97480951D01*
X183618961Y-97480951D02*
X183657057Y-97557142D01*
X184152295Y-97938095D02*
X183352295Y-97938095D01*
X184152295Y-98280952D02*
X183733247Y-98280952D01*
X183733247Y-98280952D02*
X183657057Y-98242857D01*
X183657057Y-98242857D02*
X183618961Y-98166666D01*
X183618961Y-98166666D02*
X183618961Y-98052380D01*
X183618961Y-98052380D02*
X183657057Y-97976190D01*
X183657057Y-97976190D02*
X183695152Y-97938095D01*
X183618961Y-98547619D02*
X183618961Y-98852381D01*
X183352295Y-98661905D02*
X184038009Y-98661905D01*
X184038009Y-98661905D02*
X184114200Y-98700000D01*
X184114200Y-98700000D02*
X184152295Y-98776190D01*
X184152295Y-98776190D02*
X184152295Y-98852381D01*
X184114200Y-99690476D02*
X184152295Y-99804762D01*
X184152295Y-99804762D02*
X184152295Y-99995238D01*
X184152295Y-99995238D02*
X184114200Y-100071429D01*
X184114200Y-100071429D02*
X184076104Y-100109524D01*
X184076104Y-100109524D02*
X183999914Y-100147619D01*
X183999914Y-100147619D02*
X183923723Y-100147619D01*
X183923723Y-100147619D02*
X183847533Y-100109524D01*
X183847533Y-100109524D02*
X183809438Y-100071429D01*
X183809438Y-100071429D02*
X183771342Y-99995238D01*
X183771342Y-99995238D02*
X183733247Y-99842857D01*
X183733247Y-99842857D02*
X183695152Y-99766667D01*
X183695152Y-99766667D02*
X183657057Y-99728572D01*
X183657057Y-99728572D02*
X183580866Y-99690476D01*
X183580866Y-99690476D02*
X183504676Y-99690476D01*
X183504676Y-99690476D02*
X183428485Y-99728572D01*
X183428485Y-99728572D02*
X183390390Y-99766667D01*
X183390390Y-99766667D02*
X183352295Y-99842857D01*
X183352295Y-99842857D02*
X183352295Y-100033334D01*
X183352295Y-100033334D02*
X183390390Y-100147619D01*
X184114200Y-100795239D02*
X184152295Y-100719048D01*
X184152295Y-100719048D02*
X184152295Y-100566667D01*
X184152295Y-100566667D02*
X184114200Y-100490477D01*
X184114200Y-100490477D02*
X184038009Y-100452381D01*
X184038009Y-100452381D02*
X183733247Y-100452381D01*
X183733247Y-100452381D02*
X183657057Y-100490477D01*
X183657057Y-100490477D02*
X183618961Y-100566667D01*
X183618961Y-100566667D02*
X183618961Y-100719048D01*
X183618961Y-100719048D02*
X183657057Y-100795239D01*
X183657057Y-100795239D02*
X183733247Y-100833334D01*
X183733247Y-100833334D02*
X183809438Y-100833334D01*
X183809438Y-100833334D02*
X183885628Y-100452381D01*
X184152295Y-101290476D02*
X184114200Y-101214286D01*
X184114200Y-101214286D02*
X184038009Y-101176191D01*
X184038009Y-101176191D02*
X183352295Y-101176191D01*
X187153247Y-99903333D02*
X187191342Y-100017619D01*
X187191342Y-100017619D02*
X187229438Y-100055714D01*
X187229438Y-100055714D02*
X187305628Y-100093810D01*
X187305628Y-100093810D02*
X187419914Y-100093810D01*
X187419914Y-100093810D02*
X187496104Y-100055714D01*
X187496104Y-100055714D02*
X187534200Y-100017619D01*
X187534200Y-100017619D02*
X187572295Y-99941429D01*
X187572295Y-99941429D02*
X187572295Y-99636667D01*
X187572295Y-99636667D02*
X186772295Y-99636667D01*
X186772295Y-99636667D02*
X186772295Y-99903333D01*
X186772295Y-99903333D02*
X186810390Y-99979524D01*
X186810390Y-99979524D02*
X186848485Y-100017619D01*
X186848485Y-100017619D02*
X186924676Y-100055714D01*
X186924676Y-100055714D02*
X187000866Y-100055714D01*
X187000866Y-100055714D02*
X187077057Y-100017619D01*
X187077057Y-100017619D02*
X187115152Y-99979524D01*
X187115152Y-99979524D02*
X187153247Y-99903333D01*
X187153247Y-99903333D02*
X187153247Y-99636667D01*
X187572295Y-100817619D02*
X187572295Y-100436667D01*
X187572295Y-100436667D02*
X186772295Y-100436667D01*
X186832295Y-96372381D02*
X187479914Y-96372381D01*
X187479914Y-96372381D02*
X187556104Y-96410476D01*
X187556104Y-96410476D02*
X187594200Y-96448571D01*
X187594200Y-96448571D02*
X187632295Y-96524762D01*
X187632295Y-96524762D02*
X187632295Y-96677143D01*
X187632295Y-96677143D02*
X187594200Y-96753333D01*
X187594200Y-96753333D02*
X187556104Y-96791428D01*
X187556104Y-96791428D02*
X187479914Y-96829524D01*
X187479914Y-96829524D02*
X186832295Y-96829524D01*
X187632295Y-97210476D02*
X186832295Y-97210476D01*
X186832295Y-97210476D02*
X187632295Y-97667619D01*
X187632295Y-97667619D02*
X186832295Y-97667619D01*
X187632295Y-98048571D02*
X186832295Y-98048571D01*
X186832295Y-98048571D02*
X186832295Y-98239047D01*
X186832295Y-98239047D02*
X186870390Y-98353333D01*
X186870390Y-98353333D02*
X186946580Y-98429523D01*
X186946580Y-98429523D02*
X187022771Y-98467618D01*
X187022771Y-98467618D02*
X187175152Y-98505714D01*
X187175152Y-98505714D02*
X187289438Y-98505714D01*
X187289438Y-98505714D02*
X187441819Y-98467618D01*
X187441819Y-98467618D02*
X187518009Y-98429523D01*
X187518009Y-98429523D02*
X187594200Y-98353333D01*
X187594200Y-98353333D02*
X187632295Y-98239047D01*
X187632295Y-98239047D02*
X187632295Y-98048571D01*
X183609525Y-111943247D02*
X183495239Y-111981342D01*
X183495239Y-111981342D02*
X183457144Y-112019438D01*
X183457144Y-112019438D02*
X183419048Y-112095628D01*
X183419048Y-112095628D02*
X183419048Y-112209914D01*
X183419048Y-112209914D02*
X183457144Y-112286104D01*
X183457144Y-112286104D02*
X183495239Y-112324200D01*
X183495239Y-112324200D02*
X183571429Y-112362295D01*
X183571429Y-112362295D02*
X183876191Y-112362295D01*
X183876191Y-112362295D02*
X183876191Y-111562295D01*
X183876191Y-111562295D02*
X183609525Y-111562295D01*
X183609525Y-111562295D02*
X183533334Y-111600390D01*
X183533334Y-111600390D02*
X183495239Y-111638485D01*
X183495239Y-111638485D02*
X183457144Y-111714676D01*
X183457144Y-111714676D02*
X183457144Y-111790866D01*
X183457144Y-111790866D02*
X183495239Y-111867057D01*
X183495239Y-111867057D02*
X183533334Y-111905152D01*
X183533334Y-111905152D02*
X183609525Y-111943247D01*
X183609525Y-111943247D02*
X183876191Y-111943247D01*
X182733334Y-112362295D02*
X182733334Y-111943247D01*
X182733334Y-111943247D02*
X182771429Y-111867057D01*
X182771429Y-111867057D02*
X182847620Y-111828961D01*
X182847620Y-111828961D02*
X183000001Y-111828961D01*
X183000001Y-111828961D02*
X183076191Y-111867057D01*
X182733334Y-112324200D02*
X182809525Y-112362295D01*
X182809525Y-112362295D02*
X183000001Y-112362295D01*
X183000001Y-112362295D02*
X183076191Y-112324200D01*
X183076191Y-112324200D02*
X183114287Y-112248009D01*
X183114287Y-112248009D02*
X183114287Y-112171819D01*
X183114287Y-112171819D02*
X183076191Y-112095628D01*
X183076191Y-112095628D02*
X183000001Y-112057533D01*
X183000001Y-112057533D02*
X182809525Y-112057533D01*
X182809525Y-112057533D02*
X182733334Y-112019438D01*
X182009524Y-112324200D02*
X182085715Y-112362295D01*
X182085715Y-112362295D02*
X182238096Y-112362295D01*
X182238096Y-112362295D02*
X182314286Y-112324200D01*
X182314286Y-112324200D02*
X182352381Y-112286104D01*
X182352381Y-112286104D02*
X182390477Y-112209914D01*
X182390477Y-112209914D02*
X182390477Y-111981342D01*
X182390477Y-111981342D02*
X182352381Y-111905152D01*
X182352381Y-111905152D02*
X182314286Y-111867057D01*
X182314286Y-111867057D02*
X182238096Y-111828961D01*
X182238096Y-111828961D02*
X182085715Y-111828961D01*
X182085715Y-111828961D02*
X182009524Y-111867057D01*
X181666667Y-112362295D02*
X181666667Y-111562295D01*
X181590477Y-112057533D02*
X181361905Y-112362295D01*
X181361905Y-111828961D02*
X181666667Y-112133723D01*
X180904763Y-112362295D02*
X180980953Y-112324200D01*
X180980953Y-112324200D02*
X181019048Y-112248009D01*
X181019048Y-112248009D02*
X181019048Y-111562295D01*
X180600000Y-112362295D02*
X180600000Y-111828961D01*
X180600000Y-111562295D02*
X180638096Y-111600390D01*
X180638096Y-111600390D02*
X180600000Y-111638485D01*
X180600000Y-111638485D02*
X180561905Y-111600390D01*
X180561905Y-111600390D02*
X180600000Y-111562295D01*
X180600000Y-111562295D02*
X180600000Y-111638485D01*
X179876191Y-111828961D02*
X179876191Y-112476580D01*
X179876191Y-112476580D02*
X179914286Y-112552771D01*
X179914286Y-112552771D02*
X179952382Y-112590866D01*
X179952382Y-112590866D02*
X180028572Y-112628961D01*
X180028572Y-112628961D02*
X180142858Y-112628961D01*
X180142858Y-112628961D02*
X180219048Y-112590866D01*
X179876191Y-112324200D02*
X179952382Y-112362295D01*
X179952382Y-112362295D02*
X180104763Y-112362295D01*
X180104763Y-112362295D02*
X180180953Y-112324200D01*
X180180953Y-112324200D02*
X180219048Y-112286104D01*
X180219048Y-112286104D02*
X180257144Y-112209914D01*
X180257144Y-112209914D02*
X180257144Y-111981342D01*
X180257144Y-111981342D02*
X180219048Y-111905152D01*
X180219048Y-111905152D02*
X180180953Y-111867057D01*
X180180953Y-111867057D02*
X180104763Y-111828961D01*
X180104763Y-111828961D02*
X179952382Y-111828961D01*
X179952382Y-111828961D02*
X179876191Y-111867057D01*
X179495238Y-112362295D02*
X179495238Y-111562295D01*
X179152381Y-112362295D02*
X179152381Y-111943247D01*
X179152381Y-111943247D02*
X179190476Y-111867057D01*
X179190476Y-111867057D02*
X179266667Y-111828961D01*
X179266667Y-111828961D02*
X179380953Y-111828961D01*
X179380953Y-111828961D02*
X179457143Y-111867057D01*
X179457143Y-111867057D02*
X179495238Y-111905152D01*
X178885714Y-111828961D02*
X178580952Y-111828961D01*
X178771428Y-111562295D02*
X178771428Y-112248009D01*
X178771428Y-112248009D02*
X178733333Y-112324200D01*
X178733333Y-112324200D02*
X178657143Y-112362295D01*
X178657143Y-112362295D02*
X178580952Y-112362295D01*
X177399999Y-112324200D02*
X177476190Y-112362295D01*
X177476190Y-112362295D02*
X177628571Y-112362295D01*
X177628571Y-112362295D02*
X177704761Y-112324200D01*
X177704761Y-112324200D02*
X177742857Y-112248009D01*
X177742857Y-112248009D02*
X177742857Y-111943247D01*
X177742857Y-111943247D02*
X177704761Y-111867057D01*
X177704761Y-111867057D02*
X177628571Y-111828961D01*
X177628571Y-111828961D02*
X177476190Y-111828961D01*
X177476190Y-111828961D02*
X177399999Y-111867057D01*
X177399999Y-111867057D02*
X177361904Y-111943247D01*
X177361904Y-111943247D02*
X177361904Y-112019438D01*
X177361904Y-112019438D02*
X177742857Y-112095628D01*
X177019047Y-111828961D02*
X177019047Y-112362295D01*
X177019047Y-111905152D02*
X176980952Y-111867057D01*
X176980952Y-111867057D02*
X176904762Y-111828961D01*
X176904762Y-111828961D02*
X176790476Y-111828961D01*
X176790476Y-111828961D02*
X176714285Y-111867057D01*
X176714285Y-111867057D02*
X176676190Y-111943247D01*
X176676190Y-111943247D02*
X176676190Y-112362295D01*
X175952380Y-112362295D02*
X175952380Y-111943247D01*
X175952380Y-111943247D02*
X175990475Y-111867057D01*
X175990475Y-111867057D02*
X176066666Y-111828961D01*
X176066666Y-111828961D02*
X176219047Y-111828961D01*
X176219047Y-111828961D02*
X176295237Y-111867057D01*
X175952380Y-112324200D02*
X176028571Y-112362295D01*
X176028571Y-112362295D02*
X176219047Y-112362295D01*
X176219047Y-112362295D02*
X176295237Y-112324200D01*
X176295237Y-112324200D02*
X176333333Y-112248009D01*
X176333333Y-112248009D02*
X176333333Y-112171819D01*
X176333333Y-112171819D02*
X176295237Y-112095628D01*
X176295237Y-112095628D02*
X176219047Y-112057533D01*
X176219047Y-112057533D02*
X176028571Y-112057533D01*
X176028571Y-112057533D02*
X175952380Y-112019438D01*
X175571427Y-112362295D02*
X175571427Y-111562295D01*
X175571427Y-111867057D02*
X175495237Y-111828961D01*
X175495237Y-111828961D02*
X175342856Y-111828961D01*
X175342856Y-111828961D02*
X175266665Y-111867057D01*
X175266665Y-111867057D02*
X175228570Y-111905152D01*
X175228570Y-111905152D02*
X175190475Y-111981342D01*
X175190475Y-111981342D02*
X175190475Y-112209914D01*
X175190475Y-112209914D02*
X175228570Y-112286104D01*
X175228570Y-112286104D02*
X175266665Y-112324200D01*
X175266665Y-112324200D02*
X175342856Y-112362295D01*
X175342856Y-112362295D02*
X175495237Y-112362295D01*
X175495237Y-112362295D02*
X175571427Y-112324200D01*
X174733332Y-112362295D02*
X174809522Y-112324200D01*
X174809522Y-112324200D02*
X174847617Y-112248009D01*
X174847617Y-112248009D02*
X174847617Y-111562295D01*
X174123807Y-112324200D02*
X174199998Y-112362295D01*
X174199998Y-112362295D02*
X174352379Y-112362295D01*
X174352379Y-112362295D02*
X174428569Y-112324200D01*
X174428569Y-112324200D02*
X174466665Y-112248009D01*
X174466665Y-112248009D02*
X174466665Y-111943247D01*
X174466665Y-111943247D02*
X174428569Y-111867057D01*
X174428569Y-111867057D02*
X174352379Y-111828961D01*
X174352379Y-111828961D02*
X174199998Y-111828961D01*
X174199998Y-111828961D02*
X174123807Y-111867057D01*
X174123807Y-111867057D02*
X174085712Y-111943247D01*
X174085712Y-111943247D02*
X174085712Y-112019438D01*
X174085712Y-112019438D02*
X174466665Y-112095628D01*
X178533332Y-113143247D02*
X178266666Y-113143247D01*
X178152380Y-113562295D02*
X178533332Y-113562295D01*
X178533332Y-113562295D02*
X178533332Y-112762295D01*
X178533332Y-112762295D02*
X178152380Y-112762295D01*
X177809522Y-113562295D02*
X177809522Y-112762295D01*
X177809522Y-112762295D02*
X177352379Y-113562295D01*
X177352379Y-113562295D02*
X177352379Y-112762295D01*
X177009523Y-113333723D02*
X176628570Y-113333723D01*
X177085713Y-113562295D02*
X176819046Y-112762295D01*
X176819046Y-112762295D02*
X176552380Y-113562295D01*
X114432295Y-83580953D02*
X113632295Y-83580953D01*
X114432295Y-83961905D02*
X113632295Y-83961905D01*
X113632295Y-83961905D02*
X114432295Y-84419048D01*
X114432295Y-84419048D02*
X113632295Y-84419048D01*
X114432295Y-84800000D02*
X113632295Y-84800000D01*
X113632295Y-84800000D02*
X113632295Y-84990476D01*
X113632295Y-84990476D02*
X113670390Y-85104762D01*
X113670390Y-85104762D02*
X113746580Y-85180952D01*
X113746580Y-85180952D02*
X113822771Y-85219047D01*
X113822771Y-85219047D02*
X113975152Y-85257143D01*
X113975152Y-85257143D02*
X114089438Y-85257143D01*
X114089438Y-85257143D02*
X114241819Y-85219047D01*
X114241819Y-85219047D02*
X114318009Y-85180952D01*
X114318009Y-85180952D02*
X114394200Y-85104762D01*
X114394200Y-85104762D02*
X114432295Y-84990476D01*
X114432295Y-84990476D02*
X114432295Y-84800000D01*
X114093247Y-81044285D02*
X114131342Y-81158571D01*
X114131342Y-81158571D02*
X114169438Y-81196666D01*
X114169438Y-81196666D02*
X114245628Y-81234762D01*
X114245628Y-81234762D02*
X114359914Y-81234762D01*
X114359914Y-81234762D02*
X114436104Y-81196666D01*
X114436104Y-81196666D02*
X114474200Y-81158571D01*
X114474200Y-81158571D02*
X114512295Y-81082381D01*
X114512295Y-81082381D02*
X114512295Y-80777619D01*
X114512295Y-80777619D02*
X113712295Y-80777619D01*
X113712295Y-80777619D02*
X113712295Y-81044285D01*
X113712295Y-81044285D02*
X113750390Y-81120476D01*
X113750390Y-81120476D02*
X113788485Y-81158571D01*
X113788485Y-81158571D02*
X113864676Y-81196666D01*
X113864676Y-81196666D02*
X113940866Y-81196666D01*
X113940866Y-81196666D02*
X114017057Y-81158571D01*
X114017057Y-81158571D02*
X114055152Y-81120476D01*
X114055152Y-81120476D02*
X114093247Y-81044285D01*
X114093247Y-81044285D02*
X114093247Y-80777619D01*
X114131342Y-81730000D02*
X114512295Y-81730000D01*
X113712295Y-81463333D02*
X114131342Y-81730000D01*
X114131342Y-81730000D02*
X113712295Y-81996666D01*
X114512295Y-82263333D02*
X113712295Y-82263333D01*
X113712295Y-82263333D02*
X113712295Y-82568095D01*
X113712295Y-82568095D02*
X113750390Y-82644285D01*
X113750390Y-82644285D02*
X113788485Y-82682380D01*
X113788485Y-82682380D02*
X113864676Y-82720476D01*
X113864676Y-82720476D02*
X113978961Y-82720476D01*
X113978961Y-82720476D02*
X114055152Y-82682380D01*
X114055152Y-82682380D02*
X114093247Y-82644285D01*
X114093247Y-82644285D02*
X114131342Y-82568095D01*
X114131342Y-82568095D02*
X114131342Y-82263333D01*
X115562295Y-79533332D02*
X114762295Y-79533332D01*
X115028961Y-79914284D02*
X115562295Y-79914284D01*
X115105152Y-79914284D02*
X115067057Y-79952379D01*
X115067057Y-79952379D02*
X115028961Y-80028569D01*
X115028961Y-80028569D02*
X115028961Y-80142855D01*
X115028961Y-80142855D02*
X115067057Y-80219046D01*
X115067057Y-80219046D02*
X115143247Y-80257141D01*
X115143247Y-80257141D02*
X115562295Y-80257141D01*
X115562295Y-80980951D02*
X114762295Y-80980951D01*
X115524200Y-80980951D02*
X115562295Y-80904760D01*
X115562295Y-80904760D02*
X115562295Y-80752379D01*
X115562295Y-80752379D02*
X115524200Y-80676189D01*
X115524200Y-80676189D02*
X115486104Y-80638094D01*
X115486104Y-80638094D02*
X115409914Y-80599998D01*
X115409914Y-80599998D02*
X115181342Y-80599998D01*
X115181342Y-80599998D02*
X115105152Y-80638094D01*
X115105152Y-80638094D02*
X115067057Y-80676189D01*
X115067057Y-80676189D02*
X115028961Y-80752379D01*
X115028961Y-80752379D02*
X115028961Y-80904760D01*
X115028961Y-80904760D02*
X115067057Y-80980951D01*
X115562295Y-81971428D02*
X114762295Y-81971428D01*
X115067057Y-81971428D02*
X115028961Y-82047618D01*
X115028961Y-82047618D02*
X115028961Y-82199999D01*
X115028961Y-82199999D02*
X115067057Y-82276190D01*
X115067057Y-82276190D02*
X115105152Y-82314285D01*
X115105152Y-82314285D02*
X115181342Y-82352380D01*
X115181342Y-82352380D02*
X115409914Y-82352380D01*
X115409914Y-82352380D02*
X115486104Y-82314285D01*
X115486104Y-82314285D02*
X115524200Y-82276190D01*
X115524200Y-82276190D02*
X115562295Y-82199999D01*
X115562295Y-82199999D02*
X115562295Y-82047618D01*
X115562295Y-82047618D02*
X115524200Y-81971428D01*
X115028961Y-82619047D02*
X115562295Y-82809523D01*
X115028961Y-83000000D02*
X115562295Y-82809523D01*
X115562295Y-82809523D02*
X115752771Y-82733333D01*
X115752771Y-82733333D02*
X115790866Y-82695238D01*
X115790866Y-82695238D02*
X115828961Y-82619047D01*
X115028961Y-83304762D02*
X115828961Y-83304762D01*
X115067057Y-83304762D02*
X115028961Y-83380952D01*
X115028961Y-83380952D02*
X115028961Y-83533333D01*
X115028961Y-83533333D02*
X115067057Y-83609524D01*
X115067057Y-83609524D02*
X115105152Y-83647619D01*
X115105152Y-83647619D02*
X115181342Y-83685714D01*
X115181342Y-83685714D02*
X115409914Y-83685714D01*
X115409914Y-83685714D02*
X115486104Y-83647619D01*
X115486104Y-83647619D02*
X115524200Y-83609524D01*
X115524200Y-83609524D02*
X115562295Y-83533333D01*
X115562295Y-83533333D02*
X115562295Y-83380952D01*
X115562295Y-83380952D02*
X115524200Y-83304762D01*
X115562295Y-84371429D02*
X115143247Y-84371429D01*
X115143247Y-84371429D02*
X115067057Y-84333334D01*
X115067057Y-84333334D02*
X115028961Y-84257143D01*
X115028961Y-84257143D02*
X115028961Y-84104762D01*
X115028961Y-84104762D02*
X115067057Y-84028572D01*
X115524200Y-84371429D02*
X115562295Y-84295238D01*
X115562295Y-84295238D02*
X115562295Y-84104762D01*
X115562295Y-84104762D02*
X115524200Y-84028572D01*
X115524200Y-84028572D02*
X115448009Y-83990476D01*
X115448009Y-83990476D02*
X115371819Y-83990476D01*
X115371819Y-83990476D02*
X115295628Y-84028572D01*
X115295628Y-84028572D02*
X115257533Y-84104762D01*
X115257533Y-84104762D02*
X115257533Y-84295238D01*
X115257533Y-84295238D02*
X115219438Y-84371429D01*
X115524200Y-84714286D02*
X115562295Y-84790477D01*
X115562295Y-84790477D02*
X115562295Y-84942858D01*
X115562295Y-84942858D02*
X115524200Y-85019048D01*
X115524200Y-85019048D02*
X115448009Y-85057144D01*
X115448009Y-85057144D02*
X115409914Y-85057144D01*
X115409914Y-85057144D02*
X115333723Y-85019048D01*
X115333723Y-85019048D02*
X115295628Y-84942858D01*
X115295628Y-84942858D02*
X115295628Y-84828572D01*
X115295628Y-84828572D02*
X115257533Y-84752382D01*
X115257533Y-84752382D02*
X115181342Y-84714286D01*
X115181342Y-84714286D02*
X115143247Y-84714286D01*
X115143247Y-84714286D02*
X115067057Y-84752382D01*
X115067057Y-84752382D02*
X115028961Y-84828572D01*
X115028961Y-84828572D02*
X115028961Y-84942858D01*
X115028961Y-84942858D02*
X115067057Y-85019048D01*
X115524200Y-85361905D02*
X115562295Y-85438096D01*
X115562295Y-85438096D02*
X115562295Y-85590477D01*
X115562295Y-85590477D02*
X115524200Y-85666667D01*
X115524200Y-85666667D02*
X115448009Y-85704763D01*
X115448009Y-85704763D02*
X115409914Y-85704763D01*
X115409914Y-85704763D02*
X115333723Y-85666667D01*
X115333723Y-85666667D02*
X115295628Y-85590477D01*
X115295628Y-85590477D02*
X115295628Y-85476191D01*
X115295628Y-85476191D02*
X115257533Y-85400001D01*
X115257533Y-85400001D02*
X115181342Y-85361905D01*
X115181342Y-85361905D02*
X115143247Y-85361905D01*
X115143247Y-85361905D02*
X115067057Y-85400001D01*
X115067057Y-85400001D02*
X115028961Y-85476191D01*
X115028961Y-85476191D02*
X115028961Y-85590477D01*
X115028961Y-85590477D02*
X115067057Y-85666667D01*
X110614285Y-78962295D02*
X110995237Y-78962295D01*
X110995237Y-78962295D02*
X110995237Y-78162295D01*
X110347618Y-78543247D02*
X110080952Y-78543247D01*
X109966666Y-78962295D02*
X110347618Y-78962295D01*
X110347618Y-78962295D02*
X110347618Y-78162295D01*
X110347618Y-78162295D02*
X109966666Y-78162295D01*
X109623808Y-78962295D02*
X109623808Y-78162295D01*
X109623808Y-78162295D02*
X109433332Y-78162295D01*
X109433332Y-78162295D02*
X109319046Y-78200390D01*
X109319046Y-78200390D02*
X109242856Y-78276580D01*
X109242856Y-78276580D02*
X109204761Y-78352771D01*
X109204761Y-78352771D02*
X109166665Y-78505152D01*
X109166665Y-78505152D02*
X109166665Y-78619438D01*
X109166665Y-78619438D02*
X109204761Y-78771819D01*
X109204761Y-78771819D02*
X109242856Y-78848009D01*
X109242856Y-78848009D02*
X109319046Y-78924200D01*
X109319046Y-78924200D02*
X109433332Y-78962295D01*
X109433332Y-78962295D02*
X109623808Y-78962295D01*
X110609523Y-75600390D02*
X110685713Y-75562295D01*
X110685713Y-75562295D02*
X110799999Y-75562295D01*
X110799999Y-75562295D02*
X110914285Y-75600390D01*
X110914285Y-75600390D02*
X110990475Y-75676580D01*
X110990475Y-75676580D02*
X111028570Y-75752771D01*
X111028570Y-75752771D02*
X111066666Y-75905152D01*
X111066666Y-75905152D02*
X111066666Y-76019438D01*
X111066666Y-76019438D02*
X111028570Y-76171819D01*
X111028570Y-76171819D02*
X110990475Y-76248009D01*
X110990475Y-76248009D02*
X110914285Y-76324200D01*
X110914285Y-76324200D02*
X110799999Y-76362295D01*
X110799999Y-76362295D02*
X110723808Y-76362295D01*
X110723808Y-76362295D02*
X110609523Y-76324200D01*
X110609523Y-76324200D02*
X110571427Y-76286104D01*
X110571427Y-76286104D02*
X110571427Y-76019438D01*
X110571427Y-76019438D02*
X110723808Y-76019438D01*
X110228570Y-76362295D02*
X110228570Y-75562295D01*
X110228570Y-75562295D02*
X109771427Y-76362295D01*
X109771427Y-76362295D02*
X109771427Y-75562295D01*
X109390475Y-76362295D02*
X109390475Y-75562295D01*
X109390475Y-75562295D02*
X109199999Y-75562295D01*
X109199999Y-75562295D02*
X109085713Y-75600390D01*
X109085713Y-75600390D02*
X109009523Y-75676580D01*
X109009523Y-75676580D02*
X108971428Y-75752771D01*
X108971428Y-75752771D02*
X108933332Y-75905152D01*
X108933332Y-75905152D02*
X108933332Y-76019438D01*
X108933332Y-76019438D02*
X108971428Y-76171819D01*
X108971428Y-76171819D02*
X109009523Y-76248009D01*
X109009523Y-76248009D02*
X109085713Y-76324200D01*
X109085713Y-76324200D02*
X109199999Y-76362295D01*
X109199999Y-76362295D02*
X109390475Y-76362295D01*
X111166666Y-80562295D02*
X110899999Y-81362295D01*
X110899999Y-81362295D02*
X110633333Y-80562295D01*
X109909523Y-81286104D02*
X109947619Y-81324200D01*
X109947619Y-81324200D02*
X110061904Y-81362295D01*
X110061904Y-81362295D02*
X110138095Y-81362295D01*
X110138095Y-81362295D02*
X110252381Y-81324200D01*
X110252381Y-81324200D02*
X110328571Y-81248009D01*
X110328571Y-81248009D02*
X110366666Y-81171819D01*
X110366666Y-81171819D02*
X110404762Y-81019438D01*
X110404762Y-81019438D02*
X110404762Y-80905152D01*
X110404762Y-80905152D02*
X110366666Y-80752771D01*
X110366666Y-80752771D02*
X110328571Y-80676580D01*
X110328571Y-80676580D02*
X110252381Y-80600390D01*
X110252381Y-80600390D02*
X110138095Y-80562295D01*
X110138095Y-80562295D02*
X110061904Y-80562295D01*
X110061904Y-80562295D02*
X109947619Y-80600390D01*
X109947619Y-80600390D02*
X109909523Y-80638485D01*
X109109523Y-81286104D02*
X109147619Y-81324200D01*
X109147619Y-81324200D02*
X109261904Y-81362295D01*
X109261904Y-81362295D02*
X109338095Y-81362295D01*
X109338095Y-81362295D02*
X109452381Y-81324200D01*
X109452381Y-81324200D02*
X109528571Y-81248009D01*
X109528571Y-81248009D02*
X109566666Y-81171819D01*
X109566666Y-81171819D02*
X109604762Y-81019438D01*
X109604762Y-81019438D02*
X109604762Y-80905152D01*
X109604762Y-80905152D02*
X109566666Y-80752771D01*
X109566666Y-80752771D02*
X109528571Y-80676580D01*
X109528571Y-80676580D02*
X109452381Y-80600390D01*
X109452381Y-80600390D02*
X109338095Y-80562295D01*
X109338095Y-80562295D02*
X109261904Y-80562295D01*
X109261904Y-80562295D02*
X109147619Y-80600390D01*
X109147619Y-80600390D02*
X109109523Y-80638485D01*
X108233333Y-73654819D02*
X108233333Y-74369104D01*
X108233333Y-74369104D02*
X108280952Y-74511961D01*
X108280952Y-74511961D02*
X108376190Y-74607200D01*
X108376190Y-74607200D02*
X108519047Y-74654819D01*
X108519047Y-74654819D02*
X108614285Y-74654819D01*
X107233333Y-74654819D02*
X107804761Y-74654819D01*
X107519047Y-74654819D02*
X107519047Y-73654819D01*
X107519047Y-73654819D02*
X107614285Y-73797676D01*
X107614285Y-73797676D02*
X107709523Y-73892914D01*
X107709523Y-73892914D02*
X107804761Y-73940533D01*
X112833333Y-78254819D02*
X112833333Y-78969104D01*
X112833333Y-78969104D02*
X112880952Y-79111961D01*
X112880952Y-79111961D02*
X112976190Y-79207200D01*
X112976190Y-79207200D02*
X113119047Y-79254819D01*
X113119047Y-79254819D02*
X113214285Y-79254819D01*
X111928571Y-78254819D02*
X112119047Y-78254819D01*
X112119047Y-78254819D02*
X112214285Y-78302438D01*
X112214285Y-78302438D02*
X112261904Y-78350057D01*
X112261904Y-78350057D02*
X112357142Y-78492914D01*
X112357142Y-78492914D02*
X112404761Y-78683390D01*
X112404761Y-78683390D02*
X112404761Y-79064342D01*
X112404761Y-79064342D02*
X112357142Y-79159580D01*
X112357142Y-79159580D02*
X112309523Y-79207200D01*
X112309523Y-79207200D02*
X112214285Y-79254819D01*
X112214285Y-79254819D02*
X112023809Y-79254819D01*
X112023809Y-79254819D02*
X111928571Y-79207200D01*
X111928571Y-79207200D02*
X111880952Y-79159580D01*
X111880952Y-79159580D02*
X111833333Y-79064342D01*
X111833333Y-79064342D02*
X111833333Y-78826247D01*
X111833333Y-78826247D02*
X111880952Y-78731009D01*
X111880952Y-78731009D02*
X111928571Y-78683390D01*
X111928571Y-78683390D02*
X112023809Y-78635771D01*
X112023809Y-78635771D02*
X112214285Y-78635771D01*
X112214285Y-78635771D02*
X112309523Y-78683390D01*
X112309523Y-78683390D02*
X112357142Y-78731009D01*
X112357142Y-78731009D02*
X112404761Y-78826247D01*
X98172604Y-80662295D02*
X98439271Y-80281342D01*
X98629747Y-80662295D02*
X98629747Y-79862295D01*
X98629747Y-79862295D02*
X98324985Y-79862295D01*
X98324985Y-79862295D02*
X98248795Y-79900390D01*
X98248795Y-79900390D02*
X98210700Y-79938485D01*
X98210700Y-79938485D02*
X98172604Y-80014676D01*
X98172604Y-80014676D02*
X98172604Y-80128961D01*
X98172604Y-80128961D02*
X98210700Y-80205152D01*
X98210700Y-80205152D02*
X98248795Y-80243247D01*
X98248795Y-80243247D02*
X98324985Y-80281342D01*
X98324985Y-80281342D02*
X98629747Y-80281342D01*
X97410700Y-80662295D02*
X97867843Y-80662295D01*
X97639271Y-80662295D02*
X97639271Y-79862295D01*
X97639271Y-79862295D02*
X97715462Y-79976580D01*
X97715462Y-79976580D02*
X97791652Y-80052771D01*
X97791652Y-80052771D02*
X97867843Y-80090866D01*
X98172604Y-78424260D02*
X98439271Y-78043307D01*
X98629747Y-78424260D02*
X98629747Y-77624260D01*
X98629747Y-77624260D02*
X98324985Y-77624260D01*
X98324985Y-77624260D02*
X98248795Y-77662355D01*
X98248795Y-77662355D02*
X98210700Y-77700450D01*
X98210700Y-77700450D02*
X98172604Y-77776641D01*
X98172604Y-77776641D02*
X98172604Y-77890926D01*
X98172604Y-77890926D02*
X98210700Y-77967117D01*
X98210700Y-77967117D02*
X98248795Y-78005212D01*
X98248795Y-78005212D02*
X98324985Y-78043307D01*
X98324985Y-78043307D02*
X98629747Y-78043307D01*
X97867843Y-77700450D02*
X97829747Y-77662355D01*
X97829747Y-77662355D02*
X97753557Y-77624260D01*
X97753557Y-77624260D02*
X97563081Y-77624260D01*
X97563081Y-77624260D02*
X97486890Y-77662355D01*
X97486890Y-77662355D02*
X97448795Y-77700450D01*
X97448795Y-77700450D02*
X97410700Y-77776641D01*
X97410700Y-77776641D02*
X97410700Y-77852831D01*
X97410700Y-77852831D02*
X97448795Y-77967117D01*
X97448795Y-77967117D02*
X97905938Y-78424260D01*
X97905938Y-78424260D02*
X97410700Y-78424260D01*
X104762295Y-77509524D02*
X103962295Y-77509524D01*
X103962295Y-77509524D02*
X103962295Y-77814286D01*
X103962295Y-77814286D02*
X104000390Y-77890476D01*
X104000390Y-77890476D02*
X104038485Y-77928571D01*
X104038485Y-77928571D02*
X104114676Y-77966667D01*
X104114676Y-77966667D02*
X104228961Y-77966667D01*
X104228961Y-77966667D02*
X104305152Y-77928571D01*
X104305152Y-77928571D02*
X104343247Y-77890476D01*
X104343247Y-77890476D02*
X104381342Y-77814286D01*
X104381342Y-77814286D02*
X104381342Y-77509524D01*
X104038485Y-78271428D02*
X104000390Y-78309524D01*
X104000390Y-78309524D02*
X103962295Y-78385714D01*
X103962295Y-78385714D02*
X103962295Y-78576190D01*
X103962295Y-78576190D02*
X104000390Y-78652381D01*
X104000390Y-78652381D02*
X104038485Y-78690476D01*
X104038485Y-78690476D02*
X104114676Y-78728571D01*
X104114676Y-78728571D02*
X104190866Y-78728571D01*
X104190866Y-78728571D02*
X104305152Y-78690476D01*
X104305152Y-78690476D02*
X104762295Y-78233333D01*
X104762295Y-78233333D02*
X104762295Y-78728571D01*
X104762295Y-79909524D02*
X103962295Y-79909524D01*
X103962295Y-79909524D02*
X103962295Y-80214286D01*
X103962295Y-80214286D02*
X104000390Y-80290476D01*
X104000390Y-80290476D02*
X104038485Y-80328571D01*
X104038485Y-80328571D02*
X104114676Y-80366667D01*
X104114676Y-80366667D02*
X104228961Y-80366667D01*
X104228961Y-80366667D02*
X104305152Y-80328571D01*
X104305152Y-80328571D02*
X104343247Y-80290476D01*
X104343247Y-80290476D02*
X104381342Y-80214286D01*
X104381342Y-80214286D02*
X104381342Y-79909524D01*
X104762295Y-81128571D02*
X104762295Y-80671428D01*
X104762295Y-80900000D02*
X103962295Y-80900000D01*
X103962295Y-80900000D02*
X104076580Y-80823809D01*
X104076580Y-80823809D02*
X104152771Y-80747619D01*
X104152771Y-80747619D02*
X104190866Y-80671428D01*
D12*
X105435800Y-124280000D02*
X107855800Y-124280000D01*
X105435800Y-125730000D02*
X105435800Y-124280000D01*
X107885800Y-124280000D02*
X107885800Y-125730000D01*
X107885800Y-125730000D02*
X105435800Y-125730000D01*
X123914200Y-59350000D02*
X121494200Y-59350000D01*
X123914200Y-57900000D02*
X123914200Y-59350000D01*
X121464200Y-59350000D02*
X121464200Y-57900000D01*
X121464200Y-57900000D02*
X123914200Y-57900000D01*
X155085800Y-53940000D02*
X157505800Y-53940000D01*
X155085800Y-55390000D02*
X155085800Y-53940000D01*
X157535800Y-53940000D02*
X157535800Y-55390000D01*
X157535800Y-55390000D02*
X155085800Y-55390000D01*
X200914200Y-61100000D02*
X198494200Y-61100000D01*
X200914200Y-59650000D02*
X200914200Y-61100000D01*
X198464200Y-61100000D02*
X198464200Y-59650000D01*
X198464200Y-59650000D02*
X200914200Y-59650000D01*
X145669400Y-118412600D02*
X148089400Y-118412600D01*
X145669400Y-119862600D02*
X145669400Y-118412600D01*
X148119400Y-118412600D02*
X148119400Y-119862600D01*
X148119400Y-119862600D02*
X145669400Y-119862600D01*
X181635800Y-120470000D02*
X184055800Y-120470000D01*
X181635800Y-121920000D02*
X181635800Y-120470000D01*
X184085800Y-120470000D02*
X184085800Y-121920000D01*
X184085800Y-121920000D02*
X181635800Y-121920000D01*
X102335800Y-86650000D02*
X104755800Y-86650000D01*
X102335800Y-88100000D02*
X102335800Y-86650000D01*
X104785800Y-86650000D02*
X104785800Y-88100000D01*
X104785800Y-88100000D02*
X102335800Y-88100000D01*
D10*
X108800000Y-79500000D02*
X107000000Y-79500000D01*
X107000000Y-79500000D02*
X107000000Y-77700000D01*
X107000000Y-77700000D02*
X108800000Y-77700000D01*
X108800000Y-77700000D02*
X108800000Y-79500000D01*
X108800000Y-82000000D02*
X107000000Y-82000000D01*
X107000000Y-82000000D02*
X107000000Y-80200000D01*
X107000000Y-80200000D02*
X108800000Y-80200000D01*
X108800000Y-80200000D02*
X108800000Y-82000000D01*
X108800000Y-76900000D02*
X107000000Y-76900000D01*
X107000000Y-76900000D02*
X107000000Y-75100000D01*
X107000000Y-75100000D02*
X108800000Y-75100000D01*
X108800000Y-75100000D02*
X108800000Y-76900000D01*
X111600000Y-82100000D02*
X113400000Y-82100000D01*
X113400000Y-82100000D02*
X113400000Y-83900000D01*
X113400000Y-83900000D02*
X111600000Y-83900000D01*
X111600000Y-83900000D02*
X111600000Y-82100000D01*
X111600000Y-79600000D02*
X113400000Y-79600000D01*
X113400000Y-79600000D02*
X113400000Y-81400000D01*
X113400000Y-81400000D02*
X111600000Y-81400000D01*
X111600000Y-81400000D02*
X111600000Y-79600000D01*
X111600000Y-84700000D02*
X113400000Y-84700000D01*
X113400000Y-84700000D02*
X113400000Y-86500000D01*
X113400000Y-86500000D02*
X111600000Y-86500000D01*
X111600000Y-86500000D02*
X111600000Y-84700000D01*
D12*
X219220600Y-47050000D02*
X219220600Y-48500000D01*
X219220600Y-48500000D02*
X217170600Y-48500000D01*
X217170600Y-48500000D02*
X217170600Y-47050000D01*
X217170600Y-47050000D02*
X219220600Y-47050000D01*
D13*
X221100000Y-54000000D02*
X221100000Y-55799999D01*
D14*
X219970000Y-57500000D02*
X219970000Y-55260000D01*
D15*
X211400000Y-56300000D02*
X211400000Y-55600000D01*
D16*
X211900000Y-58400000D02*
X211900000Y-55900000D01*
D17*
X221500000Y-53700000D02*
X218800000Y-53700000D01*
D10*
X216200000Y-55400000D02*
X211200000Y-55400000D01*
X221700000Y-56100000D02*
X221500000Y-56100000D01*
X211400000Y-58650000D02*
X211200000Y-58650000D01*
X221700000Y-57100000D02*
X221700000Y-56100000D01*
X211200000Y-56400000D02*
X211400000Y-56400000D01*
X221700000Y-53500000D02*
X218420000Y-53500000D01*
X221500000Y-53860000D02*
X221700000Y-53860000D01*
D15*
X211400000Y-58800000D02*
X212800000Y-58800000D01*
D10*
X221700000Y-53500000D02*
X221700000Y-53860000D01*
X211420000Y-56400000D02*
X211420000Y-58650000D01*
D12*
X221600000Y-56200001D02*
X221600000Y-57100000D01*
D10*
X211200000Y-55400000D02*
X211200000Y-56400000D01*
D17*
X211500000Y-55700000D02*
X212900000Y-55700000D01*
D10*
X211200000Y-58650000D02*
X211200000Y-59000000D01*
D18*
X213200000Y-57200000D02*
X219900000Y-57200000D01*
D10*
X211200000Y-59000000D02*
X219600001Y-59000000D01*
X221470000Y-56100000D02*
X221470000Y-53860000D01*
X218416318Y-53521471D02*
G75*
G02*
X216200000Y-55400000I-2151318J291471D01*
G01*
X221700000Y-57099999D02*
G75*
G02*
X219600001Y-59000000I-2000000J99999D01*
G01*
D16*
X218816318Y-53921471D02*
G75*
G02*
X216600000Y-55800000I-2151318J291471D01*
G01*
D12*
X162020600Y-96840000D02*
X162020600Y-98290000D01*
X162020600Y-98290000D02*
X159970600Y-98290000D01*
X159970600Y-98290000D02*
X159970600Y-96840000D01*
X159970600Y-96840000D02*
X162020600Y-96840000D01*
D13*
X163900000Y-103790000D02*
X163900000Y-105589999D01*
D14*
X162770000Y-107290000D02*
X162770000Y-105050000D01*
D15*
X154200000Y-106090000D02*
X154200000Y-105390000D01*
D16*
X154700000Y-108190000D02*
X154700000Y-105690000D01*
D17*
X164300000Y-103490000D02*
X161600000Y-103490000D01*
D10*
X159000000Y-105190000D02*
X154000000Y-105190000D01*
X164500000Y-105890000D02*
X164300000Y-105890000D01*
X154200000Y-108440000D02*
X154000000Y-108440000D01*
X164500000Y-106890000D02*
X164500000Y-105890000D01*
X154000000Y-106190000D02*
X154200000Y-106190000D01*
X164500000Y-103290000D02*
X161220000Y-103290000D01*
X164300000Y-103650000D02*
X164500000Y-103650000D01*
D15*
X154200000Y-108590000D02*
X155600000Y-108590000D01*
D10*
X164500000Y-103290000D02*
X164500000Y-103650000D01*
X154220000Y-106190000D02*
X154220000Y-108440000D01*
D12*
X164400000Y-105990001D02*
X164400000Y-106890000D01*
D10*
X154000000Y-105190000D02*
X154000000Y-106190000D01*
D17*
X154300000Y-105490000D02*
X155700000Y-105490000D01*
D10*
X154000000Y-108440000D02*
X154000000Y-108790000D01*
D18*
X156000000Y-106990000D02*
X162700000Y-106990000D01*
D10*
X154000000Y-108790000D02*
X162400001Y-108790000D01*
X164270000Y-105890000D02*
X164270000Y-103650000D01*
D16*
X161616318Y-103711471D02*
G75*
G02*
X159400000Y-105590000I-2151318J291471D01*
G01*
D10*
X164500000Y-106889999D02*
G75*
G02*
X162400001Y-108790000I-2000000J99999D01*
G01*
X161216318Y-103311471D02*
G75*
G02*
X159000000Y-105190000I-2151318J291471D01*
G01*
D12*
X200120600Y-104150000D02*
X200120600Y-105600000D01*
X200120600Y-105600000D02*
X198070600Y-105600000D01*
X198070600Y-105600000D02*
X198070600Y-104150000D01*
X198070600Y-104150000D02*
X200120600Y-104150000D01*
D13*
X202000000Y-111100000D02*
X202000000Y-112899999D01*
D14*
X200870000Y-114600000D02*
X200870000Y-112360000D01*
D15*
X192300000Y-113400000D02*
X192300000Y-112700000D01*
D16*
X192800000Y-115500000D02*
X192800000Y-113000000D01*
D17*
X202400000Y-110800000D02*
X199700000Y-110800000D01*
D10*
X197100000Y-112500000D02*
X192100000Y-112500000D01*
X202600000Y-113200000D02*
X202400000Y-113200000D01*
X192300000Y-115750000D02*
X192100000Y-115750000D01*
X202600000Y-114200000D02*
X202600000Y-113200000D01*
X192100000Y-113500000D02*
X192300000Y-113500000D01*
X202600000Y-110600000D02*
X199320000Y-110600000D01*
X202400000Y-110960000D02*
X202600000Y-110960000D01*
D15*
X192300000Y-115900000D02*
X193700000Y-115900000D01*
D10*
X202600000Y-110600000D02*
X202600000Y-110960000D01*
X192320000Y-113500000D02*
X192320000Y-115750000D01*
D12*
X202500000Y-113300001D02*
X202500000Y-114200000D01*
D10*
X192100000Y-112500000D02*
X192100000Y-113500000D01*
D17*
X192400000Y-112800000D02*
X193800000Y-112800000D01*
D10*
X192100000Y-115750000D02*
X192100000Y-116100000D01*
D18*
X194100000Y-114300000D02*
X200800000Y-114300000D01*
D10*
X192100000Y-116100000D02*
X200500001Y-116100000D01*
X202370000Y-113200000D02*
X202370000Y-110960000D01*
D16*
X199716318Y-111021471D02*
G75*
G02*
X197500000Y-112900000I-2151318J291471D01*
G01*
D10*
X202600000Y-114199999D02*
G75*
G02*
X200500001Y-116100000I-2000000J99999D01*
G01*
X199316318Y-110621471D02*
G75*
G02*
X197100000Y-112500000I-2151318J291471D01*
G01*
D12*
X219120600Y-65950000D02*
X219120600Y-67400000D01*
X219120600Y-67400000D02*
X217070600Y-67400000D01*
X217070600Y-67400000D02*
X217070600Y-65950000D01*
X217070600Y-65950000D02*
X219120600Y-65950000D01*
D13*
X221000000Y-72900000D02*
X221000000Y-74699999D01*
D14*
X219870000Y-76400000D02*
X219870000Y-74160000D01*
D15*
X211300000Y-75200000D02*
X211300000Y-74500000D01*
D16*
X211800000Y-77300000D02*
X211800000Y-74800000D01*
D17*
X221400000Y-72600000D02*
X218700000Y-72600000D01*
D10*
X216100000Y-74300000D02*
X211100000Y-74300000D01*
X221600000Y-75000000D02*
X221400000Y-75000000D01*
X211300000Y-77550000D02*
X211100000Y-77550000D01*
X221600000Y-76000000D02*
X221600000Y-75000000D01*
X211100000Y-75300000D02*
X211300000Y-75300000D01*
X221600000Y-72400000D02*
X218320000Y-72400000D01*
X221400000Y-72760000D02*
X221600000Y-72760000D01*
D15*
X211300000Y-77700000D02*
X212700000Y-77700000D01*
D10*
X221600000Y-72400000D02*
X221600000Y-72760000D01*
X211320000Y-75300000D02*
X211320000Y-77550000D01*
D12*
X221500000Y-75100001D02*
X221500000Y-76000000D01*
D10*
X211100000Y-74300000D02*
X211100000Y-75300000D01*
D17*
X211400000Y-74600000D02*
X212800000Y-74600000D01*
D10*
X211100000Y-77550000D02*
X211100000Y-77900000D01*
D18*
X213100000Y-76100000D02*
X219800000Y-76100000D01*
D10*
X211100000Y-77900000D02*
X219500001Y-77900000D01*
X221370000Y-75000000D02*
X221370000Y-72760000D01*
D16*
X218716318Y-72821471D02*
G75*
G02*
X216500000Y-74700000I-2151318J291471D01*
G01*
D10*
X221600000Y-75999999D02*
G75*
G02*
X219500001Y-77900000I-2000000J99999D01*
G01*
X218316318Y-72421471D02*
G75*
G02*
X216100000Y-74300000I-2151318J291471D01*
G01*
D12*
X200120600Y-65950000D02*
X200120600Y-67400000D01*
X200120600Y-67400000D02*
X198070600Y-67400000D01*
X198070600Y-67400000D02*
X198070600Y-65950000D01*
X198070600Y-65950000D02*
X200120600Y-65950000D01*
D13*
X202000000Y-72900000D02*
X202000000Y-74699999D01*
D14*
X200870000Y-76400000D02*
X200870000Y-74160000D01*
D15*
X192300000Y-75200000D02*
X192300000Y-74500000D01*
D16*
X192800000Y-77300000D02*
X192800000Y-74800000D01*
D17*
X202400000Y-72600000D02*
X199700000Y-72600000D01*
D10*
X197100000Y-74300000D02*
X192100000Y-74300000D01*
X202600000Y-75000000D02*
X202400000Y-75000000D01*
X192300000Y-77550000D02*
X192100000Y-77550000D01*
X202600000Y-76000000D02*
X202600000Y-75000000D01*
X192100000Y-75300000D02*
X192300000Y-75300000D01*
X202600000Y-72400000D02*
X199320000Y-72400000D01*
X202400000Y-72760000D02*
X202600000Y-72760000D01*
D15*
X192300000Y-77700000D02*
X193700000Y-77700000D01*
D10*
X202600000Y-72400000D02*
X202600000Y-72760000D01*
X192320000Y-75300000D02*
X192320000Y-77550000D01*
D12*
X202500000Y-75100001D02*
X202500000Y-76000000D01*
D10*
X192100000Y-74300000D02*
X192100000Y-75300000D01*
D17*
X192400000Y-74600000D02*
X193800000Y-74600000D01*
D10*
X192100000Y-77550000D02*
X192100000Y-77900000D01*
D18*
X194100000Y-76100000D02*
X200800000Y-76100000D01*
D10*
X192100000Y-77900000D02*
X200500001Y-77900000D01*
X202370000Y-75000000D02*
X202370000Y-72760000D01*
D16*
X199716318Y-72821471D02*
G75*
G02*
X197500000Y-74700000I-2151318J291471D01*
G01*
D10*
X202600000Y-75999999D02*
G75*
G02*
X200500001Y-77900000I-2000000J99999D01*
G01*
X199316318Y-72421471D02*
G75*
G02*
X197100000Y-74300000I-2151318J291471D01*
G01*
D12*
X200120600Y-85150000D02*
X200120600Y-86600000D01*
X200120600Y-86600000D02*
X198070600Y-86600000D01*
X198070600Y-86600000D02*
X198070600Y-85150000D01*
X198070600Y-85150000D02*
X200120600Y-85150000D01*
D13*
X202000000Y-92100000D02*
X202000000Y-93899999D01*
D14*
X200870000Y-95600000D02*
X200870000Y-93360000D01*
D15*
X192300000Y-94400000D02*
X192300000Y-93700000D01*
D16*
X192800000Y-96500000D02*
X192800000Y-94000000D01*
D17*
X202400000Y-91800000D02*
X199700000Y-91800000D01*
D10*
X197100000Y-93500000D02*
X192100000Y-93500000D01*
X202600000Y-94200000D02*
X202400000Y-94200000D01*
X192300000Y-96750000D02*
X192100000Y-96750000D01*
X202600000Y-95200000D02*
X202600000Y-94200000D01*
X192100000Y-94500000D02*
X192300000Y-94500000D01*
X202600000Y-91600000D02*
X199320000Y-91600000D01*
X202400000Y-91960000D02*
X202600000Y-91960000D01*
D15*
X192300000Y-96900000D02*
X193700000Y-96900000D01*
D10*
X202600000Y-91600000D02*
X202600000Y-91960000D01*
X192320000Y-94500000D02*
X192320000Y-96750000D01*
D12*
X202500000Y-94300001D02*
X202500000Y-95200000D01*
D10*
X192100000Y-93500000D02*
X192100000Y-94500000D01*
D17*
X192400000Y-93800000D02*
X193800000Y-93800000D01*
D10*
X192100000Y-96750000D02*
X192100000Y-97100000D01*
D18*
X194100000Y-95300000D02*
X200800000Y-95300000D01*
D10*
X192100000Y-97100000D02*
X200500001Y-97100000D01*
X202370000Y-94200000D02*
X202370000Y-91960000D01*
D16*
X199716318Y-92021471D02*
G75*
G02*
X197500000Y-93900000I-2151318J291471D01*
G01*
D10*
X202600000Y-95199999D02*
G75*
G02*
X200500001Y-97100000I-2000000J99999D01*
G01*
X199316318Y-91621471D02*
G75*
G02*
X197100000Y-93500000I-2151318J291471D01*
G01*
D12*
X142920600Y-42150000D02*
X142920600Y-43600000D01*
X142920600Y-43600000D02*
X140870600Y-43600000D01*
X140870600Y-43600000D02*
X140870600Y-42150000D01*
X140870600Y-42150000D02*
X142920600Y-42150000D01*
D13*
X144800000Y-49100000D02*
X144800000Y-50899999D01*
D14*
X143670000Y-52600000D02*
X143670000Y-50360000D01*
D15*
X135100000Y-51400000D02*
X135100000Y-50700000D01*
D16*
X135600000Y-53500000D02*
X135600000Y-51000000D01*
D17*
X145200000Y-48800000D02*
X142500000Y-48800000D01*
D10*
X139900000Y-50500000D02*
X134900000Y-50500000D01*
X145400000Y-51200000D02*
X145200000Y-51200000D01*
X135100000Y-53750000D02*
X134900000Y-53750000D01*
X145400000Y-52200000D02*
X145400000Y-51200000D01*
X134900000Y-51500000D02*
X135100000Y-51500000D01*
X145400000Y-48600000D02*
X142120000Y-48600000D01*
X145200000Y-48960000D02*
X145400000Y-48960000D01*
D15*
X135100000Y-53900000D02*
X136500000Y-53900000D01*
D10*
X145400000Y-48600000D02*
X145400000Y-48960000D01*
X135120000Y-51500000D02*
X135120000Y-53750000D01*
D12*
X145300000Y-51300001D02*
X145300000Y-52200000D01*
D10*
X134900000Y-50500000D02*
X134900000Y-51500000D01*
D17*
X135200000Y-50800000D02*
X136600000Y-50800000D01*
D10*
X134900000Y-53750000D02*
X134900000Y-54100000D01*
D18*
X136900000Y-52300000D02*
X143600000Y-52300000D01*
D10*
X134900000Y-54100000D02*
X143300001Y-54100000D01*
X145170000Y-51200000D02*
X145170000Y-48960000D01*
D16*
X142516318Y-49021471D02*
G75*
G02*
X140300000Y-50900000I-2151318J291471D01*
G01*
D10*
X145400000Y-52199999D02*
G75*
G02*
X143300001Y-54100000I-2000000J99999D01*
G01*
X142116318Y-48621471D02*
G75*
G02*
X139900000Y-50500000I-2151318J291471D01*
G01*
X125305000Y-118520000D02*
X125305000Y-119520000D01*
X125405000Y-119020000D02*
X126305000Y-118520000D01*
X126305000Y-118520000D02*
X126305000Y-119520000D01*
X126305000Y-119520000D02*
X125405000Y-119020000D01*
X128505000Y-118270000D02*
X123105000Y-118270000D01*
X123105000Y-118270000D02*
X123105000Y-119770000D01*
X123105000Y-119770000D02*
X128505000Y-119770000D01*
X128505000Y-119770000D02*
X128505000Y-118270000D01*
X128475000Y-122350000D02*
X128475000Y-120850000D01*
X123075000Y-122350000D02*
X128475000Y-122350000D01*
X123075000Y-120850000D02*
X123075000Y-122350000D01*
X128475000Y-120850000D02*
X123075000Y-120850000D01*
X126275000Y-122100000D02*
X125375000Y-121600000D01*
X126275000Y-121100000D02*
X126275000Y-122100000D01*
X125375000Y-121600000D02*
X126275000Y-121100000D01*
X125275000Y-121100000D02*
X125275000Y-122100000D01*
X125275000Y-123700000D02*
X125275000Y-124700000D01*
X125375000Y-124200000D02*
X126275000Y-123700000D01*
X126275000Y-123700000D02*
X126275000Y-124700000D01*
X126275000Y-124700000D02*
X125375000Y-124200000D01*
X128475000Y-123450000D02*
X123075000Y-123450000D01*
X123075000Y-123450000D02*
X123075000Y-124950000D01*
X123075000Y-124950000D02*
X128475000Y-124950000D01*
X128475000Y-124950000D02*
X128475000Y-123450000D01*
X109924800Y-120124800D02*
X109924800Y-121124800D01*
X110024800Y-120624800D02*
X110924800Y-120124800D01*
X110924800Y-120124800D02*
X110924800Y-121124800D01*
X110924800Y-121124800D02*
X110024800Y-120624800D01*
X113124800Y-119874800D02*
X107724800Y-119874800D01*
X107724800Y-119874800D02*
X107724800Y-121374800D01*
X107724800Y-121374800D02*
X113124800Y-121374800D01*
X113124800Y-121374800D02*
X113124800Y-119874800D01*
X100300000Y-123100000D02*
X100300000Y-124100000D01*
X100400000Y-123600000D02*
X101300000Y-123100000D01*
X101300000Y-123100000D02*
X101300000Y-124100000D01*
X101300000Y-124100000D02*
X100400000Y-123600000D01*
X103500000Y-122850000D02*
X98100000Y-122850000D01*
X98100000Y-122850000D02*
X98100000Y-124350000D01*
X98100000Y-124350000D02*
X103500000Y-124350000D01*
X103500000Y-124350000D02*
X103500000Y-122850000D01*
X106500000Y-96500000D02*
X106500000Y-97500000D01*
X106600000Y-97000000D02*
X107500000Y-96500000D01*
X107500000Y-96500000D02*
X107500000Y-97500000D01*
X107500000Y-97500000D02*
X106600000Y-97000000D01*
X109700000Y-96250000D02*
X104300000Y-96250000D01*
X104300000Y-96250000D02*
X104300000Y-97750000D01*
X104300000Y-97750000D02*
X109700000Y-97750000D01*
X109700000Y-97750000D02*
X109700000Y-96250000D01*
X208700000Y-104675000D02*
X207700000Y-104675000D01*
X208200000Y-104775000D02*
X208700000Y-105675000D01*
X208700000Y-105675000D02*
X207700000Y-105675000D01*
X207700000Y-105675000D02*
X208200000Y-104775000D01*
X208950000Y-107875000D02*
X208950000Y-102475000D01*
X208950000Y-102475000D02*
X207450000Y-102475000D01*
X207450000Y-102475000D02*
X207450000Y-107875000D01*
X207450000Y-107875000D02*
X208950000Y-107875000D01*
X189000000Y-106250000D02*
X188000000Y-106250000D01*
X188500000Y-106350000D02*
X189000000Y-107250000D01*
X189000000Y-107250000D02*
X188000000Y-107250000D01*
X188000000Y-107250000D02*
X188500000Y-106350000D01*
X189250000Y-109450000D02*
X189250000Y-104050000D01*
X189250000Y-104050000D02*
X187750000Y-104050000D01*
X187750000Y-104050000D02*
X187750000Y-109450000D01*
X187750000Y-109450000D02*
X189250000Y-109450000D01*
X169750000Y-101650000D02*
X168750000Y-101650000D01*
X169250000Y-101750000D02*
X169750000Y-102650000D01*
X169750000Y-102650000D02*
X168750000Y-102650000D01*
X168750000Y-102650000D02*
X169250000Y-101750000D01*
X170000000Y-104850000D02*
X170000000Y-99450000D01*
X170000000Y-99450000D02*
X168500000Y-99450000D01*
X168500000Y-99450000D02*
X168500000Y-104850000D01*
X168500000Y-104850000D02*
X170000000Y-104850000D01*
X150500000Y-98065000D02*
X149500000Y-98065000D01*
X150000000Y-98165000D02*
X150500000Y-99065000D01*
X150500000Y-99065000D02*
X149500000Y-99065000D01*
X149500000Y-99065000D02*
X150000000Y-98165000D01*
X150750000Y-101265000D02*
X150750000Y-95865000D01*
X150750000Y-95865000D02*
X149250000Y-95865000D01*
X149250000Y-95865000D02*
X149250000Y-101265000D01*
X149250000Y-101265000D02*
X150750000Y-101265000D01*
X131500000Y-102675000D02*
X130500000Y-102675000D01*
X131000000Y-102775000D02*
X131500000Y-103675000D01*
X131500000Y-103675000D02*
X130500000Y-103675000D01*
X130500000Y-103675000D02*
X131000000Y-102775000D01*
X131750000Y-105875000D02*
X131750000Y-100475000D01*
X131750000Y-100475000D02*
X130250000Y-100475000D01*
X130250000Y-100475000D02*
X130250000Y-105875000D01*
X130250000Y-105875000D02*
X131750000Y-105875000D01*
X112500000Y-102250000D02*
X111500000Y-102250000D01*
X112000000Y-102350000D02*
X112500000Y-103250000D01*
X112500000Y-103250000D02*
X111500000Y-103250000D01*
X111500000Y-103250000D02*
X112000000Y-102350000D01*
X112750000Y-105450000D02*
X112750000Y-100050000D01*
X112750000Y-100050000D02*
X111250000Y-100050000D01*
X111250000Y-100050000D02*
X111250000Y-105450000D01*
X111250000Y-105450000D02*
X112750000Y-105450000D01*
X208250000Y-85775000D02*
X207250000Y-85775000D01*
X207750000Y-85875000D02*
X208250000Y-86775000D01*
X208250000Y-86775000D02*
X207250000Y-86775000D01*
X207250000Y-86775000D02*
X207750000Y-85875000D01*
X208500000Y-88975000D02*
X208500000Y-83575000D01*
X208500000Y-83575000D02*
X207000000Y-83575000D01*
X207000000Y-83575000D02*
X207000000Y-88975000D01*
X207000000Y-88975000D02*
X208500000Y-88975000D01*
X189000000Y-88275000D02*
X188000000Y-88275000D01*
X188500000Y-88375000D02*
X189000000Y-89275000D01*
X189000000Y-89275000D02*
X188000000Y-89275000D01*
X188000000Y-89275000D02*
X188500000Y-88375000D01*
X189250000Y-91475000D02*
X189250000Y-86075000D01*
X189250000Y-86075000D02*
X187750000Y-86075000D01*
X187750000Y-86075000D02*
X187750000Y-91475000D01*
X187750000Y-91475000D02*
X189250000Y-91475000D01*
X170225000Y-82925000D02*
X169225000Y-82925000D01*
X169725000Y-83025000D02*
X170225000Y-83925000D01*
X170225000Y-83925000D02*
X169225000Y-83925000D01*
X169225000Y-83925000D02*
X169725000Y-83025000D01*
X170475000Y-86125000D02*
X170475000Y-80725000D01*
X170475000Y-80725000D02*
X168975000Y-80725000D01*
X168975000Y-80725000D02*
X168975000Y-86125000D01*
X168975000Y-86125000D02*
X170475000Y-86125000D01*
X150250000Y-81065000D02*
X149250000Y-81065000D01*
X149750000Y-81165000D02*
X150250000Y-82065000D01*
X150250000Y-82065000D02*
X149250000Y-82065000D01*
X149250000Y-82065000D02*
X149750000Y-81165000D01*
X150500000Y-84265000D02*
X150500000Y-78865000D01*
X150500000Y-78865000D02*
X149000000Y-78865000D01*
X149000000Y-78865000D02*
X149000000Y-84265000D01*
X149000000Y-84265000D02*
X150500000Y-84265000D01*
X131750000Y-83175000D02*
X130750000Y-83175000D01*
X131250000Y-83275000D02*
X131750000Y-84175000D01*
X131750000Y-84175000D02*
X130750000Y-84175000D01*
X130750000Y-84175000D02*
X131250000Y-83275000D01*
X132000000Y-86375000D02*
X132000000Y-80975000D01*
X132000000Y-80975000D02*
X130500000Y-80975000D01*
X130500000Y-80975000D02*
X130500000Y-86375000D01*
X130500000Y-86375000D02*
X132000000Y-86375000D01*
X129000000Y-83275000D02*
X128000000Y-83275000D01*
X128500000Y-83375000D02*
X129000000Y-84275000D01*
X129000000Y-84275000D02*
X128000000Y-84275000D01*
X128000000Y-84275000D02*
X128500000Y-83375000D01*
X129250000Y-86475000D02*
X129250000Y-81075000D01*
X129250000Y-81075000D02*
X127750000Y-81075000D01*
X127750000Y-81075000D02*
X127750000Y-86475000D01*
X127750000Y-86475000D02*
X129250000Y-86475000D01*
X208250000Y-66775000D02*
X207250000Y-66775000D01*
X207750000Y-66875000D02*
X208250000Y-67775000D01*
X208250000Y-67775000D02*
X207250000Y-67775000D01*
X207250000Y-67775000D02*
X207750000Y-66875000D01*
X208500000Y-69975000D02*
X208500000Y-64575000D01*
X208500000Y-64575000D02*
X207000000Y-64575000D01*
X207000000Y-64575000D02*
X207000000Y-69975000D01*
X207000000Y-69975000D02*
X208500000Y-69975000D01*
X188750000Y-66275000D02*
X187750000Y-66275000D01*
X188250000Y-66375000D02*
X188750000Y-67275000D01*
X188750000Y-67275000D02*
X187750000Y-67275000D01*
X187750000Y-67275000D02*
X188250000Y-66375000D01*
X189000000Y-69475000D02*
X189000000Y-64075000D01*
X189000000Y-64075000D02*
X187500000Y-64075000D01*
X187500000Y-64075000D02*
X187500000Y-69475000D01*
X187500000Y-69475000D02*
X189000000Y-69475000D01*
X170000000Y-63150000D02*
X169000000Y-63150000D01*
X169500000Y-63250000D02*
X170000000Y-64150000D01*
X170000000Y-64150000D02*
X169000000Y-64150000D01*
X169000000Y-64150000D02*
X169500000Y-63250000D01*
X170250000Y-66350000D02*
X170250000Y-60950000D01*
X170250000Y-60950000D02*
X168750000Y-60950000D01*
X168750000Y-60950000D02*
X168750000Y-66350000D01*
X168750000Y-66350000D02*
X170250000Y-66350000D01*
X150750000Y-60565000D02*
X149750000Y-60565000D01*
X150250000Y-60665000D02*
X150750000Y-61565000D01*
X150750000Y-61565000D02*
X149750000Y-61565000D01*
X149750000Y-61565000D02*
X150250000Y-60665000D01*
X151000000Y-63765000D02*
X151000000Y-58365000D01*
X151000000Y-58365000D02*
X149500000Y-58365000D01*
X149500000Y-58365000D02*
X149500000Y-63765000D01*
X149500000Y-63765000D02*
X151000000Y-63765000D01*
X130300000Y-63300000D02*
X129300000Y-63300000D01*
X129800000Y-63400000D02*
X130300000Y-64300000D01*
X130300000Y-64300000D02*
X129300000Y-64300000D01*
X129300000Y-64300000D02*
X129800000Y-63400000D01*
X130550000Y-66500000D02*
X130550000Y-61100000D01*
X130550000Y-61100000D02*
X129050000Y-61100000D01*
X129050000Y-61100000D02*
X129050000Y-66500000D01*
X129050000Y-66500000D02*
X130550000Y-66500000D01*
X127300000Y-63275000D02*
X126300000Y-63275000D01*
X126800000Y-63375000D02*
X127300000Y-64275000D01*
X127300000Y-64275000D02*
X126300000Y-64275000D01*
X126300000Y-64275000D02*
X126800000Y-63375000D01*
X127550000Y-66475000D02*
X127550000Y-61075000D01*
X127550000Y-61075000D02*
X126050000Y-61075000D01*
X126050000Y-61075000D02*
X126050000Y-66475000D01*
X126050000Y-66475000D02*
X127550000Y-66475000D01*
X208250000Y-49525000D02*
X207250000Y-49525000D01*
X207750000Y-49625000D02*
X208250000Y-50525000D01*
X208250000Y-50525000D02*
X207250000Y-50525000D01*
X207250000Y-50525000D02*
X207750000Y-49625000D01*
X208500000Y-52725000D02*
X208500000Y-47325000D01*
X208500000Y-47325000D02*
X207000000Y-47325000D01*
X207000000Y-47325000D02*
X207000000Y-52725000D01*
X207000000Y-52725000D02*
X208500000Y-52725000D01*
X188500000Y-49750000D02*
X187500000Y-49750000D01*
X188000000Y-49850000D02*
X188500000Y-50750000D01*
X188500000Y-50750000D02*
X187500000Y-50750000D01*
X187500000Y-50750000D02*
X188000000Y-49850000D01*
X188750000Y-52950000D02*
X188750000Y-47550000D01*
X188750000Y-47550000D02*
X187250000Y-47550000D01*
X187250000Y-47550000D02*
X187250000Y-52950000D01*
X187250000Y-52950000D02*
X188750000Y-52950000D01*
X169750000Y-44925000D02*
X168750000Y-44925000D01*
X169250000Y-45025000D02*
X169750000Y-45925000D01*
X169750000Y-45925000D02*
X168750000Y-45925000D01*
X168750000Y-45925000D02*
X169250000Y-45025000D01*
X170000000Y-48125000D02*
X170000000Y-42725000D01*
X170000000Y-42725000D02*
X168500000Y-42725000D01*
X168500000Y-42725000D02*
X168500000Y-48125000D01*
X168500000Y-48125000D02*
X170000000Y-48125000D01*
X151000000Y-42540000D02*
X150000000Y-42540000D01*
X150500000Y-42640000D02*
X151000000Y-43540000D01*
X151000000Y-43540000D02*
X150000000Y-43540000D01*
X150000000Y-43540000D02*
X150500000Y-42640000D01*
X151250000Y-45740000D02*
X151250000Y-40340000D01*
X151250000Y-40340000D02*
X149750000Y-40340000D01*
X149750000Y-40340000D02*
X149750000Y-45740000D01*
X149750000Y-45740000D02*
X151250000Y-45740000D01*
X131500000Y-45280500D02*
X130500000Y-45280500D01*
X131000000Y-45380500D02*
X131500000Y-46280500D01*
X131500000Y-46280500D02*
X130500000Y-46280500D01*
X130500000Y-46280500D02*
X131000000Y-45380500D01*
X131750000Y-48480500D02*
X131750000Y-43080500D01*
X131750000Y-43080500D02*
X130250000Y-43080500D01*
X130250000Y-43080500D02*
X130250000Y-48480500D01*
X130250000Y-48480500D02*
X131750000Y-48480500D01*
X129250000Y-45275000D02*
X128250000Y-45275000D01*
X128750000Y-45375000D02*
X129250000Y-46275000D01*
X129250000Y-46275000D02*
X128250000Y-46275000D01*
X128250000Y-46275000D02*
X128750000Y-45375000D01*
X129500000Y-48475000D02*
X129500000Y-43075000D01*
X129500000Y-43075000D02*
X128000000Y-43075000D01*
X128000000Y-43075000D02*
X128000000Y-48475000D01*
X128000000Y-48475000D02*
X129500000Y-48475000D01*
D12*
X181020600Y-118450000D02*
X181020600Y-119900000D01*
X181020600Y-119900000D02*
X178970600Y-119900000D01*
X178970600Y-119900000D02*
X178970600Y-118450000D01*
X178970600Y-118450000D02*
X181020600Y-118450000D01*
D13*
X182900000Y-125400000D02*
X182900000Y-127199999D01*
D14*
X181770000Y-128900000D02*
X181770000Y-126660000D01*
D15*
X173200000Y-127700000D02*
X173200000Y-127000000D01*
D16*
X173700000Y-129800000D02*
X173700000Y-127300000D01*
D17*
X183300000Y-125100000D02*
X180600000Y-125100000D01*
D10*
X178000000Y-126800000D02*
X173000000Y-126800000D01*
X183500000Y-127500000D02*
X183300000Y-127500000D01*
X173200000Y-130050000D02*
X173000000Y-130050000D01*
X183500000Y-128500000D02*
X183500000Y-127500000D01*
X173000000Y-127800000D02*
X173200000Y-127800000D01*
X183500000Y-124900000D02*
X180220000Y-124900000D01*
X183300000Y-125260000D02*
X183500000Y-125260000D01*
D15*
X173200000Y-130200000D02*
X174600000Y-130200000D01*
D10*
X183500000Y-124900000D02*
X183500000Y-125260000D01*
X173220000Y-127800000D02*
X173220000Y-130050000D01*
D12*
X183400000Y-127600001D02*
X183400000Y-128500000D01*
D10*
X173000000Y-126800000D02*
X173000000Y-127800000D01*
D17*
X173300000Y-127100000D02*
X174700000Y-127100000D01*
D10*
X173000000Y-130050000D02*
X173000000Y-130400000D01*
D18*
X175000000Y-128600000D02*
X181700000Y-128600000D01*
D10*
X173000000Y-130400000D02*
X181400001Y-130400000D01*
X183270000Y-127500000D02*
X183270000Y-125260000D01*
D16*
X180616318Y-125321471D02*
G75*
G02*
X178400000Y-127200000I-2151318J291471D01*
G01*
D10*
X183500000Y-128499999D02*
G75*
G02*
X181400001Y-130400000I-2000000J99999D01*
G01*
X180216318Y-124921471D02*
G75*
G02*
X178000000Y-126800000I-2151318J291471D01*
G01*
D12*
X162020600Y-115940000D02*
X162020600Y-117390000D01*
X162020600Y-117390000D02*
X159970600Y-117390000D01*
X159970600Y-117390000D02*
X159970600Y-115940000D01*
X159970600Y-115940000D02*
X162020600Y-115940000D01*
D13*
X163900000Y-122890000D02*
X163900000Y-124689999D01*
D14*
X162770000Y-126390000D02*
X162770000Y-124150000D01*
D15*
X154200000Y-125190000D02*
X154200000Y-124490000D01*
D16*
X154700000Y-127290000D02*
X154700000Y-124790000D01*
D17*
X164300000Y-122590000D02*
X161600000Y-122590000D01*
D10*
X159000000Y-124290000D02*
X154000000Y-124290000D01*
X164500000Y-124990000D02*
X164300000Y-124990000D01*
X154200000Y-127540000D02*
X154000000Y-127540000D01*
X164500000Y-125990000D02*
X164500000Y-124990000D01*
X154000000Y-125290000D02*
X154200000Y-125290000D01*
X164500000Y-122390000D02*
X161220000Y-122390000D01*
X164300000Y-122750000D02*
X164500000Y-122750000D01*
D15*
X154200000Y-127690000D02*
X155600000Y-127690000D01*
D10*
X164500000Y-122390000D02*
X164500000Y-122750000D01*
X154220000Y-125290000D02*
X154220000Y-127540000D01*
D12*
X164400000Y-125090001D02*
X164400000Y-125990000D01*
D10*
X154000000Y-124290000D02*
X154000000Y-125290000D01*
D17*
X154300000Y-124590000D02*
X155700000Y-124590000D01*
D10*
X154000000Y-127540000D02*
X154000000Y-127890000D01*
D18*
X156000000Y-126090000D02*
X162700000Y-126090000D01*
D10*
X154000000Y-127890000D02*
X162400001Y-127890000D01*
X164270000Y-124990000D02*
X164270000Y-122750000D01*
D16*
X161616318Y-122811471D02*
G75*
G02*
X159400000Y-124690000I-2151318J291471D01*
G01*
D10*
X164500000Y-125989999D02*
G75*
G02*
X162400001Y-127890000I-2000000J99999D01*
G01*
X161216318Y-122411471D02*
G75*
G02*
X159000000Y-124290000I-2151318J291471D01*
G01*
D12*
X142920600Y-118350000D02*
X142920600Y-119800000D01*
X142920600Y-119800000D02*
X140870600Y-119800000D01*
X140870600Y-119800000D02*
X140870600Y-118350000D01*
X140870600Y-118350000D02*
X142920600Y-118350000D01*
D13*
X144800000Y-125300000D02*
X144800000Y-127099999D01*
D14*
X143670000Y-128800000D02*
X143670000Y-126560000D01*
D15*
X135100000Y-127600000D02*
X135100000Y-126900000D01*
D16*
X135600000Y-129700000D02*
X135600000Y-127200000D01*
D17*
X145200000Y-125000000D02*
X142500000Y-125000000D01*
D10*
X139900000Y-126700000D02*
X134900000Y-126700000D01*
X145400000Y-127400000D02*
X145200000Y-127400000D01*
X135100000Y-129950000D02*
X134900000Y-129950000D01*
X145400000Y-128400000D02*
X145400000Y-127400000D01*
X134900000Y-127700000D02*
X135100000Y-127700000D01*
X145400000Y-124800000D02*
X142120000Y-124800000D01*
X145200000Y-125160000D02*
X145400000Y-125160000D01*
D15*
X135100000Y-130100000D02*
X136500000Y-130100000D01*
D10*
X145400000Y-124800000D02*
X145400000Y-125160000D01*
X135120000Y-127700000D02*
X135120000Y-129950000D01*
D12*
X145300000Y-127500001D02*
X145300000Y-128400000D01*
D10*
X134900000Y-126700000D02*
X134900000Y-127700000D01*
D17*
X135200000Y-127000000D02*
X136600000Y-127000000D01*
D10*
X134900000Y-129950000D02*
X134900000Y-130300000D01*
D18*
X136900000Y-128500000D02*
X143600000Y-128500000D01*
D10*
X134900000Y-130300000D02*
X143300001Y-130300000D01*
X145170000Y-127400000D02*
X145170000Y-125160000D01*
D16*
X142516318Y-125221471D02*
G75*
G02*
X140300000Y-127100000I-2151318J291471D01*
G01*
D10*
X145400000Y-128399999D02*
G75*
G02*
X143300001Y-130300000I-2000000J99999D01*
G01*
X142116318Y-124821471D02*
G75*
G02*
X139900000Y-126700000I-2151318J291471D01*
G01*
D12*
X119519364Y-122346980D02*
X119894652Y-123747573D01*
X119894652Y-123747573D02*
X117914504Y-124278152D01*
X117914504Y-124278152D02*
X117539216Y-122877559D01*
X117539216Y-122877559D02*
X119519364Y-122346980D01*
D13*
X123133517Y-128573740D02*
X123599391Y-130312406D01*
D14*
X122947888Y-132246946D02*
X122368133Y-130083272D01*
D15*
X114359321Y-133305915D02*
X114178147Y-132629766D01*
D16*
X115385804Y-135204949D02*
X114738756Y-132790135D01*
D17*
X123442242Y-128180435D02*
X120834242Y-128879246D01*
D10*
X118762827Y-131194250D02*
X113933198Y-132488345D01*
X124256593Y-130446893D02*
X124063408Y-130498657D01*
X114967545Y-135575840D02*
X114774360Y-135627604D01*
X124515412Y-131412819D02*
X124256593Y-130446893D01*
X114192017Y-133454271D02*
X114385203Y-133402507D01*
X123583663Y-127935486D02*
X120415427Y-128784413D01*
X123483653Y-128334983D02*
X123676838Y-128283219D01*
D15*
X115006368Y-135720729D02*
X116358664Y-135358382D01*
D10*
X123583663Y-127935486D02*
X123676838Y-128283219D01*
X114404521Y-133397331D02*
X114986864Y-135570664D01*
D12*
X124185882Y-130569369D02*
X124418819Y-131438701D01*
D10*
X113933198Y-132488345D02*
X114192017Y-133454271D01*
D17*
X114300622Y-132700477D02*
X115652918Y-132338130D01*
D10*
X114774360Y-135627604D02*
X114864947Y-135965678D01*
D18*
X116330924Y-133709373D02*
X122802627Y-131975286D01*
D10*
X114864947Y-135965678D02*
X122978725Y-133791598D01*
X124034430Y-130506422D02*
X123454675Y-128342748D01*
D16*
X120907325Y-129088948D02*
G75*
G02*
X119252725Y-131477092I-2153452J-275262D01*
G01*
D10*
X124515412Y-131412818D02*
G75*
G02*
X122978725Y-133791599I-1957734J-421047D01*
G01*
X120417427Y-128806105D02*
G75*
G02*
X118762827Y-131194250I-2153452J-275263D01*
G01*
D12*
X103053536Y-133687326D02*
X101797799Y-134412326D01*
X101797799Y-134412326D02*
X100772799Y-132636974D01*
X100772799Y-132636974D02*
X102028536Y-131911974D01*
X102028536Y-131911974D02*
X103053536Y-133687326D01*
D13*
X97974359Y-138789935D02*
X96415514Y-139689934D01*
D14*
X94378270Y-139561326D02*
X96318167Y-138441326D01*
D15*
X91132501Y-131539488D02*
X91738719Y-131189488D01*
D16*
X89563848Y-133022501D02*
X91728911Y-131772501D01*
D17*
X98434167Y-138986345D02*
X97084167Y-136648076D01*
D10*
X94311924Y-135246410D02*
X91811924Y-130916283D01*
X96455706Y-140359550D02*
X96355706Y-140186345D01*
X89097341Y-132714488D02*
X88997341Y-132541283D01*
X95589681Y-140859550D02*
X96455706Y-140359550D01*
X90945898Y-131416283D02*
X91045898Y-131589488D01*
X98707372Y-139059550D02*
X97067372Y-136218987D01*
X98295603Y-139066345D02*
X98395603Y-139239550D01*
D15*
X88967437Y-132789488D02*
X89667437Y-134001924D01*
D10*
X98707372Y-139059550D02*
X98395603Y-139239550D01*
X91055898Y-131606809D02*
X89107341Y-132731809D01*
D12*
X96319103Y-140322948D02*
X95539681Y-140772947D01*
D10*
X91811924Y-130916283D02*
X90945898Y-131416283D01*
D17*
X91702116Y-131326091D02*
X92402116Y-132538526D01*
D10*
X88997341Y-132541283D02*
X88694232Y-132716283D01*
D18*
X91253078Y-133548334D02*
X94603078Y-139350704D01*
D10*
X88694232Y-132716283D02*
X92894233Y-139990897D01*
X96340706Y-140160364D02*
X98280603Y-139040364D01*
D16*
X96900526Y-136772944D02*
G75*
G02*
X94165514Y-135792820I-823237J2008832D01*
G01*
D10*
X95589681Y-140859549D02*
G75*
G02*
X92894233Y-139990897I-913398J1782050D01*
G01*
X97046937Y-136226533D02*
G75*
G02*
X94311924Y-135246410I-823238J2008831D01*
G01*
D12*
X219170600Y-104150000D02*
X219170600Y-105600000D01*
X219170600Y-105600000D02*
X217120600Y-105600000D01*
X217120600Y-105600000D02*
X217120600Y-104150000D01*
X217120600Y-104150000D02*
X219170600Y-104150000D01*
D13*
X221050000Y-111100000D02*
X221050000Y-112899999D01*
D14*
X219920000Y-114600000D02*
X219920000Y-112360000D01*
D15*
X211350000Y-113400000D02*
X211350000Y-112700000D01*
D16*
X211850000Y-115500000D02*
X211850000Y-113000000D01*
D17*
X221450000Y-110800000D02*
X218750000Y-110800000D01*
D10*
X216150000Y-112500000D02*
X211150000Y-112500000D01*
X221650000Y-113200000D02*
X221450000Y-113200000D01*
X211350000Y-115750000D02*
X211150000Y-115750000D01*
X221650000Y-114200000D02*
X221650000Y-113200000D01*
X211150000Y-113500000D02*
X211350000Y-113500000D01*
X221650000Y-110600000D02*
X218370000Y-110600000D01*
X221450000Y-110960000D02*
X221650000Y-110960000D01*
D15*
X211350000Y-115900000D02*
X212750000Y-115900000D01*
D10*
X221650000Y-110600000D02*
X221650000Y-110960000D01*
X211370000Y-113500000D02*
X211370000Y-115750000D01*
D12*
X221550000Y-113300001D02*
X221550000Y-114200000D01*
D10*
X211150000Y-112500000D02*
X211150000Y-113500000D01*
D17*
X211450000Y-112800000D02*
X212850000Y-112800000D01*
D10*
X211150000Y-115750000D02*
X211150000Y-116100000D01*
D18*
X213150000Y-114300000D02*
X219850000Y-114300000D01*
D10*
X211150000Y-116100000D02*
X219550001Y-116100000D01*
X221420000Y-113200000D02*
X221420000Y-110960000D01*
D16*
X218766318Y-111021471D02*
G75*
G02*
X216550000Y-112900000I-2151318J291471D01*
G01*
D10*
X221650000Y-114199999D02*
G75*
G02*
X219550001Y-116100000I-2000000J99999D01*
G01*
X218366318Y-110621471D02*
G75*
G02*
X216150000Y-112500000I-2151318J291471D01*
G01*
D12*
X181020600Y-99350000D02*
X181020600Y-100800000D01*
X181020600Y-100800000D02*
X178970600Y-100800000D01*
X178970600Y-100800000D02*
X178970600Y-99350000D01*
X178970600Y-99350000D02*
X181020600Y-99350000D01*
D13*
X182900000Y-106300000D02*
X182900000Y-108099999D01*
D14*
X181770000Y-109800000D02*
X181770000Y-107560000D01*
D15*
X173200000Y-108600000D02*
X173200000Y-107900000D01*
D16*
X173700000Y-110700000D02*
X173700000Y-108200000D01*
D17*
X183300000Y-106000000D02*
X180600000Y-106000000D01*
D10*
X178000000Y-107700000D02*
X173000000Y-107700000D01*
X183500000Y-108400000D02*
X183300000Y-108400000D01*
X173200000Y-110950000D02*
X173000000Y-110950000D01*
X183500000Y-109400000D02*
X183500000Y-108400000D01*
X173000000Y-108700000D02*
X173200000Y-108700000D01*
X183500000Y-105800000D02*
X180220000Y-105800000D01*
X183300000Y-106160000D02*
X183500000Y-106160000D01*
D15*
X173200000Y-111100000D02*
X174600000Y-111100000D01*
D10*
X183500000Y-105800000D02*
X183500000Y-106160000D01*
X173220000Y-108700000D02*
X173220000Y-110950000D01*
D12*
X183400000Y-108500001D02*
X183400000Y-109400000D01*
D10*
X173000000Y-107700000D02*
X173000000Y-108700000D01*
D17*
X173300000Y-108000000D02*
X174700000Y-108000000D01*
D10*
X173000000Y-110950000D02*
X173000000Y-111300000D01*
D18*
X175000000Y-109500000D02*
X181700000Y-109500000D01*
D10*
X173000000Y-111300000D02*
X181400001Y-111300000D01*
X183270000Y-108400000D02*
X183270000Y-106160000D01*
D16*
X180616318Y-106221471D02*
G75*
G02*
X178400000Y-108100000I-2151318J291471D01*
G01*
D10*
X183500000Y-109399999D02*
G75*
G02*
X181400001Y-111300000I-2000000J99999D01*
G01*
X180216318Y-105821471D02*
G75*
G02*
X178000000Y-107700000I-2151318J291471D01*
G01*
D12*
X142920600Y-99350000D02*
X142920600Y-100800000D01*
X142920600Y-100800000D02*
X140870600Y-100800000D01*
X140870600Y-100800000D02*
X140870600Y-99350000D01*
X140870600Y-99350000D02*
X142920600Y-99350000D01*
D13*
X144800000Y-106300000D02*
X144800000Y-108099999D01*
D14*
X143670000Y-109800000D02*
X143670000Y-107560000D01*
D15*
X135100000Y-108600000D02*
X135100000Y-107900000D01*
D16*
X135600000Y-110700000D02*
X135600000Y-108200000D01*
D17*
X145200000Y-106000000D02*
X142500000Y-106000000D01*
D10*
X139900000Y-107700000D02*
X134900000Y-107700000D01*
X145400000Y-108400000D02*
X145200000Y-108400000D01*
X135100000Y-110950000D02*
X134900000Y-110950000D01*
X145400000Y-109400000D02*
X145400000Y-108400000D01*
X134900000Y-108700000D02*
X135100000Y-108700000D01*
X145400000Y-105800000D02*
X142120000Y-105800000D01*
X145200000Y-106160000D02*
X145400000Y-106160000D01*
D15*
X135100000Y-111100000D02*
X136500000Y-111100000D01*
D10*
X145400000Y-105800000D02*
X145400000Y-106160000D01*
X135120000Y-108700000D02*
X135120000Y-110950000D01*
D12*
X145300000Y-108500001D02*
X145300000Y-109400000D01*
D10*
X134900000Y-107700000D02*
X134900000Y-108700000D01*
D17*
X135200000Y-108000000D02*
X136600000Y-108000000D01*
D10*
X134900000Y-110950000D02*
X134900000Y-111300000D01*
D18*
X136900000Y-109500000D02*
X143600000Y-109500000D01*
D10*
X134900000Y-111300000D02*
X143300001Y-111300000D01*
X145170000Y-108400000D02*
X145170000Y-106160000D01*
D16*
X142516318Y-106221471D02*
G75*
G02*
X140300000Y-108100000I-2151318J291471D01*
G01*
D10*
X145400000Y-109399999D02*
G75*
G02*
X143300001Y-111300000I-2000000J99999D01*
G01*
X142116318Y-105821471D02*
G75*
G02*
X139900000Y-107700000I-2151318J291471D01*
G01*
D12*
X123920600Y-101750000D02*
X123920600Y-103200000D01*
X123920600Y-103200000D02*
X121870600Y-103200000D01*
X121870600Y-103200000D02*
X121870600Y-101750000D01*
X121870600Y-101750000D02*
X123920600Y-101750000D01*
D13*
X125800000Y-108700000D02*
X125800000Y-110499999D01*
D14*
X124670000Y-112200000D02*
X124670000Y-109960000D01*
D15*
X116100000Y-111000000D02*
X116100000Y-110300000D01*
D16*
X116600000Y-113100000D02*
X116600000Y-110600000D01*
D17*
X126200000Y-108400000D02*
X123500000Y-108400000D01*
D10*
X120900000Y-110100000D02*
X115900000Y-110100000D01*
X126400000Y-110800000D02*
X126200000Y-110800000D01*
X116100000Y-113350000D02*
X115900000Y-113350000D01*
X126400000Y-111800000D02*
X126400000Y-110800000D01*
X115900000Y-111100000D02*
X116100000Y-111100000D01*
X126400000Y-108200000D02*
X123120000Y-108200000D01*
X126200000Y-108560000D02*
X126400000Y-108560000D01*
D15*
X116100000Y-113500000D02*
X117500000Y-113500000D01*
D10*
X126400000Y-108200000D02*
X126400000Y-108560000D01*
X116120000Y-111100000D02*
X116120000Y-113350000D01*
D12*
X126300000Y-110900001D02*
X126300000Y-111800000D01*
D10*
X115900000Y-110100000D02*
X115900000Y-111100000D01*
D17*
X116200000Y-110400000D02*
X117600000Y-110400000D01*
D10*
X115900000Y-113350000D02*
X115900000Y-113700000D01*
D18*
X117900000Y-111900000D02*
X124600000Y-111900000D01*
D10*
X115900000Y-113700000D02*
X124300001Y-113700000D01*
X126170000Y-110800000D02*
X126170000Y-108560000D01*
D16*
X123516318Y-108621471D02*
G75*
G02*
X121300000Y-110500000I-2151318J291471D01*
G01*
D10*
X126400000Y-111799999D02*
G75*
G02*
X124300001Y-113700000I-2000000J99999D01*
G01*
X123116318Y-108221471D02*
G75*
G02*
X120900000Y-110100000I-2151318J291471D01*
G01*
D12*
X219120600Y-85150000D02*
X219120600Y-86600000D01*
X219120600Y-86600000D02*
X217070600Y-86600000D01*
X217070600Y-86600000D02*
X217070600Y-85150000D01*
X217070600Y-85150000D02*
X219120600Y-85150000D01*
D13*
X221000000Y-92100000D02*
X221000000Y-93899999D01*
D14*
X219870000Y-95600000D02*
X219870000Y-93360000D01*
D15*
X211300000Y-94400000D02*
X211300000Y-93700000D01*
D16*
X211800000Y-96500000D02*
X211800000Y-94000000D01*
D17*
X221400000Y-91800000D02*
X218700000Y-91800000D01*
D10*
X216100000Y-93500000D02*
X211100000Y-93500000D01*
X221600000Y-94200000D02*
X221400000Y-94200000D01*
X211300000Y-96750000D02*
X211100000Y-96750000D01*
X221600000Y-95200000D02*
X221600000Y-94200000D01*
X211100000Y-94500000D02*
X211300000Y-94500000D01*
X221600000Y-91600000D02*
X218320000Y-91600000D01*
X221400000Y-91960000D02*
X221600000Y-91960000D01*
D15*
X211300000Y-96900000D02*
X212700000Y-96900000D01*
D10*
X221600000Y-91600000D02*
X221600000Y-91960000D01*
X211320000Y-94500000D02*
X211320000Y-96750000D01*
D12*
X221500000Y-94300001D02*
X221500000Y-95200000D01*
D10*
X211100000Y-93500000D02*
X211100000Y-94500000D01*
D17*
X211400000Y-93800000D02*
X212800000Y-93800000D01*
D10*
X211100000Y-96750000D02*
X211100000Y-97100000D01*
D18*
X213100000Y-95300000D02*
X219800000Y-95300000D01*
D10*
X211100000Y-97100000D02*
X219500001Y-97100000D01*
X221370000Y-94200000D02*
X221370000Y-91960000D01*
D16*
X218716318Y-92021471D02*
G75*
G02*
X216500000Y-93900000I-2151318J291471D01*
G01*
D10*
X221600000Y-95199999D02*
G75*
G02*
X219500001Y-97100000I-2000000J99999D01*
G01*
X218316318Y-91621471D02*
G75*
G02*
X216100000Y-93500000I-2151318J291471D01*
G01*
D12*
X181020600Y-80250000D02*
X181020600Y-81700000D01*
X181020600Y-81700000D02*
X178970600Y-81700000D01*
X178970600Y-81700000D02*
X178970600Y-80250000D01*
X178970600Y-80250000D02*
X181020600Y-80250000D01*
D13*
X182900000Y-87200000D02*
X182900000Y-88999999D01*
D14*
X181770000Y-90700000D02*
X181770000Y-88460000D01*
D15*
X173200000Y-89500000D02*
X173200000Y-88800000D01*
D16*
X173700000Y-91600000D02*
X173700000Y-89100000D01*
D17*
X183300000Y-86900000D02*
X180600000Y-86900000D01*
D10*
X178000000Y-88600000D02*
X173000000Y-88600000D01*
X183500000Y-89300000D02*
X183300000Y-89300000D01*
X173200000Y-91850000D02*
X173000000Y-91850000D01*
X183500000Y-90300000D02*
X183500000Y-89300000D01*
X173000000Y-89600000D02*
X173200000Y-89600000D01*
X183500000Y-86700000D02*
X180220000Y-86700000D01*
X183300000Y-87060000D02*
X183500000Y-87060000D01*
D15*
X173200000Y-92000000D02*
X174600000Y-92000000D01*
D10*
X183500000Y-86700000D02*
X183500000Y-87060000D01*
X173220000Y-89600000D02*
X173220000Y-91850000D01*
D12*
X183400000Y-89400001D02*
X183400000Y-90300000D01*
D10*
X173000000Y-88600000D02*
X173000000Y-89600000D01*
D17*
X173300000Y-88900000D02*
X174700000Y-88900000D01*
D10*
X173000000Y-91850000D02*
X173000000Y-92200000D01*
D18*
X175000000Y-90400000D02*
X181700000Y-90400000D01*
D10*
X173000000Y-92200000D02*
X181400001Y-92200000D01*
X183270000Y-89300000D02*
X183270000Y-87060000D01*
D16*
X180616318Y-87121471D02*
G75*
G02*
X178400000Y-89000000I-2151318J291471D01*
G01*
D10*
X183500000Y-90299999D02*
G75*
G02*
X181400001Y-92200000I-2000000J99999D01*
G01*
X180216318Y-86721471D02*
G75*
G02*
X178000000Y-88600000I-2151318J291471D01*
G01*
D12*
X162020600Y-77840000D02*
X162020600Y-79290000D01*
X162020600Y-79290000D02*
X159970600Y-79290000D01*
X159970600Y-79290000D02*
X159970600Y-77840000D01*
X159970600Y-77840000D02*
X162020600Y-77840000D01*
D13*
X163900000Y-84790000D02*
X163900000Y-86589999D01*
D14*
X162770000Y-88290000D02*
X162770000Y-86050000D01*
D15*
X154200000Y-87090000D02*
X154200000Y-86390000D01*
D16*
X154700000Y-89190000D02*
X154700000Y-86690000D01*
D17*
X164300000Y-84490000D02*
X161600000Y-84490000D01*
D10*
X159000000Y-86190000D02*
X154000000Y-86190000D01*
X164500000Y-86890000D02*
X164300000Y-86890000D01*
X154200000Y-89440000D02*
X154000000Y-89440000D01*
X164500000Y-87890000D02*
X164500000Y-86890000D01*
X154000000Y-87190000D02*
X154200000Y-87190000D01*
X164500000Y-84290000D02*
X161220000Y-84290000D01*
X164300000Y-84650000D02*
X164500000Y-84650000D01*
D15*
X154200000Y-89590000D02*
X155600000Y-89590000D01*
D10*
X164500000Y-84290000D02*
X164500000Y-84650000D01*
X154220000Y-87190000D02*
X154220000Y-89440000D01*
D12*
X164400000Y-86990001D02*
X164400000Y-87890000D01*
D10*
X154000000Y-86190000D02*
X154000000Y-87190000D01*
D17*
X154300000Y-86490000D02*
X155700000Y-86490000D01*
D10*
X154000000Y-89440000D02*
X154000000Y-89790000D01*
D18*
X156000000Y-87990000D02*
X162700000Y-87990000D01*
D10*
X154000000Y-89790000D02*
X162400001Y-89790000D01*
X164270000Y-86890000D02*
X164270000Y-84650000D01*
D16*
X161616318Y-84711471D02*
G75*
G02*
X159400000Y-86590000I-2151318J291471D01*
G01*
D10*
X164500000Y-87889999D02*
G75*
G02*
X162400001Y-89790000I-2000000J99999D01*
G01*
X161216318Y-84311471D02*
G75*
G02*
X159000000Y-86190000I-2151318J291471D01*
G01*
D12*
X142920600Y-80250000D02*
X142920600Y-81700000D01*
X142920600Y-81700000D02*
X140870600Y-81700000D01*
X140870600Y-81700000D02*
X140870600Y-80250000D01*
X140870600Y-80250000D02*
X142920600Y-80250000D01*
D13*
X144800000Y-87200000D02*
X144800000Y-88999999D01*
D14*
X143670000Y-90700000D02*
X143670000Y-88460000D01*
D15*
X135100000Y-89500000D02*
X135100000Y-88800000D01*
D16*
X135600000Y-91600000D02*
X135600000Y-89100000D01*
D17*
X145200000Y-86900000D02*
X142500000Y-86900000D01*
D10*
X139900000Y-88600000D02*
X134900000Y-88600000D01*
X145400000Y-89300000D02*
X145200000Y-89300000D01*
X135100000Y-91850000D02*
X134900000Y-91850000D01*
X145400000Y-90300000D02*
X145400000Y-89300000D01*
X134900000Y-89600000D02*
X135100000Y-89600000D01*
X145400000Y-86700000D02*
X142120000Y-86700000D01*
X145200000Y-87060000D02*
X145400000Y-87060000D01*
D15*
X135100000Y-92000000D02*
X136500000Y-92000000D01*
D10*
X145400000Y-86700000D02*
X145400000Y-87060000D01*
X135120000Y-89600000D02*
X135120000Y-91850000D01*
D12*
X145300000Y-89400001D02*
X145300000Y-90300000D01*
D10*
X134900000Y-88600000D02*
X134900000Y-89600000D01*
D17*
X135200000Y-88900000D02*
X136600000Y-88900000D01*
D10*
X134900000Y-91850000D02*
X134900000Y-92200000D01*
D18*
X136900000Y-90400000D02*
X143600000Y-90400000D01*
D10*
X134900000Y-92200000D02*
X143300001Y-92200000D01*
X145170000Y-89300000D02*
X145170000Y-87060000D01*
D16*
X142516318Y-87121471D02*
G75*
G02*
X140300000Y-89000000I-2151318J291471D01*
G01*
D10*
X145400000Y-90299999D02*
G75*
G02*
X143300001Y-92200000I-2000000J99999D01*
G01*
X142116318Y-86721471D02*
G75*
G02*
X139900000Y-88600000I-2151318J291471D01*
G01*
D12*
X123920600Y-82750000D02*
X123920600Y-84200000D01*
X123920600Y-84200000D02*
X121870600Y-84200000D01*
X121870600Y-84200000D02*
X121870600Y-82750000D01*
X121870600Y-82750000D02*
X123920600Y-82750000D01*
D13*
X125800000Y-89700000D02*
X125800000Y-91499999D01*
D14*
X124670000Y-93200000D02*
X124670000Y-90960000D01*
D15*
X116100000Y-92000000D02*
X116100000Y-91300000D01*
D16*
X116600000Y-94100000D02*
X116600000Y-91600000D01*
D17*
X126200000Y-89400000D02*
X123500000Y-89400000D01*
D10*
X120900000Y-91100000D02*
X115900000Y-91100000D01*
X126400000Y-91800000D02*
X126200000Y-91800000D01*
X116100000Y-94350000D02*
X115900000Y-94350000D01*
X126400000Y-92800000D02*
X126400000Y-91800000D01*
X115900000Y-92100000D02*
X116100000Y-92100000D01*
X126400000Y-89200000D02*
X123120000Y-89200000D01*
X126200000Y-89560000D02*
X126400000Y-89560000D01*
D15*
X116100000Y-94500000D02*
X117500000Y-94500000D01*
D10*
X126400000Y-89200000D02*
X126400000Y-89560000D01*
X116120000Y-92100000D02*
X116120000Y-94350000D01*
D12*
X126300000Y-91900001D02*
X126300000Y-92800000D01*
D10*
X115900000Y-91100000D02*
X115900000Y-92100000D01*
D17*
X116200000Y-91400000D02*
X117600000Y-91400000D01*
D10*
X115900000Y-94350000D02*
X115900000Y-94700000D01*
D18*
X117900000Y-92900000D02*
X124600000Y-92900000D01*
D10*
X115900000Y-94700000D02*
X124300001Y-94700000D01*
X126170000Y-91800000D02*
X126170000Y-89560000D01*
D16*
X123516318Y-89621471D02*
G75*
G02*
X121300000Y-91500000I-2151318J291471D01*
G01*
D10*
X126400000Y-92799999D02*
G75*
G02*
X124300001Y-94700000I-2000000J99999D01*
G01*
X123116318Y-89221471D02*
G75*
G02*
X120900000Y-91100000I-2151318J291471D01*
G01*
D12*
X181020600Y-61150000D02*
X181020600Y-62600000D01*
X181020600Y-62600000D02*
X178970600Y-62600000D01*
X178970600Y-62600000D02*
X178970600Y-61150000D01*
X178970600Y-61150000D02*
X181020600Y-61150000D01*
D13*
X182900000Y-68100000D02*
X182900000Y-69899999D01*
D14*
X181770000Y-71600000D02*
X181770000Y-69360000D01*
D15*
X173200000Y-70400000D02*
X173200000Y-69700000D01*
D16*
X173700000Y-72500000D02*
X173700000Y-70000000D01*
D17*
X183300000Y-67800000D02*
X180600000Y-67800000D01*
D10*
X178000000Y-69500000D02*
X173000000Y-69500000D01*
X183500000Y-70200000D02*
X183300000Y-70200000D01*
X173200000Y-72750000D02*
X173000000Y-72750000D01*
X183500000Y-71200000D02*
X183500000Y-70200000D01*
X173000000Y-70500000D02*
X173200000Y-70500000D01*
X183500000Y-67600000D02*
X180220000Y-67600000D01*
X183300000Y-67960000D02*
X183500000Y-67960000D01*
D15*
X173200000Y-72900000D02*
X174600000Y-72900000D01*
D10*
X183500000Y-67600000D02*
X183500000Y-67960000D01*
X173220000Y-70500000D02*
X173220000Y-72750000D01*
D12*
X183400000Y-70300001D02*
X183400000Y-71200000D01*
D10*
X173000000Y-69500000D02*
X173000000Y-70500000D01*
D17*
X173300000Y-69800000D02*
X174700000Y-69800000D01*
D10*
X173000000Y-72750000D02*
X173000000Y-73100000D01*
D18*
X175000000Y-71300000D02*
X181700000Y-71300000D01*
D10*
X173000000Y-73100000D02*
X181400001Y-73100000D01*
X183270000Y-70200000D02*
X183270000Y-67960000D01*
D16*
X180616318Y-68021471D02*
G75*
G02*
X178400000Y-69900000I-2151318J291471D01*
G01*
D10*
X183500000Y-71199999D02*
G75*
G02*
X181400001Y-73100000I-2000000J99999D01*
G01*
X180216318Y-67621471D02*
G75*
G02*
X178000000Y-69500000I-2151318J291471D01*
G01*
D12*
X162020600Y-58740000D02*
X162020600Y-60190000D01*
X162020600Y-60190000D02*
X159970600Y-60190000D01*
X159970600Y-60190000D02*
X159970600Y-58740000D01*
X159970600Y-58740000D02*
X162020600Y-58740000D01*
D13*
X163900000Y-65690000D02*
X163900000Y-67489999D01*
D14*
X162770000Y-69190000D02*
X162770000Y-66950000D01*
D15*
X154200000Y-67990000D02*
X154200000Y-67290000D01*
D16*
X154700000Y-70090000D02*
X154700000Y-67590000D01*
D17*
X164300000Y-65390000D02*
X161600000Y-65390000D01*
D10*
X159000000Y-67090000D02*
X154000000Y-67090000D01*
X164500000Y-67790000D02*
X164300000Y-67790000D01*
X154200000Y-70340000D02*
X154000000Y-70340000D01*
X164500000Y-68790000D02*
X164500000Y-67790000D01*
X154000000Y-68090000D02*
X154200000Y-68090000D01*
X164500000Y-65190000D02*
X161220000Y-65190000D01*
X164300000Y-65550000D02*
X164500000Y-65550000D01*
D15*
X154200000Y-70490000D02*
X155600000Y-70490000D01*
D10*
X164500000Y-65190000D02*
X164500000Y-65550000D01*
X154220000Y-68090000D02*
X154220000Y-70340000D01*
D12*
X164400000Y-67890001D02*
X164400000Y-68790000D01*
D10*
X154000000Y-67090000D02*
X154000000Y-68090000D01*
D17*
X154300000Y-67390000D02*
X155700000Y-67390000D01*
D10*
X154000000Y-70340000D02*
X154000000Y-70690000D01*
D18*
X156000000Y-68890000D02*
X162700000Y-68890000D01*
D10*
X154000000Y-70690000D02*
X162400001Y-70690000D01*
X164270000Y-67790000D02*
X164270000Y-65550000D01*
D16*
X161616318Y-65611471D02*
G75*
G02*
X159400000Y-67490000I-2151318J291471D01*
G01*
D10*
X164500000Y-68789999D02*
G75*
G02*
X162400001Y-70690000I-2000000J99999D01*
G01*
X161216318Y-65211471D02*
G75*
G02*
X159000000Y-67090000I-2151318J291471D01*
G01*
D12*
X142920600Y-61250000D02*
X142920600Y-62700000D01*
X142920600Y-62700000D02*
X140870600Y-62700000D01*
X140870600Y-62700000D02*
X140870600Y-61250000D01*
X140870600Y-61250000D02*
X142920600Y-61250000D01*
D13*
X144800000Y-68200000D02*
X144800000Y-69999999D01*
D14*
X143670000Y-71700000D02*
X143670000Y-69460000D01*
D15*
X135100000Y-70500000D02*
X135100000Y-69800000D01*
D16*
X135600000Y-72600000D02*
X135600000Y-70100000D01*
D17*
X145200000Y-67900000D02*
X142500000Y-67900000D01*
D10*
X139900000Y-69600000D02*
X134900000Y-69600000D01*
X145400000Y-70300000D02*
X145200000Y-70300000D01*
X135100000Y-72850000D02*
X134900000Y-72850000D01*
X145400000Y-71300000D02*
X145400000Y-70300000D01*
X134900000Y-70600000D02*
X135100000Y-70600000D01*
X145400000Y-67700000D02*
X142120000Y-67700000D01*
X145200000Y-68060000D02*
X145400000Y-68060000D01*
D15*
X135100000Y-73000000D02*
X136500000Y-73000000D01*
D10*
X145400000Y-67700000D02*
X145400000Y-68060000D01*
X135120000Y-70600000D02*
X135120000Y-72850000D01*
D12*
X145300000Y-70400001D02*
X145300000Y-71300000D01*
D10*
X134900000Y-69600000D02*
X134900000Y-70600000D01*
D17*
X135200000Y-69900000D02*
X136600000Y-69900000D01*
D10*
X134900000Y-72850000D02*
X134900000Y-73200000D01*
D18*
X136900000Y-71400000D02*
X143600000Y-71400000D01*
D10*
X134900000Y-73200000D02*
X143300001Y-73200000D01*
X145170000Y-70300000D02*
X145170000Y-68060000D01*
D16*
X142516318Y-68121471D02*
G75*
G02*
X140300000Y-70000000I-2151318J291471D01*
G01*
D10*
X145400000Y-71299999D02*
G75*
G02*
X143300001Y-73200000I-2000000J99999D01*
G01*
X142116318Y-67721471D02*
G75*
G02*
X139900000Y-69600000I-2151318J291471D01*
G01*
D12*
X123920600Y-63750000D02*
X123920600Y-65200000D01*
X123920600Y-65200000D02*
X121870600Y-65200000D01*
X121870600Y-65200000D02*
X121870600Y-63750000D01*
X121870600Y-63750000D02*
X123920600Y-63750000D01*
D13*
X125800000Y-70700000D02*
X125800000Y-72499999D01*
D14*
X124670000Y-74200000D02*
X124670000Y-71960000D01*
D15*
X116100000Y-73000000D02*
X116100000Y-72300000D01*
D16*
X116600000Y-75100000D02*
X116600000Y-72600000D01*
D17*
X126200000Y-70400000D02*
X123500000Y-70400000D01*
D10*
X120900000Y-72100000D02*
X115900000Y-72100000D01*
X126400000Y-72800000D02*
X126200000Y-72800000D01*
X116100000Y-75350000D02*
X115900000Y-75350000D01*
X126400000Y-73800000D02*
X126400000Y-72800000D01*
X115900000Y-73100000D02*
X116100000Y-73100000D01*
X126400000Y-70200000D02*
X123120000Y-70200000D01*
X126200000Y-70560000D02*
X126400000Y-70560000D01*
D15*
X116100000Y-75500000D02*
X117500000Y-75500000D01*
D10*
X126400000Y-70200000D02*
X126400000Y-70560000D01*
X116120000Y-73100000D02*
X116120000Y-75350000D01*
D12*
X126300000Y-72900001D02*
X126300000Y-73800000D01*
D10*
X115900000Y-72100000D02*
X115900000Y-73100000D01*
D17*
X116200000Y-72400000D02*
X117600000Y-72400000D01*
D10*
X115900000Y-75350000D02*
X115900000Y-75700000D01*
D18*
X117900000Y-73900000D02*
X124600000Y-73900000D01*
D10*
X115900000Y-75700000D02*
X124300001Y-75700000D01*
X126170000Y-72800000D02*
X126170000Y-70560000D01*
D16*
X123516318Y-70621471D02*
G75*
G02*
X121300000Y-72500000I-2151318J291471D01*
G01*
D10*
X126400000Y-73799999D02*
G75*
G02*
X124300001Y-75700000I-2000000J99999D01*
G01*
X123116318Y-70221471D02*
G75*
G02*
X120900000Y-72100000I-2151318J291471D01*
G01*
D12*
X200120600Y-47050000D02*
X200120600Y-48500000D01*
X200120600Y-48500000D02*
X198070600Y-48500000D01*
X198070600Y-48500000D02*
X198070600Y-47050000D01*
X198070600Y-47050000D02*
X200120600Y-47050000D01*
D13*
X202000000Y-54000000D02*
X202000000Y-55799999D01*
D14*
X200870000Y-57500000D02*
X200870000Y-55260000D01*
D15*
X192300000Y-56300000D02*
X192300000Y-55600000D01*
D16*
X192800000Y-58400000D02*
X192800000Y-55900000D01*
D17*
X202400000Y-53700000D02*
X199700000Y-53700000D01*
D10*
X197100000Y-55400000D02*
X192100000Y-55400000D01*
X202600000Y-56100000D02*
X202400000Y-56100000D01*
X192300000Y-58650000D02*
X192100000Y-58650000D01*
X202600000Y-57100000D02*
X202600000Y-56100000D01*
X192100000Y-56400000D02*
X192300000Y-56400000D01*
X202600000Y-53500000D02*
X199320000Y-53500000D01*
X202400000Y-53860000D02*
X202600000Y-53860000D01*
D15*
X192300000Y-58800000D02*
X193700000Y-58800000D01*
D10*
X202600000Y-53500000D02*
X202600000Y-53860000D01*
X192320000Y-56400000D02*
X192320000Y-58650000D01*
D12*
X202500000Y-56200001D02*
X202500000Y-57100000D01*
D10*
X192100000Y-55400000D02*
X192100000Y-56400000D01*
D17*
X192400000Y-55700000D02*
X193800000Y-55700000D01*
D10*
X192100000Y-58650000D02*
X192100000Y-59000000D01*
D18*
X194100000Y-57200000D02*
X200800000Y-57200000D01*
D10*
X192100000Y-59000000D02*
X200500001Y-59000000D01*
X202370000Y-56100000D02*
X202370000Y-53860000D01*
D16*
X199716318Y-53921471D02*
G75*
G02*
X197500000Y-55800000I-2151318J291471D01*
G01*
D10*
X202600000Y-57099999D02*
G75*
G02*
X200500001Y-59000000I-2000000J99999D01*
G01*
X199316318Y-53521471D02*
G75*
G02*
X197100000Y-55400000I-2151318J291471D01*
G01*
D12*
X181020600Y-42150000D02*
X181020600Y-43600000D01*
X181020600Y-43600000D02*
X178970600Y-43600000D01*
X178970600Y-43600000D02*
X178970600Y-42150000D01*
X178970600Y-42150000D02*
X181020600Y-42150000D01*
D13*
X182900000Y-49100000D02*
X182900000Y-50899999D01*
D14*
X181770000Y-52600000D02*
X181770000Y-50360000D01*
D15*
X173200000Y-51400000D02*
X173200000Y-50700000D01*
D16*
X173700000Y-53500000D02*
X173700000Y-51000000D01*
D17*
X183300000Y-48800000D02*
X180600000Y-48800000D01*
D10*
X178000000Y-50500000D02*
X173000000Y-50500000D01*
X183500000Y-51200000D02*
X183300000Y-51200000D01*
X173200000Y-53750000D02*
X173000000Y-53750000D01*
X183500000Y-52200000D02*
X183500000Y-51200000D01*
X173000000Y-51500000D02*
X173200000Y-51500000D01*
X183500000Y-48600000D02*
X180220000Y-48600000D01*
X183300000Y-48960000D02*
X183500000Y-48960000D01*
D15*
X173200000Y-53900000D02*
X174600000Y-53900000D01*
D10*
X183500000Y-48600000D02*
X183500000Y-48960000D01*
X173220000Y-51500000D02*
X173220000Y-53750000D01*
D12*
X183400000Y-51300001D02*
X183400000Y-52200000D01*
D10*
X173000000Y-50500000D02*
X173000000Y-51500000D01*
D17*
X173300000Y-50800000D02*
X174700000Y-50800000D01*
D10*
X173000000Y-53750000D02*
X173000000Y-54100000D01*
D18*
X175000000Y-52300000D02*
X181700000Y-52300000D01*
D10*
X173000000Y-54100000D02*
X181400001Y-54100000D01*
X183270000Y-51200000D02*
X183270000Y-48960000D01*
D16*
X180616318Y-49021471D02*
G75*
G02*
X178400000Y-50900000I-2151318J291471D01*
G01*
D10*
X183500000Y-52199999D02*
G75*
G02*
X181400001Y-54100000I-2000000J99999D01*
G01*
X180216318Y-48621471D02*
G75*
G02*
X178000000Y-50500000I-2151318J291471D01*
G01*
D12*
X162020600Y-39650000D02*
X162020600Y-41100000D01*
X162020600Y-41100000D02*
X159970600Y-41100000D01*
X159970600Y-41100000D02*
X159970600Y-39650000D01*
X159970600Y-39650000D02*
X162020600Y-39650000D01*
D13*
X163900000Y-46600000D02*
X163900000Y-48399999D01*
D14*
X162770000Y-50100000D02*
X162770000Y-47860000D01*
D15*
X154200000Y-48900000D02*
X154200000Y-48200000D01*
D16*
X154700000Y-51000000D02*
X154700000Y-48500000D01*
D17*
X164300000Y-46300000D02*
X161600000Y-46300000D01*
D10*
X159000000Y-48000000D02*
X154000000Y-48000000D01*
X164500000Y-48700000D02*
X164300000Y-48700000D01*
X154200000Y-51250000D02*
X154000000Y-51250000D01*
X164500000Y-49700000D02*
X164500000Y-48700000D01*
X154000000Y-49000000D02*
X154200000Y-49000000D01*
X164500000Y-46100000D02*
X161220000Y-46100000D01*
X164300000Y-46460000D02*
X164500000Y-46460000D01*
D15*
X154200000Y-51400000D02*
X155600000Y-51400000D01*
D10*
X164500000Y-46100000D02*
X164500000Y-46460000D01*
X154220000Y-49000000D02*
X154220000Y-51250000D01*
D12*
X164400000Y-48800001D02*
X164400000Y-49700000D01*
D10*
X154000000Y-48000000D02*
X154000000Y-49000000D01*
D17*
X154300000Y-48300000D02*
X155700000Y-48300000D01*
D10*
X154000000Y-51250000D02*
X154000000Y-51600000D01*
D18*
X156000000Y-49800000D02*
X162700000Y-49800000D01*
D10*
X154000000Y-51600000D02*
X162400001Y-51600000D01*
X164270000Y-48700000D02*
X164270000Y-46460000D01*
D16*
X161616318Y-46521471D02*
G75*
G02*
X159400000Y-48400000I-2151318J291471D01*
G01*
D10*
X164500000Y-49699999D02*
G75*
G02*
X162400001Y-51600000I-2000000J99999D01*
G01*
X161216318Y-46121471D02*
G75*
G02*
X159000000Y-48000000I-2151318J291471D01*
G01*
D12*
X123920600Y-44650000D02*
X123920600Y-46100000D01*
X123920600Y-46100000D02*
X121870600Y-46100000D01*
X121870600Y-46100000D02*
X121870600Y-44650000D01*
X121870600Y-44650000D02*
X123920600Y-44650000D01*
D13*
X125800000Y-51600000D02*
X125800000Y-53399999D01*
D14*
X124670000Y-55100000D02*
X124670000Y-52860000D01*
D15*
X116100000Y-53900000D02*
X116100000Y-53200000D01*
D16*
X116600000Y-56000000D02*
X116600000Y-53500000D01*
D17*
X126200000Y-51300000D02*
X123500000Y-51300000D01*
D10*
X120900000Y-53000000D02*
X115900000Y-53000000D01*
X126400000Y-53700000D02*
X126200000Y-53700000D01*
X116100000Y-56250000D02*
X115900000Y-56250000D01*
X126400000Y-54700000D02*
X126400000Y-53700000D01*
X115900000Y-54000000D02*
X116100000Y-54000000D01*
X126400000Y-51100000D02*
X123120000Y-51100000D01*
X126200000Y-51460000D02*
X126400000Y-51460000D01*
D15*
X116100000Y-56400000D02*
X117500000Y-56400000D01*
D10*
X126400000Y-51100000D02*
X126400000Y-51460000D01*
X116120000Y-54000000D02*
X116120000Y-56250000D01*
D12*
X126300000Y-53800001D02*
X126300000Y-54700000D01*
D10*
X115900000Y-53000000D02*
X115900000Y-54000000D01*
D17*
X116200000Y-53300000D02*
X117600000Y-53300000D01*
D10*
X115900000Y-56250000D02*
X115900000Y-56600000D01*
D18*
X117900000Y-54800000D02*
X124600000Y-54800000D01*
D10*
X115900000Y-56600000D02*
X124300001Y-56600000D01*
X126170000Y-53700000D02*
X126170000Y-51460000D01*
D16*
X123516318Y-51521471D02*
G75*
G02*
X121300000Y-53400000I-2151318J291471D01*
G01*
D10*
X126400000Y-54699999D02*
G75*
G02*
X124300001Y-56600000I-2000000J99999D01*
G01*
X123116318Y-51121471D02*
G75*
G02*
X120900000Y-53000000I-2151318J291471D01*
G01*
X177927000Y-115606600D02*
X177927000Y-113806600D01*
X177927000Y-113806600D02*
X179727000Y-113806600D01*
X179727000Y-113806600D02*
X179727000Y-115606600D01*
X179727000Y-115606600D02*
X177927000Y-115606600D01*
X175427000Y-115606600D02*
X175427000Y-113806600D01*
X175427000Y-113806600D02*
X177227000Y-113806600D01*
X177227000Y-113806600D02*
X177227000Y-115606600D01*
X177227000Y-115606600D02*
X175427000Y-115606600D01*
X180527000Y-115606600D02*
X180527000Y-113806600D01*
X180527000Y-113806600D02*
X182327000Y-113806600D01*
X182327000Y-113806600D02*
X182327000Y-115606600D01*
X182327000Y-115606600D02*
X180527000Y-115606600D01*
X186400000Y-99550000D02*
X184600000Y-99550000D01*
X184600000Y-99550000D02*
X184600000Y-97750000D01*
X184600000Y-97750000D02*
X186400000Y-97750000D01*
X186400000Y-97750000D02*
X186400000Y-99550000D01*
X186400000Y-102050000D02*
X184600000Y-102050000D01*
X184600000Y-102050000D02*
X184600000Y-100250000D01*
X184600000Y-100250000D02*
X186400000Y-100250000D01*
X186400000Y-100250000D02*
X186400000Y-102050000D01*
X186400000Y-96950000D02*
X184600000Y-96950000D01*
X184600000Y-96950000D02*
X184600000Y-95150000D01*
X184600000Y-95150000D02*
X186400000Y-95150000D01*
X186400000Y-95150000D02*
X186400000Y-96950000D01*
X90910000Y-37420000D02*
X108690000Y-37420000D01*
X108690000Y-37420000D02*
X108690000Y-70440000D01*
X90910000Y-70440000D02*
X90910000Y-37420000D01*
X106150000Y-39960000D02*
X108690000Y-39960000D01*
X108690000Y-39960000D02*
X108690000Y-70440000D01*
X108690000Y-70440000D02*
X106150000Y-70440000D01*
X106150000Y-70440000D02*
X106150000Y-39960000D01*
X90910000Y-39960000D02*
X93450000Y-39960000D01*
X93450000Y-39960000D02*
X93450000Y-70440000D01*
X93450000Y-70440000D02*
X90910000Y-70440000D01*
X90910000Y-70440000D02*
X90910000Y-39960000D01*
X95430000Y-75870000D02*
X95430000Y-73330000D01*
X105590000Y-75870000D02*
X95430000Y-75870000D01*
X105590000Y-73330000D02*
X105590000Y-75870000D01*
X95430000Y-73330000D02*
X105590000Y-73330000D01*
X91800000Y-74500000D02*
X91100000Y-74500000D01*
X88300000Y-74500000D02*
X88900000Y-74500000D01*
X88300000Y-80500000D02*
X88900000Y-80500000D01*
X91800000Y-80500000D02*
X91100000Y-80500000D01*
X88300000Y-80500000D02*
X88300000Y-74500000D01*
X91800000Y-74500000D02*
X91800000Y-80500000D01*
X91800000Y-74500000D02*
X91800000Y-80400000D01*
X95811000Y-70443000D02*
X97589000Y-70443000D01*
X95811000Y-68157000D02*
X95811000Y-70443000D01*
X97589000Y-68157000D02*
X95811000Y-68157000D01*
X97589000Y-70443000D02*
X97589000Y-68157000D01*
X98311000Y-70443000D02*
X100089000Y-70443000D01*
X98311000Y-68157000D02*
X98311000Y-70443000D01*
X100089000Y-68157000D02*
X98311000Y-68157000D01*
X100089000Y-70443000D02*
X100089000Y-68157000D01*
X100811000Y-70443000D02*
X102589000Y-70443000D01*
X100811000Y-68157000D02*
X100811000Y-70443000D01*
X102589000Y-68157000D02*
X100811000Y-68157000D01*
X102589000Y-70443000D02*
X102589000Y-68157000D01*
X103411000Y-70443000D02*
X105189000Y-70443000D01*
X103411000Y-68157000D02*
X103411000Y-70443000D01*
X105189000Y-68157000D02*
X103411000Y-68157000D01*
X105189000Y-70443000D02*
X105189000Y-68157000D01*
X96539272Y-81311965D02*
X96539272Y-79311965D01*
X99539272Y-81311965D02*
X96539272Y-81311965D01*
X99539272Y-79311965D02*
X99539272Y-81311965D01*
X96539272Y-79311965D02*
X99539272Y-79311965D01*
X96539272Y-79061965D02*
X96539272Y-77061965D01*
X99539272Y-79061965D02*
X96539272Y-79061965D01*
X99539272Y-77061965D02*
X99539272Y-79061965D01*
X96539272Y-77061965D02*
X99539272Y-77061965D01*
X101700000Y-77100000D02*
X103700000Y-77100000D01*
X101700000Y-79100000D02*
X101700000Y-77100000D01*
X103700000Y-79100000D02*
X101700000Y-79100000D01*
X103700000Y-77100000D02*
X103700000Y-79100000D01*
X101700000Y-79300000D02*
X103700000Y-79300000D01*
X101700000Y-81300000D02*
X101700000Y-79300000D01*
X103700000Y-81300000D02*
X101700000Y-81300000D01*
X103700000Y-79300000D02*
X103700000Y-81300000D01*
D19*
X99500000Y-104500000D02*
X100500000Y-104500000D01*
X100000000Y-104000000D02*
X100000000Y-105000000D01*
X103000000Y-104500000D02*
G75*
G02*
X97000000Y-104500000I-3000000J0D01*
G01*
X97000000Y-104500000D02*
G75*
G02*
X103000000Y-104500000I3000000J0D01*
G01*
X102000000Y-98600000D02*
X106100000Y-98600000D01*
X106100000Y-98600000D02*
X106100000Y-101000000D01*
X106100000Y-103200000D02*
X106100000Y-105800000D01*
X106100000Y-108000000D02*
X106100000Y-110400000D01*
X106100000Y-110400000D02*
X102000000Y-110400000D01*
X98000000Y-110400000D02*
X93900000Y-110400000D01*
X93900000Y-98600000D02*
X93900000Y-110400000D01*
X98000000Y-98600000D02*
X93900000Y-98600000D01*
D10*
X100000000Y-90400000D02*
X88000000Y-90400000D01*
X100000000Y-84400000D02*
X100000000Y-90400000D01*
X88000000Y-84400000D02*
X100000000Y-84400000D01*
X88000000Y-90400000D02*
X88000000Y-84400000D01*
D20*
X93478815Y-47505745D03*
X108718815Y-65285745D03*
X93478815Y-57665745D03*
X108718815Y-55125745D03*
X108718815Y-50045745D03*
X93478815Y-67825745D03*
X108718815Y-47505745D03*
X108718815Y-42425745D03*
X93478815Y-62745745D03*
X108718815Y-70365745D03*
X93478815Y-55125745D03*
X93478815Y-44965745D03*
X93478815Y-50045745D03*
X93478815Y-52585745D03*
X93478815Y-65285745D03*
X93478815Y-60205745D03*
X108718815Y-62745745D03*
X108718815Y-60205745D03*
X93478815Y-70365745D03*
X108718815Y-67825745D03*
X108718815Y-44965745D03*
X93478815Y-42425745D03*
X108718815Y-57665745D03*
X108718815Y-52585745D03*
%LPC*%
D21*
X200453310Y-120888130D02*
X200482944Y-120917000D01*
X200516293Y-120970369D01*
X200554984Y-121048200D01*
X200577912Y-121095136D01*
X200603123Y-121141243D01*
X200623731Y-121172905D01*
X200637070Y-121185656D01*
X200651030Y-121196906D01*
X200657379Y-121230106D01*
X200657856Y-121238687D01*
X200666004Y-121279579D01*
X200680982Y-121321798D01*
X200690156Y-121344398D01*
X200696653Y-121370671D01*
X200699095Y-121403072D01*
X200697900Y-121447974D01*
X200693489Y-121511748D01*
X200690395Y-121558997D01*
X200688666Y-121608246D01*
X200689221Y-121643248D01*
X200692111Y-121658482D01*
X200692119Y-121658489D01*
X200706536Y-121667270D01*
X200738738Y-121685129D01*
X200783962Y-121709472D01*
X200837448Y-121737703D01*
X200973345Y-121808792D01*
X201043770Y-121698371D01*
X201048112Y-121691517D01*
X201083771Y-121630604D01*
X201106347Y-121582520D01*
X201114248Y-121550606D01*
X201113115Y-121533538D01*
X201104991Y-121490432D01*
X201090975Y-121440127D01*
X201073371Y-121389017D01*
X201054483Y-121343496D01*
X201036615Y-121309956D01*
X201022070Y-121294792D01*
X201012457Y-121290056D01*
X201002679Y-121272096D01*
X201010547Y-121252634D01*
X201033964Y-121241134D01*
X201055069Y-121243779D01*
X201070565Y-121266350D01*
X201077534Y-121283913D01*
X201099873Y-121321085D01*
X201128007Y-121353866D01*
X201156212Y-121376149D01*
X201178767Y-121381826D01*
X201179545Y-121381617D01*
X201194331Y-121372301D01*
X201202076Y-121350675D01*
X201205176Y-121310243D01*
X201205672Y-121288178D01*
X201205747Y-121245843D01*
X201204663Y-121216273D01*
X201204517Y-121210944D01*
X201214085Y-121186782D01*
X201234824Y-121176958D01*
X201257711Y-121186530D01*
X201265240Y-121198657D01*
X201259225Y-121223141D01*
X201253722Y-121243780D01*
X201256625Y-121280960D01*
X201268212Y-121321074D01*
X201285541Y-121354677D01*
X201305673Y-121372326D01*
X201308464Y-121373000D01*
X201336235Y-121369215D01*
X201371663Y-121353735D01*
X201406809Y-121331479D01*
X201433728Y-121307368D01*
X201444478Y-121286325D01*
X201448594Y-121272952D01*
X201470299Y-121264100D01*
X201490760Y-121267707D01*
X201502254Y-121283914D01*
X201493510Y-121310940D01*
X201464694Y-121346352D01*
X201432369Y-121380287D01*
X201402215Y-121419205D01*
X201388787Y-121450641D01*
X201389706Y-121478797D01*
X201392447Y-121488136D01*
X201399653Y-121499407D01*
X201414705Y-121504548D01*
X201443423Y-121504864D01*
X201491626Y-121501660D01*
X201524833Y-121499504D01*
X201562816Y-121499194D01*
X201583761Y-121503451D01*
X201592724Y-121512834D01*
X201594323Y-121518218D01*
X201589990Y-121543098D01*
X201571121Y-121558383D01*
X201546142Y-121556222D01*
X201539143Y-121554370D01*
X201508821Y-121556210D01*
X201464920Y-121565384D01*
X201414328Y-121580003D01*
X201363934Y-121598180D01*
X201320628Y-121618026D01*
X201315633Y-121622004D01*
X201295012Y-121642470D01*
X201262837Y-121676596D01*
X201222420Y-121720667D01*
X201177074Y-121770970D01*
X201130114Y-121823791D01*
X201084851Y-121875416D01*
X201044600Y-121922131D01*
X201012673Y-121960222D01*
X200992384Y-121985975D01*
X200992197Y-121986078D01*
X200978931Y-121980956D01*
X200948275Y-121965695D01*
X200904551Y-121942523D01*
X200852083Y-121913667D01*
X200847535Y-121911130D01*
X200795527Y-121882606D01*
X200752534Y-121859906D01*
X200722911Y-121845274D01*
X200711012Y-121840954D01*
X200710727Y-121846417D01*
X200711960Y-121873560D01*
X200715052Y-121920233D01*
X200719745Y-121982878D01*
X200725780Y-122057940D01*
X200732899Y-122141862D01*
X200732984Y-122142839D01*
X200741936Y-122251382D01*
X200748035Y-122340471D01*
X200751458Y-122415824D01*
X200752378Y-122483160D01*
X200750971Y-122548195D01*
X200747411Y-122616650D01*
X200745982Y-122639527D01*
X200742419Y-122700832D01*
X200739909Y-122750703D01*
X200738669Y-122784505D01*
X200738917Y-122797601D01*
X200739515Y-122797436D01*
X200752903Y-122787023D01*
X200781619Y-122762530D01*
X200822808Y-122726453D01*
X200873615Y-122681288D01*
X200931185Y-122629530D01*
X200942965Y-122618897D01*
X200999878Y-122567903D01*
X201049816Y-122523761D01*
X201089830Y-122489038D01*
X201116972Y-122466297D01*
X201128292Y-122458104D01*
X201130224Y-122461783D01*
X201135513Y-122485697D01*
X201142524Y-122528172D01*
X201150573Y-122584901D01*
X201158977Y-122651575D01*
X201163474Y-122689826D01*
X201172880Y-122769814D01*
X201180831Y-122826767D01*
X201189070Y-122862168D01*
X201199338Y-122877498D01*
X201213377Y-122874241D01*
X201232930Y-122853877D01*
X201259737Y-122817889D01*
X201295542Y-122767758D01*
X201393700Y-122631608D01*
X201393700Y-122500131D01*
X201393631Y-122484894D01*
X201391323Y-122418609D01*
X201386015Y-122370301D01*
X201378074Y-122343632D01*
X201376492Y-122341045D01*
X201369497Y-122318616D01*
X201382942Y-122298115D01*
X201400696Y-122287270D01*
X201426489Y-122288385D01*
X201445173Y-122304694D01*
X201447978Y-122331672D01*
X201447255Y-122350878D01*
X201452711Y-122388956D01*
X201463835Y-122433438D01*
X201474837Y-122467615D01*
X201486971Y-122494183D01*
X201500593Y-122506006D01*
X201519885Y-122508700D01*
X201535673Y-122506838D01*
X201551789Y-122496435D01*
X201567687Y-122472297D01*
X201587726Y-122429325D01*
X201604716Y-122387628D01*
X201617439Y-122350947D01*
X201622302Y-122329206D01*
X201623057Y-122323549D01*
X201637720Y-122306461D01*
X201662197Y-122300544D01*
X201684730Y-122309509D01*
X201693593Y-122321306D01*
X201695731Y-122350124D01*
X201673713Y-122379664D01*
X201660888Y-122396249D01*
X201647785Y-122436065D01*
X201644282Y-122483250D01*
X201650729Y-122527710D01*
X201667477Y-122559347D01*
X201670251Y-122562075D01*
X201684810Y-122573658D01*
X201701505Y-122577600D01*
X201727794Y-122574226D01*
X201771134Y-122563859D01*
X201805346Y-122554069D01*
X201842035Y-122537818D01*
X201857715Y-122519935D01*
X201865284Y-122505471D01*
X201886202Y-122496845D01*
X201911860Y-122511239D01*
X201925620Y-122536868D01*
X201923089Y-122563337D01*
X201904875Y-122579602D01*
X201882810Y-122588466D01*
X201846133Y-122605441D01*
X201802846Y-122626828D01*
X201776246Y-122641400D01*
X201731487Y-122674683D01*
X201711706Y-122706468D01*
X201717079Y-122736536D01*
X201718549Y-122738486D01*
X201739660Y-122753477D01*
X201775521Y-122771207D01*
X201817757Y-122788243D01*
X201857992Y-122801155D01*
X201887849Y-122806509D01*
X201901259Y-122808520D01*
X201922059Y-122824377D01*
X201924869Y-122848751D01*
X201907144Y-122872883D01*
X201904041Y-122875093D01*
X201883564Y-122882646D01*
X201862931Y-122870043D01*
X201860263Y-122867934D01*
X201830281Y-122856016D01*
X201783143Y-122847253D01*
X201725859Y-122842064D01*
X201665441Y-122840868D01*
X201608900Y-122844084D01*
X201563249Y-122852132D01*
X201546657Y-122857608D01*
X201523450Y-122868680D01*
X201496893Y-122886058D01*
X201464080Y-122912089D01*
X201422106Y-122949121D01*
X201368065Y-122999500D01*
X201299052Y-123065576D01*
X201095250Y-123262109D01*
X201079662Y-123098129D01*
X201078788Y-123088971D01*
X201072716Y-123027084D01*
X201067286Y-122974592D01*
X201063064Y-122936795D01*
X201060612Y-122918991D01*
X201060033Y-122918175D01*
X201047049Y-122923572D01*
X201019949Y-122943325D01*
X200982251Y-122974694D01*
X200937475Y-123014936D01*
X200817800Y-123126039D01*
X200891846Y-123252344D01*
X200939141Y-123331556D01*
X201002330Y-123431122D01*
X201060488Y-123513490D01*
X201116659Y-123582288D01*
X201173883Y-123641145D01*
X201235204Y-123693689D01*
X201303663Y-123743550D01*
X201323675Y-123756812D01*
X201407416Y-123806592D01*
X201499007Y-123853771D01*
X201589275Y-123893860D01*
X201669045Y-123922369D01*
X201710149Y-123933173D01*
X201840726Y-123950823D01*
X201975949Y-123945852D01*
X202112029Y-123918911D01*
X202245176Y-123870651D01*
X202371600Y-123801721D01*
X202377237Y-123797981D01*
X202425601Y-123761569D01*
X202484138Y-123711931D01*
X202547225Y-123654340D01*
X202609239Y-123594071D01*
X202664556Y-123536400D01*
X202707554Y-123486600D01*
X202742790Y-123442150D01*
X202713517Y-123492950D01*
X202653546Y-123587309D01*
X202549276Y-123717106D01*
X202431298Y-123828765D01*
X202301703Y-123920877D01*
X202162582Y-123992030D01*
X202016028Y-124040813D01*
X201864133Y-124065816D01*
X201820897Y-124067808D01*
X201731482Y-124065588D01*
X201633428Y-124056921D01*
X201536598Y-124042799D01*
X201450850Y-124024214D01*
X201379512Y-124000837D01*
X201294379Y-123965697D01*
X201205824Y-123923371D01*
X201122406Y-123877960D01*
X201052686Y-123833560D01*
X200985140Y-123781026D01*
X200899314Y-123703183D01*
X200815742Y-123616610D01*
X200741092Y-123528294D01*
X200682034Y-123445224D01*
X200660673Y-123411764D01*
X200634102Y-123371920D01*
X200614460Y-123344630D01*
X200604916Y-123334448D01*
X200595078Y-123340976D01*
X200570210Y-123361801D01*
X200534554Y-123393541D01*
X200492117Y-123432707D01*
X200387054Y-123531215D01*
X200563352Y-123691490D01*
X200606475Y-123730471D01*
X200668632Y-123786338D01*
X200714802Y-123829081D01*
X200746202Y-123861818D01*
X200764048Y-123887667D01*
X200769555Y-123909746D01*
X200763940Y-123931175D01*
X200748419Y-123955072D01*
X200724207Y-123984556D01*
X200692522Y-124022744D01*
X200687233Y-124029327D01*
X200632009Y-124098374D01*
X200590422Y-124152149D01*
X200560389Y-124194843D01*
X200539827Y-124230648D01*
X200526652Y-124263756D01*
X200518783Y-124298358D01*
X200514137Y-124338646D01*
X200510631Y-124388811D01*
X200508114Y-124431383D01*
X200506549Y-124479159D01*
X200508115Y-124509795D01*
X200513189Y-124528222D01*
X200522148Y-124539370D01*
X200534642Y-124555782D01*
X200529387Y-124580133D01*
X200524427Y-124587697D01*
X200501559Y-124602110D01*
X200477007Y-124599417D01*
X200459364Y-124582634D01*
X200457219Y-124554780D01*
X200457604Y-124532470D01*
X200451485Y-124493116D01*
X200439923Y-124447305D01*
X200437491Y-124439235D01*
X200424448Y-124399456D01*
X200413576Y-124378440D01*
X200401062Y-124371182D01*
X200383093Y-124372674D01*
X200364600Y-124379869D01*
X200343506Y-124402148D01*
X200321801Y-124443925D01*
X200311004Y-124469388D01*
X200294467Y-124512443D01*
X200284142Y-124544699D01*
X200274892Y-124564570D01*
X200253416Y-124577086D01*
X200229482Y-124569723D01*
X200210780Y-124542693D01*
X200208827Y-124537066D01*
X200207346Y-124516329D01*
X200223693Y-124506700D01*
X200231566Y-124503337D01*
X200246295Y-124483200D01*
X200255471Y-124442609D01*
X200261224Y-124394397D01*
X200261914Y-124361828D01*
X200256588Y-124339540D01*
X200244582Y-124320067D01*
X200243666Y-124318867D01*
X200231851Y-124307023D01*
X200215854Y-124302285D01*
X200188800Y-124304096D01*
X200143811Y-124311899D01*
X200142650Y-124312119D01*
X200093766Y-124323518D01*
X200065561Y-124335989D01*
X200053420Y-124351557D01*
X200053396Y-124351630D01*
X200036412Y-124371340D01*
X200010264Y-124373852D01*
X199985336Y-124358159D01*
X199976520Y-124331960D01*
X199988914Y-124307217D01*
X200019128Y-124291067D01*
X200040828Y-124283330D01*
X200079605Y-124265607D01*
X200122502Y-124243095D01*
X200127248Y-124240414D01*
X200167546Y-124214699D01*
X200189345Y-124192615D01*
X200197510Y-124169379D01*
X200198187Y-124158357D01*
X200192957Y-124140044D01*
X200174477Y-124123540D01*
X200137607Y-124103161D01*
X200111650Y-124091359D01*
X200068523Y-124076577D01*
X200035223Y-124070800D01*
X200034469Y-124070798D01*
X200007769Y-124069205D01*
X199996700Y-124065488D01*
X199995957Y-124061187D01*
X199989620Y-124041726D01*
X199989905Y-124025517D01*
X200003929Y-124001885D01*
X200017432Y-123990003D01*
X200031698Y-123989050D01*
X200052285Y-124005604D01*
X200057930Y-124010443D01*
X200076538Y-124020895D01*
X200103724Y-124027641D01*
X200145093Y-124031721D01*
X200206250Y-124034175D01*
X200272106Y-124034321D01*
X200338164Y-124029922D01*
X200384050Y-124020839D01*
X200410392Y-124009657D01*
X200448223Y-123988821D01*
X200487225Y-123963763D01*
X200521520Y-123938562D01*
X200545229Y-123917292D01*
X200552476Y-123904032D01*
X200549763Y-123901136D01*
X200530314Y-123885088D01*
X200494696Y-123857436D01*
X200445882Y-123820442D01*
X200386842Y-123776368D01*
X200320550Y-123727476D01*
X200288047Y-123703513D01*
X200225475Y-123656601D01*
X200171993Y-123615460D01*
X200130480Y-123582363D01*
X200103814Y-123559580D01*
X200094872Y-123549381D01*
X200097203Y-123545217D01*
X200112013Y-123523114D01*
X200138569Y-123485125D01*
X200174707Y-123434305D01*
X200218262Y-123373707D01*
X200267070Y-123306386D01*
X200291783Y-123272410D01*
X200338858Y-123207531D01*
X200379981Y-123150643D01*
X200412897Y-123104880D01*
X200435350Y-123073371D01*
X200445086Y-123059249D01*
X200445192Y-123055605D01*
X200437679Y-123032389D01*
X200420395Y-122991654D01*
X200394926Y-122936857D01*
X200362854Y-122871453D01*
X200325765Y-122798899D01*
X200197707Y-122553150D01*
X200217805Y-122230310D01*
X200222370Y-122154805D01*
X200226908Y-122074278D01*
X200230431Y-122005393D01*
X200232775Y-121951575D01*
X200233779Y-121916252D01*
X200233282Y-121902847D01*
X200231996Y-121903425D01*
X200220250Y-121918227D01*
X200198652Y-121949739D01*
X200169719Y-121994209D01*
X200135967Y-122047887D01*
X200125132Y-122065373D01*
X200092541Y-122117852D01*
X200065703Y-122160898D01*
X200047150Y-122190453D01*
X200039418Y-122202461D01*
X200036802Y-122202888D01*
X200014656Y-122201395D01*
X199973812Y-122196728D01*
X199918814Y-122189436D01*
X199854206Y-122180069D01*
X199831427Y-122176677D01*
X199765515Y-122167294D01*
X199708189Y-122159741D01*
X199664951Y-122154720D01*
X199641304Y-122152933D01*
X199612187Y-122158507D01*
X199570037Y-122173484D01*
X199521362Y-122194819D01*
X199472227Y-122219464D01*
X199428698Y-122244374D01*
X199396838Y-122266503D01*
X199382713Y-122282805D01*
X199375276Y-122297040D01*
X199353076Y-122303299D01*
X199352772Y-122303239D01*
X199335536Y-122291321D01*
X199326030Y-122270531D01*
X199326499Y-122250785D01*
X199339190Y-122242000D01*
X199345659Y-122240755D01*
X199369735Y-122226069D01*
X199397855Y-122200156D01*
X199424006Y-122169735D01*
X199442176Y-122141525D01*
X199446352Y-122122245D01*
X199429955Y-122110373D01*
X199396957Y-122103474D01*
X199355843Y-122101960D01*
X199315059Y-122106136D01*
X199283050Y-122116311D01*
X199264293Y-122121722D01*
X199243263Y-122111269D01*
X199234895Y-122081433D01*
X199234903Y-122080685D01*
X199245731Y-122064223D01*
X199268412Y-122056743D01*
X199290285Y-122062560D01*
X199291945Y-122063635D01*
X199314045Y-122064061D01*
X199346608Y-122053490D01*
X199381210Y-122036072D01*
X199409425Y-122015955D01*
X199422828Y-121997289D01*
X199417882Y-121973800D01*
X199399304Y-121941604D01*
X199373193Y-121909034D01*
X199345777Y-121883822D01*
X199323283Y-121873700D01*
X199310657Y-121872436D01*
X199291387Y-121858223D01*
X199293168Y-121830396D01*
X199298653Y-121818898D01*
X199308243Y-121812548D01*
X199324994Y-121816692D01*
X199353450Y-121832694D01*
X199398155Y-121861918D01*
X199448689Y-121892678D01*
X199486268Y-121906956D01*
X199510299Y-121902353D01*
X199523054Y-121878386D01*
X199526800Y-121834571D01*
X199526078Y-121814532D01*
X199520510Y-121774125D01*
X199511244Y-121746844D01*
X199502289Y-121725419D01*
X199510390Y-121707230D01*
X199514426Y-121703704D01*
X199537361Y-121698151D01*
X199556739Y-121711887D01*
X199564900Y-121740268D01*
X199568489Y-121760730D01*
X199582676Y-121801187D01*
X199604154Y-121849484D01*
X199629151Y-121897920D01*
X199653898Y-121938792D01*
X199674624Y-121964398D01*
X199686444Y-121971356D01*
X199717868Y-121984549D01*
X199761363Y-122000200D01*
X199810942Y-122016447D01*
X199860616Y-122031427D01*
X199904396Y-122043278D01*
X199936296Y-122050137D01*
X199950326Y-122050143D01*
X199958252Y-122039744D01*
X199979213Y-122012224D01*
X200010675Y-121970909D01*
X200050145Y-121919074D01*
X200095128Y-121859995D01*
X200236102Y-121674841D01*
X200217342Y-121531171D01*
X200216384Y-121523805D01*
X200208835Y-121461743D01*
X200205222Y-121418171D01*
X200205574Y-121387074D01*
X200209920Y-121362436D01*
X200218292Y-121338243D01*
X200220730Y-121331809D01*
X200233003Y-121286612D01*
X200238000Y-121244792D01*
X200238008Y-121243160D01*
X200242487Y-121212147D01*
X200253875Y-121200595D01*
X200254388Y-121200526D01*
X200265261Y-121187691D01*
X200282259Y-121155842D01*
X200303156Y-121109544D01*
X200325722Y-121053363D01*
X200339394Y-121018368D01*
X200370434Y-120948878D01*
X200398682Y-120904032D01*
X200425765Y-120883795D01*
X200453310Y-120888130D01*
G36*
X200453310Y-120888130D02*
G01*
X200482944Y-120917000D01*
X200516293Y-120970369D01*
X200554984Y-121048200D01*
X200577912Y-121095136D01*
X200603123Y-121141243D01*
X200623731Y-121172905D01*
X200637070Y-121185656D01*
X200651030Y-121196906D01*
X200657379Y-121230106D01*
X200657856Y-121238687D01*
X200666004Y-121279579D01*
X200680982Y-121321798D01*
X200690156Y-121344398D01*
X200696653Y-121370671D01*
X200699095Y-121403072D01*
X200697900Y-121447974D01*
X200693489Y-121511748D01*
X200690395Y-121558997D01*
X200688666Y-121608246D01*
X200689221Y-121643248D01*
X200692111Y-121658482D01*
X200692119Y-121658489D01*
X200706536Y-121667270D01*
X200738738Y-121685129D01*
X200783962Y-121709472D01*
X200837448Y-121737703D01*
X200973345Y-121808792D01*
X201043770Y-121698371D01*
X201048112Y-121691517D01*
X201083771Y-121630604D01*
X201106347Y-121582520D01*
X201114248Y-121550606D01*
X201113115Y-121533538D01*
X201104991Y-121490432D01*
X201090975Y-121440127D01*
X201073371Y-121389017D01*
X201054483Y-121343496D01*
X201036615Y-121309956D01*
X201022070Y-121294792D01*
X201012457Y-121290056D01*
X201002679Y-121272096D01*
X201010547Y-121252634D01*
X201033964Y-121241134D01*
X201055069Y-121243779D01*
X201070565Y-121266350D01*
X201077534Y-121283913D01*
X201099873Y-121321085D01*
X201128007Y-121353866D01*
X201156212Y-121376149D01*
X201178767Y-121381826D01*
X201179545Y-121381617D01*
X201194331Y-121372301D01*
X201202076Y-121350675D01*
X201205176Y-121310243D01*
X201205672Y-121288178D01*
X201205747Y-121245843D01*
X201204663Y-121216273D01*
X201204517Y-121210944D01*
X201214085Y-121186782D01*
X201234824Y-121176958D01*
X201257711Y-121186530D01*
X201265240Y-121198657D01*
X201259225Y-121223141D01*
X201253722Y-121243780D01*
X201256625Y-121280960D01*
X201268212Y-121321074D01*
X201285541Y-121354677D01*
X201305673Y-121372326D01*
X201308464Y-121373000D01*
X201336235Y-121369215D01*
X201371663Y-121353735D01*
X201406809Y-121331479D01*
X201433728Y-121307368D01*
X201444478Y-121286325D01*
X201448594Y-121272952D01*
X201470299Y-121264100D01*
X201490760Y-121267707D01*
X201502254Y-121283914D01*
X201493510Y-121310940D01*
X201464694Y-121346352D01*
X201432369Y-121380287D01*
X201402215Y-121419205D01*
X201388787Y-121450641D01*
X201389706Y-121478797D01*
X201392447Y-121488136D01*
X201399653Y-121499407D01*
X201414705Y-121504548D01*
X201443423Y-121504864D01*
X201491626Y-121501660D01*
X201524833Y-121499504D01*
X201562816Y-121499194D01*
X201583761Y-121503451D01*
X201592724Y-121512834D01*
X201594323Y-121518218D01*
X201589990Y-121543098D01*
X201571121Y-121558383D01*
X201546142Y-121556222D01*
X201539143Y-121554370D01*
X201508821Y-121556210D01*
X201464920Y-121565384D01*
X201414328Y-121580003D01*
X201363934Y-121598180D01*
X201320628Y-121618026D01*
X201315633Y-121622004D01*
X201295012Y-121642470D01*
X201262837Y-121676596D01*
X201222420Y-121720667D01*
X201177074Y-121770970D01*
X201130114Y-121823791D01*
X201084851Y-121875416D01*
X201044600Y-121922131D01*
X201012673Y-121960222D01*
X200992384Y-121985975D01*
X200992197Y-121986078D01*
X200978931Y-121980956D01*
X200948275Y-121965695D01*
X200904551Y-121942523D01*
X200852083Y-121913667D01*
X200847535Y-121911130D01*
X200795527Y-121882606D01*
X200752534Y-121859906D01*
X200722911Y-121845274D01*
X200711012Y-121840954D01*
X200710727Y-121846417D01*
X200711960Y-121873560D01*
X200715052Y-121920233D01*
X200719745Y-121982878D01*
X200725780Y-122057940D01*
X200732899Y-122141862D01*
X200732984Y-122142839D01*
X200741936Y-122251382D01*
X200748035Y-122340471D01*
X200751458Y-122415824D01*
X200752378Y-122483160D01*
X200750971Y-122548195D01*
X200747411Y-122616650D01*
X200745982Y-122639527D01*
X200742419Y-122700832D01*
X200739909Y-122750703D01*
X200738669Y-122784505D01*
X200738917Y-122797601D01*
X200739515Y-122797436D01*
X200752903Y-122787023D01*
X200781619Y-122762530D01*
X200822808Y-122726453D01*
X200873615Y-122681288D01*
X200931185Y-122629530D01*
X200942965Y-122618897D01*
X200999878Y-122567903D01*
X201049816Y-122523761D01*
X201089830Y-122489038D01*
X201116972Y-122466297D01*
X201128292Y-122458104D01*
X201130224Y-122461783D01*
X201135513Y-122485697D01*
X201142524Y-122528172D01*
X201150573Y-122584901D01*
X201158977Y-122651575D01*
X201163474Y-122689826D01*
X201172880Y-122769814D01*
X201180831Y-122826767D01*
X201189070Y-122862168D01*
X201199338Y-122877498D01*
X201213377Y-122874241D01*
X201232930Y-122853877D01*
X201259737Y-122817889D01*
X201295542Y-122767758D01*
X201393700Y-122631608D01*
X201393700Y-122500131D01*
X201393631Y-122484894D01*
X201391323Y-122418609D01*
X201386015Y-122370301D01*
X201378074Y-122343632D01*
X201376492Y-122341045D01*
X201369497Y-122318616D01*
X201382942Y-122298115D01*
X201400696Y-122287270D01*
X201426489Y-122288385D01*
X201445173Y-122304694D01*
X201447978Y-122331672D01*
X201447255Y-122350878D01*
X201452711Y-122388956D01*
X201463835Y-122433438D01*
X201474837Y-122467615D01*
X201486971Y-122494183D01*
X201500593Y-122506006D01*
X201519885Y-122508700D01*
X201535673Y-122506838D01*
X201551789Y-122496435D01*
X201567687Y-122472297D01*
X201587726Y-122429325D01*
X201604716Y-122387628D01*
X201617439Y-122350947D01*
X201622302Y-122329206D01*
X201623057Y-122323549D01*
X201637720Y-122306461D01*
X201662197Y-122300544D01*
X201684730Y-122309509D01*
X201693593Y-122321306D01*
X201695731Y-122350124D01*
X201673713Y-122379664D01*
X201660888Y-122396249D01*
X201647785Y-122436065D01*
X201644282Y-122483250D01*
X201650729Y-122527710D01*
X201667477Y-122559347D01*
X201670251Y-122562075D01*
X201684810Y-122573658D01*
X201701505Y-122577600D01*
X201727794Y-122574226D01*
X201771134Y-122563859D01*
X201805346Y-122554069D01*
X201842035Y-122537818D01*
X201857715Y-122519935D01*
X201865284Y-122505471D01*
X201886202Y-122496845D01*
X201911860Y-122511239D01*
X201925620Y-122536868D01*
X201923089Y-122563337D01*
X201904875Y-122579602D01*
X201882810Y-122588466D01*
X201846133Y-122605441D01*
X201802846Y-122626828D01*
X201776246Y-122641400D01*
X201731487Y-122674683D01*
X201711706Y-122706468D01*
X201717079Y-122736536D01*
X201718549Y-122738486D01*
X201739660Y-122753477D01*
X201775521Y-122771207D01*
X201817757Y-122788243D01*
X201857992Y-122801155D01*
X201887849Y-122806509D01*
X201901259Y-122808520D01*
X201922059Y-122824377D01*
X201924869Y-122848751D01*
X201907144Y-122872883D01*
X201904041Y-122875093D01*
X201883564Y-122882646D01*
X201862931Y-122870043D01*
X201860263Y-122867934D01*
X201830281Y-122856016D01*
X201783143Y-122847253D01*
X201725859Y-122842064D01*
X201665441Y-122840868D01*
X201608900Y-122844084D01*
X201563249Y-122852132D01*
X201546657Y-122857608D01*
X201523450Y-122868680D01*
X201496893Y-122886058D01*
X201464080Y-122912089D01*
X201422106Y-122949121D01*
X201368065Y-122999500D01*
X201299052Y-123065576D01*
X201095250Y-123262109D01*
X201079662Y-123098129D01*
X201078788Y-123088971D01*
X201072716Y-123027084D01*
X201067286Y-122974592D01*
X201063064Y-122936795D01*
X201060612Y-122918991D01*
X201060033Y-122918175D01*
X201047049Y-122923572D01*
X201019949Y-122943325D01*
X200982251Y-122974694D01*
X200937475Y-123014936D01*
X200817800Y-123126039D01*
X200891846Y-123252344D01*
X200939141Y-123331556D01*
X201002330Y-123431122D01*
X201060488Y-123513490D01*
X201116659Y-123582288D01*
X201173883Y-123641145D01*
X201235204Y-123693689D01*
X201303663Y-123743550D01*
X201323675Y-123756812D01*
X201407416Y-123806592D01*
X201499007Y-123853771D01*
X201589275Y-123893860D01*
X201669045Y-123922369D01*
X201710149Y-123933173D01*
X201840726Y-123950823D01*
X201975949Y-123945852D01*
X202112029Y-123918911D01*
X202245176Y-123870651D01*
X202371600Y-123801721D01*
X202377237Y-123797981D01*
X202425601Y-123761569D01*
X202484138Y-123711931D01*
X202547225Y-123654340D01*
X202609239Y-123594071D01*
X202664556Y-123536400D01*
X202707554Y-123486600D01*
X202742790Y-123442150D01*
X202713517Y-123492950D01*
X202653546Y-123587309D01*
X202549276Y-123717106D01*
X202431298Y-123828765D01*
X202301703Y-123920877D01*
X202162582Y-123992030D01*
X202016028Y-124040813D01*
X201864133Y-124065816D01*
X201820897Y-124067808D01*
X201731482Y-124065588D01*
X201633428Y-124056921D01*
X201536598Y-124042799D01*
X201450850Y-124024214D01*
X201379512Y-124000837D01*
X201294379Y-123965697D01*
X201205824Y-123923371D01*
X201122406Y-123877960D01*
X201052686Y-123833560D01*
X200985140Y-123781026D01*
X200899314Y-123703183D01*
X200815742Y-123616610D01*
X200741092Y-123528294D01*
X200682034Y-123445224D01*
X200660673Y-123411764D01*
X200634102Y-123371920D01*
X200614460Y-123344630D01*
X200604916Y-123334448D01*
X200595078Y-123340976D01*
X200570210Y-123361801D01*
X200534554Y-123393541D01*
X200492117Y-123432707D01*
X200387054Y-123531215D01*
X200563352Y-123691490D01*
X200606475Y-123730471D01*
X200668632Y-123786338D01*
X200714802Y-123829081D01*
X200746202Y-123861818D01*
X200764048Y-123887667D01*
X200769555Y-123909746D01*
X200763940Y-123931175D01*
X200748419Y-123955072D01*
X200724207Y-123984556D01*
X200692522Y-124022744D01*
X200687233Y-124029327D01*
X200632009Y-124098374D01*
X200590422Y-124152149D01*
X200560389Y-124194843D01*
X200539827Y-124230648D01*
X200526652Y-124263756D01*
X200518783Y-124298358D01*
X200514137Y-124338646D01*
X200510631Y-124388811D01*
X200508114Y-124431383D01*
X200506549Y-124479159D01*
X200508115Y-124509795D01*
X200513189Y-124528222D01*
X200522148Y-124539370D01*
X200534642Y-124555782D01*
X200529387Y-124580133D01*
X200524427Y-124587697D01*
X200501559Y-124602110D01*
X200477007Y-124599417D01*
X200459364Y-124582634D01*
X200457219Y-124554780D01*
X200457604Y-124532470D01*
X200451485Y-124493116D01*
X200439923Y-124447305D01*
X200437491Y-124439235D01*
X200424448Y-124399456D01*
X200413576Y-124378440D01*
X200401062Y-124371182D01*
X200383093Y-124372674D01*
X200364600Y-124379869D01*
X200343506Y-124402148D01*
X200321801Y-124443925D01*
X200311004Y-124469388D01*
X200294467Y-124512443D01*
X200284142Y-124544699D01*
X200274892Y-124564570D01*
X200253416Y-124577086D01*
X200229482Y-124569723D01*
X200210780Y-124542693D01*
X200208827Y-124537066D01*
X200207346Y-124516329D01*
X200223693Y-124506700D01*
X200231566Y-124503337D01*
X200246295Y-124483200D01*
X200255471Y-124442609D01*
X200261224Y-124394397D01*
X200261914Y-124361828D01*
X200256588Y-124339540D01*
X200244582Y-124320067D01*
X200243666Y-124318867D01*
X200231851Y-124307023D01*
X200215854Y-124302285D01*
X200188800Y-124304096D01*
X200143811Y-124311899D01*
X200142650Y-124312119D01*
X200093766Y-124323518D01*
X200065561Y-124335989D01*
X200053420Y-124351557D01*
X200053396Y-124351630D01*
X200036412Y-124371340D01*
X200010264Y-124373852D01*
X199985336Y-124358159D01*
X199976520Y-124331960D01*
X199988914Y-124307217D01*
X200019128Y-124291067D01*
X200040828Y-124283330D01*
X200079605Y-124265607D01*
X200122502Y-124243095D01*
X200127248Y-124240414D01*
X200167546Y-124214699D01*
X200189345Y-124192615D01*
X200197510Y-124169379D01*
X200198187Y-124158357D01*
X200192957Y-124140044D01*
X200174477Y-124123540D01*
X200137607Y-124103161D01*
X200111650Y-124091359D01*
X200068523Y-124076577D01*
X200035223Y-124070800D01*
X200034469Y-124070798D01*
X200007769Y-124069205D01*
X199996700Y-124065488D01*
X199995957Y-124061187D01*
X199989620Y-124041726D01*
X199989905Y-124025517D01*
X200003929Y-124001885D01*
X200017432Y-123990003D01*
X200031698Y-123989050D01*
X200052285Y-124005604D01*
X200057930Y-124010443D01*
X200076538Y-124020895D01*
X200103724Y-124027641D01*
X200145093Y-124031721D01*
X200206250Y-124034175D01*
X200272106Y-124034321D01*
X200338164Y-124029922D01*
X200384050Y-124020839D01*
X200410392Y-124009657D01*
X200448223Y-123988821D01*
X200487225Y-123963763D01*
X200521520Y-123938562D01*
X200545229Y-123917292D01*
X200552476Y-123904032D01*
X200549763Y-123901136D01*
X200530314Y-123885088D01*
X200494696Y-123857436D01*
X200445882Y-123820442D01*
X200386842Y-123776368D01*
X200320550Y-123727476D01*
X200288047Y-123703513D01*
X200225475Y-123656601D01*
X200171993Y-123615460D01*
X200130480Y-123582363D01*
X200103814Y-123559580D01*
X200094872Y-123549381D01*
X200097203Y-123545217D01*
X200112013Y-123523114D01*
X200138569Y-123485125D01*
X200174707Y-123434305D01*
X200218262Y-123373707D01*
X200267070Y-123306386D01*
X200291783Y-123272410D01*
X200338858Y-123207531D01*
X200379981Y-123150643D01*
X200412897Y-123104880D01*
X200435350Y-123073371D01*
X200445086Y-123059249D01*
X200445192Y-123055605D01*
X200437679Y-123032389D01*
X200420395Y-122991654D01*
X200394926Y-122936857D01*
X200362854Y-122871453D01*
X200325765Y-122798899D01*
X200197707Y-122553150D01*
X200217805Y-122230310D01*
X200222370Y-122154805D01*
X200226908Y-122074278D01*
X200230431Y-122005393D01*
X200232775Y-121951575D01*
X200233779Y-121916252D01*
X200233282Y-121902847D01*
X200231996Y-121903425D01*
X200220250Y-121918227D01*
X200198652Y-121949739D01*
X200169719Y-121994209D01*
X200135967Y-122047887D01*
X200125132Y-122065373D01*
X200092541Y-122117852D01*
X200065703Y-122160898D01*
X200047150Y-122190453D01*
X200039418Y-122202461D01*
X200036802Y-122202888D01*
X200014656Y-122201395D01*
X199973812Y-122196728D01*
X199918814Y-122189436D01*
X199854206Y-122180069D01*
X199831427Y-122176677D01*
X199765515Y-122167294D01*
X199708189Y-122159741D01*
X199664951Y-122154720D01*
X199641304Y-122152933D01*
X199612187Y-122158507D01*
X199570037Y-122173484D01*
X199521362Y-122194819D01*
X199472227Y-122219464D01*
X199428698Y-122244374D01*
X199396838Y-122266503D01*
X199382713Y-122282805D01*
X199375276Y-122297040D01*
X199353076Y-122303299D01*
X199352772Y-122303239D01*
X199335536Y-122291321D01*
X199326030Y-122270531D01*
X199326499Y-122250785D01*
X199339190Y-122242000D01*
X199345659Y-122240755D01*
X199369735Y-122226069D01*
X199397855Y-122200156D01*
X199424006Y-122169735D01*
X199442176Y-122141525D01*
X199446352Y-122122245D01*
X199429955Y-122110373D01*
X199396957Y-122103474D01*
X199355843Y-122101960D01*
X199315059Y-122106136D01*
X199283050Y-122116311D01*
X199264293Y-122121722D01*
X199243263Y-122111269D01*
X199234895Y-122081433D01*
X199234903Y-122080685D01*
X199245731Y-122064223D01*
X199268412Y-122056743D01*
X199290285Y-122062560D01*
X199291945Y-122063635D01*
X199314045Y-122064061D01*
X199346608Y-122053490D01*
X199381210Y-122036072D01*
X199409425Y-122015955D01*
X199422828Y-121997289D01*
X199417882Y-121973800D01*
X199399304Y-121941604D01*
X199373193Y-121909034D01*
X199345777Y-121883822D01*
X199323283Y-121873700D01*
X199310657Y-121872436D01*
X199291387Y-121858223D01*
X199293168Y-121830396D01*
X199298653Y-121818898D01*
X199308243Y-121812548D01*
X199324994Y-121816692D01*
X199353450Y-121832694D01*
X199398155Y-121861918D01*
X199448689Y-121892678D01*
X199486268Y-121906956D01*
X199510299Y-121902353D01*
X199523054Y-121878386D01*
X199526800Y-121834571D01*
X199526078Y-121814532D01*
X199520510Y-121774125D01*
X199511244Y-121746844D01*
X199502289Y-121725419D01*
X199510390Y-121707230D01*
X199514426Y-121703704D01*
X199537361Y-121698151D01*
X199556739Y-121711887D01*
X199564900Y-121740268D01*
X199568489Y-121760730D01*
X199582676Y-121801187D01*
X199604154Y-121849484D01*
X199629151Y-121897920D01*
X199653898Y-121938792D01*
X199674624Y-121964398D01*
X199686444Y-121971356D01*
X199717868Y-121984549D01*
X199761363Y-122000200D01*
X199810942Y-122016447D01*
X199860616Y-122031427D01*
X199904396Y-122043278D01*
X199936296Y-122050137D01*
X199950326Y-122050143D01*
X199958252Y-122039744D01*
X199979213Y-122012224D01*
X200010675Y-121970909D01*
X200050145Y-121919074D01*
X200095128Y-121859995D01*
X200236102Y-121674841D01*
X200217342Y-121531171D01*
X200216384Y-121523805D01*
X200208835Y-121461743D01*
X200205222Y-121418171D01*
X200205574Y-121387074D01*
X200209920Y-121362436D01*
X200218292Y-121338243D01*
X200220730Y-121331809D01*
X200233003Y-121286612D01*
X200238000Y-121244792D01*
X200238008Y-121243160D01*
X200242487Y-121212147D01*
X200253875Y-121200595D01*
X200254388Y-121200526D01*
X200265261Y-121187691D01*
X200282259Y-121155842D01*
X200303156Y-121109544D01*
X200325722Y-121053363D01*
X200339394Y-121018368D01*
X200370434Y-120948878D01*
X200398682Y-120904032D01*
X200425765Y-120883795D01*
X200453310Y-120888130D01*
G37*
D22*
X106650000Y-123255000D03*
X106650000Y-125005000D03*
X111050000Y-125005000D03*
X111050000Y-123255000D03*
D23*
X122700000Y-60375000D03*
X122700000Y-58625000D03*
X118300000Y-58625000D03*
X118300000Y-60375000D03*
D22*
X156300000Y-52915000D03*
X156300000Y-54665000D03*
X160700000Y-54665000D03*
X160700000Y-52915000D03*
D23*
X199700000Y-62125000D03*
X199700000Y-60375000D03*
X195300000Y-60375000D03*
X195300000Y-62125000D03*
D22*
X146883600Y-117387600D03*
X146883600Y-119137600D03*
X151283600Y-119137600D03*
X151283600Y-117387600D03*
X182850000Y-119445000D03*
X182850000Y-121195000D03*
X187250000Y-121195000D03*
X187250000Y-119445000D03*
X103550000Y-85625000D03*
X103550000Y-87375000D03*
X107950000Y-87375000D03*
X107950000Y-85625000D03*
D24*
X107900000Y-81100000D03*
D25*
X107900000Y-78600000D03*
X107900000Y-76000000D03*
D26*
X112500000Y-85600000D03*
X112500000Y-83000000D03*
D27*
X112500000Y-80500000D03*
D28*
X218200000Y-46025000D03*
X218200000Y-47775000D03*
X213400000Y-47775000D03*
X213400000Y-46025000D03*
D29*
X213260000Y-57480000D03*
D30*
X215800000Y-52400000D03*
D31*
X210100000Y-57520000D03*
D29*
X219610000Y-54940000D03*
D32*
X220300000Y-52400000D03*
D29*
X218340000Y-57480000D03*
D32*
X211300000Y-52400000D03*
D33*
X210720000Y-52400000D03*
D29*
X211990000Y-54940001D03*
D33*
X220880000Y-52400000D03*
D31*
X222800000Y-54980000D03*
X165600000Y-104770000D03*
D33*
X163680000Y-102190000D03*
D29*
X154790000Y-104730001D03*
D33*
X153520000Y-102190000D03*
D32*
X154100000Y-102190000D03*
D29*
X161140000Y-107270000D03*
D32*
X163100000Y-102190000D03*
D29*
X162410000Y-104730000D03*
D31*
X152900000Y-107310000D03*
D30*
X158600000Y-102190000D03*
D29*
X156060000Y-107270000D03*
D28*
X156200000Y-95815000D03*
X156200000Y-97565000D03*
X161000000Y-97565000D03*
X161000000Y-95815000D03*
D31*
X203700000Y-112080000D03*
D33*
X201780000Y-109500000D03*
D29*
X192890000Y-112040001D03*
D33*
X191620000Y-109500000D03*
D32*
X192200000Y-109500000D03*
D29*
X199240000Y-114580000D03*
D32*
X201200000Y-109500000D03*
D29*
X200510000Y-112040000D03*
D31*
X191000000Y-114620000D03*
D30*
X196700000Y-109500000D03*
D29*
X194160000Y-114580000D03*
D28*
X194300000Y-103125000D03*
X194300000Y-104875000D03*
X199100000Y-104875000D03*
X199100000Y-103125000D03*
D31*
X222700000Y-73880000D03*
D33*
X220780000Y-71300000D03*
D29*
X211890000Y-73840001D03*
D33*
X210620000Y-71300000D03*
D32*
X211200000Y-71300000D03*
D29*
X218240000Y-76380000D03*
D32*
X220200000Y-71300000D03*
D29*
X219510000Y-73840000D03*
D31*
X210000000Y-76420000D03*
D30*
X215700000Y-71300000D03*
D29*
X213160000Y-76380000D03*
D28*
X213300000Y-64925000D03*
X213300000Y-66675000D03*
X218100000Y-66675000D03*
X218100000Y-64925000D03*
D31*
X203700000Y-73880000D03*
D33*
X201780000Y-71300000D03*
D29*
X192890000Y-73840001D03*
D33*
X191620000Y-71300000D03*
D32*
X192200000Y-71300000D03*
D29*
X199240000Y-76380000D03*
D32*
X201200000Y-71300000D03*
D29*
X200510000Y-73840000D03*
D31*
X191000000Y-76420000D03*
D30*
X196700000Y-71300000D03*
D29*
X194160000Y-76380000D03*
D28*
X194300000Y-64925000D03*
X194300000Y-66675000D03*
X199100000Y-66675000D03*
X199100000Y-64925000D03*
D31*
X203700000Y-93080000D03*
D33*
X201780000Y-90500000D03*
D29*
X192890000Y-93040001D03*
D33*
X191620000Y-90500000D03*
D32*
X192200000Y-90500000D03*
D29*
X199240000Y-95580000D03*
D32*
X201200000Y-90500000D03*
D29*
X200510000Y-93040000D03*
D31*
X191000000Y-95620000D03*
D30*
X196700000Y-90500000D03*
D29*
X194160000Y-95580000D03*
D28*
X194300000Y-84125000D03*
X194300000Y-85875000D03*
X199100000Y-85875000D03*
X199100000Y-84125000D03*
D31*
X146500000Y-50080000D03*
D33*
X144580000Y-47500000D03*
D29*
X135690000Y-50040001D03*
D33*
X134420000Y-47500000D03*
D32*
X135000000Y-47500000D03*
D29*
X142040000Y-52580000D03*
D32*
X144000000Y-47500000D03*
D29*
X143310000Y-50040000D03*
D31*
X133800000Y-52620000D03*
D30*
X139500000Y-47500000D03*
D29*
X136960000Y-52580000D03*
D28*
X137100000Y-41125000D03*
X137100000Y-42875000D03*
X141900000Y-42875000D03*
X141900000Y-41125000D03*
D34*
X127580000Y-119020000D03*
X124030000Y-119020000D03*
X124000000Y-121600000D03*
X127550000Y-121600000D03*
X127550000Y-124200000D03*
X124000000Y-124200000D03*
X112199800Y-120624800D03*
X108649800Y-120624800D03*
X102575000Y-123600000D03*
X99025000Y-123600000D03*
X108775000Y-97000000D03*
X105225000Y-97000000D03*
D35*
X208200000Y-106950000D03*
X208200000Y-103400000D03*
X188500000Y-108525000D03*
X188500000Y-104975000D03*
X169250000Y-103925000D03*
X169250000Y-100375000D03*
X150000000Y-100340000D03*
X150000000Y-96790000D03*
X131000000Y-104950000D03*
X131000000Y-101400000D03*
X112000000Y-104525000D03*
X112000000Y-100975000D03*
X207750000Y-88050000D03*
X207750000Y-84500000D03*
X188500000Y-90550000D03*
X188500000Y-87000000D03*
X169725000Y-85200000D03*
X169725000Y-81650000D03*
X149750000Y-83340000D03*
X149750000Y-79790000D03*
X131250000Y-85450000D03*
X131250000Y-81900000D03*
X128500000Y-85550000D03*
X128500000Y-82000000D03*
X207750000Y-69050000D03*
X207750000Y-65500000D03*
X188250000Y-68550000D03*
X188250000Y-65000000D03*
X169500000Y-65425000D03*
X169500000Y-61875000D03*
X150250000Y-62840000D03*
X150250000Y-59290000D03*
X129800000Y-65575000D03*
X129800000Y-62025000D03*
X126800000Y-65550000D03*
X126800000Y-62000000D03*
X207750000Y-51800000D03*
X207750000Y-48250000D03*
X188000000Y-52025000D03*
X188000000Y-48475000D03*
X169250000Y-47200000D03*
X169250000Y-43650000D03*
X150500000Y-44815000D03*
X150500000Y-41265000D03*
X131000000Y-47555500D03*
X131000000Y-44005500D03*
X128750000Y-47550000D03*
X128750000Y-44000000D03*
D31*
X184600000Y-126380000D03*
D33*
X182680000Y-123800000D03*
D29*
X173790000Y-126340001D03*
D33*
X172520000Y-123800000D03*
D32*
X173100000Y-123800000D03*
D29*
X180140000Y-128880000D03*
D32*
X182100000Y-123800000D03*
D29*
X181410000Y-126340000D03*
D31*
X171900000Y-128920000D03*
D30*
X177600000Y-123800000D03*
D29*
X175060000Y-128880000D03*
D28*
X175200000Y-117425000D03*
X175200000Y-119175000D03*
X180000000Y-119175000D03*
X180000000Y-117425000D03*
D31*
X165600000Y-123870000D03*
D33*
X163680000Y-121290000D03*
D29*
X154790000Y-123830001D03*
D33*
X153520000Y-121290000D03*
D32*
X154100000Y-121290000D03*
D29*
X161140000Y-126370000D03*
D32*
X163100000Y-121290000D03*
D29*
X162410000Y-123830000D03*
D31*
X152900000Y-126410000D03*
D30*
X158600000Y-121290000D03*
D29*
X156060000Y-126370000D03*
D28*
X156200000Y-114915000D03*
X156200000Y-116665000D03*
X161000000Y-116665000D03*
X161000000Y-114915000D03*
D31*
X146500000Y-126280000D03*
D33*
X144580000Y-123700000D03*
D29*
X135690000Y-126240001D03*
D33*
X134420000Y-123700000D03*
D32*
X135000000Y-123700000D03*
D29*
X142040000Y-128780000D03*
D32*
X144000000Y-123700000D03*
D29*
X143310000Y-126240000D03*
D31*
X133800000Y-128820000D03*
D30*
X139500000Y-123700000D03*
D29*
X136960000Y-128780000D03*
D28*
X137100000Y-117325000D03*
X137100000Y-119075000D03*
X141900000Y-119075000D03*
X141900000Y-117325000D03*
D36*
X125029234Y-129080355D03*
D33*
X122506903Y-127085199D03*
D29*
X114577223Y-131839553D03*
D33*
X112693097Y-129714801D03*
D32*
X113253334Y-129564686D03*
D29*
X121368252Y-132649503D03*
D32*
X121946666Y-127235314D03*
D29*
X121937578Y-129867351D03*
D36*
X113419376Y-134820809D03*
D30*
X117600000Y-128400000D03*
D29*
X116461349Y-133964304D03*
D37*
X113631807Y-122863389D03*
X114084740Y-124553759D03*
X118721184Y-123311427D03*
X118268251Y-121621057D03*
D38*
X97975654Y-140752178D03*
D33*
X99250000Y-137799409D03*
D29*
X92605295Y-131370444D03*
D33*
X94170000Y-129000591D03*
D32*
X94460000Y-129502886D03*
D29*
X93580591Y-138139705D03*
D32*
X98960000Y-137297114D03*
D29*
X96415295Y-137969557D03*
D38*
X89425950Y-131023655D03*
D30*
X96750000Y-133330000D03*
D29*
X91040591Y-133740295D03*
D39*
X101030912Y-128134039D03*
X99515367Y-129009039D03*
X101915367Y-133165961D03*
X103430912Y-132290961D03*
D31*
X222750000Y-112080000D03*
D33*
X220830000Y-109500000D03*
D29*
X211940000Y-112040001D03*
D33*
X210670000Y-109500000D03*
D32*
X211250000Y-109500000D03*
D29*
X218290000Y-114580000D03*
D32*
X220250000Y-109500000D03*
D29*
X219560000Y-112040000D03*
D31*
X210050000Y-114620000D03*
D30*
X215750000Y-109500000D03*
D29*
X213210000Y-114580000D03*
D28*
X213350000Y-103125000D03*
X213350000Y-104875000D03*
X218150000Y-104875000D03*
X218150000Y-103125000D03*
D31*
X184600000Y-107280000D03*
D33*
X182680000Y-104700000D03*
D29*
X173790000Y-107240001D03*
D33*
X172520000Y-104700000D03*
D32*
X173100000Y-104700000D03*
D29*
X180140000Y-109780000D03*
D32*
X182100000Y-104700000D03*
D29*
X181410000Y-107240000D03*
D31*
X171900000Y-109820000D03*
D30*
X177600000Y-104700000D03*
D29*
X175060000Y-109780000D03*
D28*
X175200000Y-98325000D03*
X175200000Y-100075000D03*
X180000000Y-100075000D03*
X180000000Y-98325000D03*
D31*
X146500000Y-107280000D03*
D33*
X144580000Y-104700000D03*
D29*
X135690000Y-107240001D03*
D33*
X134420000Y-104700000D03*
D32*
X135000000Y-104700000D03*
D29*
X142040000Y-109780000D03*
D32*
X144000000Y-104700000D03*
D29*
X143310000Y-107240000D03*
D31*
X133800000Y-109820000D03*
D30*
X139500000Y-104700000D03*
D29*
X136960000Y-109780000D03*
D28*
X137100000Y-98325000D03*
X137100000Y-100075000D03*
X141900000Y-100075000D03*
X141900000Y-98325000D03*
D31*
X127500000Y-109680000D03*
D33*
X125580000Y-107100000D03*
D29*
X116690000Y-109640001D03*
D33*
X115420000Y-107100000D03*
D32*
X116000000Y-107100000D03*
D29*
X123040000Y-112180000D03*
D32*
X125000000Y-107100000D03*
D29*
X124310000Y-109640000D03*
D31*
X114800000Y-112220000D03*
D30*
X120500000Y-107100000D03*
D29*
X117960000Y-112180000D03*
D28*
X118100000Y-100725000D03*
X118100000Y-102475000D03*
X122900000Y-102475000D03*
X122900000Y-100725000D03*
D31*
X222700000Y-93080000D03*
D33*
X220780000Y-90500000D03*
D29*
X211890000Y-93040001D03*
D33*
X210620000Y-90500000D03*
D32*
X211200000Y-90500000D03*
D29*
X218240000Y-95580000D03*
D32*
X220200000Y-90500000D03*
D29*
X219510000Y-93040000D03*
D31*
X210000000Y-95620000D03*
D30*
X215700000Y-90500000D03*
D29*
X213160000Y-95580000D03*
D28*
X213300000Y-84125000D03*
X213300000Y-85875000D03*
X218100000Y-85875000D03*
X218100000Y-84125000D03*
D31*
X184600000Y-88180000D03*
D33*
X182680000Y-85600000D03*
D29*
X173790000Y-88140001D03*
D33*
X172520000Y-85600000D03*
D32*
X173100000Y-85600000D03*
D29*
X180140000Y-90680000D03*
D32*
X182100000Y-85600000D03*
D29*
X181410000Y-88140000D03*
D31*
X171900000Y-90720000D03*
D30*
X177600000Y-85600000D03*
D29*
X175060000Y-90680000D03*
D28*
X175200000Y-79225000D03*
X175200000Y-80975000D03*
X180000000Y-80975000D03*
X180000000Y-79225000D03*
D31*
X165600000Y-85770000D03*
D33*
X163680000Y-83190000D03*
D29*
X154790000Y-85730001D03*
D33*
X153520000Y-83190000D03*
D32*
X154100000Y-83190000D03*
D29*
X161140000Y-88270000D03*
D32*
X163100000Y-83190000D03*
D29*
X162410000Y-85730000D03*
D31*
X152900000Y-88310000D03*
D30*
X158600000Y-83190000D03*
D29*
X156060000Y-88270000D03*
D28*
X156200000Y-76815000D03*
X156200000Y-78565000D03*
X161000000Y-78565000D03*
X161000000Y-76815000D03*
D31*
X146500000Y-88180000D03*
D33*
X144580000Y-85600000D03*
D29*
X135690000Y-88140001D03*
D33*
X134420000Y-85600000D03*
D32*
X135000000Y-85600000D03*
D29*
X142040000Y-90680000D03*
D32*
X144000000Y-85600000D03*
D29*
X143310000Y-88140000D03*
D31*
X133800000Y-90720000D03*
D30*
X139500000Y-85600000D03*
D29*
X136960000Y-90680000D03*
D28*
X137100000Y-79225000D03*
X137100000Y-80975000D03*
X141900000Y-80975000D03*
X141900000Y-79225000D03*
D31*
X127500000Y-90680000D03*
D33*
X125580000Y-88100000D03*
D29*
X116690000Y-90640001D03*
D33*
X115420000Y-88100000D03*
D32*
X116000000Y-88100000D03*
D29*
X123040000Y-93180000D03*
D32*
X125000000Y-88100000D03*
D29*
X124310000Y-90640000D03*
D31*
X114800000Y-93220000D03*
D30*
X120500000Y-88100000D03*
D29*
X117960000Y-93180000D03*
D28*
X118100000Y-81725000D03*
X118100000Y-83475000D03*
X122900000Y-83475000D03*
X122900000Y-81725000D03*
D31*
X184600000Y-69080000D03*
D33*
X182680000Y-66500000D03*
D29*
X173790000Y-69040001D03*
D33*
X172520000Y-66500000D03*
D32*
X173100000Y-66500000D03*
D29*
X180140000Y-71580000D03*
D32*
X182100000Y-66500000D03*
D29*
X181410000Y-69040000D03*
D31*
X171900000Y-71620000D03*
D30*
X177600000Y-66500000D03*
D29*
X175060000Y-71580000D03*
D28*
X175200000Y-60125000D03*
X175200000Y-61875000D03*
X180000000Y-61875000D03*
X180000000Y-60125000D03*
D31*
X165600000Y-66670000D03*
D33*
X163680000Y-64090000D03*
D29*
X154790000Y-66630001D03*
D33*
X153520000Y-64090000D03*
D32*
X154100000Y-64090000D03*
D29*
X161140000Y-69170000D03*
D32*
X163100000Y-64090000D03*
D29*
X162410000Y-66630000D03*
D31*
X152900000Y-69210000D03*
D30*
X158600000Y-64090000D03*
D29*
X156060000Y-69170000D03*
D28*
X156200000Y-57715000D03*
X156200000Y-59465000D03*
X161000000Y-59465000D03*
X161000000Y-57715000D03*
D31*
X146500000Y-69180000D03*
D33*
X144580000Y-66600000D03*
D29*
X135690000Y-69140001D03*
D33*
X134420000Y-66600000D03*
D32*
X135000000Y-66600000D03*
D29*
X142040000Y-71680000D03*
D32*
X144000000Y-66600000D03*
D29*
X143310000Y-69140000D03*
D31*
X133800000Y-71720000D03*
D30*
X139500000Y-66600000D03*
D29*
X136960000Y-71680000D03*
D28*
X137100000Y-60225000D03*
X137100000Y-61975000D03*
X141900000Y-61975000D03*
X141900000Y-60225000D03*
D31*
X127500000Y-71680000D03*
D33*
X125580000Y-69100000D03*
D29*
X116690000Y-71640001D03*
D33*
X115420000Y-69100000D03*
D32*
X116000000Y-69100000D03*
D29*
X123040000Y-74180000D03*
D32*
X125000000Y-69100000D03*
D29*
X124310000Y-71640000D03*
D31*
X114800000Y-74220000D03*
D30*
X120500000Y-69100000D03*
D29*
X117960000Y-74180000D03*
D28*
X118100000Y-62725000D03*
X118100000Y-64475000D03*
X122900000Y-64475000D03*
X122900000Y-62725000D03*
D31*
X203700000Y-54980000D03*
D33*
X201780000Y-52400000D03*
D29*
X192890000Y-54940001D03*
D33*
X191620000Y-52400000D03*
D32*
X192200000Y-52400000D03*
D29*
X199240000Y-57480000D03*
D32*
X201200000Y-52400000D03*
D29*
X200510000Y-54940000D03*
D31*
X191000000Y-57520000D03*
D30*
X196700000Y-52400000D03*
D29*
X194160000Y-57480000D03*
D28*
X194300000Y-46025000D03*
X194300000Y-47775000D03*
X199100000Y-47775000D03*
X199100000Y-46025000D03*
D31*
X184600000Y-50080000D03*
D33*
X182680000Y-47500000D03*
D29*
X173790000Y-50040001D03*
D33*
X172520000Y-47500000D03*
D32*
X173100000Y-47500000D03*
D29*
X180140000Y-52580000D03*
D32*
X182100000Y-47500000D03*
D29*
X181410000Y-50040000D03*
D31*
X171900000Y-52620000D03*
D30*
X177600000Y-47500000D03*
D29*
X175060000Y-52580000D03*
D28*
X175200000Y-41125000D03*
X175200000Y-42875000D03*
X180000000Y-42875000D03*
X180000000Y-41125000D03*
D31*
X165600000Y-47580000D03*
D33*
X163680000Y-45000000D03*
D29*
X154790000Y-47540001D03*
D33*
X153520000Y-45000000D03*
D32*
X154100000Y-45000000D03*
D29*
X161140000Y-50080000D03*
D32*
X163100000Y-45000000D03*
D29*
X162410000Y-47540000D03*
D31*
X152900000Y-50120000D03*
D30*
X158600000Y-45000000D03*
D29*
X156060000Y-50080000D03*
D28*
X156200000Y-38625000D03*
X156200000Y-40375000D03*
X161000000Y-40375000D03*
X161000000Y-38625000D03*
D31*
X127500000Y-52580000D03*
D33*
X125580000Y-50000000D03*
D29*
X116690000Y-52540001D03*
D33*
X115420000Y-50000000D03*
D32*
X116000000Y-50000000D03*
D29*
X123040000Y-55080000D03*
D32*
X125000000Y-50000000D03*
D29*
X124310000Y-52540000D03*
D31*
X114800000Y-55120000D03*
D30*
X120500000Y-50000000D03*
D29*
X117960000Y-55080000D03*
D28*
X118100000Y-43625000D03*
X118100000Y-45375000D03*
X122900000Y-45375000D03*
X122900000Y-43625000D03*
D26*
X181427000Y-114706600D03*
X178827000Y-114706600D03*
D25*
X176327000Y-114706600D03*
D26*
X185500000Y-96050000D03*
X185500000Y-98650000D03*
D24*
X185500000Y-101150000D03*
D26*
X93478815Y-47505745D03*
X108718815Y-65285745D03*
X93478815Y-57665745D03*
X108718815Y-55125745D03*
X108718815Y-50045745D03*
X93478815Y-67825745D03*
X108718815Y-47505745D03*
X108718815Y-42425745D03*
X93478815Y-62745745D03*
X108718815Y-70365745D03*
X93478815Y-55125745D03*
X93478815Y-44965745D03*
X93478815Y-50045745D03*
X93478815Y-52585745D03*
X93478815Y-65285745D03*
X93478815Y-60205745D03*
X108718815Y-62745745D03*
X108718815Y-60205745D03*
X93478815Y-70365745D03*
X108718815Y-67825745D03*
X108718815Y-44965745D03*
X93478815Y-42425745D03*
X108718815Y-57665745D03*
X108718815Y-52585745D03*
X92180000Y-41230000D03*
X92180000Y-43770000D03*
X92180000Y-46310000D03*
X92180000Y-48850000D03*
X92180000Y-51390000D03*
X92180000Y-53930000D03*
X92180000Y-56470000D03*
X92180000Y-59010000D03*
X92180000Y-61550000D03*
X92180000Y-64090000D03*
X92180000Y-66630000D03*
X92180000Y-69170000D03*
X107420000Y-69170000D03*
X107420000Y-66630000D03*
X107420000Y-64090000D03*
X107420000Y-61550000D03*
X107420000Y-59010000D03*
X107420000Y-56470000D03*
X107420000Y-53930000D03*
X107420000Y-51390000D03*
X107420000Y-48850000D03*
X107420000Y-46310000D03*
X107420000Y-43770000D03*
X107420000Y-41230000D03*
D40*
X107000000Y-93500000D03*
X91500000Y-93500000D03*
D41*
X104320000Y-74600000D03*
X101780000Y-74600000D03*
X99240000Y-74600000D03*
X96700000Y-74600000D03*
D42*
X90000000Y-80750000D03*
X90000000Y-74250000D03*
D43*
X96700000Y-68799620D03*
X96700000Y-69800380D03*
X99200000Y-68799620D03*
X99200000Y-69800380D03*
X101700000Y-68799620D03*
X101700000Y-69800380D03*
X104300000Y-68799620D03*
X104300000Y-69800380D03*
D41*
X100579272Y-80311965D03*
X95499272Y-80311965D03*
X100579272Y-78061965D03*
X95499272Y-78061965D03*
X102700000Y-78100000D03*
X102700000Y-80300000D03*
D44*
X206000000Y-100000000D03*
X130000000Y-97500000D03*
X130000000Y-57000000D03*
D42*
X107000000Y-107000000D03*
X107000000Y-102000000D03*
D45*
X100000000Y-110100000D03*
X100000000Y-98900000D03*
D42*
X92500000Y-107000000D03*
X92500000Y-104500000D03*
X92500000Y-102000000D03*
D44*
X103000000Y-119000000D03*
X206000000Y-61500000D03*
D46*
X96500000Y-87400000D03*
X89500000Y-87400000D03*
D47*
X98300000Y-89500000D03*
X99800000Y-85300000D03*
X91300000Y-89500000D03*
X94300000Y-89500000D03*
D46*
X89500000Y-85650000D03*
X96500000Y-85650000D03*
D47*
X91300000Y-83550000D03*
X94300000Y-83550000D03*
X98300000Y-83550000D03*
X99800000Y-87750000D03*
%LPD*%
M02*
