G04 #@! TF.GenerationSoftware,KiCad,Pcbnew,8.0.4*
G04 #@! TF.CreationDate,2024-08-04T16:07:20+05:30*
G04 #@! TF.ProjectId,SofleKeyboard,536f666c-654b-4657-9962-6f6172642e6b,rev?*
G04 #@! TF.SameCoordinates,Original*
G04 #@! TF.FileFunction,Soldermask,Bot*
G04 #@! TF.FilePolarity,Negative*
%FSLAX46Y46*%
G04 Gerber Fmt 4.6, Leading zero omitted, Abs format (unit mm)*
G04 Created by KiCad (PCBNEW 8.0.4) date 2024-08-04 16:07:20*
%MOMM*%
%LPD*%
G01*
G04 APERTURE LIST*
G04 Aperture macros list*
%AMRoundRect*
0 Rectangle with rounded corners*
0 $1 Rounding radius*
0 $2 $3 $4 $5 $6 $7 $8 $9 X,Y pos of 4 corners*
0 Add a 4 corners polygon primitive as box body*
4,1,4,$2,$3,$4,$5,$6,$7,$8,$9,$2,$3,0*
0 Add four circle primitives for the rounded corners*
1,1,$1+$1,$2,$3*
1,1,$1+$1,$4,$5*
1,1,$1+$1,$6,$7*
1,1,$1+$1,$8,$9*
0 Add four rect primitives between the rounded corners*
20,1,$1+$1,$2,$3,$4,$5,0*
20,1,$1+$1,$4,$5,$6,$7,0*
20,1,$1+$1,$6,$7,$8,$9,0*
20,1,$1+$1,$8,$9,$2,$3,0*%
G04 Aperture macros list end*
%ADD10C,0.010000*%
%ADD11RoundRect,0.200000X-1.000000X-0.500000X1.000000X-0.500000X1.000000X0.500000X-1.000000X0.500000X0*%
%ADD12RoundRect,0.200000X1.000000X0.500000X-1.000000X0.500000X-1.000000X-0.500000X1.000000X-0.500000X0*%
%ADD13RoundRect,0.200000X-0.762000X0.762000X-0.762000X-0.762000X0.762000X-0.762000X0.762000X0.762000X0*%
%ADD14RoundRect,0.200000X0.762000X0.762000X-0.762000X0.762000X-0.762000X-0.762000X0.762000X-0.762000X0*%
%ADD15C,1.924000*%
%ADD16RoundRect,0.200000X0.762000X-0.762000X0.762000X0.762000X-0.762000X0.762000X-0.762000X-0.762000X0*%
%ADD17RoundRect,0.200000X0.800000X0.500000X-0.800000X0.500000X-0.800000X-0.500000X0.800000X-0.500000X0*%
%ADD18C,3.400000*%
%ADD19C,4.500000*%
%ADD20RoundRect,0.200000X-1.150000X-1.000000X1.150000X-1.000000X1.150000X1.000000X-1.150000X1.000000X0*%
%ADD21C,2.100000*%
%ADD22C,2.300000*%
%ADD23RoundRect,0.200000X-0.650000X-0.475000X0.650000X-0.475000X0.650000X0.475000X-0.650000X0.475000X0*%
%ADD24RoundRect,0.200000X-0.475000X0.650000X-0.475000X-0.650000X0.475000X-0.650000X0.475000X0.650000X0*%
%ADD25RoundRect,0.200000X-0.851996X-1.263568X1.369634X-0.668284X0.851996X1.263568X-1.369634X0.668284X0*%
%ADD26RoundRect,0.200000X0.643331X0.690018X-0.902150X0.275908X-0.643331X-0.690018X0.902150X-0.275908X0*%
%ADD27RoundRect,0.200000X-1.441025X0.495929X-0.291025X-1.495929X1.441025X-0.495929X0.291025X1.495929X0*%
%ADD28RoundRect,0.200000X0.833013X-0.442820X0.033013X0.942820X-0.833013X0.442820X-0.033013X-0.942820X0*%
%ADD29C,4.400000*%
%ADD30C,1.797000*%
%ADD31C,2.400000*%
%ADD32RoundRect,0.200000X0.571500X-0.317500X0.571500X0.317500X-0.571500X0.317500X-0.571500X-0.317500X0*%
%ADD33C,5.100000*%
%ADD34RoundRect,0.200000X-1.600000X-1.000000X1.600000X-1.000000X1.600000X1.000000X-1.600000X1.000000X0*%
%ADD35C,1.600000*%
%ADD36O,2.900000X2.100000*%
G04 APERTURE END LIST*
D10*
X200453310Y-120888130D02*
X200482944Y-120917000D01*
X200516293Y-120970369D01*
X200554984Y-121048200D01*
X200577912Y-121095136D01*
X200603123Y-121141243D01*
X200623731Y-121172905D01*
X200637070Y-121185656D01*
X200651030Y-121196906D01*
X200657379Y-121230106D01*
X200657856Y-121238687D01*
X200666004Y-121279579D01*
X200680982Y-121321798D01*
X200690156Y-121344398D01*
X200696653Y-121370671D01*
X200699095Y-121403072D01*
X200697900Y-121447974D01*
X200693489Y-121511748D01*
X200690395Y-121558997D01*
X200688666Y-121608246D01*
X200689221Y-121643248D01*
X200692111Y-121658482D01*
X200692119Y-121658489D01*
X200706536Y-121667270D01*
X200738738Y-121685129D01*
X200783962Y-121709472D01*
X200837448Y-121737703D01*
X200973345Y-121808792D01*
X201043770Y-121698371D01*
X201048112Y-121691517D01*
X201083771Y-121630604D01*
X201106347Y-121582520D01*
X201114248Y-121550606D01*
X201113115Y-121533538D01*
X201104991Y-121490432D01*
X201090975Y-121440127D01*
X201073371Y-121389017D01*
X201054483Y-121343496D01*
X201036615Y-121309956D01*
X201022070Y-121294792D01*
X201012457Y-121290056D01*
X201002679Y-121272096D01*
X201010547Y-121252634D01*
X201033964Y-121241134D01*
X201055069Y-121243779D01*
X201070565Y-121266350D01*
X201077534Y-121283913D01*
X201099873Y-121321085D01*
X201128007Y-121353866D01*
X201156212Y-121376149D01*
X201178767Y-121381826D01*
X201179545Y-121381617D01*
X201194331Y-121372301D01*
X201202076Y-121350675D01*
X201205176Y-121310243D01*
X201205672Y-121288178D01*
X201205747Y-121245843D01*
X201204663Y-121216273D01*
X201204517Y-121210944D01*
X201214085Y-121186782D01*
X201234824Y-121176958D01*
X201257711Y-121186530D01*
X201265240Y-121198657D01*
X201259225Y-121223141D01*
X201253722Y-121243780D01*
X201256625Y-121280960D01*
X201268212Y-121321074D01*
X201285541Y-121354677D01*
X201305673Y-121372326D01*
X201308464Y-121373000D01*
X201336235Y-121369215D01*
X201371663Y-121353735D01*
X201406809Y-121331479D01*
X201433728Y-121307368D01*
X201444478Y-121286325D01*
X201448594Y-121272952D01*
X201470299Y-121264100D01*
X201490760Y-121267707D01*
X201502254Y-121283914D01*
X201493510Y-121310940D01*
X201464694Y-121346352D01*
X201432369Y-121380287D01*
X201402215Y-121419205D01*
X201388787Y-121450641D01*
X201389706Y-121478797D01*
X201392447Y-121488136D01*
X201399653Y-121499407D01*
X201414705Y-121504548D01*
X201443423Y-121504864D01*
X201491626Y-121501660D01*
X201524833Y-121499504D01*
X201562816Y-121499194D01*
X201583761Y-121503451D01*
X201592724Y-121512834D01*
X201594323Y-121518218D01*
X201589990Y-121543098D01*
X201571121Y-121558383D01*
X201546142Y-121556222D01*
X201539143Y-121554370D01*
X201508821Y-121556210D01*
X201464920Y-121565384D01*
X201414328Y-121580003D01*
X201363934Y-121598180D01*
X201320628Y-121618026D01*
X201315633Y-121622004D01*
X201295012Y-121642470D01*
X201262837Y-121676596D01*
X201222420Y-121720667D01*
X201177074Y-121770970D01*
X201130114Y-121823791D01*
X201084851Y-121875416D01*
X201044600Y-121922131D01*
X201012673Y-121960222D01*
X200992384Y-121985975D01*
X200992197Y-121986078D01*
X200978931Y-121980956D01*
X200948275Y-121965695D01*
X200904551Y-121942523D01*
X200852083Y-121913667D01*
X200847535Y-121911130D01*
X200795527Y-121882606D01*
X200752534Y-121859906D01*
X200722911Y-121845274D01*
X200711012Y-121840954D01*
X200710727Y-121846417D01*
X200711960Y-121873560D01*
X200715052Y-121920233D01*
X200719745Y-121982878D01*
X200725780Y-122057940D01*
X200732899Y-122141862D01*
X200732984Y-122142839D01*
X200741936Y-122251382D01*
X200748035Y-122340471D01*
X200751458Y-122415824D01*
X200752378Y-122483160D01*
X200750971Y-122548195D01*
X200747411Y-122616650D01*
X200745982Y-122639527D01*
X200742419Y-122700832D01*
X200739909Y-122750703D01*
X200738669Y-122784505D01*
X200738917Y-122797601D01*
X200739515Y-122797436D01*
X200752903Y-122787023D01*
X200781619Y-122762530D01*
X200822808Y-122726453D01*
X200873615Y-122681288D01*
X200931185Y-122629530D01*
X200942965Y-122618897D01*
X200999878Y-122567903D01*
X201049816Y-122523761D01*
X201089830Y-122489038D01*
X201116972Y-122466297D01*
X201128292Y-122458104D01*
X201130224Y-122461783D01*
X201135513Y-122485697D01*
X201142524Y-122528172D01*
X201150573Y-122584901D01*
X201158977Y-122651575D01*
X201163474Y-122689826D01*
X201172880Y-122769814D01*
X201180831Y-122826767D01*
X201189070Y-122862168D01*
X201199338Y-122877498D01*
X201213377Y-122874241D01*
X201232930Y-122853877D01*
X201259737Y-122817889D01*
X201295542Y-122767758D01*
X201393700Y-122631608D01*
X201393700Y-122500131D01*
X201393631Y-122484894D01*
X201391323Y-122418609D01*
X201386015Y-122370301D01*
X201378074Y-122343632D01*
X201376492Y-122341045D01*
X201369497Y-122318616D01*
X201382942Y-122298115D01*
X201400696Y-122287270D01*
X201426489Y-122288385D01*
X201445173Y-122304694D01*
X201447978Y-122331672D01*
X201447255Y-122350878D01*
X201452711Y-122388956D01*
X201463835Y-122433438D01*
X201474837Y-122467615D01*
X201486971Y-122494183D01*
X201500593Y-122506006D01*
X201519885Y-122508700D01*
X201535673Y-122506838D01*
X201551789Y-122496435D01*
X201567687Y-122472297D01*
X201587726Y-122429325D01*
X201604716Y-122387628D01*
X201617439Y-122350947D01*
X201622302Y-122329206D01*
X201623057Y-122323549D01*
X201637720Y-122306461D01*
X201662197Y-122300544D01*
X201684730Y-122309509D01*
X201693593Y-122321306D01*
X201695731Y-122350124D01*
X201673713Y-122379664D01*
X201660888Y-122396249D01*
X201647785Y-122436065D01*
X201644282Y-122483250D01*
X201650729Y-122527710D01*
X201667477Y-122559347D01*
X201670251Y-122562075D01*
X201684810Y-122573658D01*
X201701505Y-122577600D01*
X201727794Y-122574226D01*
X201771134Y-122563859D01*
X201805346Y-122554069D01*
X201842035Y-122537818D01*
X201857715Y-122519935D01*
X201865284Y-122505471D01*
X201886202Y-122496845D01*
X201911860Y-122511239D01*
X201925620Y-122536868D01*
X201923089Y-122563337D01*
X201904875Y-122579602D01*
X201882810Y-122588466D01*
X201846133Y-122605441D01*
X201802846Y-122626828D01*
X201776246Y-122641400D01*
X201731487Y-122674683D01*
X201711706Y-122706468D01*
X201717079Y-122736536D01*
X201718549Y-122738486D01*
X201739660Y-122753477D01*
X201775521Y-122771207D01*
X201817757Y-122788243D01*
X201857992Y-122801155D01*
X201887849Y-122806509D01*
X201901259Y-122808520D01*
X201922059Y-122824377D01*
X201924869Y-122848751D01*
X201907144Y-122872883D01*
X201904041Y-122875093D01*
X201883564Y-122882646D01*
X201862931Y-122870043D01*
X201860263Y-122867934D01*
X201830281Y-122856016D01*
X201783143Y-122847253D01*
X201725859Y-122842064D01*
X201665441Y-122840868D01*
X201608900Y-122844084D01*
X201563249Y-122852132D01*
X201546657Y-122857608D01*
X201523450Y-122868680D01*
X201496893Y-122886058D01*
X201464080Y-122912089D01*
X201422106Y-122949121D01*
X201368065Y-122999500D01*
X201299052Y-123065576D01*
X201095250Y-123262109D01*
X201079662Y-123098129D01*
X201078788Y-123088971D01*
X201072716Y-123027084D01*
X201067286Y-122974592D01*
X201063064Y-122936795D01*
X201060612Y-122918991D01*
X201060033Y-122918175D01*
X201047049Y-122923572D01*
X201019949Y-122943325D01*
X200982251Y-122974694D01*
X200937475Y-123014936D01*
X200817800Y-123126039D01*
X200891846Y-123252344D01*
X200939141Y-123331556D01*
X201002330Y-123431122D01*
X201060488Y-123513490D01*
X201116659Y-123582288D01*
X201173883Y-123641145D01*
X201235204Y-123693689D01*
X201303663Y-123743550D01*
X201323675Y-123756812D01*
X201407416Y-123806592D01*
X201499007Y-123853771D01*
X201589275Y-123893860D01*
X201669045Y-123922369D01*
X201710149Y-123933173D01*
X201840726Y-123950823D01*
X201975949Y-123945852D01*
X202112029Y-123918911D01*
X202245176Y-123870651D01*
X202371600Y-123801721D01*
X202377237Y-123797981D01*
X202425601Y-123761569D01*
X202484138Y-123711931D01*
X202547225Y-123654340D01*
X202609239Y-123594071D01*
X202664556Y-123536400D01*
X202707554Y-123486600D01*
X202742790Y-123442150D01*
X202713517Y-123492950D01*
X202653546Y-123587309D01*
X202549276Y-123717106D01*
X202431298Y-123828765D01*
X202301703Y-123920877D01*
X202162582Y-123992030D01*
X202016028Y-124040813D01*
X201864133Y-124065816D01*
X201820897Y-124067808D01*
X201731482Y-124065588D01*
X201633428Y-124056921D01*
X201536598Y-124042799D01*
X201450850Y-124024214D01*
X201379512Y-124000837D01*
X201294379Y-123965697D01*
X201205824Y-123923371D01*
X201122406Y-123877960D01*
X201052686Y-123833560D01*
X200985140Y-123781026D01*
X200899314Y-123703183D01*
X200815742Y-123616610D01*
X200741092Y-123528294D01*
X200682034Y-123445224D01*
X200660673Y-123411764D01*
X200634102Y-123371920D01*
X200614460Y-123344630D01*
X200604916Y-123334448D01*
X200595078Y-123340976D01*
X200570210Y-123361801D01*
X200534554Y-123393541D01*
X200492117Y-123432707D01*
X200387054Y-123531215D01*
X200563352Y-123691490D01*
X200606475Y-123730471D01*
X200668632Y-123786338D01*
X200714802Y-123829081D01*
X200746202Y-123861818D01*
X200764048Y-123887667D01*
X200769555Y-123909746D01*
X200763940Y-123931175D01*
X200748419Y-123955072D01*
X200724207Y-123984556D01*
X200692522Y-124022744D01*
X200687233Y-124029327D01*
X200632009Y-124098374D01*
X200590422Y-124152149D01*
X200560389Y-124194843D01*
X200539827Y-124230648D01*
X200526652Y-124263756D01*
X200518783Y-124298358D01*
X200514137Y-124338646D01*
X200510631Y-124388811D01*
X200508114Y-124431383D01*
X200506549Y-124479159D01*
X200508115Y-124509795D01*
X200513189Y-124528222D01*
X200522148Y-124539370D01*
X200534642Y-124555782D01*
X200529387Y-124580133D01*
X200524427Y-124587697D01*
X200501559Y-124602110D01*
X200477007Y-124599417D01*
X200459364Y-124582634D01*
X200457219Y-124554780D01*
X200457604Y-124532470D01*
X200451485Y-124493116D01*
X200439923Y-124447305D01*
X200437491Y-124439235D01*
X200424448Y-124399456D01*
X200413576Y-124378440D01*
X200401062Y-124371182D01*
X200383093Y-124372674D01*
X200364600Y-124379869D01*
X200343506Y-124402148D01*
X200321801Y-124443925D01*
X200311004Y-124469388D01*
X200294467Y-124512443D01*
X200284142Y-124544699D01*
X200274892Y-124564570D01*
X200253416Y-124577086D01*
X200229482Y-124569723D01*
X200210780Y-124542693D01*
X200208827Y-124537066D01*
X200207346Y-124516329D01*
X200223693Y-124506700D01*
X200231566Y-124503337D01*
X200246295Y-124483200D01*
X200255471Y-124442609D01*
X200261224Y-124394397D01*
X200261914Y-124361828D01*
X200256588Y-124339540D01*
X200244582Y-124320067D01*
X200243666Y-124318867D01*
X200231851Y-124307023D01*
X200215854Y-124302285D01*
X200188800Y-124304096D01*
X200143811Y-124311899D01*
X200142650Y-124312119D01*
X200093766Y-124323518D01*
X200065561Y-124335989D01*
X200053420Y-124351557D01*
X200053396Y-124351630D01*
X200036412Y-124371340D01*
X200010264Y-124373852D01*
X199985336Y-124358159D01*
X199976520Y-124331960D01*
X199988914Y-124307217D01*
X200019128Y-124291067D01*
X200040828Y-124283330D01*
X200079605Y-124265607D01*
X200122502Y-124243095D01*
X200127248Y-124240414D01*
X200167546Y-124214699D01*
X200189345Y-124192615D01*
X200197510Y-124169379D01*
X200198187Y-124158357D01*
X200192957Y-124140044D01*
X200174477Y-124123540D01*
X200137607Y-124103161D01*
X200111650Y-124091359D01*
X200068523Y-124076577D01*
X200035223Y-124070800D01*
X200034469Y-124070798D01*
X200007769Y-124069205D01*
X199996700Y-124065488D01*
X199995957Y-124061187D01*
X199989620Y-124041726D01*
X199989905Y-124025517D01*
X200003929Y-124001885D01*
X200017432Y-123990003D01*
X200031698Y-123989050D01*
X200052285Y-124005604D01*
X200057930Y-124010443D01*
X200076538Y-124020895D01*
X200103724Y-124027641D01*
X200145093Y-124031721D01*
X200206250Y-124034175D01*
X200272106Y-124034321D01*
X200338164Y-124029922D01*
X200384050Y-124020839D01*
X200410392Y-124009657D01*
X200448223Y-123988821D01*
X200487225Y-123963763D01*
X200521520Y-123938562D01*
X200545229Y-123917292D01*
X200552476Y-123904032D01*
X200549763Y-123901136D01*
X200530314Y-123885088D01*
X200494696Y-123857436D01*
X200445882Y-123820442D01*
X200386842Y-123776368D01*
X200320550Y-123727476D01*
X200288047Y-123703513D01*
X200225475Y-123656601D01*
X200171993Y-123615460D01*
X200130480Y-123582363D01*
X200103814Y-123559580D01*
X200094872Y-123549381D01*
X200097203Y-123545217D01*
X200112013Y-123523114D01*
X200138569Y-123485125D01*
X200174707Y-123434305D01*
X200218262Y-123373707D01*
X200267070Y-123306386D01*
X200291783Y-123272410D01*
X200338858Y-123207531D01*
X200379981Y-123150643D01*
X200412897Y-123104880D01*
X200435350Y-123073371D01*
X200445086Y-123059249D01*
X200445192Y-123055605D01*
X200437679Y-123032389D01*
X200420395Y-122991654D01*
X200394926Y-122936857D01*
X200362854Y-122871453D01*
X200325765Y-122798899D01*
X200197707Y-122553150D01*
X200217805Y-122230310D01*
X200222370Y-122154805D01*
X200226908Y-122074278D01*
X200230431Y-122005393D01*
X200232775Y-121951575D01*
X200233779Y-121916252D01*
X200233282Y-121902847D01*
X200231996Y-121903425D01*
X200220250Y-121918227D01*
X200198652Y-121949739D01*
X200169719Y-121994209D01*
X200135967Y-122047887D01*
X200125132Y-122065373D01*
X200092541Y-122117852D01*
X200065703Y-122160898D01*
X200047150Y-122190453D01*
X200039418Y-122202461D01*
X200036802Y-122202888D01*
X200014656Y-122201395D01*
X199973812Y-122196728D01*
X199918814Y-122189436D01*
X199854206Y-122180069D01*
X199831427Y-122176677D01*
X199765515Y-122167294D01*
X199708189Y-122159741D01*
X199664951Y-122154720D01*
X199641304Y-122152933D01*
X199612187Y-122158507D01*
X199570037Y-122173484D01*
X199521362Y-122194819D01*
X199472227Y-122219464D01*
X199428698Y-122244374D01*
X199396838Y-122266503D01*
X199382713Y-122282805D01*
X199375276Y-122297040D01*
X199353076Y-122303299D01*
X199352772Y-122303239D01*
X199335536Y-122291321D01*
X199326030Y-122270531D01*
X199326499Y-122250785D01*
X199339190Y-122242000D01*
X199345659Y-122240755D01*
X199369735Y-122226069D01*
X199397855Y-122200156D01*
X199424006Y-122169735D01*
X199442176Y-122141525D01*
X199446352Y-122122245D01*
X199429955Y-122110373D01*
X199396957Y-122103474D01*
X199355843Y-122101960D01*
X199315059Y-122106136D01*
X199283050Y-122116311D01*
X199264293Y-122121722D01*
X199243263Y-122111269D01*
X199234895Y-122081433D01*
X199234903Y-122080685D01*
X199245731Y-122064223D01*
X199268412Y-122056743D01*
X199290285Y-122062560D01*
X199291945Y-122063635D01*
X199314045Y-122064061D01*
X199346608Y-122053490D01*
X199381210Y-122036072D01*
X199409425Y-122015955D01*
X199422828Y-121997289D01*
X199417882Y-121973800D01*
X199399304Y-121941604D01*
X199373193Y-121909034D01*
X199345777Y-121883822D01*
X199323283Y-121873700D01*
X199310657Y-121872436D01*
X199291387Y-121858223D01*
X199293168Y-121830396D01*
X199298653Y-121818898D01*
X199308243Y-121812548D01*
X199324994Y-121816692D01*
X199353450Y-121832694D01*
X199398155Y-121861918D01*
X199448689Y-121892678D01*
X199486268Y-121906956D01*
X199510299Y-121902353D01*
X199523054Y-121878386D01*
X199526800Y-121834571D01*
X199526078Y-121814532D01*
X199520510Y-121774125D01*
X199511244Y-121746844D01*
X199502289Y-121725419D01*
X199510390Y-121707230D01*
X199514426Y-121703704D01*
X199537361Y-121698151D01*
X199556739Y-121711887D01*
X199564900Y-121740268D01*
X199568489Y-121760730D01*
X199582676Y-121801187D01*
X199604154Y-121849484D01*
X199629151Y-121897920D01*
X199653898Y-121938792D01*
X199674624Y-121964398D01*
X199686444Y-121971356D01*
X199717868Y-121984549D01*
X199761363Y-122000200D01*
X199810942Y-122016447D01*
X199860616Y-122031427D01*
X199904396Y-122043278D01*
X199936296Y-122050137D01*
X199950326Y-122050143D01*
X199958252Y-122039744D01*
X199979213Y-122012224D01*
X200010675Y-121970909D01*
X200050145Y-121919074D01*
X200095128Y-121859995D01*
X200236102Y-121674841D01*
X200217342Y-121531171D01*
X200216384Y-121523805D01*
X200208835Y-121461743D01*
X200205222Y-121418171D01*
X200205574Y-121387074D01*
X200209920Y-121362436D01*
X200218292Y-121338243D01*
X200220730Y-121331809D01*
X200233003Y-121286612D01*
X200238000Y-121244792D01*
X200238008Y-121243160D01*
X200242487Y-121212147D01*
X200253875Y-121200595D01*
X200254388Y-121200526D01*
X200265261Y-121187691D01*
X200282259Y-121155842D01*
X200303156Y-121109544D01*
X200325722Y-121053363D01*
X200339394Y-121018368D01*
X200370434Y-120948878D01*
X200398682Y-120904032D01*
X200425765Y-120883795D01*
X200453310Y-120888130D01*
G36*
X200453310Y-120888130D02*
G01*
X200482944Y-120917000D01*
X200516293Y-120970369D01*
X200554984Y-121048200D01*
X200577912Y-121095136D01*
X200603123Y-121141243D01*
X200623731Y-121172905D01*
X200637070Y-121185656D01*
X200651030Y-121196906D01*
X200657379Y-121230106D01*
X200657856Y-121238687D01*
X200666004Y-121279579D01*
X200680982Y-121321798D01*
X200690156Y-121344398D01*
X200696653Y-121370671D01*
X200699095Y-121403072D01*
X200697900Y-121447974D01*
X200693489Y-121511748D01*
X200690395Y-121558997D01*
X200688666Y-121608246D01*
X200689221Y-121643248D01*
X200692111Y-121658482D01*
X200692119Y-121658489D01*
X200706536Y-121667270D01*
X200738738Y-121685129D01*
X200783962Y-121709472D01*
X200837448Y-121737703D01*
X200973345Y-121808792D01*
X201043770Y-121698371D01*
X201048112Y-121691517D01*
X201083771Y-121630604D01*
X201106347Y-121582520D01*
X201114248Y-121550606D01*
X201113115Y-121533538D01*
X201104991Y-121490432D01*
X201090975Y-121440127D01*
X201073371Y-121389017D01*
X201054483Y-121343496D01*
X201036615Y-121309956D01*
X201022070Y-121294792D01*
X201012457Y-121290056D01*
X201002679Y-121272096D01*
X201010547Y-121252634D01*
X201033964Y-121241134D01*
X201055069Y-121243779D01*
X201070565Y-121266350D01*
X201077534Y-121283913D01*
X201099873Y-121321085D01*
X201128007Y-121353866D01*
X201156212Y-121376149D01*
X201178767Y-121381826D01*
X201179545Y-121381617D01*
X201194331Y-121372301D01*
X201202076Y-121350675D01*
X201205176Y-121310243D01*
X201205672Y-121288178D01*
X201205747Y-121245843D01*
X201204663Y-121216273D01*
X201204517Y-121210944D01*
X201214085Y-121186782D01*
X201234824Y-121176958D01*
X201257711Y-121186530D01*
X201265240Y-121198657D01*
X201259225Y-121223141D01*
X201253722Y-121243780D01*
X201256625Y-121280960D01*
X201268212Y-121321074D01*
X201285541Y-121354677D01*
X201305673Y-121372326D01*
X201308464Y-121373000D01*
X201336235Y-121369215D01*
X201371663Y-121353735D01*
X201406809Y-121331479D01*
X201433728Y-121307368D01*
X201444478Y-121286325D01*
X201448594Y-121272952D01*
X201470299Y-121264100D01*
X201490760Y-121267707D01*
X201502254Y-121283914D01*
X201493510Y-121310940D01*
X201464694Y-121346352D01*
X201432369Y-121380287D01*
X201402215Y-121419205D01*
X201388787Y-121450641D01*
X201389706Y-121478797D01*
X201392447Y-121488136D01*
X201399653Y-121499407D01*
X201414705Y-121504548D01*
X201443423Y-121504864D01*
X201491626Y-121501660D01*
X201524833Y-121499504D01*
X201562816Y-121499194D01*
X201583761Y-121503451D01*
X201592724Y-121512834D01*
X201594323Y-121518218D01*
X201589990Y-121543098D01*
X201571121Y-121558383D01*
X201546142Y-121556222D01*
X201539143Y-121554370D01*
X201508821Y-121556210D01*
X201464920Y-121565384D01*
X201414328Y-121580003D01*
X201363934Y-121598180D01*
X201320628Y-121618026D01*
X201315633Y-121622004D01*
X201295012Y-121642470D01*
X201262837Y-121676596D01*
X201222420Y-121720667D01*
X201177074Y-121770970D01*
X201130114Y-121823791D01*
X201084851Y-121875416D01*
X201044600Y-121922131D01*
X201012673Y-121960222D01*
X200992384Y-121985975D01*
X200992197Y-121986078D01*
X200978931Y-121980956D01*
X200948275Y-121965695D01*
X200904551Y-121942523D01*
X200852083Y-121913667D01*
X200847535Y-121911130D01*
X200795527Y-121882606D01*
X200752534Y-121859906D01*
X200722911Y-121845274D01*
X200711012Y-121840954D01*
X200710727Y-121846417D01*
X200711960Y-121873560D01*
X200715052Y-121920233D01*
X200719745Y-121982878D01*
X200725780Y-122057940D01*
X200732899Y-122141862D01*
X200732984Y-122142839D01*
X200741936Y-122251382D01*
X200748035Y-122340471D01*
X200751458Y-122415824D01*
X200752378Y-122483160D01*
X200750971Y-122548195D01*
X200747411Y-122616650D01*
X200745982Y-122639527D01*
X200742419Y-122700832D01*
X200739909Y-122750703D01*
X200738669Y-122784505D01*
X200738917Y-122797601D01*
X200739515Y-122797436D01*
X200752903Y-122787023D01*
X200781619Y-122762530D01*
X200822808Y-122726453D01*
X200873615Y-122681288D01*
X200931185Y-122629530D01*
X200942965Y-122618897D01*
X200999878Y-122567903D01*
X201049816Y-122523761D01*
X201089830Y-122489038D01*
X201116972Y-122466297D01*
X201128292Y-122458104D01*
X201130224Y-122461783D01*
X201135513Y-122485697D01*
X201142524Y-122528172D01*
X201150573Y-122584901D01*
X201158977Y-122651575D01*
X201163474Y-122689826D01*
X201172880Y-122769814D01*
X201180831Y-122826767D01*
X201189070Y-122862168D01*
X201199338Y-122877498D01*
X201213377Y-122874241D01*
X201232930Y-122853877D01*
X201259737Y-122817889D01*
X201295542Y-122767758D01*
X201393700Y-122631608D01*
X201393700Y-122500131D01*
X201393631Y-122484894D01*
X201391323Y-122418609D01*
X201386015Y-122370301D01*
X201378074Y-122343632D01*
X201376492Y-122341045D01*
X201369497Y-122318616D01*
X201382942Y-122298115D01*
X201400696Y-122287270D01*
X201426489Y-122288385D01*
X201445173Y-122304694D01*
X201447978Y-122331672D01*
X201447255Y-122350878D01*
X201452711Y-122388956D01*
X201463835Y-122433438D01*
X201474837Y-122467615D01*
X201486971Y-122494183D01*
X201500593Y-122506006D01*
X201519885Y-122508700D01*
X201535673Y-122506838D01*
X201551789Y-122496435D01*
X201567687Y-122472297D01*
X201587726Y-122429325D01*
X201604716Y-122387628D01*
X201617439Y-122350947D01*
X201622302Y-122329206D01*
X201623057Y-122323549D01*
X201637720Y-122306461D01*
X201662197Y-122300544D01*
X201684730Y-122309509D01*
X201693593Y-122321306D01*
X201695731Y-122350124D01*
X201673713Y-122379664D01*
X201660888Y-122396249D01*
X201647785Y-122436065D01*
X201644282Y-122483250D01*
X201650729Y-122527710D01*
X201667477Y-122559347D01*
X201670251Y-122562075D01*
X201684810Y-122573658D01*
X201701505Y-122577600D01*
X201727794Y-122574226D01*
X201771134Y-122563859D01*
X201805346Y-122554069D01*
X201842035Y-122537818D01*
X201857715Y-122519935D01*
X201865284Y-122505471D01*
X201886202Y-122496845D01*
X201911860Y-122511239D01*
X201925620Y-122536868D01*
X201923089Y-122563337D01*
X201904875Y-122579602D01*
X201882810Y-122588466D01*
X201846133Y-122605441D01*
X201802846Y-122626828D01*
X201776246Y-122641400D01*
X201731487Y-122674683D01*
X201711706Y-122706468D01*
X201717079Y-122736536D01*
X201718549Y-122738486D01*
X201739660Y-122753477D01*
X201775521Y-122771207D01*
X201817757Y-122788243D01*
X201857992Y-122801155D01*
X201887849Y-122806509D01*
X201901259Y-122808520D01*
X201922059Y-122824377D01*
X201924869Y-122848751D01*
X201907144Y-122872883D01*
X201904041Y-122875093D01*
X201883564Y-122882646D01*
X201862931Y-122870043D01*
X201860263Y-122867934D01*
X201830281Y-122856016D01*
X201783143Y-122847253D01*
X201725859Y-122842064D01*
X201665441Y-122840868D01*
X201608900Y-122844084D01*
X201563249Y-122852132D01*
X201546657Y-122857608D01*
X201523450Y-122868680D01*
X201496893Y-122886058D01*
X201464080Y-122912089D01*
X201422106Y-122949121D01*
X201368065Y-122999500D01*
X201299052Y-123065576D01*
X201095250Y-123262109D01*
X201079662Y-123098129D01*
X201078788Y-123088971D01*
X201072716Y-123027084D01*
X201067286Y-122974592D01*
X201063064Y-122936795D01*
X201060612Y-122918991D01*
X201060033Y-122918175D01*
X201047049Y-122923572D01*
X201019949Y-122943325D01*
X200982251Y-122974694D01*
X200937475Y-123014936D01*
X200817800Y-123126039D01*
X200891846Y-123252344D01*
X200939141Y-123331556D01*
X201002330Y-123431122D01*
X201060488Y-123513490D01*
X201116659Y-123582288D01*
X201173883Y-123641145D01*
X201235204Y-123693689D01*
X201303663Y-123743550D01*
X201323675Y-123756812D01*
X201407416Y-123806592D01*
X201499007Y-123853771D01*
X201589275Y-123893860D01*
X201669045Y-123922369D01*
X201710149Y-123933173D01*
X201840726Y-123950823D01*
X201975949Y-123945852D01*
X202112029Y-123918911D01*
X202245176Y-123870651D01*
X202371600Y-123801721D01*
X202377237Y-123797981D01*
X202425601Y-123761569D01*
X202484138Y-123711931D01*
X202547225Y-123654340D01*
X202609239Y-123594071D01*
X202664556Y-123536400D01*
X202707554Y-123486600D01*
X202742790Y-123442150D01*
X202713517Y-123492950D01*
X202653546Y-123587309D01*
X202549276Y-123717106D01*
X202431298Y-123828765D01*
X202301703Y-123920877D01*
X202162582Y-123992030D01*
X202016028Y-124040813D01*
X201864133Y-124065816D01*
X201820897Y-124067808D01*
X201731482Y-124065588D01*
X201633428Y-124056921D01*
X201536598Y-124042799D01*
X201450850Y-124024214D01*
X201379512Y-124000837D01*
X201294379Y-123965697D01*
X201205824Y-123923371D01*
X201122406Y-123877960D01*
X201052686Y-123833560D01*
X200985140Y-123781026D01*
X200899314Y-123703183D01*
X200815742Y-123616610D01*
X200741092Y-123528294D01*
X200682034Y-123445224D01*
X200660673Y-123411764D01*
X200634102Y-123371920D01*
X200614460Y-123344630D01*
X200604916Y-123334448D01*
X200595078Y-123340976D01*
X200570210Y-123361801D01*
X200534554Y-123393541D01*
X200492117Y-123432707D01*
X200387054Y-123531215D01*
X200563352Y-123691490D01*
X200606475Y-123730471D01*
X200668632Y-123786338D01*
X200714802Y-123829081D01*
X200746202Y-123861818D01*
X200764048Y-123887667D01*
X200769555Y-123909746D01*
X200763940Y-123931175D01*
X200748419Y-123955072D01*
X200724207Y-123984556D01*
X200692522Y-124022744D01*
X200687233Y-124029327D01*
X200632009Y-124098374D01*
X200590422Y-124152149D01*
X200560389Y-124194843D01*
X200539827Y-124230648D01*
X200526652Y-124263756D01*
X200518783Y-124298358D01*
X200514137Y-124338646D01*
X200510631Y-124388811D01*
X200508114Y-124431383D01*
X200506549Y-124479159D01*
X200508115Y-124509795D01*
X200513189Y-124528222D01*
X200522148Y-124539370D01*
X200534642Y-124555782D01*
X200529387Y-124580133D01*
X200524427Y-124587697D01*
X200501559Y-124602110D01*
X200477007Y-124599417D01*
X200459364Y-124582634D01*
X200457219Y-124554780D01*
X200457604Y-124532470D01*
X200451485Y-124493116D01*
X200439923Y-124447305D01*
X200437491Y-124439235D01*
X200424448Y-124399456D01*
X200413576Y-124378440D01*
X200401062Y-124371182D01*
X200383093Y-124372674D01*
X200364600Y-124379869D01*
X200343506Y-124402148D01*
X200321801Y-124443925D01*
X200311004Y-124469388D01*
X200294467Y-124512443D01*
X200284142Y-124544699D01*
X200274892Y-124564570D01*
X200253416Y-124577086D01*
X200229482Y-124569723D01*
X200210780Y-124542693D01*
X200208827Y-124537066D01*
X200207346Y-124516329D01*
X200223693Y-124506700D01*
X200231566Y-124503337D01*
X200246295Y-124483200D01*
X200255471Y-124442609D01*
X200261224Y-124394397D01*
X200261914Y-124361828D01*
X200256588Y-124339540D01*
X200244582Y-124320067D01*
X200243666Y-124318867D01*
X200231851Y-124307023D01*
X200215854Y-124302285D01*
X200188800Y-124304096D01*
X200143811Y-124311899D01*
X200142650Y-124312119D01*
X200093766Y-124323518D01*
X200065561Y-124335989D01*
X200053420Y-124351557D01*
X200053396Y-124351630D01*
X200036412Y-124371340D01*
X200010264Y-124373852D01*
X199985336Y-124358159D01*
X199976520Y-124331960D01*
X199988914Y-124307217D01*
X200019128Y-124291067D01*
X200040828Y-124283330D01*
X200079605Y-124265607D01*
X200122502Y-124243095D01*
X200127248Y-124240414D01*
X200167546Y-124214699D01*
X200189345Y-124192615D01*
X200197510Y-124169379D01*
X200198187Y-124158357D01*
X200192957Y-124140044D01*
X200174477Y-124123540D01*
X200137607Y-124103161D01*
X200111650Y-124091359D01*
X200068523Y-124076577D01*
X200035223Y-124070800D01*
X200034469Y-124070798D01*
X200007769Y-124069205D01*
X199996700Y-124065488D01*
X199995957Y-124061187D01*
X199989620Y-124041726D01*
X199989905Y-124025517D01*
X200003929Y-124001885D01*
X200017432Y-123990003D01*
X200031698Y-123989050D01*
X200052285Y-124005604D01*
X200057930Y-124010443D01*
X200076538Y-124020895D01*
X200103724Y-124027641D01*
X200145093Y-124031721D01*
X200206250Y-124034175D01*
X200272106Y-124034321D01*
X200338164Y-124029922D01*
X200384050Y-124020839D01*
X200410392Y-124009657D01*
X200448223Y-123988821D01*
X200487225Y-123963763D01*
X200521520Y-123938562D01*
X200545229Y-123917292D01*
X200552476Y-123904032D01*
X200549763Y-123901136D01*
X200530314Y-123885088D01*
X200494696Y-123857436D01*
X200445882Y-123820442D01*
X200386842Y-123776368D01*
X200320550Y-123727476D01*
X200288047Y-123703513D01*
X200225475Y-123656601D01*
X200171993Y-123615460D01*
X200130480Y-123582363D01*
X200103814Y-123559580D01*
X200094872Y-123549381D01*
X200097203Y-123545217D01*
X200112013Y-123523114D01*
X200138569Y-123485125D01*
X200174707Y-123434305D01*
X200218262Y-123373707D01*
X200267070Y-123306386D01*
X200291783Y-123272410D01*
X200338858Y-123207531D01*
X200379981Y-123150643D01*
X200412897Y-123104880D01*
X200435350Y-123073371D01*
X200445086Y-123059249D01*
X200445192Y-123055605D01*
X200437679Y-123032389D01*
X200420395Y-122991654D01*
X200394926Y-122936857D01*
X200362854Y-122871453D01*
X200325765Y-122798899D01*
X200197707Y-122553150D01*
X200217805Y-122230310D01*
X200222370Y-122154805D01*
X200226908Y-122074278D01*
X200230431Y-122005393D01*
X200232775Y-121951575D01*
X200233779Y-121916252D01*
X200233282Y-121902847D01*
X200231996Y-121903425D01*
X200220250Y-121918227D01*
X200198652Y-121949739D01*
X200169719Y-121994209D01*
X200135967Y-122047887D01*
X200125132Y-122065373D01*
X200092541Y-122117852D01*
X200065703Y-122160898D01*
X200047150Y-122190453D01*
X200039418Y-122202461D01*
X200036802Y-122202888D01*
X200014656Y-122201395D01*
X199973812Y-122196728D01*
X199918814Y-122189436D01*
X199854206Y-122180069D01*
X199831427Y-122176677D01*
X199765515Y-122167294D01*
X199708189Y-122159741D01*
X199664951Y-122154720D01*
X199641304Y-122152933D01*
X199612187Y-122158507D01*
X199570037Y-122173484D01*
X199521362Y-122194819D01*
X199472227Y-122219464D01*
X199428698Y-122244374D01*
X199396838Y-122266503D01*
X199382713Y-122282805D01*
X199375276Y-122297040D01*
X199353076Y-122303299D01*
X199352772Y-122303239D01*
X199335536Y-122291321D01*
X199326030Y-122270531D01*
X199326499Y-122250785D01*
X199339190Y-122242000D01*
X199345659Y-122240755D01*
X199369735Y-122226069D01*
X199397855Y-122200156D01*
X199424006Y-122169735D01*
X199442176Y-122141525D01*
X199446352Y-122122245D01*
X199429955Y-122110373D01*
X199396957Y-122103474D01*
X199355843Y-122101960D01*
X199315059Y-122106136D01*
X199283050Y-122116311D01*
X199264293Y-122121722D01*
X199243263Y-122111269D01*
X199234895Y-122081433D01*
X199234903Y-122080685D01*
X199245731Y-122064223D01*
X199268412Y-122056743D01*
X199290285Y-122062560D01*
X199291945Y-122063635D01*
X199314045Y-122064061D01*
X199346608Y-122053490D01*
X199381210Y-122036072D01*
X199409425Y-122015955D01*
X199422828Y-121997289D01*
X199417882Y-121973800D01*
X199399304Y-121941604D01*
X199373193Y-121909034D01*
X199345777Y-121883822D01*
X199323283Y-121873700D01*
X199310657Y-121872436D01*
X199291387Y-121858223D01*
X199293168Y-121830396D01*
X199298653Y-121818898D01*
X199308243Y-121812548D01*
X199324994Y-121816692D01*
X199353450Y-121832694D01*
X199398155Y-121861918D01*
X199448689Y-121892678D01*
X199486268Y-121906956D01*
X199510299Y-121902353D01*
X199523054Y-121878386D01*
X199526800Y-121834571D01*
X199526078Y-121814532D01*
X199520510Y-121774125D01*
X199511244Y-121746844D01*
X199502289Y-121725419D01*
X199510390Y-121707230D01*
X199514426Y-121703704D01*
X199537361Y-121698151D01*
X199556739Y-121711887D01*
X199564900Y-121740268D01*
X199568489Y-121760730D01*
X199582676Y-121801187D01*
X199604154Y-121849484D01*
X199629151Y-121897920D01*
X199653898Y-121938792D01*
X199674624Y-121964398D01*
X199686444Y-121971356D01*
X199717868Y-121984549D01*
X199761363Y-122000200D01*
X199810942Y-122016447D01*
X199860616Y-122031427D01*
X199904396Y-122043278D01*
X199936296Y-122050137D01*
X199950326Y-122050143D01*
X199958252Y-122039744D01*
X199979213Y-122012224D01*
X200010675Y-121970909D01*
X200050145Y-121919074D01*
X200095128Y-121859995D01*
X200236102Y-121674841D01*
X200217342Y-121531171D01*
X200216384Y-121523805D01*
X200208835Y-121461743D01*
X200205222Y-121418171D01*
X200205574Y-121387074D01*
X200209920Y-121362436D01*
X200218292Y-121338243D01*
X200220730Y-121331809D01*
X200233003Y-121286612D01*
X200238000Y-121244792D01*
X200238008Y-121243160D01*
X200242487Y-121212147D01*
X200253875Y-121200595D01*
X200254388Y-121200526D01*
X200265261Y-121187691D01*
X200282259Y-121155842D01*
X200303156Y-121109544D01*
X200325722Y-121053363D01*
X200339394Y-121018368D01*
X200370434Y-120948878D01*
X200398682Y-120904032D01*
X200425765Y-120883795D01*
X200453310Y-120888130D01*
G37*
D11*
X106650000Y-123255000D03*
X106650000Y-125005000D03*
X111050000Y-125005000D03*
X111050000Y-123255000D03*
D12*
X122700000Y-60375000D03*
X122700000Y-58625000D03*
X118300000Y-58625000D03*
X118300000Y-60375000D03*
D11*
X156300000Y-52915000D03*
X156300000Y-54665000D03*
X160700000Y-54665000D03*
X160700000Y-52915000D03*
D12*
X199700000Y-62125000D03*
X199700000Y-60375000D03*
X195300000Y-60375000D03*
X195300000Y-62125000D03*
D11*
X146883600Y-117387600D03*
X146883600Y-119137600D03*
X151283600Y-119137600D03*
X151283600Y-117387600D03*
X182850000Y-119445000D03*
X182850000Y-121195000D03*
X187250000Y-121195000D03*
X187250000Y-119445000D03*
X103550000Y-85625000D03*
X103550000Y-87375000D03*
X107950000Y-87375000D03*
X107950000Y-85625000D03*
D13*
X107900000Y-81100000D03*
D14*
X107900000Y-78600000D03*
X107900000Y-76000000D03*
D15*
X112500000Y-85600000D03*
X112500000Y-83000000D03*
D16*
X112500000Y-80500000D03*
D17*
X218200000Y-46025000D03*
X218200000Y-47775000D03*
X213400000Y-47775000D03*
X213400000Y-46025000D03*
D18*
X213260000Y-57480000D03*
D19*
X215800000Y-52400000D03*
D20*
X210100000Y-57520000D03*
D18*
X219610000Y-54940000D03*
D21*
X220300000Y-52400000D03*
D18*
X218340000Y-57480000D03*
D21*
X211300000Y-52400000D03*
D22*
X210720000Y-52400000D03*
D18*
X211990000Y-54940001D03*
D22*
X220880000Y-52400000D03*
D20*
X222800000Y-54980000D03*
X165600000Y-104770000D03*
D22*
X163680000Y-102190000D03*
D18*
X154790000Y-104730001D03*
D22*
X153520000Y-102190000D03*
D21*
X154100000Y-102190000D03*
D18*
X161140000Y-107270000D03*
D21*
X163100000Y-102190000D03*
D18*
X162410000Y-104730000D03*
D20*
X152900000Y-107310000D03*
D19*
X158600000Y-102190000D03*
D18*
X156060000Y-107270000D03*
D17*
X156200000Y-95815000D03*
X156200000Y-97565000D03*
X161000000Y-97565000D03*
X161000000Y-95815000D03*
D20*
X203700000Y-112080000D03*
D22*
X201780000Y-109500000D03*
D18*
X192890000Y-112040001D03*
D22*
X191620000Y-109500000D03*
D21*
X192200000Y-109500000D03*
D18*
X199240000Y-114580000D03*
D21*
X201200000Y-109500000D03*
D18*
X200510000Y-112040000D03*
D20*
X191000000Y-114620000D03*
D19*
X196700000Y-109500000D03*
D18*
X194160000Y-114580000D03*
D17*
X194300000Y-103125000D03*
X194300000Y-104875000D03*
X199100000Y-104875000D03*
X199100000Y-103125000D03*
D20*
X222700000Y-73880000D03*
D22*
X220780000Y-71300000D03*
D18*
X211890000Y-73840001D03*
D22*
X210620000Y-71300000D03*
D21*
X211200000Y-71300000D03*
D18*
X218240000Y-76380000D03*
D21*
X220200000Y-71300000D03*
D18*
X219510000Y-73840000D03*
D20*
X210000000Y-76420000D03*
D19*
X215700000Y-71300000D03*
D18*
X213160000Y-76380000D03*
D17*
X213300000Y-64925000D03*
X213300000Y-66675000D03*
X218100000Y-66675000D03*
X218100000Y-64925000D03*
D20*
X203700000Y-73880000D03*
D22*
X201780000Y-71300000D03*
D18*
X192890000Y-73840001D03*
D22*
X191620000Y-71300000D03*
D21*
X192200000Y-71300000D03*
D18*
X199240000Y-76380000D03*
D21*
X201200000Y-71300000D03*
D18*
X200510000Y-73840000D03*
D20*
X191000000Y-76420000D03*
D19*
X196700000Y-71300000D03*
D18*
X194160000Y-76380000D03*
D17*
X194300000Y-64925000D03*
X194300000Y-66675000D03*
X199100000Y-66675000D03*
X199100000Y-64925000D03*
D20*
X203700000Y-93080000D03*
D22*
X201780000Y-90500000D03*
D18*
X192890000Y-93040001D03*
D22*
X191620000Y-90500000D03*
D21*
X192200000Y-90500000D03*
D18*
X199240000Y-95580000D03*
D21*
X201200000Y-90500000D03*
D18*
X200510000Y-93040000D03*
D20*
X191000000Y-95620000D03*
D19*
X196700000Y-90500000D03*
D18*
X194160000Y-95580000D03*
D17*
X194300000Y-84125000D03*
X194300000Y-85875000D03*
X199100000Y-85875000D03*
X199100000Y-84125000D03*
D20*
X146500000Y-50080000D03*
D22*
X144580000Y-47500000D03*
D18*
X135690000Y-50040001D03*
D22*
X134420000Y-47500000D03*
D21*
X135000000Y-47500000D03*
D18*
X142040000Y-52580000D03*
D21*
X144000000Y-47500000D03*
D18*
X143310000Y-50040000D03*
D20*
X133800000Y-52620000D03*
D19*
X139500000Y-47500000D03*
D18*
X136960000Y-52580000D03*
D17*
X137100000Y-41125000D03*
X137100000Y-42875000D03*
X141900000Y-42875000D03*
X141900000Y-41125000D03*
D23*
X127580000Y-119020000D03*
X124030000Y-119020000D03*
X124000000Y-121600000D03*
X127550000Y-121600000D03*
X127550000Y-124200000D03*
X124000000Y-124200000D03*
X112199800Y-120624800D03*
X108649800Y-120624800D03*
X102575000Y-123600000D03*
X99025000Y-123600000D03*
X108775000Y-97000000D03*
X105225000Y-97000000D03*
D24*
X208200000Y-106950000D03*
X208200000Y-103400000D03*
X188500000Y-108525000D03*
X188500000Y-104975000D03*
X169250000Y-103925000D03*
X169250000Y-100375000D03*
X150000000Y-100340000D03*
X150000000Y-96790000D03*
X131000000Y-104950000D03*
X131000000Y-101400000D03*
X112000000Y-104525000D03*
X112000000Y-100975000D03*
X207750000Y-88050000D03*
X207750000Y-84500000D03*
X188500000Y-90550000D03*
X188500000Y-87000000D03*
X169725000Y-85200000D03*
X169725000Y-81650000D03*
X149750000Y-83340000D03*
X149750000Y-79790000D03*
X131250000Y-85450000D03*
X131250000Y-81900000D03*
X128500000Y-85550000D03*
X128500000Y-82000000D03*
X207750000Y-69050000D03*
X207750000Y-65500000D03*
X188250000Y-68550000D03*
X188250000Y-65000000D03*
X169500000Y-65425000D03*
X169500000Y-61875000D03*
X150250000Y-62840000D03*
X150250000Y-59290000D03*
X129800000Y-65575000D03*
X129800000Y-62025000D03*
X126800000Y-65550000D03*
X126800000Y-62000000D03*
X207750000Y-51800000D03*
X207750000Y-48250000D03*
X188000000Y-52025000D03*
X188000000Y-48475000D03*
X169250000Y-47200000D03*
X169250000Y-43650000D03*
X150500000Y-44815000D03*
X150500000Y-41265000D03*
X131000000Y-47555500D03*
X131000000Y-44005500D03*
X128750000Y-47550000D03*
X128750000Y-44000000D03*
D20*
X184600000Y-126380000D03*
D22*
X182680000Y-123800000D03*
D18*
X173790000Y-126340001D03*
D22*
X172520000Y-123800000D03*
D21*
X173100000Y-123800000D03*
D18*
X180140000Y-128880000D03*
D21*
X182100000Y-123800000D03*
D18*
X181410000Y-126340000D03*
D20*
X171900000Y-128920000D03*
D19*
X177600000Y-123800000D03*
D18*
X175060000Y-128880000D03*
D17*
X175200000Y-117425000D03*
X175200000Y-119175000D03*
X180000000Y-119175000D03*
X180000000Y-117425000D03*
D20*
X165600000Y-123870000D03*
D22*
X163680000Y-121290000D03*
D18*
X154790000Y-123830001D03*
D22*
X153520000Y-121290000D03*
D21*
X154100000Y-121290000D03*
D18*
X161140000Y-126370000D03*
D21*
X163100000Y-121290000D03*
D18*
X162410000Y-123830000D03*
D20*
X152900000Y-126410000D03*
D19*
X158600000Y-121290000D03*
D18*
X156060000Y-126370000D03*
D17*
X156200000Y-114915000D03*
X156200000Y-116665000D03*
X161000000Y-116665000D03*
X161000000Y-114915000D03*
D20*
X146500000Y-126280000D03*
D22*
X144580000Y-123700000D03*
D18*
X135690000Y-126240001D03*
D22*
X134420000Y-123700000D03*
D21*
X135000000Y-123700000D03*
D18*
X142040000Y-128780000D03*
D21*
X144000000Y-123700000D03*
D18*
X143310000Y-126240000D03*
D20*
X133800000Y-128820000D03*
D19*
X139500000Y-123700000D03*
D18*
X136960000Y-128780000D03*
D17*
X137100000Y-117325000D03*
X137100000Y-119075000D03*
X141900000Y-119075000D03*
X141900000Y-117325000D03*
D25*
X125029234Y-129080355D03*
D22*
X122506903Y-127085199D03*
D18*
X114577223Y-131839553D03*
D22*
X112693097Y-129714801D03*
D21*
X113253334Y-129564686D03*
D18*
X121368252Y-132649503D03*
D21*
X121946666Y-127235314D03*
D18*
X121937578Y-129867351D03*
D25*
X113419376Y-134820809D03*
D19*
X117600000Y-128400000D03*
D18*
X116461349Y-133964304D03*
D26*
X113631807Y-122863389D03*
X114084740Y-124553759D03*
X118721184Y-123311427D03*
X118268251Y-121621057D03*
D27*
X97975654Y-140752178D03*
D22*
X99250000Y-137799409D03*
D18*
X92605295Y-131370444D03*
D22*
X94170000Y-129000591D03*
D21*
X94460000Y-129502886D03*
D18*
X93580591Y-138139705D03*
D21*
X98960000Y-137297114D03*
D18*
X96415295Y-137969557D03*
D27*
X89425950Y-131023655D03*
D19*
X96750000Y-133330000D03*
D18*
X91040591Y-133740295D03*
D28*
X101030912Y-128134039D03*
X99515367Y-129009039D03*
X101915367Y-133165961D03*
X103430912Y-132290961D03*
D20*
X222750000Y-112080000D03*
D22*
X220830000Y-109500000D03*
D18*
X211940000Y-112040001D03*
D22*
X210670000Y-109500000D03*
D21*
X211250000Y-109500000D03*
D18*
X218290000Y-114580000D03*
D21*
X220250000Y-109500000D03*
D18*
X219560000Y-112040000D03*
D20*
X210050000Y-114620000D03*
D19*
X215750000Y-109500000D03*
D18*
X213210000Y-114580000D03*
D17*
X213350000Y-103125000D03*
X213350000Y-104875000D03*
X218150000Y-104875000D03*
X218150000Y-103125000D03*
D20*
X184600000Y-107280000D03*
D22*
X182680000Y-104700000D03*
D18*
X173790000Y-107240001D03*
D22*
X172520000Y-104700000D03*
D21*
X173100000Y-104700000D03*
D18*
X180140000Y-109780000D03*
D21*
X182100000Y-104700000D03*
D18*
X181410000Y-107240000D03*
D20*
X171900000Y-109820000D03*
D19*
X177600000Y-104700000D03*
D18*
X175060000Y-109780000D03*
D17*
X175200000Y-98325000D03*
X175200000Y-100075000D03*
X180000000Y-100075000D03*
X180000000Y-98325000D03*
D20*
X146500000Y-107280000D03*
D22*
X144580000Y-104700000D03*
D18*
X135690000Y-107240001D03*
D22*
X134420000Y-104700000D03*
D21*
X135000000Y-104700000D03*
D18*
X142040000Y-109780000D03*
D21*
X144000000Y-104700000D03*
D18*
X143310000Y-107240000D03*
D20*
X133800000Y-109820000D03*
D19*
X139500000Y-104700000D03*
D18*
X136960000Y-109780000D03*
D17*
X137100000Y-98325000D03*
X137100000Y-100075000D03*
X141900000Y-100075000D03*
X141900000Y-98325000D03*
D20*
X127500000Y-109680000D03*
D22*
X125580000Y-107100000D03*
D18*
X116690000Y-109640001D03*
D22*
X115420000Y-107100000D03*
D21*
X116000000Y-107100000D03*
D18*
X123040000Y-112180000D03*
D21*
X125000000Y-107100000D03*
D18*
X124310000Y-109640000D03*
D20*
X114800000Y-112220000D03*
D19*
X120500000Y-107100000D03*
D18*
X117960000Y-112180000D03*
D17*
X118100000Y-100725000D03*
X118100000Y-102475000D03*
X122900000Y-102475000D03*
X122900000Y-100725000D03*
D20*
X222700000Y-93080000D03*
D22*
X220780000Y-90500000D03*
D18*
X211890000Y-93040001D03*
D22*
X210620000Y-90500000D03*
D21*
X211200000Y-90500000D03*
D18*
X218240000Y-95580000D03*
D21*
X220200000Y-90500000D03*
D18*
X219510000Y-93040000D03*
D20*
X210000000Y-95620000D03*
D19*
X215700000Y-90500000D03*
D18*
X213160000Y-95580000D03*
D17*
X213300000Y-84125000D03*
X213300000Y-85875000D03*
X218100000Y-85875000D03*
X218100000Y-84125000D03*
D20*
X184600000Y-88180000D03*
D22*
X182680000Y-85600000D03*
D18*
X173790000Y-88140001D03*
D22*
X172520000Y-85600000D03*
D21*
X173100000Y-85600000D03*
D18*
X180140000Y-90680000D03*
D21*
X182100000Y-85600000D03*
D18*
X181410000Y-88140000D03*
D20*
X171900000Y-90720000D03*
D19*
X177600000Y-85600000D03*
D18*
X175060000Y-90680000D03*
D17*
X175200000Y-79225000D03*
X175200000Y-80975000D03*
X180000000Y-80975000D03*
X180000000Y-79225000D03*
D20*
X165600000Y-85770000D03*
D22*
X163680000Y-83190000D03*
D18*
X154790000Y-85730001D03*
D22*
X153520000Y-83190000D03*
D21*
X154100000Y-83190000D03*
D18*
X161140000Y-88270000D03*
D21*
X163100000Y-83190000D03*
D18*
X162410000Y-85730000D03*
D20*
X152900000Y-88310000D03*
D19*
X158600000Y-83190000D03*
D18*
X156060000Y-88270000D03*
D17*
X156200000Y-76815000D03*
X156200000Y-78565000D03*
X161000000Y-78565000D03*
X161000000Y-76815000D03*
D20*
X146500000Y-88180000D03*
D22*
X144580000Y-85600000D03*
D18*
X135690000Y-88140001D03*
D22*
X134420000Y-85600000D03*
D21*
X135000000Y-85600000D03*
D18*
X142040000Y-90680000D03*
D21*
X144000000Y-85600000D03*
D18*
X143310000Y-88140000D03*
D20*
X133800000Y-90720000D03*
D19*
X139500000Y-85600000D03*
D18*
X136960000Y-90680000D03*
D17*
X137100000Y-79225000D03*
X137100000Y-80975000D03*
X141900000Y-80975000D03*
X141900000Y-79225000D03*
D20*
X127500000Y-90680000D03*
D22*
X125580000Y-88100000D03*
D18*
X116690000Y-90640001D03*
D22*
X115420000Y-88100000D03*
D21*
X116000000Y-88100000D03*
D18*
X123040000Y-93180000D03*
D21*
X125000000Y-88100000D03*
D18*
X124310000Y-90640000D03*
D20*
X114800000Y-93220000D03*
D19*
X120500000Y-88100000D03*
D18*
X117960000Y-93180000D03*
D17*
X118100000Y-81725000D03*
X118100000Y-83475000D03*
X122900000Y-83475000D03*
X122900000Y-81725000D03*
D20*
X184600000Y-69080000D03*
D22*
X182680000Y-66500000D03*
D18*
X173790000Y-69040001D03*
D22*
X172520000Y-66500000D03*
D21*
X173100000Y-66500000D03*
D18*
X180140000Y-71580000D03*
D21*
X182100000Y-66500000D03*
D18*
X181410000Y-69040000D03*
D20*
X171900000Y-71620000D03*
D19*
X177600000Y-66500000D03*
D18*
X175060000Y-71580000D03*
D17*
X175200000Y-60125000D03*
X175200000Y-61875000D03*
X180000000Y-61875000D03*
X180000000Y-60125000D03*
D20*
X165600000Y-66670000D03*
D22*
X163680000Y-64090000D03*
D18*
X154790000Y-66630001D03*
D22*
X153520000Y-64090000D03*
D21*
X154100000Y-64090000D03*
D18*
X161140000Y-69170000D03*
D21*
X163100000Y-64090000D03*
D18*
X162410000Y-66630000D03*
D20*
X152900000Y-69210000D03*
D19*
X158600000Y-64090000D03*
D18*
X156060000Y-69170000D03*
D17*
X156200000Y-57715000D03*
X156200000Y-59465000D03*
X161000000Y-59465000D03*
X161000000Y-57715000D03*
D20*
X146500000Y-69180000D03*
D22*
X144580000Y-66600000D03*
D18*
X135690000Y-69140001D03*
D22*
X134420000Y-66600000D03*
D21*
X135000000Y-66600000D03*
D18*
X142040000Y-71680000D03*
D21*
X144000000Y-66600000D03*
D18*
X143310000Y-69140000D03*
D20*
X133800000Y-71720000D03*
D19*
X139500000Y-66600000D03*
D18*
X136960000Y-71680000D03*
D17*
X137100000Y-60225000D03*
X137100000Y-61975000D03*
X141900000Y-61975000D03*
X141900000Y-60225000D03*
D20*
X127500000Y-71680000D03*
D22*
X125580000Y-69100000D03*
D18*
X116690000Y-71640001D03*
D22*
X115420000Y-69100000D03*
D21*
X116000000Y-69100000D03*
D18*
X123040000Y-74180000D03*
D21*
X125000000Y-69100000D03*
D18*
X124310000Y-71640000D03*
D20*
X114800000Y-74220000D03*
D19*
X120500000Y-69100000D03*
D18*
X117960000Y-74180000D03*
D17*
X118100000Y-62725000D03*
X118100000Y-64475000D03*
X122900000Y-64475000D03*
X122900000Y-62725000D03*
D20*
X203700000Y-54980000D03*
D22*
X201780000Y-52400000D03*
D18*
X192890000Y-54940001D03*
D22*
X191620000Y-52400000D03*
D21*
X192200000Y-52400000D03*
D18*
X199240000Y-57480000D03*
D21*
X201200000Y-52400000D03*
D18*
X200510000Y-54940000D03*
D20*
X191000000Y-57520000D03*
D19*
X196700000Y-52400000D03*
D18*
X194160000Y-57480000D03*
D17*
X194300000Y-46025000D03*
X194300000Y-47775000D03*
X199100000Y-47775000D03*
X199100000Y-46025000D03*
D20*
X184600000Y-50080000D03*
D22*
X182680000Y-47500000D03*
D18*
X173790000Y-50040001D03*
D22*
X172520000Y-47500000D03*
D21*
X173100000Y-47500000D03*
D18*
X180140000Y-52580000D03*
D21*
X182100000Y-47500000D03*
D18*
X181410000Y-50040000D03*
D20*
X171900000Y-52620000D03*
D19*
X177600000Y-47500000D03*
D18*
X175060000Y-52580000D03*
D17*
X175200000Y-41125000D03*
X175200000Y-42875000D03*
X180000000Y-42875000D03*
X180000000Y-41125000D03*
D20*
X165600000Y-47580000D03*
D22*
X163680000Y-45000000D03*
D18*
X154790000Y-47540001D03*
D22*
X153520000Y-45000000D03*
D21*
X154100000Y-45000000D03*
D18*
X161140000Y-50080000D03*
D21*
X163100000Y-45000000D03*
D18*
X162410000Y-47540000D03*
D20*
X152900000Y-50120000D03*
D19*
X158600000Y-45000000D03*
D18*
X156060000Y-50080000D03*
D17*
X156200000Y-38625000D03*
X156200000Y-40375000D03*
X161000000Y-40375000D03*
X161000000Y-38625000D03*
D20*
X127500000Y-52580000D03*
D22*
X125580000Y-50000000D03*
D18*
X116690000Y-52540001D03*
D22*
X115420000Y-50000000D03*
D21*
X116000000Y-50000000D03*
D18*
X123040000Y-55080000D03*
D21*
X125000000Y-50000000D03*
D18*
X124310000Y-52540000D03*
D20*
X114800000Y-55120000D03*
D19*
X120500000Y-50000000D03*
D18*
X117960000Y-55080000D03*
D17*
X118100000Y-43625000D03*
X118100000Y-45375000D03*
X122900000Y-45375000D03*
X122900000Y-43625000D03*
D15*
X181427000Y-114706600D03*
X178827000Y-114706600D03*
D14*
X176327000Y-114706600D03*
D15*
X185500000Y-96050000D03*
X185500000Y-98650000D03*
D13*
X185500000Y-101150000D03*
D15*
X93478815Y-47505745D03*
X108718815Y-65285745D03*
X93478815Y-57665745D03*
X108718815Y-55125745D03*
X108718815Y-50045745D03*
X93478815Y-67825745D03*
X108718815Y-47505745D03*
X108718815Y-42425745D03*
X93478815Y-62745745D03*
X108718815Y-70365745D03*
X93478815Y-55125745D03*
X93478815Y-44965745D03*
X93478815Y-50045745D03*
X93478815Y-52585745D03*
X93478815Y-65285745D03*
X93478815Y-60205745D03*
X108718815Y-62745745D03*
X108718815Y-60205745D03*
X93478815Y-70365745D03*
X108718815Y-67825745D03*
X108718815Y-44965745D03*
X93478815Y-42425745D03*
X108718815Y-57665745D03*
X108718815Y-52585745D03*
X92180000Y-41230000D03*
X92180000Y-43770000D03*
X92180000Y-46310000D03*
X92180000Y-48850000D03*
X92180000Y-51390000D03*
X92180000Y-53930000D03*
X92180000Y-56470000D03*
X92180000Y-59010000D03*
X92180000Y-61550000D03*
X92180000Y-64090000D03*
X92180000Y-66630000D03*
X92180000Y-69170000D03*
X107420000Y-69170000D03*
X107420000Y-66630000D03*
X107420000Y-64090000D03*
X107420000Y-61550000D03*
X107420000Y-59010000D03*
X107420000Y-56470000D03*
X107420000Y-53930000D03*
X107420000Y-51390000D03*
X107420000Y-48850000D03*
X107420000Y-46310000D03*
X107420000Y-43770000D03*
X107420000Y-41230000D03*
D29*
X107000000Y-93500000D03*
X91500000Y-93500000D03*
D30*
X104320000Y-74600000D03*
X101780000Y-74600000D03*
X99240000Y-74600000D03*
X96700000Y-74600000D03*
D31*
X90000000Y-80750000D03*
X90000000Y-74250000D03*
D32*
X96700000Y-68799620D03*
X96700000Y-69800380D03*
X99200000Y-68799620D03*
X99200000Y-69800380D03*
X101700000Y-68799620D03*
X101700000Y-69800380D03*
X104300000Y-68799620D03*
X104300000Y-69800380D03*
D30*
X100579272Y-80311965D03*
X95499272Y-80311965D03*
X100579272Y-78061965D03*
X95499272Y-78061965D03*
X102700000Y-78100000D03*
X102700000Y-80300000D03*
D33*
X206000000Y-100000000D03*
X130000000Y-97500000D03*
X130000000Y-57000000D03*
D31*
X107000000Y-107000000D03*
X107000000Y-102000000D03*
D34*
X100000000Y-110100000D03*
X100000000Y-98900000D03*
D31*
X92500000Y-107000000D03*
X92500000Y-104500000D03*
X92500000Y-102000000D03*
D33*
X103000000Y-119000000D03*
X206000000Y-61500000D03*
D35*
X96500000Y-87400000D03*
X89500000Y-87400000D03*
D36*
X98300000Y-89500000D03*
X99800000Y-85300000D03*
X91300000Y-89500000D03*
X94300000Y-89500000D03*
D35*
X89500000Y-85650000D03*
X96500000Y-85650000D03*
D36*
X91300000Y-83550000D03*
X94300000Y-83550000D03*
X98300000Y-83550000D03*
X99800000Y-87750000D03*
M02*
