G04 #@! TF.GenerationSoftware,KiCad,Pcbnew,8.0.4*
G04 #@! TF.CreationDate,2024-08-04T16:07:20+05:30*
G04 #@! TF.ProjectId,SofleKeyboard,536f666c-654b-4657-9962-6f6172642e6b,rev?*
G04 #@! TF.SameCoordinates,Original*
G04 #@! TF.FileFunction,Soldermask,Top*
G04 #@! TF.FilePolarity,Negative*
%FSLAX46Y46*%
G04 Gerber Fmt 4.6, Leading zero omitted, Abs format (unit mm)*
G04 Created by KiCad (PCBNEW 8.0.4) date 2024-08-04 16:07:20*
%MOMM*%
%LPD*%
G01*
G04 APERTURE LIST*
G04 Aperture macros list*
%AMRoundRect*
0 Rectangle with rounded corners*
0 $1 Rounding radius*
0 $2 $3 $4 $5 $6 $7 $8 $9 X,Y pos of 4 corners*
0 Add a 4 corners polygon primitive as box body*
4,1,4,$2,$3,$4,$5,$6,$7,$8,$9,$2,$3,0*
0 Add four circle primitives for the rounded corners*
1,1,$1+$1,$2,$3*
1,1,$1+$1,$4,$5*
1,1,$1+$1,$6,$7*
1,1,$1+$1,$8,$9*
0 Add four rect primitives between the rounded corners*
20,1,$1+$1,$2,$3,$4,$5,0*
20,1,$1+$1,$4,$5,$6,$7,0*
20,1,$1+$1,$6,$7,$8,$9,0*
20,1,$1+$1,$8,$9,$2,$3,0*%
G04 Aperture macros list end*
%ADD10C,0.010000*%
%ADD11RoundRect,0.200000X-1.000000X-0.500000X1.000000X-0.500000X1.000000X0.500000X-1.000000X0.500000X0*%
%ADD12RoundRect,0.200000X1.000000X0.500000X-1.000000X0.500000X-1.000000X-0.500000X1.000000X-0.500000X0*%
%ADD13RoundRect,0.200000X-0.762000X0.762000X-0.762000X-0.762000X0.762000X-0.762000X0.762000X0.762000X0*%
%ADD14RoundRect,0.200000X0.762000X0.762000X-0.762000X0.762000X-0.762000X-0.762000X0.762000X-0.762000X0*%
%ADD15C,1.924000*%
%ADD16RoundRect,0.200000X0.762000X-0.762000X0.762000X0.762000X-0.762000X0.762000X-0.762000X-0.762000X0*%
%ADD17RoundRect,0.200000X0.800000X0.500000X-0.800000X0.500000X-0.800000X-0.500000X0.800000X-0.500000X0*%
%ADD18C,3.400000*%
%ADD19C,4.500000*%
%ADD20C,2.100000*%
%ADD21RoundRect,0.200000X-1.150000X-1.000000X1.150000X-1.000000X1.150000X1.000000X-1.150000X1.000000X0*%
%ADD22C,2.300000*%
%ADD23RoundRect,0.200000X-0.650000X-0.475000X0.650000X-0.475000X0.650000X0.475000X-0.650000X0.475000X0*%
%ADD24RoundRect,0.200000X-0.475000X0.650000X-0.475000X-0.650000X0.475000X-0.650000X0.475000X0.650000X0*%
%ADD25RoundRect,0.200000X-0.851996X-1.263568X1.369634X-0.668284X0.851996X1.263568X-1.369634X0.668284X0*%
%ADD26RoundRect,0.200000X0.643331X0.690018X-0.902150X0.275908X-0.643331X-0.690018X0.902150X-0.275908X0*%
%ADD27RoundRect,0.200000X-1.441025X0.495929X-0.291025X-1.495929X1.441025X-0.495929X0.291025X1.495929X0*%
%ADD28RoundRect,0.200000X0.833013X-0.442820X0.033013X0.942820X-0.833013X0.442820X-0.033013X-0.942820X0*%
%ADD29C,4.400000*%
%ADD30C,1.797000*%
%ADD31RoundRect,0.200000X-0.571500X0.317500X-0.571500X-0.317500X0.571500X-0.317500X0.571500X0.317500X0*%
%ADD32C,2.400000*%
%ADD33RoundRect,0.200000X0.571500X-0.317500X0.571500X0.317500X-0.571500X0.317500X-0.571500X-0.317500X0*%
%ADD34C,5.100000*%
%ADD35RoundRect,0.200000X-1.600000X-1.000000X1.600000X-1.000000X1.600000X1.000000X-1.600000X1.000000X0*%
%ADD36C,1.600000*%
%ADD37O,2.900000X2.100000*%
G04 APERTURE END LIST*
D10*
X200851318Y-120904032D02*
X200879566Y-120948878D01*
X200910606Y-121018368D01*
X200924278Y-121053363D01*
X200946844Y-121109544D01*
X200967741Y-121155842D01*
X200984739Y-121187691D01*
X200995612Y-121200526D01*
X200996125Y-121200595D01*
X201007513Y-121212147D01*
X201011992Y-121243160D01*
X201012000Y-121244792D01*
X201016997Y-121286612D01*
X201029270Y-121331809D01*
X201031708Y-121338243D01*
X201040080Y-121362436D01*
X201044426Y-121387074D01*
X201044778Y-121418171D01*
X201041165Y-121461743D01*
X201033616Y-121523805D01*
X201032658Y-121531171D01*
X201013898Y-121674841D01*
X201154872Y-121859995D01*
X201199855Y-121919074D01*
X201239325Y-121970909D01*
X201270787Y-122012224D01*
X201291748Y-122039744D01*
X201299674Y-122050143D01*
X201313704Y-122050137D01*
X201345604Y-122043278D01*
X201389384Y-122031427D01*
X201439058Y-122016447D01*
X201488637Y-122000200D01*
X201532132Y-121984549D01*
X201563556Y-121971356D01*
X201575376Y-121964398D01*
X201596102Y-121938792D01*
X201620849Y-121897920D01*
X201645846Y-121849484D01*
X201667324Y-121801187D01*
X201681511Y-121760730D01*
X201685100Y-121740268D01*
X201693261Y-121711887D01*
X201712639Y-121698151D01*
X201735574Y-121703704D01*
X201739610Y-121707230D01*
X201747711Y-121725419D01*
X201738756Y-121746844D01*
X201729490Y-121774125D01*
X201723922Y-121814532D01*
X201723200Y-121834571D01*
X201726946Y-121878386D01*
X201739701Y-121902353D01*
X201763732Y-121906956D01*
X201801311Y-121892678D01*
X201851845Y-121861918D01*
X201896550Y-121832694D01*
X201925006Y-121816692D01*
X201941757Y-121812548D01*
X201951347Y-121818898D01*
X201956832Y-121830396D01*
X201958613Y-121858223D01*
X201939343Y-121872436D01*
X201926717Y-121873700D01*
X201904223Y-121883822D01*
X201876807Y-121909034D01*
X201850696Y-121941604D01*
X201832118Y-121973800D01*
X201827172Y-121997289D01*
X201840575Y-122015955D01*
X201868790Y-122036072D01*
X201903392Y-122053490D01*
X201935955Y-122064061D01*
X201958055Y-122063635D01*
X201959715Y-122062560D01*
X201981588Y-122056743D01*
X202004269Y-122064223D01*
X202015097Y-122080685D01*
X202015105Y-122081433D01*
X202006737Y-122111269D01*
X201985707Y-122121722D01*
X201966950Y-122116311D01*
X201934941Y-122106136D01*
X201894157Y-122101960D01*
X201853043Y-122103474D01*
X201820045Y-122110373D01*
X201803648Y-122122245D01*
X201807824Y-122141525D01*
X201825994Y-122169735D01*
X201852145Y-122200156D01*
X201880265Y-122226069D01*
X201904341Y-122240755D01*
X201910810Y-122242000D01*
X201923501Y-122250785D01*
X201923970Y-122270531D01*
X201914464Y-122291321D01*
X201897228Y-122303239D01*
X201896924Y-122303299D01*
X201874724Y-122297040D01*
X201867287Y-122282805D01*
X201853162Y-122266503D01*
X201821302Y-122244374D01*
X201777773Y-122219464D01*
X201728638Y-122194819D01*
X201679963Y-122173484D01*
X201637813Y-122158507D01*
X201608696Y-122152933D01*
X201585049Y-122154720D01*
X201541811Y-122159741D01*
X201484485Y-122167294D01*
X201418573Y-122176677D01*
X201395794Y-122180069D01*
X201331186Y-122189436D01*
X201276188Y-122196728D01*
X201235344Y-122201395D01*
X201213198Y-122202888D01*
X201210582Y-122202461D01*
X201202850Y-122190453D01*
X201184297Y-122160898D01*
X201157459Y-122117852D01*
X201124868Y-122065373D01*
X201114033Y-122047887D01*
X201080281Y-121994209D01*
X201051348Y-121949739D01*
X201029750Y-121918227D01*
X201018004Y-121903425D01*
X201016718Y-121902847D01*
X201016221Y-121916252D01*
X201017225Y-121951575D01*
X201019569Y-122005393D01*
X201023092Y-122074278D01*
X201027630Y-122154805D01*
X201032195Y-122230310D01*
X201052293Y-122553150D01*
X200924235Y-122798899D01*
X200887146Y-122871453D01*
X200855074Y-122936857D01*
X200829605Y-122991654D01*
X200812321Y-123032389D01*
X200804808Y-123055605D01*
X200804914Y-123059249D01*
X200814650Y-123073371D01*
X200837103Y-123104880D01*
X200870019Y-123150643D01*
X200911142Y-123207531D01*
X200958217Y-123272410D01*
X200982930Y-123306386D01*
X201031738Y-123373707D01*
X201075293Y-123434305D01*
X201111431Y-123485125D01*
X201137987Y-123523114D01*
X201152797Y-123545217D01*
X201155128Y-123549381D01*
X201146186Y-123559580D01*
X201119520Y-123582363D01*
X201078007Y-123615460D01*
X201024525Y-123656601D01*
X200961953Y-123703513D01*
X200929450Y-123727476D01*
X200863158Y-123776368D01*
X200804118Y-123820442D01*
X200755304Y-123857436D01*
X200719686Y-123885088D01*
X200700237Y-123901136D01*
X200697524Y-123904032D01*
X200704771Y-123917292D01*
X200728480Y-123938562D01*
X200762775Y-123963763D01*
X200801777Y-123988821D01*
X200839608Y-124009657D01*
X200865950Y-124020839D01*
X200911836Y-124029922D01*
X200977894Y-124034321D01*
X201043750Y-124034175D01*
X201104907Y-124031721D01*
X201146276Y-124027641D01*
X201173462Y-124020895D01*
X201192070Y-124010443D01*
X201197715Y-124005604D01*
X201218302Y-123989050D01*
X201232568Y-123990003D01*
X201246071Y-124001885D01*
X201260095Y-124025517D01*
X201260380Y-124041726D01*
X201254043Y-124061187D01*
X201253300Y-124065488D01*
X201242231Y-124069205D01*
X201215531Y-124070798D01*
X201214777Y-124070800D01*
X201181477Y-124076577D01*
X201138350Y-124091359D01*
X201112393Y-124103161D01*
X201075523Y-124123540D01*
X201057043Y-124140044D01*
X201051813Y-124158357D01*
X201052490Y-124169379D01*
X201060655Y-124192615D01*
X201082454Y-124214699D01*
X201122752Y-124240414D01*
X201127498Y-124243095D01*
X201170395Y-124265607D01*
X201209172Y-124283330D01*
X201230872Y-124291067D01*
X201261086Y-124307217D01*
X201273480Y-124331960D01*
X201264664Y-124358159D01*
X201239736Y-124373852D01*
X201213588Y-124371340D01*
X201196604Y-124351630D01*
X201196580Y-124351557D01*
X201184439Y-124335989D01*
X201156234Y-124323518D01*
X201107350Y-124312119D01*
X201106189Y-124311899D01*
X201061200Y-124304096D01*
X201034146Y-124302285D01*
X201018149Y-124307023D01*
X201006334Y-124318867D01*
X201005418Y-124320067D01*
X200993412Y-124339540D01*
X200988086Y-124361828D01*
X200988776Y-124394397D01*
X200994529Y-124442609D01*
X201003705Y-124483200D01*
X201018434Y-124503337D01*
X201026307Y-124506700D01*
X201042654Y-124516329D01*
X201041173Y-124537066D01*
X201039220Y-124542693D01*
X201020518Y-124569723D01*
X200996584Y-124577086D01*
X200975108Y-124564570D01*
X200965858Y-124544699D01*
X200955533Y-124512443D01*
X200938996Y-124469388D01*
X200928199Y-124443925D01*
X200906494Y-124402148D01*
X200885400Y-124379869D01*
X200866907Y-124372674D01*
X200848938Y-124371182D01*
X200836424Y-124378440D01*
X200825552Y-124399456D01*
X200812509Y-124439235D01*
X200810077Y-124447305D01*
X200798515Y-124493116D01*
X200792396Y-124532470D01*
X200792781Y-124554780D01*
X200790636Y-124582634D01*
X200772993Y-124599417D01*
X200748441Y-124602110D01*
X200725573Y-124587697D01*
X200720613Y-124580133D01*
X200715358Y-124555782D01*
X200727852Y-124539370D01*
X200736811Y-124528222D01*
X200741885Y-124509795D01*
X200743451Y-124479159D01*
X200741886Y-124431383D01*
X200739369Y-124388811D01*
X200735863Y-124338646D01*
X200731217Y-124298358D01*
X200723348Y-124263756D01*
X200710173Y-124230648D01*
X200689611Y-124194843D01*
X200659578Y-124152149D01*
X200617991Y-124098374D01*
X200562767Y-124029327D01*
X200557478Y-124022744D01*
X200525793Y-123984556D01*
X200501581Y-123955072D01*
X200486060Y-123931175D01*
X200480445Y-123909746D01*
X200485952Y-123887667D01*
X200503798Y-123861818D01*
X200535198Y-123829081D01*
X200581368Y-123786338D01*
X200643525Y-123730471D01*
X200686648Y-123691490D01*
X200862946Y-123531215D01*
X200757883Y-123432707D01*
X200715446Y-123393541D01*
X200679790Y-123361801D01*
X200654922Y-123340976D01*
X200645084Y-123334448D01*
X200635540Y-123344630D01*
X200615898Y-123371920D01*
X200589327Y-123411764D01*
X200567966Y-123445224D01*
X200508908Y-123528294D01*
X200434258Y-123616610D01*
X200350686Y-123703183D01*
X200264860Y-123781026D01*
X200197314Y-123833560D01*
X200127594Y-123877960D01*
X200044176Y-123923371D01*
X199955621Y-123965697D01*
X199870488Y-124000837D01*
X199799150Y-124024214D01*
X199713402Y-124042799D01*
X199616572Y-124056921D01*
X199518518Y-124065588D01*
X199429103Y-124067808D01*
X199385867Y-124065816D01*
X199233972Y-124040813D01*
X199087418Y-123992030D01*
X198948297Y-123920877D01*
X198818702Y-123828765D01*
X198700724Y-123717106D01*
X198596454Y-123587309D01*
X198536483Y-123492950D01*
X198507210Y-123442150D01*
X198542446Y-123486600D01*
X198585444Y-123536400D01*
X198640761Y-123594071D01*
X198702775Y-123654340D01*
X198765862Y-123711931D01*
X198824399Y-123761569D01*
X198872763Y-123797981D01*
X198878400Y-123801721D01*
X199004824Y-123870651D01*
X199137971Y-123918911D01*
X199274051Y-123945852D01*
X199409274Y-123950823D01*
X199539851Y-123933173D01*
X199580955Y-123922369D01*
X199660725Y-123893860D01*
X199750993Y-123853771D01*
X199842584Y-123806592D01*
X199926325Y-123756812D01*
X199946337Y-123743550D01*
X200014796Y-123693689D01*
X200076117Y-123641145D01*
X200133341Y-123582288D01*
X200189512Y-123513490D01*
X200247670Y-123431122D01*
X200310859Y-123331556D01*
X200358154Y-123252344D01*
X200432200Y-123126039D01*
X200312525Y-123014936D01*
X200267749Y-122974694D01*
X200230051Y-122943325D01*
X200202951Y-122923572D01*
X200189967Y-122918175D01*
X200189388Y-122918991D01*
X200186936Y-122936795D01*
X200182714Y-122974592D01*
X200177284Y-123027084D01*
X200171212Y-123088971D01*
X200170338Y-123098129D01*
X200154750Y-123262109D01*
X199950948Y-123065576D01*
X199881935Y-122999500D01*
X199827894Y-122949121D01*
X199785920Y-122912089D01*
X199753107Y-122886058D01*
X199726550Y-122868680D01*
X199703343Y-122857608D01*
X199686751Y-122852132D01*
X199641100Y-122844084D01*
X199584559Y-122840868D01*
X199524141Y-122842064D01*
X199466857Y-122847253D01*
X199419719Y-122856016D01*
X199389737Y-122867934D01*
X199387069Y-122870043D01*
X199366436Y-122882646D01*
X199345959Y-122875093D01*
X199342856Y-122872883D01*
X199325131Y-122848751D01*
X199327941Y-122824377D01*
X199348741Y-122808520D01*
X199362151Y-122806509D01*
X199392008Y-122801155D01*
X199432243Y-122788243D01*
X199474479Y-122771207D01*
X199510340Y-122753477D01*
X199531451Y-122738486D01*
X199532921Y-122736536D01*
X199538294Y-122706468D01*
X199518513Y-122674683D01*
X199473754Y-122641400D01*
X199447154Y-122626828D01*
X199403867Y-122605441D01*
X199367190Y-122588466D01*
X199345125Y-122579602D01*
X199326911Y-122563337D01*
X199324380Y-122536868D01*
X199338140Y-122511239D01*
X199363798Y-122496845D01*
X199384716Y-122505471D01*
X199392285Y-122519935D01*
X199407965Y-122537818D01*
X199444654Y-122554069D01*
X199478866Y-122563859D01*
X199522206Y-122574226D01*
X199548495Y-122577600D01*
X199565190Y-122573658D01*
X199579749Y-122562075D01*
X199582523Y-122559347D01*
X199599271Y-122527710D01*
X199605718Y-122483250D01*
X199602215Y-122436065D01*
X199589112Y-122396249D01*
X199576287Y-122379664D01*
X199554269Y-122350124D01*
X199556407Y-122321306D01*
X199565270Y-122309509D01*
X199587803Y-122300544D01*
X199612280Y-122306461D01*
X199626943Y-122323549D01*
X199627698Y-122329206D01*
X199632561Y-122350947D01*
X199645284Y-122387628D01*
X199662274Y-122429325D01*
X199682313Y-122472297D01*
X199698211Y-122496435D01*
X199714327Y-122506838D01*
X199730115Y-122508700D01*
X199749407Y-122506006D01*
X199763029Y-122494183D01*
X199775163Y-122467615D01*
X199786165Y-122433438D01*
X199797289Y-122388956D01*
X199802745Y-122350878D01*
X199802022Y-122331672D01*
X199804827Y-122304694D01*
X199823511Y-122288385D01*
X199849304Y-122287270D01*
X199867058Y-122298115D01*
X199880503Y-122318616D01*
X199873508Y-122341045D01*
X199871926Y-122343632D01*
X199863985Y-122370301D01*
X199858677Y-122418609D01*
X199856369Y-122484894D01*
X199856300Y-122500131D01*
X199856300Y-122631608D01*
X199954458Y-122767758D01*
X199990263Y-122817889D01*
X200017070Y-122853877D01*
X200036623Y-122874241D01*
X200050662Y-122877498D01*
X200060930Y-122862168D01*
X200069169Y-122826767D01*
X200077120Y-122769814D01*
X200086526Y-122689826D01*
X200091023Y-122651575D01*
X200099427Y-122584901D01*
X200107476Y-122528172D01*
X200114487Y-122485697D01*
X200119776Y-122461783D01*
X200121708Y-122458104D01*
X200133028Y-122466297D01*
X200160170Y-122489038D01*
X200200184Y-122523761D01*
X200250122Y-122567903D01*
X200307035Y-122618897D01*
X200318815Y-122629530D01*
X200376385Y-122681288D01*
X200427192Y-122726453D01*
X200468381Y-122762530D01*
X200497097Y-122787023D01*
X200510485Y-122797436D01*
X200511083Y-122797601D01*
X200511331Y-122784505D01*
X200510091Y-122750703D01*
X200507581Y-122700832D01*
X200504018Y-122639527D01*
X200502589Y-122616650D01*
X200499029Y-122548195D01*
X200497622Y-122483160D01*
X200498542Y-122415824D01*
X200501965Y-122340471D01*
X200508064Y-122251382D01*
X200517016Y-122142839D01*
X200517101Y-122141862D01*
X200524220Y-122057940D01*
X200530255Y-121982878D01*
X200534948Y-121920233D01*
X200538040Y-121873560D01*
X200539273Y-121846417D01*
X200538988Y-121840954D01*
X200527089Y-121845274D01*
X200497466Y-121859906D01*
X200454473Y-121882606D01*
X200402465Y-121911130D01*
X200397917Y-121913667D01*
X200345449Y-121942523D01*
X200301725Y-121965695D01*
X200271069Y-121980956D01*
X200257803Y-121986078D01*
X200257616Y-121985975D01*
X200237327Y-121960222D01*
X200205400Y-121922131D01*
X200165149Y-121875416D01*
X200119886Y-121823791D01*
X200072926Y-121770970D01*
X200027580Y-121720667D01*
X199987163Y-121676596D01*
X199954988Y-121642470D01*
X199934367Y-121622004D01*
X199929372Y-121618026D01*
X199886066Y-121598180D01*
X199835672Y-121580003D01*
X199785080Y-121565384D01*
X199741179Y-121556210D01*
X199710857Y-121554370D01*
X199703858Y-121556222D01*
X199678879Y-121558383D01*
X199660010Y-121543098D01*
X199655677Y-121518218D01*
X199657276Y-121512834D01*
X199666239Y-121503451D01*
X199687184Y-121499194D01*
X199725167Y-121499504D01*
X199758374Y-121501660D01*
X199806577Y-121504864D01*
X199835295Y-121504548D01*
X199850347Y-121499407D01*
X199857553Y-121488136D01*
X199860294Y-121478797D01*
X199861213Y-121450641D01*
X199847785Y-121419205D01*
X199817631Y-121380287D01*
X199785306Y-121346352D01*
X199756490Y-121310940D01*
X199747746Y-121283914D01*
X199759240Y-121267707D01*
X199779701Y-121264100D01*
X199801406Y-121272952D01*
X199805522Y-121286325D01*
X199816272Y-121307368D01*
X199843191Y-121331479D01*
X199878337Y-121353735D01*
X199913765Y-121369215D01*
X199941536Y-121373000D01*
X199944327Y-121372326D01*
X199964459Y-121354677D01*
X199981788Y-121321074D01*
X199993375Y-121280960D01*
X199996278Y-121243780D01*
X199990775Y-121223141D01*
X199984760Y-121198657D01*
X199992289Y-121186530D01*
X200015176Y-121176958D01*
X200035915Y-121186782D01*
X200045483Y-121210944D01*
X200045337Y-121216273D01*
X200044253Y-121245843D01*
X200044328Y-121288178D01*
X200044824Y-121310243D01*
X200047924Y-121350675D01*
X200055669Y-121372301D01*
X200070455Y-121381617D01*
X200071233Y-121381826D01*
X200093788Y-121376149D01*
X200121993Y-121353866D01*
X200150127Y-121321085D01*
X200172466Y-121283913D01*
X200179435Y-121266350D01*
X200194931Y-121243779D01*
X200216036Y-121241134D01*
X200239453Y-121252634D01*
X200247321Y-121272096D01*
X200237543Y-121290056D01*
X200227930Y-121294792D01*
X200213385Y-121309956D01*
X200195517Y-121343496D01*
X200176629Y-121389017D01*
X200159025Y-121440127D01*
X200145009Y-121490432D01*
X200136885Y-121533538D01*
X200135752Y-121550606D01*
X200143653Y-121582520D01*
X200166229Y-121630604D01*
X200201888Y-121691517D01*
X200206230Y-121698371D01*
X200276655Y-121808792D01*
X200412552Y-121737703D01*
X200466038Y-121709472D01*
X200511262Y-121685129D01*
X200543464Y-121667270D01*
X200557881Y-121658489D01*
X200557889Y-121658482D01*
X200560779Y-121643248D01*
X200561334Y-121608246D01*
X200559605Y-121558997D01*
X200556511Y-121511748D01*
X200552100Y-121447974D01*
X200550905Y-121403072D01*
X200553347Y-121370671D01*
X200559844Y-121344398D01*
X200569018Y-121321798D01*
X200583996Y-121279579D01*
X200592144Y-121238687D01*
X200592621Y-121230106D01*
X200598970Y-121196906D01*
X200612930Y-121185656D01*
X200626269Y-121172905D01*
X200646877Y-121141243D01*
X200672088Y-121095136D01*
X200695016Y-121048200D01*
X200733707Y-120970369D01*
X200767056Y-120917000D01*
X200796690Y-120888130D01*
X200824235Y-120883795D01*
X200851318Y-120904032D01*
G36*
X200851318Y-120904032D02*
G01*
X200879566Y-120948878D01*
X200910606Y-121018368D01*
X200924278Y-121053363D01*
X200946844Y-121109544D01*
X200967741Y-121155842D01*
X200984739Y-121187691D01*
X200995612Y-121200526D01*
X200996125Y-121200595D01*
X201007513Y-121212147D01*
X201011992Y-121243160D01*
X201012000Y-121244792D01*
X201016997Y-121286612D01*
X201029270Y-121331809D01*
X201031708Y-121338243D01*
X201040080Y-121362436D01*
X201044426Y-121387074D01*
X201044778Y-121418171D01*
X201041165Y-121461743D01*
X201033616Y-121523805D01*
X201032658Y-121531171D01*
X201013898Y-121674841D01*
X201154872Y-121859995D01*
X201199855Y-121919074D01*
X201239325Y-121970909D01*
X201270787Y-122012224D01*
X201291748Y-122039744D01*
X201299674Y-122050143D01*
X201313704Y-122050137D01*
X201345604Y-122043278D01*
X201389384Y-122031427D01*
X201439058Y-122016447D01*
X201488637Y-122000200D01*
X201532132Y-121984549D01*
X201563556Y-121971356D01*
X201575376Y-121964398D01*
X201596102Y-121938792D01*
X201620849Y-121897920D01*
X201645846Y-121849484D01*
X201667324Y-121801187D01*
X201681511Y-121760730D01*
X201685100Y-121740268D01*
X201693261Y-121711887D01*
X201712639Y-121698151D01*
X201735574Y-121703704D01*
X201739610Y-121707230D01*
X201747711Y-121725419D01*
X201738756Y-121746844D01*
X201729490Y-121774125D01*
X201723922Y-121814532D01*
X201723200Y-121834571D01*
X201726946Y-121878386D01*
X201739701Y-121902353D01*
X201763732Y-121906956D01*
X201801311Y-121892678D01*
X201851845Y-121861918D01*
X201896550Y-121832694D01*
X201925006Y-121816692D01*
X201941757Y-121812548D01*
X201951347Y-121818898D01*
X201956832Y-121830396D01*
X201958613Y-121858223D01*
X201939343Y-121872436D01*
X201926717Y-121873700D01*
X201904223Y-121883822D01*
X201876807Y-121909034D01*
X201850696Y-121941604D01*
X201832118Y-121973800D01*
X201827172Y-121997289D01*
X201840575Y-122015955D01*
X201868790Y-122036072D01*
X201903392Y-122053490D01*
X201935955Y-122064061D01*
X201958055Y-122063635D01*
X201959715Y-122062560D01*
X201981588Y-122056743D01*
X202004269Y-122064223D01*
X202015097Y-122080685D01*
X202015105Y-122081433D01*
X202006737Y-122111269D01*
X201985707Y-122121722D01*
X201966950Y-122116311D01*
X201934941Y-122106136D01*
X201894157Y-122101960D01*
X201853043Y-122103474D01*
X201820045Y-122110373D01*
X201803648Y-122122245D01*
X201807824Y-122141525D01*
X201825994Y-122169735D01*
X201852145Y-122200156D01*
X201880265Y-122226069D01*
X201904341Y-122240755D01*
X201910810Y-122242000D01*
X201923501Y-122250785D01*
X201923970Y-122270531D01*
X201914464Y-122291321D01*
X201897228Y-122303239D01*
X201896924Y-122303299D01*
X201874724Y-122297040D01*
X201867287Y-122282805D01*
X201853162Y-122266503D01*
X201821302Y-122244374D01*
X201777773Y-122219464D01*
X201728638Y-122194819D01*
X201679963Y-122173484D01*
X201637813Y-122158507D01*
X201608696Y-122152933D01*
X201585049Y-122154720D01*
X201541811Y-122159741D01*
X201484485Y-122167294D01*
X201418573Y-122176677D01*
X201395794Y-122180069D01*
X201331186Y-122189436D01*
X201276188Y-122196728D01*
X201235344Y-122201395D01*
X201213198Y-122202888D01*
X201210582Y-122202461D01*
X201202850Y-122190453D01*
X201184297Y-122160898D01*
X201157459Y-122117852D01*
X201124868Y-122065373D01*
X201114033Y-122047887D01*
X201080281Y-121994209D01*
X201051348Y-121949739D01*
X201029750Y-121918227D01*
X201018004Y-121903425D01*
X201016718Y-121902847D01*
X201016221Y-121916252D01*
X201017225Y-121951575D01*
X201019569Y-122005393D01*
X201023092Y-122074278D01*
X201027630Y-122154805D01*
X201032195Y-122230310D01*
X201052293Y-122553150D01*
X200924235Y-122798899D01*
X200887146Y-122871453D01*
X200855074Y-122936857D01*
X200829605Y-122991654D01*
X200812321Y-123032389D01*
X200804808Y-123055605D01*
X200804914Y-123059249D01*
X200814650Y-123073371D01*
X200837103Y-123104880D01*
X200870019Y-123150643D01*
X200911142Y-123207531D01*
X200958217Y-123272410D01*
X200982930Y-123306386D01*
X201031738Y-123373707D01*
X201075293Y-123434305D01*
X201111431Y-123485125D01*
X201137987Y-123523114D01*
X201152797Y-123545217D01*
X201155128Y-123549381D01*
X201146186Y-123559580D01*
X201119520Y-123582363D01*
X201078007Y-123615460D01*
X201024525Y-123656601D01*
X200961953Y-123703513D01*
X200929450Y-123727476D01*
X200863158Y-123776368D01*
X200804118Y-123820442D01*
X200755304Y-123857436D01*
X200719686Y-123885088D01*
X200700237Y-123901136D01*
X200697524Y-123904032D01*
X200704771Y-123917292D01*
X200728480Y-123938562D01*
X200762775Y-123963763D01*
X200801777Y-123988821D01*
X200839608Y-124009657D01*
X200865950Y-124020839D01*
X200911836Y-124029922D01*
X200977894Y-124034321D01*
X201043750Y-124034175D01*
X201104907Y-124031721D01*
X201146276Y-124027641D01*
X201173462Y-124020895D01*
X201192070Y-124010443D01*
X201197715Y-124005604D01*
X201218302Y-123989050D01*
X201232568Y-123990003D01*
X201246071Y-124001885D01*
X201260095Y-124025517D01*
X201260380Y-124041726D01*
X201254043Y-124061187D01*
X201253300Y-124065488D01*
X201242231Y-124069205D01*
X201215531Y-124070798D01*
X201214777Y-124070800D01*
X201181477Y-124076577D01*
X201138350Y-124091359D01*
X201112393Y-124103161D01*
X201075523Y-124123540D01*
X201057043Y-124140044D01*
X201051813Y-124158357D01*
X201052490Y-124169379D01*
X201060655Y-124192615D01*
X201082454Y-124214699D01*
X201122752Y-124240414D01*
X201127498Y-124243095D01*
X201170395Y-124265607D01*
X201209172Y-124283330D01*
X201230872Y-124291067D01*
X201261086Y-124307217D01*
X201273480Y-124331960D01*
X201264664Y-124358159D01*
X201239736Y-124373852D01*
X201213588Y-124371340D01*
X201196604Y-124351630D01*
X201196580Y-124351557D01*
X201184439Y-124335989D01*
X201156234Y-124323518D01*
X201107350Y-124312119D01*
X201106189Y-124311899D01*
X201061200Y-124304096D01*
X201034146Y-124302285D01*
X201018149Y-124307023D01*
X201006334Y-124318867D01*
X201005418Y-124320067D01*
X200993412Y-124339540D01*
X200988086Y-124361828D01*
X200988776Y-124394397D01*
X200994529Y-124442609D01*
X201003705Y-124483200D01*
X201018434Y-124503337D01*
X201026307Y-124506700D01*
X201042654Y-124516329D01*
X201041173Y-124537066D01*
X201039220Y-124542693D01*
X201020518Y-124569723D01*
X200996584Y-124577086D01*
X200975108Y-124564570D01*
X200965858Y-124544699D01*
X200955533Y-124512443D01*
X200938996Y-124469388D01*
X200928199Y-124443925D01*
X200906494Y-124402148D01*
X200885400Y-124379869D01*
X200866907Y-124372674D01*
X200848938Y-124371182D01*
X200836424Y-124378440D01*
X200825552Y-124399456D01*
X200812509Y-124439235D01*
X200810077Y-124447305D01*
X200798515Y-124493116D01*
X200792396Y-124532470D01*
X200792781Y-124554780D01*
X200790636Y-124582634D01*
X200772993Y-124599417D01*
X200748441Y-124602110D01*
X200725573Y-124587697D01*
X200720613Y-124580133D01*
X200715358Y-124555782D01*
X200727852Y-124539370D01*
X200736811Y-124528222D01*
X200741885Y-124509795D01*
X200743451Y-124479159D01*
X200741886Y-124431383D01*
X200739369Y-124388811D01*
X200735863Y-124338646D01*
X200731217Y-124298358D01*
X200723348Y-124263756D01*
X200710173Y-124230648D01*
X200689611Y-124194843D01*
X200659578Y-124152149D01*
X200617991Y-124098374D01*
X200562767Y-124029327D01*
X200557478Y-124022744D01*
X200525793Y-123984556D01*
X200501581Y-123955072D01*
X200486060Y-123931175D01*
X200480445Y-123909746D01*
X200485952Y-123887667D01*
X200503798Y-123861818D01*
X200535198Y-123829081D01*
X200581368Y-123786338D01*
X200643525Y-123730471D01*
X200686648Y-123691490D01*
X200862946Y-123531215D01*
X200757883Y-123432707D01*
X200715446Y-123393541D01*
X200679790Y-123361801D01*
X200654922Y-123340976D01*
X200645084Y-123334448D01*
X200635540Y-123344630D01*
X200615898Y-123371920D01*
X200589327Y-123411764D01*
X200567966Y-123445224D01*
X200508908Y-123528294D01*
X200434258Y-123616610D01*
X200350686Y-123703183D01*
X200264860Y-123781026D01*
X200197314Y-123833560D01*
X200127594Y-123877960D01*
X200044176Y-123923371D01*
X199955621Y-123965697D01*
X199870488Y-124000837D01*
X199799150Y-124024214D01*
X199713402Y-124042799D01*
X199616572Y-124056921D01*
X199518518Y-124065588D01*
X199429103Y-124067808D01*
X199385867Y-124065816D01*
X199233972Y-124040813D01*
X199087418Y-123992030D01*
X198948297Y-123920877D01*
X198818702Y-123828765D01*
X198700724Y-123717106D01*
X198596454Y-123587309D01*
X198536483Y-123492950D01*
X198507210Y-123442150D01*
X198542446Y-123486600D01*
X198585444Y-123536400D01*
X198640761Y-123594071D01*
X198702775Y-123654340D01*
X198765862Y-123711931D01*
X198824399Y-123761569D01*
X198872763Y-123797981D01*
X198878400Y-123801721D01*
X199004824Y-123870651D01*
X199137971Y-123918911D01*
X199274051Y-123945852D01*
X199409274Y-123950823D01*
X199539851Y-123933173D01*
X199580955Y-123922369D01*
X199660725Y-123893860D01*
X199750993Y-123853771D01*
X199842584Y-123806592D01*
X199926325Y-123756812D01*
X199946337Y-123743550D01*
X200014796Y-123693689D01*
X200076117Y-123641145D01*
X200133341Y-123582288D01*
X200189512Y-123513490D01*
X200247670Y-123431122D01*
X200310859Y-123331556D01*
X200358154Y-123252344D01*
X200432200Y-123126039D01*
X200312525Y-123014936D01*
X200267749Y-122974694D01*
X200230051Y-122943325D01*
X200202951Y-122923572D01*
X200189967Y-122918175D01*
X200189388Y-122918991D01*
X200186936Y-122936795D01*
X200182714Y-122974592D01*
X200177284Y-123027084D01*
X200171212Y-123088971D01*
X200170338Y-123098129D01*
X200154750Y-123262109D01*
X199950948Y-123065576D01*
X199881935Y-122999500D01*
X199827894Y-122949121D01*
X199785920Y-122912089D01*
X199753107Y-122886058D01*
X199726550Y-122868680D01*
X199703343Y-122857608D01*
X199686751Y-122852132D01*
X199641100Y-122844084D01*
X199584559Y-122840868D01*
X199524141Y-122842064D01*
X199466857Y-122847253D01*
X199419719Y-122856016D01*
X199389737Y-122867934D01*
X199387069Y-122870043D01*
X199366436Y-122882646D01*
X199345959Y-122875093D01*
X199342856Y-122872883D01*
X199325131Y-122848751D01*
X199327941Y-122824377D01*
X199348741Y-122808520D01*
X199362151Y-122806509D01*
X199392008Y-122801155D01*
X199432243Y-122788243D01*
X199474479Y-122771207D01*
X199510340Y-122753477D01*
X199531451Y-122738486D01*
X199532921Y-122736536D01*
X199538294Y-122706468D01*
X199518513Y-122674683D01*
X199473754Y-122641400D01*
X199447154Y-122626828D01*
X199403867Y-122605441D01*
X199367190Y-122588466D01*
X199345125Y-122579602D01*
X199326911Y-122563337D01*
X199324380Y-122536868D01*
X199338140Y-122511239D01*
X199363798Y-122496845D01*
X199384716Y-122505471D01*
X199392285Y-122519935D01*
X199407965Y-122537818D01*
X199444654Y-122554069D01*
X199478866Y-122563859D01*
X199522206Y-122574226D01*
X199548495Y-122577600D01*
X199565190Y-122573658D01*
X199579749Y-122562075D01*
X199582523Y-122559347D01*
X199599271Y-122527710D01*
X199605718Y-122483250D01*
X199602215Y-122436065D01*
X199589112Y-122396249D01*
X199576287Y-122379664D01*
X199554269Y-122350124D01*
X199556407Y-122321306D01*
X199565270Y-122309509D01*
X199587803Y-122300544D01*
X199612280Y-122306461D01*
X199626943Y-122323549D01*
X199627698Y-122329206D01*
X199632561Y-122350947D01*
X199645284Y-122387628D01*
X199662274Y-122429325D01*
X199682313Y-122472297D01*
X199698211Y-122496435D01*
X199714327Y-122506838D01*
X199730115Y-122508700D01*
X199749407Y-122506006D01*
X199763029Y-122494183D01*
X199775163Y-122467615D01*
X199786165Y-122433438D01*
X199797289Y-122388956D01*
X199802745Y-122350878D01*
X199802022Y-122331672D01*
X199804827Y-122304694D01*
X199823511Y-122288385D01*
X199849304Y-122287270D01*
X199867058Y-122298115D01*
X199880503Y-122318616D01*
X199873508Y-122341045D01*
X199871926Y-122343632D01*
X199863985Y-122370301D01*
X199858677Y-122418609D01*
X199856369Y-122484894D01*
X199856300Y-122500131D01*
X199856300Y-122631608D01*
X199954458Y-122767758D01*
X199990263Y-122817889D01*
X200017070Y-122853877D01*
X200036623Y-122874241D01*
X200050662Y-122877498D01*
X200060930Y-122862168D01*
X200069169Y-122826767D01*
X200077120Y-122769814D01*
X200086526Y-122689826D01*
X200091023Y-122651575D01*
X200099427Y-122584901D01*
X200107476Y-122528172D01*
X200114487Y-122485697D01*
X200119776Y-122461783D01*
X200121708Y-122458104D01*
X200133028Y-122466297D01*
X200160170Y-122489038D01*
X200200184Y-122523761D01*
X200250122Y-122567903D01*
X200307035Y-122618897D01*
X200318815Y-122629530D01*
X200376385Y-122681288D01*
X200427192Y-122726453D01*
X200468381Y-122762530D01*
X200497097Y-122787023D01*
X200510485Y-122797436D01*
X200511083Y-122797601D01*
X200511331Y-122784505D01*
X200510091Y-122750703D01*
X200507581Y-122700832D01*
X200504018Y-122639527D01*
X200502589Y-122616650D01*
X200499029Y-122548195D01*
X200497622Y-122483160D01*
X200498542Y-122415824D01*
X200501965Y-122340471D01*
X200508064Y-122251382D01*
X200517016Y-122142839D01*
X200517101Y-122141862D01*
X200524220Y-122057940D01*
X200530255Y-121982878D01*
X200534948Y-121920233D01*
X200538040Y-121873560D01*
X200539273Y-121846417D01*
X200538988Y-121840954D01*
X200527089Y-121845274D01*
X200497466Y-121859906D01*
X200454473Y-121882606D01*
X200402465Y-121911130D01*
X200397917Y-121913667D01*
X200345449Y-121942523D01*
X200301725Y-121965695D01*
X200271069Y-121980956D01*
X200257803Y-121986078D01*
X200257616Y-121985975D01*
X200237327Y-121960222D01*
X200205400Y-121922131D01*
X200165149Y-121875416D01*
X200119886Y-121823791D01*
X200072926Y-121770970D01*
X200027580Y-121720667D01*
X199987163Y-121676596D01*
X199954988Y-121642470D01*
X199934367Y-121622004D01*
X199929372Y-121618026D01*
X199886066Y-121598180D01*
X199835672Y-121580003D01*
X199785080Y-121565384D01*
X199741179Y-121556210D01*
X199710857Y-121554370D01*
X199703858Y-121556222D01*
X199678879Y-121558383D01*
X199660010Y-121543098D01*
X199655677Y-121518218D01*
X199657276Y-121512834D01*
X199666239Y-121503451D01*
X199687184Y-121499194D01*
X199725167Y-121499504D01*
X199758374Y-121501660D01*
X199806577Y-121504864D01*
X199835295Y-121504548D01*
X199850347Y-121499407D01*
X199857553Y-121488136D01*
X199860294Y-121478797D01*
X199861213Y-121450641D01*
X199847785Y-121419205D01*
X199817631Y-121380287D01*
X199785306Y-121346352D01*
X199756490Y-121310940D01*
X199747746Y-121283914D01*
X199759240Y-121267707D01*
X199779701Y-121264100D01*
X199801406Y-121272952D01*
X199805522Y-121286325D01*
X199816272Y-121307368D01*
X199843191Y-121331479D01*
X199878337Y-121353735D01*
X199913765Y-121369215D01*
X199941536Y-121373000D01*
X199944327Y-121372326D01*
X199964459Y-121354677D01*
X199981788Y-121321074D01*
X199993375Y-121280960D01*
X199996278Y-121243780D01*
X199990775Y-121223141D01*
X199984760Y-121198657D01*
X199992289Y-121186530D01*
X200015176Y-121176958D01*
X200035915Y-121186782D01*
X200045483Y-121210944D01*
X200045337Y-121216273D01*
X200044253Y-121245843D01*
X200044328Y-121288178D01*
X200044824Y-121310243D01*
X200047924Y-121350675D01*
X200055669Y-121372301D01*
X200070455Y-121381617D01*
X200071233Y-121381826D01*
X200093788Y-121376149D01*
X200121993Y-121353866D01*
X200150127Y-121321085D01*
X200172466Y-121283913D01*
X200179435Y-121266350D01*
X200194931Y-121243779D01*
X200216036Y-121241134D01*
X200239453Y-121252634D01*
X200247321Y-121272096D01*
X200237543Y-121290056D01*
X200227930Y-121294792D01*
X200213385Y-121309956D01*
X200195517Y-121343496D01*
X200176629Y-121389017D01*
X200159025Y-121440127D01*
X200145009Y-121490432D01*
X200136885Y-121533538D01*
X200135752Y-121550606D01*
X200143653Y-121582520D01*
X200166229Y-121630604D01*
X200201888Y-121691517D01*
X200206230Y-121698371D01*
X200276655Y-121808792D01*
X200412552Y-121737703D01*
X200466038Y-121709472D01*
X200511262Y-121685129D01*
X200543464Y-121667270D01*
X200557881Y-121658489D01*
X200557889Y-121658482D01*
X200560779Y-121643248D01*
X200561334Y-121608246D01*
X200559605Y-121558997D01*
X200556511Y-121511748D01*
X200552100Y-121447974D01*
X200550905Y-121403072D01*
X200553347Y-121370671D01*
X200559844Y-121344398D01*
X200569018Y-121321798D01*
X200583996Y-121279579D01*
X200592144Y-121238687D01*
X200592621Y-121230106D01*
X200598970Y-121196906D01*
X200612930Y-121185656D01*
X200626269Y-121172905D01*
X200646877Y-121141243D01*
X200672088Y-121095136D01*
X200695016Y-121048200D01*
X200733707Y-120970369D01*
X200767056Y-120917000D01*
X200796690Y-120888130D01*
X200824235Y-120883795D01*
X200851318Y-120904032D01*
G37*
D11*
X106650000Y-125005000D03*
X106650000Y-123255000D03*
X111050000Y-125005000D03*
X111050000Y-123255000D03*
D12*
X122700000Y-58625000D03*
X122700000Y-60375000D03*
X118300000Y-58625000D03*
X118300000Y-60375000D03*
D11*
X156300000Y-54665000D03*
X156300000Y-52915000D03*
X160700000Y-54665000D03*
X160700000Y-52915000D03*
D12*
X199700000Y-60375000D03*
X199700000Y-62125000D03*
X195300000Y-60375000D03*
X195300000Y-62125000D03*
D11*
X146883600Y-119137600D03*
X146883600Y-117387600D03*
X151283600Y-119137600D03*
X151283600Y-117387600D03*
X182850000Y-121195000D03*
X182850000Y-119445000D03*
X187250000Y-121195000D03*
X187250000Y-119445000D03*
X103550000Y-87375000D03*
X103550000Y-85625000D03*
X107950000Y-87375000D03*
X107950000Y-85625000D03*
D13*
X107900000Y-81100000D03*
D14*
X107900000Y-78600000D03*
X107900000Y-76000000D03*
D15*
X112500000Y-85600000D03*
X112500000Y-83000000D03*
D16*
X112500000Y-80500000D03*
D17*
X218200000Y-47775000D03*
X218200000Y-46025000D03*
X213400000Y-47775000D03*
X213400000Y-46025000D03*
D18*
X213260000Y-57480000D03*
D19*
X215800000Y-52400000D03*
D18*
X219610000Y-54940000D03*
D20*
X220300000Y-52400000D03*
D21*
X208800000Y-54980000D03*
X221500000Y-57520000D03*
D18*
X218340000Y-57480000D03*
D20*
X211300000Y-52400000D03*
D22*
X210720000Y-52400000D03*
D18*
X211990000Y-54940001D03*
D22*
X220880000Y-52400000D03*
X163680000Y-102190000D03*
D18*
X154790000Y-104730001D03*
D22*
X153520000Y-102190000D03*
D20*
X154100000Y-102190000D03*
D18*
X161140000Y-107270000D03*
D21*
X164300000Y-107310000D03*
X151600000Y-104770000D03*
D20*
X163100000Y-102190000D03*
D18*
X162410000Y-104730000D03*
D19*
X158600000Y-102190000D03*
D18*
X156060000Y-107270000D03*
D17*
X156200000Y-95815000D03*
X156200000Y-97565000D03*
X161000000Y-95815000D03*
X161000000Y-97565000D03*
D22*
X201780000Y-109500000D03*
D18*
X192890000Y-112040001D03*
D22*
X191620000Y-109500000D03*
D20*
X192200000Y-109500000D03*
D18*
X199240000Y-114580000D03*
D21*
X202400000Y-114620000D03*
X189700000Y-112080000D03*
D20*
X201200000Y-109500000D03*
D18*
X200510000Y-112040000D03*
D19*
X196700000Y-109500000D03*
D18*
X194160000Y-114580000D03*
D17*
X194300000Y-103125000D03*
X194300000Y-104875000D03*
X199100000Y-103125000D03*
X199100000Y-104875000D03*
D22*
X220780000Y-71300000D03*
D18*
X211890000Y-73840001D03*
D22*
X210620000Y-71300000D03*
D20*
X211200000Y-71300000D03*
D18*
X218240000Y-76380000D03*
D21*
X221400000Y-76420000D03*
X208700000Y-73880000D03*
D20*
X220200000Y-71300000D03*
D18*
X219510000Y-73840000D03*
D19*
X215700000Y-71300000D03*
D18*
X213160000Y-76380000D03*
D17*
X213300000Y-64925000D03*
X213300000Y-66675000D03*
X218100000Y-64925000D03*
X218100000Y-66675000D03*
D22*
X201780000Y-71300000D03*
D18*
X192890000Y-73840001D03*
D22*
X191620000Y-71300000D03*
D20*
X192200000Y-71300000D03*
D18*
X199240000Y-76380000D03*
D21*
X202400000Y-76420000D03*
X189700000Y-73880000D03*
D20*
X201200000Y-71300000D03*
D18*
X200510000Y-73840000D03*
D19*
X196700000Y-71300000D03*
D18*
X194160000Y-76380000D03*
D17*
X194300000Y-64925000D03*
X194300000Y-66675000D03*
X199100000Y-64925000D03*
X199100000Y-66675000D03*
D22*
X201780000Y-90500000D03*
D18*
X192890000Y-93040001D03*
D22*
X191620000Y-90500000D03*
D20*
X192200000Y-90500000D03*
D18*
X199240000Y-95580000D03*
D21*
X202400000Y-95620000D03*
X189700000Y-93080000D03*
D20*
X201200000Y-90500000D03*
D18*
X200510000Y-93040000D03*
D19*
X196700000Y-90500000D03*
D18*
X194160000Y-95580000D03*
D17*
X194300000Y-84125000D03*
X194300000Y-85875000D03*
X199100000Y-84125000D03*
X199100000Y-85875000D03*
D22*
X144580000Y-47500000D03*
D18*
X135690000Y-50040001D03*
D22*
X134420000Y-47500000D03*
D20*
X135000000Y-47500000D03*
D18*
X142040000Y-52580000D03*
D21*
X145200000Y-52620000D03*
X132500000Y-50080000D03*
D20*
X144000000Y-47500000D03*
D18*
X143310000Y-50040000D03*
D19*
X139500000Y-47500000D03*
D18*
X136960000Y-52580000D03*
D17*
X137100000Y-41125000D03*
X137100000Y-42875000D03*
X141900000Y-41125000D03*
X141900000Y-42875000D03*
D23*
X124030000Y-119020000D03*
X127580000Y-119020000D03*
X127550000Y-121600000D03*
X124000000Y-121600000D03*
X124000000Y-124200000D03*
X127550000Y-124200000D03*
X108649800Y-120624800D03*
X112199800Y-120624800D03*
X99025000Y-123600000D03*
X102575000Y-123600000D03*
X105225000Y-97000000D03*
X108775000Y-97000000D03*
D24*
X208200000Y-103400000D03*
X208200000Y-106950000D03*
X188500000Y-104975000D03*
X188500000Y-108525000D03*
X169250000Y-100375000D03*
X169250000Y-103925000D03*
X150000000Y-96790000D03*
X150000000Y-100340000D03*
X131000000Y-101400000D03*
X131000000Y-104950000D03*
X112000000Y-100975000D03*
X112000000Y-104525000D03*
X207750000Y-84500000D03*
X207750000Y-88050000D03*
X188500000Y-87000000D03*
X188500000Y-90550000D03*
X169725000Y-81650000D03*
X169725000Y-85200000D03*
X149750000Y-79790000D03*
X149750000Y-83340000D03*
X131250000Y-81900000D03*
X131250000Y-85450000D03*
X128500000Y-82000000D03*
X128500000Y-85550000D03*
X207750000Y-65500000D03*
X207750000Y-69050000D03*
X188250000Y-65000000D03*
X188250000Y-68550000D03*
X169500000Y-61875000D03*
X169500000Y-65425000D03*
X150250000Y-59290000D03*
X150250000Y-62840000D03*
X129800000Y-62025000D03*
X129800000Y-65575000D03*
X126800000Y-62000000D03*
X126800000Y-65550000D03*
X207750000Y-48250000D03*
X207750000Y-51800000D03*
X188000000Y-48475000D03*
X188000000Y-52025000D03*
X169250000Y-43650000D03*
X169250000Y-47200000D03*
X150500000Y-41265000D03*
X150500000Y-44815000D03*
X131000000Y-44005500D03*
X131000000Y-47555500D03*
X128750000Y-44000000D03*
X128750000Y-47550000D03*
D22*
X182680000Y-123800000D03*
D18*
X173790000Y-126340001D03*
D22*
X172520000Y-123800000D03*
D20*
X173100000Y-123800000D03*
D18*
X180140000Y-128880000D03*
D21*
X183300000Y-128920000D03*
X170600000Y-126380000D03*
D20*
X182100000Y-123800000D03*
D18*
X181410000Y-126340000D03*
D19*
X177600000Y-123800000D03*
D18*
X175060000Y-128880000D03*
D17*
X175200000Y-117425000D03*
X175200000Y-119175000D03*
X180000000Y-117425000D03*
X180000000Y-119175000D03*
D22*
X163680000Y-121290000D03*
D18*
X154790000Y-123830001D03*
D22*
X153520000Y-121290000D03*
D20*
X154100000Y-121290000D03*
D18*
X161140000Y-126370000D03*
D21*
X164300000Y-126410000D03*
X151600000Y-123870000D03*
D20*
X163100000Y-121290000D03*
D18*
X162410000Y-123830000D03*
D19*
X158600000Y-121290000D03*
D18*
X156060000Y-126370000D03*
D17*
X156200000Y-114915000D03*
X156200000Y-116665000D03*
X161000000Y-114915000D03*
X161000000Y-116665000D03*
D22*
X144580000Y-123700000D03*
D18*
X135690000Y-126240001D03*
D22*
X134420000Y-123700000D03*
D20*
X135000000Y-123700000D03*
D18*
X142040000Y-128780000D03*
D21*
X145200000Y-128820000D03*
X132500000Y-126280000D03*
D20*
X144000000Y-123700000D03*
D18*
X143310000Y-126240000D03*
D19*
X139500000Y-123700000D03*
D18*
X136960000Y-128780000D03*
D17*
X137100000Y-117325000D03*
X137100000Y-119075000D03*
X141900000Y-117325000D03*
X141900000Y-119075000D03*
D22*
X122506903Y-127085199D03*
D18*
X114577223Y-131839553D03*
D22*
X112693097Y-129714801D03*
D20*
X113253334Y-129564686D03*
D18*
X121368252Y-132649503D03*
D25*
X124430931Y-131870272D03*
X111506272Y-132703822D03*
D20*
X121946666Y-127235314D03*
D18*
X121937578Y-129867351D03*
D19*
X117600000Y-128400000D03*
D18*
X116461349Y-133964304D03*
D26*
X113631807Y-122863389D03*
X114084740Y-124553759D03*
X118268251Y-121621057D03*
X118721184Y-123311427D03*
D22*
X99250000Y-137799409D03*
D18*
X92605295Y-131370444D03*
D22*
X94170000Y-129000591D03*
D20*
X94460000Y-129502886D03*
D18*
X93580591Y-138139705D03*
D27*
X95125950Y-140896345D03*
X90975654Y-128627822D03*
D20*
X98960000Y-137297114D03*
D18*
X96415295Y-137969557D03*
D19*
X96750000Y-133330000D03*
D18*
X91040591Y-133740295D03*
D28*
X101030912Y-128134039D03*
X99515367Y-129009039D03*
X103430912Y-132290961D03*
X101915367Y-133165961D03*
D22*
X220830000Y-109500000D03*
D18*
X211940000Y-112040001D03*
D22*
X210670000Y-109500000D03*
D20*
X211250000Y-109500000D03*
D18*
X218290000Y-114580000D03*
D21*
X221450000Y-114620000D03*
X208750000Y-112080000D03*
D20*
X220250000Y-109500000D03*
D18*
X219560000Y-112040000D03*
D19*
X215750000Y-109500000D03*
D18*
X213210000Y-114580000D03*
D17*
X213350000Y-103125000D03*
X213350000Y-104875000D03*
X218150000Y-103125000D03*
X218150000Y-104875000D03*
D22*
X182680000Y-104700000D03*
D18*
X173790000Y-107240001D03*
D22*
X172520000Y-104700000D03*
D20*
X173100000Y-104700000D03*
D18*
X180140000Y-109780000D03*
D21*
X183300000Y-109820000D03*
X170600000Y-107280000D03*
D20*
X182100000Y-104700000D03*
D18*
X181410000Y-107240000D03*
D19*
X177600000Y-104700000D03*
D18*
X175060000Y-109780000D03*
D17*
X175200000Y-98325000D03*
X175200000Y-100075000D03*
X180000000Y-98325000D03*
X180000000Y-100075000D03*
D22*
X144580000Y-104700000D03*
D18*
X135690000Y-107240001D03*
D22*
X134420000Y-104700000D03*
D20*
X135000000Y-104700000D03*
D18*
X142040000Y-109780000D03*
D21*
X145200000Y-109820000D03*
X132500000Y-107280000D03*
D20*
X144000000Y-104700000D03*
D18*
X143310000Y-107240000D03*
D19*
X139500000Y-104700000D03*
D18*
X136960000Y-109780000D03*
D17*
X137100000Y-98325000D03*
X137100000Y-100075000D03*
X141900000Y-98325000D03*
X141900000Y-100075000D03*
D22*
X125580000Y-107100000D03*
D18*
X116690000Y-109640001D03*
D22*
X115420000Y-107100000D03*
D20*
X116000000Y-107100000D03*
D18*
X123040000Y-112180000D03*
D21*
X126200000Y-112220000D03*
X113500000Y-109680000D03*
D20*
X125000000Y-107100000D03*
D18*
X124310000Y-109640000D03*
D19*
X120500000Y-107100000D03*
D18*
X117960000Y-112180000D03*
D17*
X118100000Y-100725000D03*
X118100000Y-102475000D03*
X122900000Y-100725000D03*
X122900000Y-102475000D03*
D22*
X220780000Y-90500000D03*
D18*
X211890000Y-93040001D03*
D22*
X210620000Y-90500000D03*
D20*
X211200000Y-90500000D03*
D18*
X218240000Y-95580000D03*
D21*
X221400000Y-95620000D03*
X208700000Y-93080000D03*
D20*
X220200000Y-90500000D03*
D18*
X219510000Y-93040000D03*
D19*
X215700000Y-90500000D03*
D18*
X213160000Y-95580000D03*
D17*
X213300000Y-84125000D03*
X213300000Y-85875000D03*
X218100000Y-84125000D03*
X218100000Y-85875000D03*
D22*
X182680000Y-85600000D03*
D18*
X173790000Y-88140001D03*
D22*
X172520000Y-85600000D03*
D20*
X173100000Y-85600000D03*
D18*
X180140000Y-90680000D03*
D21*
X183300000Y-90720000D03*
X170600000Y-88180000D03*
D20*
X182100000Y-85600000D03*
D18*
X181410000Y-88140000D03*
D19*
X177600000Y-85600000D03*
D18*
X175060000Y-90680000D03*
D17*
X175200000Y-79225000D03*
X175200000Y-80975000D03*
X180000000Y-79225000D03*
X180000000Y-80975000D03*
D22*
X163680000Y-83190000D03*
D18*
X154790000Y-85730001D03*
D22*
X153520000Y-83190000D03*
D20*
X154100000Y-83190000D03*
D18*
X161140000Y-88270000D03*
D21*
X164300000Y-88310000D03*
X151600000Y-85770000D03*
D20*
X163100000Y-83190000D03*
D18*
X162410000Y-85730000D03*
D19*
X158600000Y-83190000D03*
D18*
X156060000Y-88270000D03*
D17*
X156200000Y-76815000D03*
X156200000Y-78565000D03*
X161000000Y-76815000D03*
X161000000Y-78565000D03*
D22*
X144580000Y-85600000D03*
D18*
X135690000Y-88140001D03*
D22*
X134420000Y-85600000D03*
D20*
X135000000Y-85600000D03*
D18*
X142040000Y-90680000D03*
D21*
X145200000Y-90720000D03*
X132500000Y-88180000D03*
D20*
X144000000Y-85600000D03*
D18*
X143310000Y-88140000D03*
D19*
X139500000Y-85600000D03*
D18*
X136960000Y-90680000D03*
D17*
X137100000Y-79225000D03*
X137100000Y-80975000D03*
X141900000Y-79225000D03*
X141900000Y-80975000D03*
D22*
X125580000Y-88100000D03*
D18*
X116690000Y-90640001D03*
D22*
X115420000Y-88100000D03*
D20*
X116000000Y-88100000D03*
D18*
X123040000Y-93180000D03*
D21*
X126200000Y-93220000D03*
X113500000Y-90680000D03*
D20*
X125000000Y-88100000D03*
D18*
X124310000Y-90640000D03*
D19*
X120500000Y-88100000D03*
D18*
X117960000Y-93180000D03*
D17*
X118100000Y-81725000D03*
X118100000Y-83475000D03*
X122900000Y-81725000D03*
X122900000Y-83475000D03*
D22*
X182680000Y-66500000D03*
D18*
X173790000Y-69040001D03*
D22*
X172520000Y-66500000D03*
D20*
X173100000Y-66500000D03*
D18*
X180140000Y-71580000D03*
D21*
X183300000Y-71620000D03*
X170600000Y-69080000D03*
D20*
X182100000Y-66500000D03*
D18*
X181410000Y-69040000D03*
D19*
X177600000Y-66500000D03*
D18*
X175060000Y-71580000D03*
D17*
X175200000Y-60125000D03*
X175200000Y-61875000D03*
X180000000Y-60125000D03*
X180000000Y-61875000D03*
D22*
X163680000Y-64090000D03*
D18*
X154790000Y-66630001D03*
D22*
X153520000Y-64090000D03*
D20*
X154100000Y-64090000D03*
D18*
X161140000Y-69170000D03*
D21*
X164300000Y-69210000D03*
X151600000Y-66670000D03*
D20*
X163100000Y-64090000D03*
D18*
X162410000Y-66630000D03*
D19*
X158600000Y-64090000D03*
D18*
X156060000Y-69170000D03*
D17*
X156200000Y-57715000D03*
X156200000Y-59465000D03*
X161000000Y-57715000D03*
X161000000Y-59465000D03*
D22*
X144580000Y-66600000D03*
D18*
X135690000Y-69140001D03*
D22*
X134420000Y-66600000D03*
D20*
X135000000Y-66600000D03*
D18*
X142040000Y-71680000D03*
D21*
X145200000Y-71720000D03*
X132500000Y-69180000D03*
D20*
X144000000Y-66600000D03*
D18*
X143310000Y-69140000D03*
D19*
X139500000Y-66600000D03*
D18*
X136960000Y-71680000D03*
D17*
X137100000Y-60225000D03*
X137100000Y-61975000D03*
X141900000Y-60225000D03*
X141900000Y-61975000D03*
D22*
X125580000Y-69100000D03*
D18*
X116690000Y-71640001D03*
D22*
X115420000Y-69100000D03*
D20*
X116000000Y-69100000D03*
D18*
X123040000Y-74180000D03*
D21*
X126200000Y-74220000D03*
X113500000Y-71680000D03*
D20*
X125000000Y-69100000D03*
D18*
X124310000Y-71640000D03*
D19*
X120500000Y-69100000D03*
D18*
X117960000Y-74180000D03*
D17*
X118100000Y-62725000D03*
X118100000Y-64475000D03*
X122900000Y-62725000D03*
X122900000Y-64475000D03*
D22*
X201780000Y-52400000D03*
D18*
X192890000Y-54940001D03*
D22*
X191620000Y-52400000D03*
D20*
X192200000Y-52400000D03*
D18*
X199240000Y-57480000D03*
D21*
X202400000Y-57520000D03*
X189700000Y-54980000D03*
D20*
X201200000Y-52400000D03*
D18*
X200510000Y-54940000D03*
D19*
X196700000Y-52400000D03*
D18*
X194160000Y-57480000D03*
D17*
X194300000Y-46025000D03*
X194300000Y-47775000D03*
X199100000Y-46025000D03*
X199100000Y-47775000D03*
D22*
X182680000Y-47500000D03*
D18*
X173790000Y-50040001D03*
D22*
X172520000Y-47500000D03*
D20*
X173100000Y-47500000D03*
D18*
X180140000Y-52580000D03*
D21*
X183300000Y-52620000D03*
X170600000Y-50080000D03*
D20*
X182100000Y-47500000D03*
D18*
X181410000Y-50040000D03*
D19*
X177600000Y-47500000D03*
D18*
X175060000Y-52580000D03*
D17*
X175200000Y-41125000D03*
X175200000Y-42875000D03*
X180000000Y-41125000D03*
X180000000Y-42875000D03*
D22*
X163680000Y-45000000D03*
D18*
X154790000Y-47540001D03*
D22*
X153520000Y-45000000D03*
D20*
X154100000Y-45000000D03*
D18*
X161140000Y-50080000D03*
D21*
X164300000Y-50120000D03*
X151600000Y-47580000D03*
D20*
X163100000Y-45000000D03*
D18*
X162410000Y-47540000D03*
D19*
X158600000Y-45000000D03*
D18*
X156060000Y-50080000D03*
D17*
X156200000Y-38625000D03*
X156200000Y-40375000D03*
X161000000Y-38625000D03*
X161000000Y-40375000D03*
D22*
X125580000Y-50000000D03*
D18*
X116690000Y-52540001D03*
D22*
X115420000Y-50000000D03*
D20*
X116000000Y-50000000D03*
D18*
X123040000Y-55080000D03*
D21*
X126200000Y-55120000D03*
X113500000Y-52580000D03*
D20*
X125000000Y-50000000D03*
D18*
X124310000Y-52540000D03*
D19*
X120500000Y-50000000D03*
D18*
X117960000Y-55080000D03*
D17*
X118100000Y-43625000D03*
X118100000Y-45375000D03*
X122900000Y-43625000D03*
X122900000Y-45375000D03*
D15*
X181427000Y-114706600D03*
X178827000Y-114706600D03*
D14*
X176327000Y-114706600D03*
D15*
X185500000Y-96050000D03*
X185500000Y-98650000D03*
D13*
X185500000Y-101150000D03*
D15*
X93478815Y-47505745D03*
X108718815Y-65285745D03*
X93478815Y-57665745D03*
X108718815Y-55125745D03*
X108718815Y-50045745D03*
X93478815Y-67825745D03*
X108718815Y-47505745D03*
X108718815Y-42425745D03*
X93478815Y-62745745D03*
X108718815Y-70365745D03*
X93478815Y-55125745D03*
X93478815Y-44965745D03*
X93478815Y-50045745D03*
X93478815Y-52585745D03*
X93478815Y-65285745D03*
X93478815Y-60205745D03*
X108718815Y-62745745D03*
X108718815Y-60205745D03*
X93478815Y-70365745D03*
X108718815Y-67825745D03*
X108718815Y-44965745D03*
X93478815Y-42425745D03*
X108718815Y-57665745D03*
X108718815Y-52585745D03*
X92180000Y-41230000D03*
X92180000Y-43770000D03*
X92180000Y-46310000D03*
X92180000Y-48850000D03*
X92180000Y-51390000D03*
X92180000Y-53930000D03*
X92180000Y-56470000D03*
X92180000Y-59010000D03*
X92180000Y-61550000D03*
X92180000Y-64090000D03*
X92180000Y-66630000D03*
X92180000Y-69170000D03*
X107420000Y-69170000D03*
X107420000Y-66630000D03*
X107420000Y-64090000D03*
X107420000Y-61550000D03*
X107420000Y-59010000D03*
X107420000Y-56470000D03*
X107420000Y-53930000D03*
X107420000Y-51390000D03*
X107420000Y-48850000D03*
X107420000Y-46310000D03*
X107420000Y-43770000D03*
X107420000Y-41230000D03*
D29*
X107000000Y-93500000D03*
X91500000Y-93500000D03*
D30*
X104320000Y-74600000D03*
X101780000Y-74600000D03*
X99240000Y-74600000D03*
X96700000Y-74600000D03*
D31*
X94000000Y-74499620D03*
X94000000Y-75500380D03*
D32*
X90000000Y-80750000D03*
X90000000Y-74250000D03*
D33*
X96700000Y-68799620D03*
X96700000Y-69800380D03*
X99200000Y-68799620D03*
X99200000Y-69800380D03*
X101700000Y-68799620D03*
X101700000Y-69800380D03*
X104300000Y-68799620D03*
X104300000Y-69800380D03*
D30*
X100579272Y-80311965D03*
X95499272Y-80311965D03*
X100579272Y-78061965D03*
X95499272Y-78061965D03*
X102700000Y-78100000D03*
X102700000Y-80300000D03*
D34*
X206000000Y-100000000D03*
X130000000Y-97500000D03*
X130000000Y-57000000D03*
D32*
X107000000Y-107000000D03*
X107000000Y-102000000D03*
D35*
X100000000Y-110100000D03*
X100000000Y-98900000D03*
D32*
X92500000Y-107000000D03*
X92500000Y-104500000D03*
X92500000Y-102000000D03*
D34*
X103000000Y-119000000D03*
X206000000Y-61500000D03*
D36*
X96500000Y-87400000D03*
X89500000Y-87400000D03*
D37*
X98300000Y-89500000D03*
X99800000Y-85300000D03*
X91300000Y-89500000D03*
X94300000Y-89500000D03*
D36*
X89500000Y-85650000D03*
X96500000Y-85650000D03*
D37*
X91300000Y-83550000D03*
X94300000Y-83550000D03*
X98300000Y-83550000D03*
X99800000Y-87750000D03*
M02*
