G04 #@! TF.GenerationSoftware,KiCad,Pcbnew,8.0.4*
G04 #@! TF.CreationDate,2024-08-04T16:07:20+05:30*
G04 #@! TF.ProjectId,SofleKeyboard,536f666c-654b-4657-9962-6f6172642e6b,rev?*
G04 #@! TF.SameCoordinates,Original*
G04 #@! TF.FileFunction,Paste,Bot*
G04 #@! TF.FilePolarity,Positive*
%FSLAX46Y46*%
G04 Gerber Fmt 4.6, Leading zero omitted, Abs format (unit mm)*
G04 Created by KiCad (PCBNEW 8.0.4) date 2024-08-04 16:07:20*
%MOMM*%
%LPD*%
G01*
G04 APERTURE LIST*
G04 Aperture macros list*
%AMRotRect*
0 Rectangle, with rotation*
0 The origin of the aperture is its center*
0 $1 length*
0 $2 width*
0 $3 Rotation angle, in degrees counterclockwise*
0 Add horizontal line*
21,1,$1,$2,0,0,$3*%
G04 Aperture macros list end*
%ADD10R,2.000000X1.000000*%
%ADD11R,1.600000X1.000000*%
%ADD12R,2.300000X2.000000*%
%ADD13R,1.300000X0.950000*%
%ADD14R,0.950000X1.300000*%
%ADD15RotRect,2.300000X2.000000X15.000000*%
%ADD16RotRect,1.600000X1.000000X195.000000*%
%ADD17RotRect,2.300000X2.000000X300.000000*%
%ADD18RotRect,1.600000X1.000000X120.000000*%
%ADD19R,1.143000X0.635000*%
G04 APERTURE END LIST*
D10*
X106650000Y-123255000D03*
X106650000Y-125005000D03*
X111050000Y-125005000D03*
X111050000Y-123255000D03*
X122700000Y-60375000D03*
X122700000Y-58625000D03*
X118300000Y-58625000D03*
X118300000Y-60375000D03*
X156300000Y-52915000D03*
X156300000Y-54665000D03*
X160700000Y-54665000D03*
X160700000Y-52915000D03*
X199700000Y-62125000D03*
X199700000Y-60375000D03*
X195300000Y-60375000D03*
X195300000Y-62125000D03*
X146883600Y-117387600D03*
X146883600Y-119137600D03*
X151283600Y-119137600D03*
X151283600Y-117387600D03*
X182850000Y-119445000D03*
X182850000Y-121195000D03*
X187250000Y-121195000D03*
X187250000Y-119445000D03*
X103550000Y-85625000D03*
X103550000Y-87375000D03*
X107950000Y-87375000D03*
X107950000Y-85625000D03*
D11*
X218200000Y-46025000D03*
X218200000Y-47775000D03*
X213400000Y-47775000D03*
X213400000Y-46025000D03*
D12*
X210100000Y-57520000D03*
X222800000Y-54980000D03*
X165600000Y-104770000D03*
X152900000Y-107310000D03*
D11*
X156200000Y-95815000D03*
X156200000Y-97565000D03*
X161000000Y-97565000D03*
X161000000Y-95815000D03*
D12*
X203700000Y-112080000D03*
X191000000Y-114620000D03*
D11*
X194300000Y-103125000D03*
X194300000Y-104875000D03*
X199100000Y-104875000D03*
X199100000Y-103125000D03*
D12*
X222700000Y-73880000D03*
X210000000Y-76420000D03*
D11*
X213300000Y-64925000D03*
X213300000Y-66675000D03*
X218100000Y-66675000D03*
X218100000Y-64925000D03*
D12*
X203700000Y-73880000D03*
X191000000Y-76420000D03*
D11*
X194300000Y-64925000D03*
X194300000Y-66675000D03*
X199100000Y-66675000D03*
X199100000Y-64925000D03*
D12*
X203700000Y-93080000D03*
X191000000Y-95620000D03*
D11*
X194300000Y-84125000D03*
X194300000Y-85875000D03*
X199100000Y-85875000D03*
X199100000Y-84125000D03*
D12*
X146500000Y-50080000D03*
X133800000Y-52620000D03*
D11*
X137100000Y-41125000D03*
X137100000Y-42875000D03*
X141900000Y-42875000D03*
X141900000Y-41125000D03*
D13*
X127580000Y-119020000D03*
X124030000Y-119020000D03*
X124000000Y-121600000D03*
X127550000Y-121600000D03*
X127550000Y-124200000D03*
X124000000Y-124200000D03*
X112199800Y-120624800D03*
X108649800Y-120624800D03*
X102575000Y-123600000D03*
X99025000Y-123600000D03*
X108775000Y-97000000D03*
X105225000Y-97000000D03*
D14*
X208200000Y-106950000D03*
X208200000Y-103400000D03*
X188500000Y-108525000D03*
X188500000Y-104975000D03*
X169250000Y-103925000D03*
X169250000Y-100375000D03*
X150000000Y-100340000D03*
X150000000Y-96790000D03*
X131000000Y-104950000D03*
X131000000Y-101400000D03*
X112000000Y-104525000D03*
X112000000Y-100975000D03*
X207750000Y-88050000D03*
X207750000Y-84500000D03*
X188500000Y-90550000D03*
X188500000Y-87000000D03*
X169725000Y-85200000D03*
X169725000Y-81650000D03*
X149750000Y-83340000D03*
X149750000Y-79790000D03*
X131250000Y-85450000D03*
X131250000Y-81900000D03*
X128500000Y-85550000D03*
X128500000Y-82000000D03*
X207750000Y-69050000D03*
X207750000Y-65500000D03*
X188250000Y-68550000D03*
X188250000Y-65000000D03*
X169500000Y-65425000D03*
X169500000Y-61875000D03*
X150250000Y-62840000D03*
X150250000Y-59290000D03*
X129800000Y-65575000D03*
X129800000Y-62025000D03*
X126800000Y-65550000D03*
X126800000Y-62000000D03*
X207750000Y-51800000D03*
X207750000Y-48250000D03*
X188000000Y-52025000D03*
X188000000Y-48475000D03*
X169250000Y-47200000D03*
X169250000Y-43650000D03*
X150500000Y-44815000D03*
X150500000Y-41265000D03*
X131000000Y-47555500D03*
X131000000Y-44005500D03*
X128750000Y-47550000D03*
X128750000Y-44000000D03*
D12*
X184600000Y-126380000D03*
X171900000Y-128920000D03*
D11*
X175200000Y-117425000D03*
X175200000Y-119175000D03*
X180000000Y-119175000D03*
X180000000Y-117425000D03*
D12*
X165600000Y-123870000D03*
X152900000Y-126410000D03*
D11*
X156200000Y-114915000D03*
X156200000Y-116665000D03*
X161000000Y-116665000D03*
X161000000Y-114915000D03*
D12*
X146500000Y-126280000D03*
X133800000Y-128820000D03*
D11*
X137100000Y-117325000D03*
X137100000Y-119075000D03*
X141900000Y-119075000D03*
X141900000Y-117325000D03*
D15*
X125029234Y-129080355D03*
X113419376Y-134820809D03*
D16*
X113631807Y-122863389D03*
X114084740Y-124553759D03*
X118721184Y-123311427D03*
X118268251Y-121621057D03*
D17*
X97975654Y-140752178D03*
X89425950Y-131023655D03*
D18*
X101030912Y-128134039D03*
X99515367Y-129009039D03*
X101915367Y-133165961D03*
X103430912Y-132290961D03*
D12*
X222750000Y-112080000D03*
X210050000Y-114620000D03*
D11*
X213350000Y-103125000D03*
X213350000Y-104875000D03*
X218150000Y-104875000D03*
X218150000Y-103125000D03*
D12*
X184600000Y-107280000D03*
X171900000Y-109820000D03*
D11*
X175200000Y-98325000D03*
X175200000Y-100075000D03*
X180000000Y-100075000D03*
X180000000Y-98325000D03*
D12*
X146500000Y-107280000D03*
X133800000Y-109820000D03*
D11*
X137100000Y-98325000D03*
X137100000Y-100075000D03*
X141900000Y-100075000D03*
X141900000Y-98325000D03*
D12*
X127500000Y-109680000D03*
X114800000Y-112220000D03*
D11*
X118100000Y-100725000D03*
X118100000Y-102475000D03*
X122900000Y-102475000D03*
X122900000Y-100725000D03*
D12*
X222700000Y-93080000D03*
X210000000Y-95620000D03*
D11*
X213300000Y-84125000D03*
X213300000Y-85875000D03*
X218100000Y-85875000D03*
X218100000Y-84125000D03*
D12*
X184600000Y-88180000D03*
X171900000Y-90720000D03*
D11*
X175200000Y-79225000D03*
X175200000Y-80975000D03*
X180000000Y-80975000D03*
X180000000Y-79225000D03*
D12*
X165600000Y-85770000D03*
X152900000Y-88310000D03*
D11*
X156200000Y-76815000D03*
X156200000Y-78565000D03*
X161000000Y-78565000D03*
X161000000Y-76815000D03*
D12*
X146500000Y-88180000D03*
X133800000Y-90720000D03*
D11*
X137100000Y-79225000D03*
X137100000Y-80975000D03*
X141900000Y-80975000D03*
X141900000Y-79225000D03*
D12*
X127500000Y-90680000D03*
X114800000Y-93220000D03*
D11*
X118100000Y-81725000D03*
X118100000Y-83475000D03*
X122900000Y-83475000D03*
X122900000Y-81725000D03*
D12*
X184600000Y-69080000D03*
X171900000Y-71620000D03*
D11*
X175200000Y-60125000D03*
X175200000Y-61875000D03*
X180000000Y-61875000D03*
X180000000Y-60125000D03*
D12*
X165600000Y-66670000D03*
X152900000Y-69210000D03*
D11*
X156200000Y-57715000D03*
X156200000Y-59465000D03*
X161000000Y-59465000D03*
X161000000Y-57715000D03*
D12*
X146500000Y-69180000D03*
X133800000Y-71720000D03*
D11*
X137100000Y-60225000D03*
X137100000Y-61975000D03*
X141900000Y-61975000D03*
X141900000Y-60225000D03*
D12*
X127500000Y-71680000D03*
X114800000Y-74220000D03*
D11*
X118100000Y-62725000D03*
X118100000Y-64475000D03*
X122900000Y-64475000D03*
X122900000Y-62725000D03*
D12*
X203700000Y-54980000D03*
X191000000Y-57520000D03*
D11*
X194300000Y-46025000D03*
X194300000Y-47775000D03*
X199100000Y-47775000D03*
X199100000Y-46025000D03*
D12*
X184600000Y-50080000D03*
X171900000Y-52620000D03*
D11*
X175200000Y-41125000D03*
X175200000Y-42875000D03*
X180000000Y-42875000D03*
X180000000Y-41125000D03*
D12*
X165600000Y-47580000D03*
X152900000Y-50120000D03*
D11*
X156200000Y-38625000D03*
X156200000Y-40375000D03*
X161000000Y-40375000D03*
X161000000Y-38625000D03*
D12*
X127500000Y-52580000D03*
X114800000Y-55120000D03*
D11*
X118100000Y-43625000D03*
X118100000Y-45375000D03*
X122900000Y-45375000D03*
X122900000Y-43625000D03*
D19*
X96700000Y-68799620D03*
X96700000Y-69800380D03*
X99200000Y-68799620D03*
X99200000Y-69800380D03*
X101700000Y-68799620D03*
X101700000Y-69800380D03*
X104300000Y-68799620D03*
X104300000Y-69800380D03*
M02*
